<svg width="195" height="195" viewBox="0 0 195 195" fill="none" xmlns="http://www.w3.org/2000/svg">
<path d="M78.8792 91.214C70.898 91.396 62.9317 92.5889 55.2313 94.7583L55.1868 94.7708C53.6705 95.198 52.095 94.3151 51.6678 92.7988C51.5055 92.2225 51.5322 91.6388 51.7112 91.1117C56.4851 76.9927 62.6033 63.3403 69.9271 50.3685L71.0667 48.3593L71.637 47.3545L72.2324 46.3639L74.615 42.4003C76.2687 39.7973 77.8909 37.1722 79.6354 34.6273C81.3259 32.0465 83.1371 29.5487 84.9119 27.0295L87.6631 23.3165L88.3495 22.3881L89.0586 21.4772L90.4746 19.6552C91.9432 17.7197 93.5031 15.8569 95.0381 13.9741C95.797 13.0254 96.6007 12.1143 97.3921 11.1929L99.7712 8.43286C100.657 7.40544 102.208 7.29047 103.235 8.17608C103.343 8.26882 103.44 8.3689 103.528 8.47482L103.566 8.52213L103.97 9.0184C104.347 9.4811 104.528 10.039 104.524 10.5924L104.524 10.6107C104.469 18.4589 104.81 26.3077 105.543 34.1175L101.489 32.2605C120.495 18.5553 143.333 10.2512 166.752 8.57123C168.299 8.46031 169.643 9.62415 169.754 11.1708C169.839 12.3607 169.17 13.4306 168.152 13.9113L168.126 13.9227C155.203 19.9881 143.149 27.9012 132.108 37.0137C121.066 46.1382 111.012 56.4728 102.098 67.6982L99.6199 70.8606L97.0126 65.9855C111.323 65.0515 125.793 66.7146 139.529 70.877C141.157 71.3702 142.076 73.0894 141.583 74.717C141.329 75.5562 140.749 76.2072 140.023 76.5733L140.004 76.5831C130.821 81.1761 122.089 86.7405 113.781 92.8874C105.473 99.0422 97.5839 105.791 90.0933 112.961C82.6066 120.137 75.5261 127.748 68.8706 135.706C62.2207 143.668 55.9944 151.987 50.3388 160.656L47.3257 155.903C50.8309 155.455 54.1327 155.493 57.4036 155.592C60.6692 155.705 63.8851 155.927 67.0882 156.167C68.789 156.294 70.0646 157.776 69.9374 159.476C69.8604 160.507 69.2864 161.381 68.4677 161.882L68.4489 161.893C61.8358 165.879 55.2553 169.853 48.8841 174.082C42.5058 178.304 36.2843 182.801 30.0867 187.381L30.0714 187.392C28.7106 188.398 26.7923 188.11 25.7867 186.749C25.4019 186.229 25.2069 185.627 25.1884 185.026L25.0997 182.239C24.7619 170.04 25.4127 157.709 26.7802 145.755C27.0767 143.11 27.432 140.691 27.7866 138.528L27.8222 138.31C28.034 137.019 29.2528 136.143 30.5445 136.355C31.4772 136.508 32.193 137.188 32.4392 138.04C34.4471 145.03 36.3889 149.668 37.6193 153.037C38.1984 154.622 38.3712 155.508 38.1133 155.746C37.8621 155.98 37.1845 155.57 36.1584 154.504C35.1398 153.436 33.7553 151.707 32.2572 149.228C30.757 146.754 29.1857 143.522 27.7689 139.634L32.6861 139.118C32.6837 139.145 32.6805 139.179 32.6774 139.214C31.6808 149.329 30.9408 160.408 30.7529 170.911C30.6693 175.551 30.6974 180.193 30.8362 184.816L26.7237 182.839C32.9888 178.265 39.3151 173.731 45.828 169.447C52.3369 165.154 58.9867 161.151 65.6013 157.164L66.6723 161.671C63.5054 161.434 60.3447 161.219 57.2156 161.115C54.0957 161.019 50.971 161.013 48.0745 161.396L48.064 161.397C46.7233 161.574 45.4929 160.631 45.3158 159.29C45.2364 158.689 45.3844 158.107 45.6905 157.635C51.8098 148.223 58.5299 139.238 65.7126 130.647C72.9005 122.059 80.5577 113.864 88.6808 106.131C89.9167 104.968 91.1401 103.778 92.401 102.619C93.6787 101.479 94.9607 100.334 96.2449 99.1871L98.1743 97.4666L100.162 95.8078C101.489 94.7037 102.817 93.5997 104.142 92.4974C109.564 88.2353 115.063 84.1163 120.73 80.6436C126.07 77.2095 131.69 74.1946 137.383 71.3045L137.816 76.5157C124.818 72.4429 111.016 70.8013 97.3763 71.6679L97.3555 71.6692C95.8959 71.762 94.6376 70.654 94.5448 69.1945C94.5023 68.5253 94.715 67.8948 95.0954 67.4032C98.4532 63.0759 101.921 58.8322 105.575 54.7505C106.473 53.7167 107.427 52.7321 108.35 51.7208C109.279 50.7144 110.205 49.7055 111.173 48.7365L114.046 45.7997L116.999 42.9423C117.494 42.4689 117.979 41.9854 118.481 41.5205L119.999 40.1351C121.015 39.2174 122.011 38.2762 123.046 37.379C125.123 35.5932 127.182 33.786 129.333 32.0886C131.44 30.3382 133.646 28.7111 135.824 27.052C136.924 26.2367 138.053 25.4589 139.166 24.6618L140.841 23.4739L142.552 22.3374C149.97 17.3839 157.754 12.935 165.91 9.14535L167.111 13.8252C145.295 15.2678 123.836 22.8182 105.807 35.2484L104.346 36.2486L104.298 36.2814C103.235 37.0089 101.784 36.7369 101.056 35.6741C100.823 35.3335 100.692 34.9429 100.657 34.5592C99.9625 26.5782 99.6699 18.5642 99.7797 10.5625L100.281 12.0029L99.8805 11.5039L103.312 11.5846C82.3282 34.987 66.1824 62.7448 56.2232 92.5972L53.906 90.1967C63.8076 87.3605 74.1389 86.0779 84.4179 86.4027C85.3962 86.4333 86.1646 87.2511 86.1339 88.2295C86.1181 88.7355 85.8867 89.1898 85.5364 89.5019C81.8719 92.7415 78.3357 96.1293 74.9597 99.6783C71.2042 103.671 67.6765 107.77 64.3549 111.918C61.0496 116.081 57.9933 120.319 55.1091 124.547C52.248 128.791 49.6345 133.069 47.173 137.301C46.5808 138.373 45.9923 139.437 45.4079 140.494C45.1188 141.024 44.81 141.544 44.5376 142.078C44.2613 142.612 43.9861 143.143 43.7118 143.672C43.1699 144.735 42.5931 145.775 42.0814 146.835C41.5656 147.895 41.0536 148.947 40.5456 149.991C40.06 150.946 39.6864 151.793 39.3247 152.494C38.9689 153.197 38.6548 153.765 38.3859 154.197C37.8482 155.061 37.4915 155.385 37.3457 155.167C37.1999 154.948 37.2651 154.187 37.5711 152.882C37.724 152.229 37.9371 151.441 38.2139 150.518C38.4971 149.598 38.8916 148.562 39.3344 147.385C44.4415 134.088 51.8729 120.969 60.8427 109.098C64.0069 104.963 67.384 100.911 70.9915 97.0347C74.6178 93.1759 78.4373 89.4663 82.4179 85.9508L84.2859 91.1269C82.5115 91.0824 80.7448 91.0744 78.982 91.1242C78.9499 91.1546 78.9194 91.1827 78.8792 91.214Z" fill="black"/>
</svg>
