<svg width="195" height="195" viewBox="0 0 195 195" fill="none" xmlns="http://www.w3.org/2000/svg">
<path d="M86.759 146.962L88.127 146.795L89.4991 146.665L92.2428 146.409L94.9921 146.23L96.3664 146.142L97.7427 146.091L100.495 145.994L103.248 145.973L104.624 145.964L106 145.993L108.752 146.053L111.501 146.191L112.875 146.26L114.247 146.368L116.989 146.586L119.725 146.882L121.092 147.03L122.455 147.218L125.181 147.593L127.894 148.047L129.251 148.275L130.601 148.541C134.426 149.247 138.211 150.196 141.97 151.219C145.727 152.257 149.425 153.488 153.088 154.785L156.908 156.24L160.682 157.813L157.585 161.422C152.43 153.415 147.313 145.384 142.249 137.32C137.195 129.249 132.18 121.153 127.228 113.018C117.329 96.7464 107.65 80.3372 98.2366 63.7712C94.8829 57.872 91.5632 51.9533 88.2665 46.0207L83.3491 37.106L78.4763 28.165L84.1925 27.457C81.9245 36.346 79.5721 45.2141 77.1198 54.0551C74.6474 62.8905 72.0983 71.7048 69.4401 80.4868C66.7669 89.264 64.0246 98.0207 61.1642 106.739C58.2939 115.454 55.3618 124.149 52.303 132.799C51.0481 136.378 49.6974 139.943 48.3408 143.492C46.9489 147.029 45.567 150.556 44.1428 154.021C41.4403 160.669 39.0725 164.733 37.1489 167.07C34.3367 170.465 34.4767 165.991 37.7365 156.396C38.752 153.353 39.8929 150.199 41.0283 147.014C42.176 143.833 43.3716 140.642 44.5182 137.532C49.8471 123.229 54.8078 108.813 59.3663 94.2814C63.9293 79.7512 68.1432 65.1219 71.9456 50.3837C74.0625 42.2786 76.0433 33.7913 78.2603 25.9479L78.2994 25.8095C78.7506 24.2133 80.4103 23.2851 82.0065 23.7363C82.8377 23.9713 83.4927 24.5435 83.8612 25.2543L83.8936 25.3174C95.7753 48.5955 109.059 71.3078 122.133 93.9803C131.851 110.833 142.071 127.511 152.335 144.086L156.941 151.492C158.485 153.954 160.029 156.416 161.572 158.878C162.233 159.931 161.915 161.32 160.861 161.981C160.215 162.386 159.443 162.423 158.79 162.148L158.773 162.14L156.32 161.087L155.093 160.561L153.85 160.073L151.363 159.099L148.847 158.2L147.588 157.754L146.316 157.343L143.772 156.526L141.204 155.783C140.775 155.661 140.349 155.53 139.918 155.416L138.623 155.083C135.18 154.153 131.681 153.446 128.174 152.792C126.412 152.513 124.656 152.187 122.884 151.975C121.999 151.861 121.116 151.727 120.229 151.63L117.565 151.352C103.35 149.99 88.8993 150.807 74.9183 153.865C71.5627 154.569 68.2939 155.429 65.0867 156.296C61.8967 157.221 58.7625 158.148 55.7379 159.197C49.6721 161.25 43.9409 163.497 38.5842 165.829C36.1359 166.926 34.8103 167.161 34.763 166.696C34.7396 166.464 35.0369 166.056 35.6746 165.494C35.9934 165.212 36.3974 164.892 36.8885 164.537C37.3786 164.179 37.9557 163.785 38.6388 163.39C46.2824 158.738 54.918 154.856 63.8313 151.971C64.7494 151.681 65.6769 151.411 66.6053 151.133L68.0019 150.724L69.4135 150.356C70.3569 150.116 71.2992 149.862 72.2504 149.639C73.2042 149.428 74.1594 149.216 75.1155 149.004C78.9509 148.213 82.8249 147.533 86.7013 147.058C86.7191 147.026 86.736 146.996 86.759 146.962Z" fill="black"/>
</svg>
