<svg width="195" height="195" viewBox="0 0 195 195" fill="none" xmlns="http://www.w3.org/2000/svg">
<path d="M85.0654 83.8986C83.4686 74.0975 82.2145 65.5365 80.613 55.7066C80.5486 55.3115 80.4603 54.8734 80.7026 54.5439C80.9202 54.2481 81.3243 54.1358 81.6984 54.0527C85.4981 53.2086 101.667 53.2417 107.703 53.1297C108.343 53.1178 109.025 53.1166 109.563 53.4387C110.506 54.0027 110.572 55.2413 110.535 56.2853C110.204 65.6434 109.732 74.0792 109.027 84.1197C111.977 84.0033 113.529 84.1697 116.847 84.6417C116.954 84.6568 116.984 84.7937 116.916 84.8715C110.438 92.3213 104.582 98.3762 99.026 107.256C98.7476 107.701 98.0708 107.732 97.7424 107.317C91.4011 99.3148 85.4841 93.0046 78.2298 85.6926C77.9001 85.3603 78.0779 84.8184 78.5508 84.716C80.7113 84.2486 82.2931 84.0099 84.9001 84.0099" fill="black"/>
<path d="M89.7176 93.2664C91.5391 95.3641 93.3251 97.4971 95.0693 99.6635C95.9399 100.748 96.8019 101.839 97.6528 102.938L98.9214 104.592L99.5506 105.423L99.708 105.631L99.7473 105.682L99.767 105.708L99.7256 105.658C99.6571 105.58 99.5817 105.508 99.5015 105.441C99.1714 105.178 98.7946 105.052 98.443 105.042C98.0724 105.031 97.6827 105.132 97.3239 105.4C97.1454 105.533 96.985 105.706 96.8697 105.898L97.0212 105.675L97.6489 104.744C98.0611 104.119 98.5032 103.514 98.9265 102.897L100.229 101.07C100.668 100.467 101.107 99.8643 101.545 99.2622C104.45 95.2704 107.62 91.5243 110.763 87.8614L113.112 85.1198L114.277 83.7513L114.567 83.4091L114.712 83.2381L114.785 83.1525L114.821 83.1098L114.839 83.0883L114.848 83.0776C114.858 83.0662 114.848 83.0772 114.81 83.122L114.73 83.2233C114.314 83.7862 114.164 84.424 114.227 85.0452C114.261 85.3616 114.349 85.6799 114.527 86.011C114.703 86.3391 114.978 86.6682 115.341 86.9171C115.521 87.0428 115.717 87.1433 115.915 87.2172C116.017 87.2551 116.114 87.2844 116.208 87.3078L116.353 87.3389C116.385 87.3457 116.487 87.3602 116.459 87.3562L116.404 87.3493L116.293 87.3352L115.85 87.2796C114.672 87.1343 113.531 87.0022 112.45 86.9466C111.369 86.8883 110.287 86.9098 109.14 86.9709C107.585 87.0534 106.258 85.8603 106.176 84.3061C106.17 84.2029 106.17 84.1008 106.176 83.9998L106.181 83.9199C106.513 78.0588 106.815 72.2037 107.073 66.3495L107.356 59.2162L107.417 57.4323L107.447 56.5403L107.46 56.1139C107.464 55.9979 107.464 55.8978 107.462 55.8087C107.458 55.6312 107.442 55.4985 107.432 55.4566C107.423 55.4132 107.421 55.475 107.514 55.6319C107.603 55.7853 107.816 56.0086 108.018 56.1118C108.234 56.2293 108.347 56.2297 108.297 56.2257L101.523 56.3047L94.3818 56.4114C92.0097 56.4603 89.6396 56.5218 87.307 56.6342C86.1395 56.6877 84.9885 56.7652 83.887 56.8663L83.0999 56.9567C82.9566 56.9693 82.8707 56.9923 82.7602 57.0097L82.4431 57.0622C82.3269 57.0775 82.2511 57.1039 82.269 57.0973C82.2815 57.0908 82.3865 57.0673 82.5975 56.9369C82.813 56.8074 83.1438 56.5237 83.371 56.0987C83.5962 55.6807 83.6323 55.2977 83.6352 55.1433C83.6364 54.9705 83.6225 54.9588 83.6372 55.0401L83.7032 55.4571L83.8418 56.3428L84.119 58.1142L84.673 61.6567L85.781 68.7419C86.228 71.5916 86.4652 74.5037 86.6916 77.3533C86.9059 80.0825 86.4559 81.9449 85.6771 83.181C84.5423 84.9808 82.8128 83.6339 81.8593 79.8676C81.2548 77.4847 80.8373 74.841 80.5265 72.3262C80.1672 69.4311 79.7799 66.5428 79.365 63.6608L78.7222 59.3423L78.3855 57.1863L78.2133 56.1092C78.1901 55.9544 78.1339 55.6956 78.1117 55.2841C78.1028 55.0753 78.1047 54.8232 78.1515 54.5231C78.1977 54.2251 78.2961 53.8741 78.4713 53.5334C78.8268 52.825 79.4267 52.3566 79.8703 52.1242C80.3264 51.8822 80.6757 51.7903 80.9449 51.7185C81.2092 51.6486 81.3984 51.624 81.6258 51.5791C81.8413 51.541 82.0713 51.4951 82.2754 51.4656L83.4556 51.3167L84.5926 51.2064C86.0936 51.0771 87.5708 50.9732 89.0395 50.8865L97.8153 50.3902C101.03 50.2069 104.386 49.9593 107.472 50.1053C107.762 50.1219 108.157 50.123 108.665 50.1739C109.168 50.2285 109.815 50.3274 110.55 50.6648C111.291 50.9994 111.991 51.597 112.44 52.2736C112.899 52.9513 113.099 53.6138 113.213 54.172C113.323 54.7349 113.347 55.222 113.346 55.6509C113.345 55.8642 113.338 56.0704 113.328 56.2587L113.296 56.7502L113.179 58.6284C113.029 61.1334 112.904 63.6417 112.777 66.1504C112.524 71.1676 112.259 76.186 111.798 81.1734C111.705 82.2112 111.612 83.2498 111.519 84.2947L108.928 81.6234C109.761 81.6038 110.615 81.5994 111.483 81.6285C112.35 81.6588 113.226 81.7266 114.068 81.822C114.912 81.9165 115.728 82.0301 116.532 82.1461L117.132 82.2337L117.17 82.2393L117.19 82.2423C117.316 82.2606 117.442 82.2884 117.564 82.3248C118.078 82.4708 118.586 82.8393 118.88 83.2558C119.183 83.6736 119.321 84.1095 119.363 84.5233C119.402 84.9386 119.345 85.3511 119.181 85.7525C119.1 85.9513 118.99 86.1477 118.853 86.3274C118.818 86.3723 118.783 86.4163 118.746 86.459L118.738 86.4681L118.726 86.4824L118.676 86.5389L118.576 86.6522L117.776 87.5583C115.649 89.9432 113.52 92.3295 111.394 94.7124C109.211 97.1674 107.104 99.6523 105.124 102.225C104.143 103.517 103.173 104.818 102.26 106.157C101.791 106.819 101.353 107.501 100.902 108.175L100.818 108.301L100.758 108.392C100.702 108.474 100.644 108.555 100.582 108.632C100.329 108.941 100.01 109.191 99.6702 109.362C98.9854 109.704 98.2466 109.75 97.5448 109.547C97.1938 109.441 96.8512 109.261 96.5546 109.015C96.4047 108.893 96.2721 108.754 96.1504 108.605L96.0468 108.472L95.6701 107.984C91.6648 102.775 87.3862 97.7858 82.9031 92.9456C81.1171 91.0127 79.4213 89.0913 77.8816 87.1577L77.595 86.7949L77.4532 86.6133L77.3729 86.5118C77.3009 86.4263 77.233 86.3427 77.1746 86.2408C76.9306 85.8489 76.8641 85.3269 76.9952 84.9005C77.1175 84.4685 77.4154 84.116 77.7696 83.9174C77.9467 83.8143 78.1338 83.7564 78.3154 83.7231C78.4151 83.7117 78.4753 83.711 78.557 83.7045L79.0165 83.6782C79.3225 83.6627 79.6292 83.6542 79.9339 83.6508C81.157 83.6378 82.3531 83.758 83.4714 84.0044C84.5034 84.2356 84.9671 84.7052 84.8938 85.1279C84.8223 85.5587 84.2112 85.9384 83.131 86.1416C82.3652 86.2884 81.6245 86.4649 80.8689 86.6755C80.4858 86.7877 80.101 86.9004 79.715 87.0137L79.1215 87.1956C79.118 87.1975 79.0768 87.2072 79.104 87.203C79.14 87.1967 79.1758 87.1891 79.2113 87.1801C79.2805 87.1615 79.352 87.1384 79.4285 87.1101C79.5737 87.0524 79.7247 86.9718 79.8653 86.869C80.1468 86.6627 80.3855 86.3668 80.5274 86.0143C80.6707 85.6639 80.7173 85.2469 80.6331 84.8399C80.5572 84.4359 80.3305 84.055 80.1109 83.8301L80.6055 84.2629L81.5913 85.1374C82.2449 85.727 82.8966 86.32 83.5387 86.924C85.6548 88.9049 87.6393 91.1329 89.6353 93.3065C89.6619 93.2935 89.6869 93.2814 89.7176 93.2664Z" fill="black"/>
<path d="M146.716 109.987C156.517 108.39 165.078 107.136 174.908 105.535C175.303 105.47 175.741 105.382 176.07 105.624C176.366 105.842 176.479 106.246 176.562 106.62C177.406 110.42 177.373 126.589 177.485 132.625C177.497 133.264 177.498 133.947 177.176 134.485C176.612 135.427 175.373 135.494 174.329 135.457C164.971 135.125 156.535 134.653 146.495 133.949C146.611 136.899 146.445 138.451 145.973 141.769C145.958 141.875 145.821 141.906 145.743 141.838C138.293 135.359 132.238 129.503 123.358 123.948C122.913 123.669 122.883 122.992 123.297 122.664C131.3 116.323 137.61 110.406 144.922 103.151C145.254 102.822 145.796 103 145.898 103.472C146.366 105.633 146.605 107.215 146.605 109.822" fill="black"/>
<path d="M137.348 114.639C135.25 116.461 133.117 118.247 130.951 119.991C129.867 120.862 128.776 121.723 127.676 122.574L126.022 123.843L125.192 124.472L124.984 124.63L124.932 124.669L124.906 124.689L124.957 124.647C125.035 124.579 125.106 124.503 125.173 124.423C125.437 124.093 125.563 123.716 125.572 123.365C125.584 122.994 125.483 122.604 125.215 122.246C125.081 122.067 124.909 121.907 124.716 121.791L124.94 121.943L125.871 122.571C126.496 122.983 127.101 123.425 127.718 123.848L129.544 125.15C130.147 125.59 130.75 126.029 131.352 126.467C135.344 129.372 139.09 132.542 142.753 135.684L145.495 138.034L146.863 139.198L147.205 139.488L147.376 139.634L147.462 139.706L147.505 139.742L147.526 139.761L147.537 139.77C147.548 139.78 147.537 139.769 147.492 139.732L147.391 139.652C146.828 139.236 146.191 139.085 145.569 139.148C145.253 139.183 144.935 139.271 144.603 139.448C144.275 139.625 143.946 139.9 143.697 140.262C143.572 140.443 143.471 140.639 143.397 140.836C143.359 140.939 143.33 141.036 143.307 141.13L143.276 141.274C143.269 141.307 143.254 141.409 143.258 141.381L143.265 141.326L143.279 141.215L143.335 140.772C143.48 139.594 143.612 138.453 143.668 137.371C143.726 136.29 143.705 135.209 143.644 134.061C143.561 132.507 144.754 131.18 146.308 131.097C146.412 131.092 146.514 131.092 146.615 131.097L146.695 131.102C152.556 131.435 158.411 131.737 164.265 131.995L171.398 132.277L173.182 132.339L174.074 132.368L174.501 132.382C174.616 132.385 174.717 132.385 174.806 132.383C174.983 132.38 175.116 132.364 175.158 132.354C175.201 132.345 175.139 132.343 174.982 132.436C174.829 132.524 174.606 132.738 174.503 132.939C174.385 133.155 174.385 133.268 174.389 133.219L174.31 126.444L174.203 119.303C174.154 116.931 174.093 114.561 173.98 112.229C173.927 111.061 173.849 109.91 173.748 108.809L173.658 108.021C173.645 107.878 173.622 107.792 173.605 107.682L173.552 107.365C173.537 107.248 173.511 107.173 173.517 107.191C173.523 107.203 173.547 107.308 173.677 107.519C173.807 107.735 174.091 108.065 174.516 108.293C174.934 108.518 175.317 108.554 175.471 108.557C175.644 108.558 175.656 108.544 175.574 108.559L175.157 108.625L174.272 108.763L172.5 109.04L168.958 109.594L161.873 110.703C159.023 111.15 156.111 111.387 153.261 111.613C150.532 111.827 148.669 111.377 147.433 110.599C145.634 109.464 146.981 107.734 150.747 106.781C153.13 106.176 155.773 105.759 158.288 105.448C161.183 105.089 164.072 104.701 166.954 104.286L171.272 103.644L173.428 103.307L174.505 103.135C174.66 103.112 174.919 103.055 175.331 103.033C175.539 103.024 175.791 103.026 176.092 103.073C176.389 103.119 176.74 103.218 177.081 103.393C177.789 103.748 178.258 104.348 178.49 104.792C178.732 105.248 178.824 105.597 178.896 105.866C178.966 106.131 178.991 106.32 179.035 106.547C179.074 106.763 179.12 106.993 179.149 107.197L179.298 108.377L179.408 109.514C179.537 111.015 179.641 112.492 179.728 113.961L180.224 122.737C180.408 125.951 180.655 129.308 180.509 132.393C180.493 132.684 180.492 133.079 180.441 133.586C180.386 134.089 180.287 134.736 179.95 135.471C179.615 136.213 179.018 136.912 178.341 137.362C177.663 137.821 177.001 138.021 176.443 138.134C175.88 138.244 175.392 138.268 174.964 138.267C174.75 138.266 174.544 138.26 174.356 138.249L173.864 138.218L171.986 138.1C169.481 137.951 166.973 137.826 164.464 137.698C159.447 137.445 154.429 137.18 149.441 136.72C148.403 136.627 147.365 136.534 146.32 136.441L148.991 133.85C149.011 134.683 149.015 135.536 148.986 136.404C148.956 137.272 148.888 138.148 148.793 138.99C148.698 139.833 148.584 140.65 148.469 141.453L148.381 142.054L148.375 142.091L148.372 142.112C148.354 142.237 148.326 142.363 148.29 142.485C148.144 143 147.775 143.508 147.359 143.802C146.941 144.105 146.505 144.243 146.091 144.284C145.676 144.324 145.264 144.267 144.862 144.103C144.663 144.022 144.467 143.911 144.287 143.774C144.242 143.74 144.198 143.704 144.156 143.668L144.146 143.66L144.132 143.647L144.076 143.597L143.962 143.497L143.056 142.698C140.671 140.57 138.285 138.442 135.902 136.316C133.447 134.133 130.962 132.026 128.389 130.046C127.097 129.064 125.796 128.095 124.458 127.182C123.796 126.713 123.114 126.275 122.44 125.824L122.313 125.74L122.222 125.679C122.14 125.624 122.06 125.565 121.982 125.504C121.674 125.251 121.423 124.932 121.252 124.592C120.911 123.907 120.864 123.168 121.068 122.466C121.174 122.115 121.354 121.773 121.599 121.476C121.722 121.326 121.861 121.194 122.01 121.072L122.143 120.968L122.63 120.592C127.84 116.587 132.829 112.308 137.669 107.825C139.602 106.039 141.523 104.343 143.457 102.803L143.82 102.517L144.001 102.375L144.103 102.295C144.188 102.222 144.272 102.155 144.374 102.096C144.766 101.852 145.288 101.786 145.714 101.917C146.146 102.039 146.499 102.337 146.697 102.691C146.8 102.868 146.858 103.055 146.891 103.237C146.903 103.337 146.904 103.397 146.91 103.479L146.936 103.938C146.952 104.244 146.96 104.551 146.964 104.855C146.977 106.079 146.857 107.275 146.61 108.393C146.379 109.425 145.909 109.889 145.487 109.815C145.056 109.744 144.676 109.133 144.473 108.053C144.326 107.287 144.15 106.546 143.939 105.79C143.827 105.407 143.714 105.023 143.601 104.637L143.419 104.043C143.417 104.039 143.407 103.998 143.412 104.026C143.418 104.062 143.425 104.097 143.435 104.133C143.453 104.202 143.476 104.274 143.504 104.35C143.562 104.495 143.643 104.646 143.746 104.787C143.952 105.068 144.248 105.307 144.6 105.449C144.951 105.592 145.368 105.639 145.775 105.555C146.179 105.479 146.56 105.252 146.784 105.033L146.352 105.527L145.477 106.513C144.888 107.166 144.295 107.818 143.691 108.46C141.71 110.577 139.482 112.561 137.308 114.557C137.321 114.584 137.333 114.609 137.348 114.639Z" fill="black"/>
<path d="M47.7426 110.055C37.8768 108.924 29.2661 108.077 19.3713 106.943C18.9737 106.898 18.5319 106.83 18.2142 107.088C17.929 107.319 17.836 107.728 17.7708 108.106C17.1076 111.941 17.9066 128.09 18.0808 134.125C18.0992 134.764 18.1303 135.446 18.4775 135.968C19.0856 136.883 20.3259 136.89 21.3669 136.804C30.6989 136.03 39.1028 135.159 49.0987 133.979C49.1221 136.931 49.3619 138.474 49.9905 141.766C50.0106 141.871 50.1489 141.895 50.2234 141.824C57.3579 135 63.1285 128.863 71.7354 122.893C72.1668 122.594 72.1652 121.917 71.7356 121.608C63.4417 115.653 56.8583 110.042 49.2108 103.142C48.8632 102.828 48.3303 103.032 48.2505 103.509C47.886 105.689 47.7225 107.28 47.846 109.885" fill="black"/>
<path d="M61.2165 109.597C63.2444 111.395 65.2973 113.158 67.3873 114.879C68.4334 115.738 69.4872 116.588 70.5517 117.426L72.1559 118.674L72.963 119.293L73.1649 119.448L73.3434 119.585C73.4927 119.702 73.6318 119.831 73.7585 119.973C74.2743 120.54 74.5502 121.248 74.6111 121.938C74.6742 122.67 74.505 123.437 74.0537 124.113C73.8274 124.449 73.5315 124.747 73.1983 124.979L72.9692 125.134L72.0862 125.727C71.4932 126.117 70.9217 126.538 70.3406 126.947C69.7643 127.362 69.1997 127.794 68.6344 128.224C68.0792 128.668 67.5196 129.104 66.9798 129.566C63.38 132.598 60.0012 135.925 56.6024 139.329L54.044 141.889L52.7547 143.17L52.4314 143.49L52.2697 143.65L52.1888 143.73L52.1484 143.77L52.1282 143.79L52.118 143.8L52.065 143.85L51.9568 143.943C51.3567 144.434 50.6492 144.637 49.9508 144.599C49.5958 144.578 49.236 144.497 48.8631 144.318C48.4933 144.141 48.1215 143.858 47.8323 143.478C47.6877 143.288 47.5674 143.082 47.4774 142.87C47.4304 142.761 47.3934 142.657 47.3637 142.555L47.3219 142.398L47.2962 142.279L47.2848 142.223L47.2618 142.111L47.1702 141.662C46.9287 140.464 46.6841 139.225 46.5143 137.908C46.3419 136.592 46.2708 135.262 46.2449 134.002L49.4326 136.813C43.5868 137.582 37.7234 138.298 31.8433 138.904C29.4558 139.151 27.0664 139.383 24.676 139.6L22.8831 139.761L21.9866 139.84L21.5185 139.879C21.3364 139.894 21.138 139.907 20.9285 139.913C20.5091 139.925 20.0425 139.922 19.4935 139.843C18.9473 139.761 18.3012 139.603 17.6139 139.232C16.9269 138.873 16.2459 138.245 15.8194 137.54C15.3765 136.82 15.1975 136.123 15.106 135.584C15.0164 135.038 15.0052 134.613 14.9924 134.281L14.9623 133.389L14.8978 131.61L14.7613 128.028C14.6711 125.636 14.5865 123.238 14.5215 120.832C14.4576 118.425 14.4077 116.015 14.4135 113.57C14.4143 112.348 14.4389 111.11 14.4994 109.828L14.5692 108.83C14.5946 108.493 14.656 108.081 14.703 107.71C14.725 107.53 14.7656 107.314 14.8411 107.005C14.9201 106.703 15.0362 106.312 15.3014 105.834C15.5684 105.354 16.0357 104.774 16.7092 104.376C17.3718 103.975 18.0526 103.85 18.5036 103.82C18.9745 103.788 19.2863 103.826 19.5012 103.846L19.9723 103.9L20.8632 103.998L22.645 104.196L26.2087 104.593L33.3359 105.385C36.2029 105.703 39.0729 106.239 41.8796 106.769C44.5673 107.279 46.2389 108.202 47.2176 109.277C48.6424 110.844 46.8737 112.157 42.9858 112.087C40.5258 112.044 37.8652 111.752 35.3579 111.391C32.471 110.977 29.5832 110.592 26.6938 110.235L22.3585 109.72L20.1898 109.479L19.1052 109.362L18.8815 109.338L18.8386 109.335C18.8381 109.315 18.8327 109.41 18.8407 109.176C18.8466 109.048 18.8483 108.919 18.8457 108.79C18.8449 108.362 18.8153 108.122 18.7815 107.952C18.7477 107.787 18.708 107.707 18.6939 107.682C18.6903 107.669 18.763 107.809 19.1618 107.999C19.3612 108.093 19.6273 108.197 20.0475 108.32L20.2085 108.368L20.2066 108.378L20.1977 108.424C20.1779 108.513 20.1658 108.686 20.1497 108.817C20.1355 108.961 20.1152 109.089 20.1033 109.245L20.049 110.235L20.0265 111.274C20.0144 112.675 20.0364 114.103 20.0896 115.539C20.1894 118.409 20.3693 121.297 20.5883 124.187C20.8305 127.383 21.1963 130.692 21.1011 133.858L21.0788 134.537C21.0777 134.565 21.0766 134.586 21.0744 134.599C21.0511 134.618 21.1607 134.588 20.8473 134.665C20.4429 134.768 20.1939 134.869 20.0368 134.947C20.0042 134.961 19.9626 134.986 19.9375 135L19.9023 135.021L19.8847 135.033L19.8802 135.036C19.9081 135.017 19.8117 135.081 19.9415 134.995L19.9371 134.998C19.9205 135.004 19.8699 135.049 19.8767 135.043C19.8767 135.043 19.8648 135.055 19.8927 135.024L19.9175 134.99C19.9354 134.967 19.9511 134.945 19.9645 134.922L19.9832 134.888L20.016 134.834C20.0367 134.797 20.0547 134.76 20.07 134.724C20.1181 134.629 20.155 134.532 20.197 134.411C20.252 134.269 20.2717 134.162 20.325 133.98C20.3292 133.958 20.327 133.982 20.3442 133.98C20.3923 134.001 20.5314 134.027 20.727 134.031C20.826 134.033 20.9322 134.034 21.0559 134.029L21.5 134.007L23.3645 133.896C25.8501 133.736 28.3335 133.525 30.8153 133.289C35.7789 132.818 40.7351 132.244 45.6996 131.796C46.7323 131.697 47.7658 131.598 48.8054 131.498L48.9075 131.488C50.2572 131.359 51.4561 132.348 51.5855 133.698C51.5938 133.785 51.5973 133.874 51.5965 133.959C51.5794 135.499 51.6511 136.908 51.8718 138.389C51.9792 139.132 52.1122 139.897 52.2535 140.673L52.3609 141.257L52.3676 141.293L52.3693 141.302L52.3701 141.307C51.3662 141.5 54.6188 140.881 50.1194 141.742C50.116 141.742 50.1122 141.743 50.1082 141.744C50.0966 141.749 50.1031 141.749 50.1092 141.739C50.1245 141.714 50.1157 141.699 50.1211 141.715L50.1244 141.721L50.1252 141.722C46.9754 138.427 49.254 140.807 48.5518 140.071L48.5552 140.067L48.5687 140.054L48.6227 140.003L48.7307 139.9L49.5948 139.077C51.8985 136.879 54.19 134.633 56.5656 132.442C59.0251 130.169 61.5644 127.937 64.2161 125.828C65.5483 124.781 66.8928 123.748 68.279 122.77C68.9637 122.27 69.67 121.801 70.3674 121.319L70.4984 121.229L70.5312 121.207L70.5476 121.196C70.8878 121.682 69.7977 120.099 71.3124 122.284L71.3128 122.285L71.3195 122.294C71.3223 122.296 71.3061 122.281 71.2815 122.271C71.2232 122.245 71.1936 122.263 71.2466 122.248C71.267 122.242 71.2888 122.228 71.2935 122.223C71.2985 122.219 71.2918 122.225 71.2901 122.228C71.9596 121.297 70.3784 123.499 70.5377 123.269L70.5298 123.263L70.5141 123.251L70.4828 123.228L70.42 123.181L69.9176 122.804C64.5492 118.801 59.3981 114.506 54.43 110.059C52.4463 108.286 50.6051 106.473 48.9481 104.625L48.6394 104.278L48.4865 104.105L48.4485 104.061L48.4295 104.039L48.42 104.028L48.4176 104.026C48.5782 103.846 48.0548 104.424 48.7771 103.623L48.7797 103.62C48.7933 103.608 48.8096 103.581 48.8145 103.574C48.8428 103.518 48.8232 103.543 48.8332 103.561C48.8417 103.58 48.8399 103.582 48.8675 103.6C48.8786 103.606 48.9117 103.622 48.9503 103.627L48.9535 103.627C48.8888 103.616 49.5252 103.724 49.2552 103.68L49.2542 103.683L49.2499 103.696L49.2414 103.723L49.2244 103.776L49.1904 103.883L49.0538 104.306C48.9636 104.586 48.8739 104.865 48.7848 105.142C48.431 106.247 48.1195 107.346 47.8393 108.458C47.5825 109.477 47.1615 109.987 46.7288 109.931C46.3048 109.874 45.8603 109.253 45.723 107.973C45.6281 107.069 45.5931 106.122 45.6163 105.187C45.6279 104.72 45.6519 104.258 45.6832 103.803L45.7353 103.126C45.7381 103.103 45.7338 103.117 45.7425 103.064L45.7787 102.876C45.8045 102.753 45.8387 102.629 45.8848 102.501C45.9709 102.251 46.0953 101.999 46.2544 101.766C46.5708 101.298 47.028 100.903 47.5721 100.658C48.1138 100.411 48.752 100.315 49.3767 100.417C49.9986 100.511 50.5893 100.824 50.9857 101.179L51.5005 101.578L52.5267 102.384L54.5669 104.013C56.7926 105.804 58.9284 107.802 61.1407 109.648C61.1652 109.631 61.1882 109.616 61.2165 109.597Z" fill="black"/>
</svg>
