<svg width="230" height="228" viewBox="0 0 230 228" fill="none" xmlns="http://www.w3.org/2000/svg">
<path d="M76.1411 37.9516C77.004 37.3937 77.8477 36.807 78.7268 36.276L81.4114 34.7587L82.7539 34.0026C83.2022 33.7521 83.6773 33.5506 84.1377 33.3226L86.9207 31.9956L87.6164 31.6649L88.3326 31.3788L89.7672 30.8127C90.7247 30.4385 91.6775 30.0541 92.6386 29.691C94.5877 29.0265 96.5503 28.4046 98.5426 27.9025C102.513 26.879 106.559 26.1674 110.642 25.7744C119.035 24.9961 127.499 25.4716 135.749 27.1848C139.988 28.05 144.156 29.2305 148.216 30.7165C159.031 34.67 169.106 40.878 176.969 49.5912C178.96 51.8197 180.7 54.2561 182.159 56.8575C182.899 58.1978 183.541 59.5889 184.08 61.0201C184.615 62.4881 185.021 63.9989 185.295 65.5359C185.38 65.9193 185.409 66.316 185.462 66.7071C185.502 67.1017 185.575 67.4864 185.578 67.8917C185.633 68.6928 185.639 69.4964 185.598 70.2983L185.529 71.499L185.358 72.6858C185.239 73.4748 185.076 74.2565 184.868 75.0271C183.158 81.2018 179.075 86.4661 173.495 89.691C173.146 89.8856 172.81 90.1014 172.45 90.2754L171.365 90.7894L170.821 91.0437C170.637 91.1215 170.447 91.1873 170.26 91.2592L169.132 91.6781C168.322 91.9694 167.487 92.1895 166.638 92.3359C165.681 92.5102 164.704 92.5602 163.734 92.4848C162.592 92.3959 161.481 92.0721 160.472 91.534C159.465 90.9746 158.589 90.2087 157.904 89.2874C157.386 88.5844 156.93 87.8392 156.539 87.0599C156.369 86.7288 156.219 86.4496 156.054 86.1766L155.572 85.3448L154.611 83.6793C154.254 83.145 153.879 82.621 153.516 82.0907L152.967 81.2968C152.792 81.0267 152.601 80.767 152.395 80.519L151.171 79.0178C144.558 71.0529 135.197 65.3107 125.148 62.5226C122.059 61.6532 118.892 61.0844 115.692 60.8242L113.299 60.6944L112.701 60.6618L112.103 60.6763L110.908 60.7037L109.714 60.7285C109.515 60.7348 109.315 60.7307 109.117 60.7454L108.523 60.8066L106.15 61.0449C102.991 61.4618 99.8855 62.2108 96.8863 63.2793L95.7558 63.6649C95.3843 63.8075 95.0226 63.976 94.6553 64.1297L92.4595 65.072L90.3382 66.1722C89.9881 66.3617 89.6215 66.5219 89.2847 66.7345L88.2675 67.3605C82.8018 70.6492 78.0891 75.0332 74.4311 80.2316L73.1422 82.2122L72.8191 82.7068L72.539 83.225L71.977 84.2602C71.2313 85.6393 70.5584 87.056 69.9609 88.5043L69.1931 90.7166C68.9339 91.4061 68.7222 92.1122 68.5594 92.83C68.5247 92.9873 68.491 93.1423 68.4738 93.2703C68.4446 93.4171 68.4404 93.5182 68.4267 93.6243C68.4098 93.8021 68.4438 93.8921 68.3953 93.6881C68.3484 93.5349 68.2789 93.3893 68.1891 93.2562C68.1283 93.1735 68.0662 93.1017 68.0097 93.0364C67.9346 92.9699 67.8928 92.9266 67.8441 92.8903C67.6474 92.7562 67.7159 92.827 67.9242 92.8828C68.2169 92.9672 68.514 93.036 68.8142 93.0888C69.1691 93.1584 69.5801 93.2256 69.9906 93.2948C70.8247 93.4325 71.7184 93.5796 72.615 93.7531C73.5142 93.9269 74.422 94.1281 75.3244 94.3573C75.7763 94.4701 76.2257 94.5955 76.6746 94.7232C76.8995 94.785 77.1215 94.8574 77.345 94.9242C77.5704 94.9941 77.7682 95.0473 78.0894 95.1701C79.3685 95.5954 80.5403 96.2885 81.5252 97.2025C82.6499 98.2514 83.4392 99.6045 83.795 101.094C84.1127 102.495 84.0662 103.953 83.6598 105.332C83.3101 106.521 82.7664 107.645 82.0501 108.66C81.7118 109.13 81.3485 109.58 80.9618 110.011C80.5824 110.423 80.2304 110.764 79.8789 111.094C79.1778 111.752 78.4916 112.341 77.8006 112.919C76.4201 114.067 75.033 115.144 73.6321 116.197C70.8303 118.298 67.9823 120.295 65.0731 122.221C62.1602 124.144 59.1985 125.997 56.0822 127.723C54.5166 128.583 52.9238 129.413 51.1774 130.165C50.2459 130.575 49.2869 130.92 48.3073 131.198C47.6807 131.374 47.0388 131.491 46.39 131.547C46.1757 131.564 45.9606 131.57 45.7456 131.565L45.3845 131.55C45.2599 131.542 45.0988 131.519 44.9582 131.499C44.6221 131.448 44.292 131.364 43.9728 131.248C43.7686 131.17 43.5699 131.079 43.3781 130.975C43.2852 130.925 43.1685 130.86 43.1005 130.815L42.9421 130.702C42.7319 130.548 42.5268 130.385 42.33 130.215C42.2564 130.152 42.1867 130.085 42.121 130.014L41.9445 129.831L41.5976 129.46L41.336 129.139C40.9665 128.697 40.7052 128.31 40.4068 127.902C39.8704 127.114 39.372 126.335 38.9114 125.567C37.9832 124.026 37.1361 122.49 36.3152 120.945C34.6849 117.856 33.1718 114.741 31.7363 111.584C29.9776 107.748 28.4305 103.82 27.102 99.8173C26.3929 97.7257 25.8366 95.5863 25.4373 93.4156C25.3821 93.1371 25.3482 92.8159 25.3103 92.5082L25.256 92.0437L25.2294 91.5215L25.21 90.9993C25.2169 90.7918 25.2305 90.5756 25.2461 90.3647C25.2732 89.9871 25.329 89.6119 25.4131 89.2426C25.5759 88.4818 25.8404 87.7459 26.1997 87.0544C26.6129 86.27 27.1779 85.5738 27.8625 85.0058C28.4979 84.4829 29.2271 84.0835 30.0118 83.8284C30.6684 83.6134 31.3504 83.4838 32.0407 83.443C33.1101 83.397 34.1809 83.4946 35.2239 83.7332C36.7586 84.0711 38.2614 84.5383 39.7159 85.1296C41.7854 85.9108 43.7162 87.0136 45.4359 88.3965C45.8108 88.6982 46.1368 89.055 46.4028 89.4545C46.5805 89.7551 46.5877 89.9572 46.4913 90.0997C46.3477 90.2574 46.1536 90.3611 45.9418 90.3934C45.8797 90.4091 45.8151 90.4229 45.7488 90.4344L45.6484 90.4503L45.5104 90.4521C45.3178 90.4511 45.1043 90.4352 44.8647 90.4103C43.8987 90.3167 42.4971 90.08 40.6713 89.7765C39.7593 89.6247 38.7393 89.4618 37.6297 89.2988C36.5282 89.1427 35.2996 88.9681 34.1077 88.8995L33.8271 88.8829L33.5806 88.8821C33.4238 88.8776 33.2668 88.8821 33.1106 88.8958C32.8439 88.9108 32.5793 88.9507 32.3202 89.0151C32.1514 89.0622 31.9899 89.1321 31.8403 89.2228C31.7577 89.2829 31.6852 89.3556 31.6255 89.4382C31.5571 89.5556 31.4967 89.6775 31.4447 89.803C31.3659 90.0222 31.3104 90.2489 31.2791 90.4795L31.2469 90.6856C31.2522 90.7242 31.2546 90.7632 31.2541 90.8022C31.2562 90.8472 31.2441 90.8644 31.2495 90.9323L31.2702 91.1506L31.2854 91.3692L31.3257 91.6308C31.3571 91.8113 31.3729 91.9785 31.4131 92.1707C31.7699 93.8279 32.2267 95.4624 32.7811 97.0654C33.3392 98.7379 33.9547 100.411 34.5866 102.056C36.0488 105.845 37.6926 109.602 39.4475 113.29C40.3268 115.133 41.2375 116.96 42.1875 118.751C43.1386 120.532 44.1269 122.319 45.1769 123.919C45.4381 124.324 45.7022 124.693 45.9607 125.046C46.0821 125.191 46.2174 125.375 46.3231 125.492L46.4636 125.644C46.4866 125.671 46.5163 125.705 46.5004 125.682L46.4907 125.67L46.4878 125.668C46.4786 125.678 46.5041 125.644 46.4662 125.689L46.2977 125.9C46.1881 126.043 46.0841 126.191 45.9858 126.344L45.8428 126.576L45.7746 126.695C45.7973 126.666 45.2587 127.506 45.4997 127.132C45.5486 127.065 45.5849 126.99 45.6066 126.911C45.6614 126.796 45.7004 126.675 45.7228 126.55C45.7266 126.499 45.7547 126.406 45.772 126.323C45.7897 126.239 45.8032 126.155 45.8123 126.071C45.8224 125.986 45.8243 125.908 45.8291 125.817C45.8429 125.71 45.8528 125.603 45.8589 125.497C45.8628 125.422 45.8621 125.435 45.8621 125.435L45.8624 125.436C45.8648 125.436 45.8578 125.439 45.8681 125.438C45.9121 125.429 45.9243 125.441 45.9969 125.427C46.3421 125.377 46.6823 125.297 47.0135 125.188C47.8911 124.901 48.7493 124.558 49.5831 124.162C50.4649 123.753 51.352 123.303 52.2355 122.831C55.7729 120.925 59.2479 118.723 62.6407 116.432C66.0284 114.132 69.3656 111.717 72.5112 109.178C73.2943 108.543 74.0617 107.898 74.7894 107.25C75.4537 106.688 76.0655 106.067 76.6172 105.395C77.0403 104.876 77.3561 104.279 77.5464 103.638C77.683 103.222 77.6792 102.773 77.5357 102.359C77.3601 101.995 77.0722 101.697 76.7138 101.507C76.603 101.438 76.4553 101.386 76.3331 101.316C76.1961 101.254 76.0304 101.211 75.8836 101.151C75.8261 101.124 75.688 101.087 75.5768 101.054L75.23 100.952C74.9995 100.882 74.7657 100.823 74.5331 100.76C72.6145 100.271 70.6685 99.8955 68.7051 99.6346C68.1783 99.5528 67.6299 99.4684 67.0139 99.3408C66.261 99.199 65.528 98.9678 64.8308 98.6523C64.5909 98.5383 64.3585 98.4092 64.1353 98.2657C63.8731 98.0922 63.6264 97.8968 63.3979 97.6816C62.8981 97.205 62.5033 96.6311 62.2381 95.9959C62.0279 95.4697 61.8966 94.9158 61.8483 94.3519C61.8111 93.9238 61.8095 93.4933 61.8437 93.0649C61.9002 92.3936 62.0066 91.7274 62.162 91.0717C62.3035 90.4827 62.4409 89.9089 62.6193 89.3872L63.6657 86.2164C65.4158 81.5617 67.8892 77.2068 70.9963 73.3095C74.0465 69.4734 77.6852 66.1357 81.7796 63.4183C84.9463 61.3027 88.3318 59.5284 91.8787 58.1257L93.2 57.5854C93.6492 57.4278 94.1044 57.2852 94.5562 57.1346C95.4641 56.8458 96.3605 56.5221 97.2771 56.2643C100.958 55.2582 104.731 54.6186 108.54 54.3552C109.491 54.3005 110.445 54.3127 111.398 54.2897L112.827 54.2689L114.25 54.3513C115.199 54.4144 116.151 54.4477 117.095 54.5383L119.917 54.911C120.863 55.0084 121.784 55.2323 122.713 55.4151L124.105 55.7006L124.801 55.8439L125.484 56.0325L128.218 56.7912C128.677 56.9055 129.118 57.0758 129.564 57.2296L130.901 57.6993L132.237 58.1704C132.683 58.3246 133.108 58.5324 133.544 58.7111L136.145 59.8279L138.666 61.1101C139.084 61.3293 139.512 61.529 139.92 61.765L141.134 62.4894C141.937 62.9832 142.766 63.4346 143.545 63.966L145.869 65.5785L146.449 65.9826L147.002 66.4226L148.106 67.3072C148.837 67.903 149.594 68.4672 150.27 69.1294L152.345 71.0546C153.009 71.7255 153.641 72.4298 154.288 73.1174C154.606 73.4658 154.936 73.8039 155.245 74.1614L156.131 75.2691L157.015 76.3783C157.305 76.752 157.617 77.1072 157.871 77.5092L159.459 79.8636C159.589 80.0614 159.727 80.2532 159.849 80.4561L160.198 81.0759L160.893 82.3162L161.408 83.2385C161.579 83.5441 161.757 83.8601 161.895 84.1474C162.125 84.6297 162.386 85.0969 162.676 85.546C162.841 85.8069 163.052 86.0364 163.298 86.2233C163.525 86.3672 163.779 86.4634 164.045 86.506C164.954 86.6043 165.875 86.5067 166.743 86.2199C167.262 86.0663 167.82 85.8363 168.359 85.654C168.889 85.4263 169.413 85.1802 169.935 84.9323C171.997 83.8463 173.841 82.3954 175.376 80.6515C175.763 80.2184 176.128 79.7658 176.468 79.2955C176.823 78.8358 177.104 78.3272 177.431 77.8484C177.701 77.338 177.995 76.8371 178.238 76.3151L178.583 75.5225L178.755 75.1261L178.891 74.7179C179.663 72.568 179.984 70.2847 179.836 68.0076C179.624 65.6696 179.012 63.3845 178.026 61.2501L177.65 60.4327L177.228 59.6298C176.962 59.0886 176.623 58.5746 176.323 58.0457C175.67 56.9992 174.963 55.9864 174.206 55.0114C172.661 53.0267 170.956 51.1694 169.108 49.4577C162.365 43.2483 154.43 38.446 145.778 35.3361C137.084 32.1804 127.896 30.5693 118.638 30.5768C114.016 30.5871 109.404 31.0201 104.862 31.8701C103.723 32.0633 102.604 32.3406 101.476 32.584L99.8021 33.0154C99.2419 33.1529 98.6883 33.3118 98.1379 33.4812C97.5871 33.649 97.0313 33.8028 96.4841 33.9815L94.8483 34.5345C94.2978 34.7045 93.7716 34.943 93.2341 35.1501L91.6284 35.7911L90.0219 36.4311C89.4929 36.6597 88.9816 36.9267 88.4603 37.1724C87.4253 37.6793 86.3765 38.1619 85.3507 38.6872C83.3578 39.8454 81.3076 40.9148 79.4239 42.2514C77.4618 43.4725 75.6719 44.9318 73.8321 46.3254C72.9427 47.0592 72.0917 47.8394 71.2185 48.5935C70.7886 48.9779 70.341 49.3441 69.925 49.7432L68.7016 50.967C63.6226 56.0037 59.211 61.6608 55.5732 67.802C52.2156 73.522 49.5085 79.5935 47.5015 85.9052C46.7004 88.6184 45.9601 89.9028 45.5251 89.6836L47.6448 89.0613C47.5423 88.9291 47.5832 88.947 47.6822 89.0286L45.4755 89.6762C45.2615 89.5285 45.1283 88.9917 45.1081 88.0597C45.0981 87.5938 45.1163 87.0291 45.1669 86.3663C45.1921 86.0349 45.2257 85.6789 45.2675 85.2983C45.2899 85.1083 45.313 84.912 45.3369 84.7094L45.4589 84.0929C45.714 82.8847 45.9706 81.6696 46.2287 80.4475C46.3422 79.8305 46.5386 79.2359 46.7071 78.6307C46.8819 78.0268 47.0572 77.4216 47.2329 76.8149C47.4128 76.2091 47.581 75.5969 47.7745 74.9921C47.9936 74.3963 48.2132 73.7995 48.4332 73.2017C48.6553 72.6034 48.8777 72.0041 49.1006 71.4039L49.4374 70.5027C49.5616 70.2073 49.6982 69.9171 49.8284 69.6237L51.4271 66.1023C52.0138 64.9517 52.6454 63.8203 53.2593 62.6766C53.8481 61.5169 54.5766 60.4397 55.2661 59.3367L56.313 57.6888L56.5758 57.2773L56.8634 56.8831L57.4394 56.095L59.3543 53.5027C60.0183 52.6546 60.7439 51.8508 61.4432 51.0232C62.8115 49.3389 64.4013 47.8416 65.9282 46.2838C66.3037 45.8875 66.7144 45.5272 67.1265 45.1679L68.3565 44.0837L69.5881 43.001L70.2045 42.4602L70.8537 41.9584C72.5938 40.6316 74.2865 39.2454 76.1324 38.0755C76.1332 38.0341 76.1361 37.9927 76.1411 37.9516Z" fill="black"/>
<path d="M153.041 192.648C149.595 194.756 145.981 196.583 142.235 198.109L140.822 198.671L139.357 199.187L138.624 199.443L137.885 199.666L136.408 200.109C134.428 200.628 132.443 201.102 130.447 201.428C126.491 202.106 122.489 202.495 118.475 202.591C114.505 202.699 110.532 202.603 106.572 202.305C98.2024 201.648 89.9063 200.269 81.7781 198.185C76.2864 196.834 70.9384 194.963 65.8079 192.598C63.3564 191.419 60.7996 190.195 58.3152 188.691C55.7375 187.189 53.3721 185.355 51.2809 183.237C49.0387 180.994 47.3424 178.274 46.3213 175.283L45.9864 174.124L45.8235 173.543C45.778 173.328 45.74 173.098 45.7005 172.875C45.5646 172.023 45.5061 171.161 45.5257 170.298C45.5826 168.73 45.8043 167.173 46.1871 165.651C46.9169 162.794 47.9733 160.029 49.336 157.41C50.6618 154.811 52.2377 152.345 54.0418 150.046C55.9043 147.612 58.1466 145.489 60.6842 143.755C61.0344 143.538 61.3688 143.311 61.7502 143.116C62.1227 142.904 62.5063 142.712 62.8993 142.54L63.5013 142.277L64.1437 142.05C64.6022 141.889 65.0722 141.762 65.5496 141.67C67.474 141.33 69.4554 141.517 71.2806 142.21C72.8184 142.798 74.2733 143.58 75.6092 144.536C76.8163 145.385 77.9776 146.295 79.0885 147.264C81.2522 149.129 83.2292 151.026 85.2106 152.865C89.1521 156.548 93.1076 160.016 97.4134 162.881C101.633 165.76 106.288 167.954 111.204 169.382C114.214 170.229 117.306 170.759 120.429 170.964C121.994 171.062 123.567 171.11 125.144 171.052C125.538 171.05 125.933 171.024 126.328 171.004C126.72 170.977 127.122 170.979 127.505 170.926L129.826 170.678C130.596 170.592 131.362 170.467 132.119 170.302C132.883 170.182 133.64 170.02 134.385 169.817L136.616 169.209L138.783 168.425C139.505 168.165 140.211 167.864 140.898 167.523C141.603 167.224 142.289 166.883 142.953 166.501C143.613 166.116 144.297 165.769 144.942 165.359L146.841 164.074C149.31 162.256 151.551 160.153 153.517 157.809C155.471 155.429 157.137 152.829 158.479 150.063L158.977 149.02C159.152 148.676 159.309 148.323 159.445 147.962L160.294 145.807C160.54 145.075 160.762 144.334 161 143.598C161.224 142.95 161.397 142.285 161.517 141.61C161.548 141.416 161.566 141.22 161.57 141.023C161.566 140.931 161.545 141.026 161.669 141.274C161.769 141.467 161.916 141.633 162.096 141.756C162.144 141.78 161.995 141.707 161.769 141.645C161.114 141.478 160.45 141.353 159.779 141.271L157.314 140.946C156.466 140.834 155.604 140.716 154.738 140.583L153.436 140.372L152.777 140.257L152.005 140.097C150.845 139.848 149.727 139.433 148.688 138.865C148.378 138.695 148.082 138.502 147.801 138.288L147.361 137.948C147.214 137.813 147.07 137.674 146.928 137.533C146.324 136.93 145.841 136.219 145.504 135.437C145.178 134.666 144.995 133.843 144.963 133.007C144.952 132.635 144.963 132.263 144.997 131.892C145.045 131.559 145.086 131.196 145.163 130.891C145.428 129.768 145.846 128.686 146.406 127.674C146.88 126.799 147.418 125.958 148.014 125.158C148.581 124.388 149.166 123.66 149.771 122.973C152.139 120.328 154.725 117.884 157.504 115.666C160.203 113.474 163.016 111.422 165.93 109.518C167.388 108.565 168.874 107.647 170.409 106.774C171.976 105.871 173.591 105.051 175.247 104.32C176.179 103.909 177.14 103.568 178.124 103.301L178.552 103.196C178.702 103.162 178.871 103.133 179.03 103.104L179.276 103.062L179.562 103.031C179.767 103.005 179.974 102.992 180.181 102.99C180.636 102.985 181.091 103.024 181.539 103.109C181.918 103.188 182.291 103.295 182.654 103.428C183.782 103.86 184.833 104.468 185.766 105.229C186.545 105.848 187.282 106.517 187.971 107.232C189.235 108.554 190.41 109.957 191.488 111.433C192.55 112.864 193.527 114.323 194.457 115.802C196.298 118.75 197.972 121.798 199.469 124.932C201.33 128.749 202.81 132.738 203.888 136.841C204.476 139.037 204.796 141.295 204.84 143.566C204.868 144.959 204.631 146.343 204.141 147.648C203.8 148.518 203.27 149.302 202.587 149.945C201.882 150.588 201.033 151.056 200.11 151.311C199.399 151.505 198.663 151.599 197.925 151.592C197.322 151.58 196.721 151.516 196.129 151.401C195.151 151.207 194.196 150.916 193.278 150.532C191.835 149.928 190.457 149.183 189.164 148.306C187.384 147.126 185.758 145.733 184.322 144.159C184.009 143.826 183.734 143.46 183.502 143.067C183.465 143.002 183.436 142.934 183.414 142.863C183.387 142.793 183.35 142.728 183.304 142.668C183.21 142.545 183.103 142.457 183.051 142.377C183.035 142.359 183.024 142.338 183.018 142.315C183.012 142.292 183.012 142.268 183.017 142.245C183.022 142.221 183.032 142.2 183.047 142.181C183.062 142.163 183.081 142.148 183.103 142.138C183.226 142.075 183.361 142.039 183.498 142.031C183.636 142.022 183.775 142.043 183.904 142.09C184.311 142.075 184.717 142.118 185.112 142.216C186.509 142.577 187.88 143.032 189.215 143.578C190.075 143.904 191.022 144.269 192.046 144.637C193.112 145.032 194.2 145.369 195.303 145.647C195.956 145.813 196.624 145.912 197.298 145.941C197.552 145.951 197.805 145.934 198.056 145.893C198.197 145.867 198.333 145.82 198.458 145.752C198.482 145.747 198.478 145.718 198.494 145.714C198.501 145.71 198.508 145.708 198.515 145.706H198.516C198.577 145.798 198.38 145.499 198.653 145.913L198.652 145.912L198.65 145.908L198.646 145.903L198.639 145.893L198.627 145.881C198.625 145.878 198.628 145.883 198.621 145.874L198.588 145.836C198.55 145.797 198.51 145.76 198.466 145.727C198.462 145.723 198.51 145.629 198.565 145.469C198.705 144.925 198.764 144.363 198.737 143.803C198.665 142.234 198.423 140.677 198.017 139.158C197.617 137.543 197.106 135.917 196.544 134.323C195.212 130.62 193.607 127.018 191.744 123.547C189.932 120.079 187.816 116.777 185.421 113.676C184.826 112.931 184.212 112.214 183.579 111.554C182.992 110.925 182.35 110.348 181.66 109.831C181.385 109.622 181.09 109.44 180.781 109.286C180.629 109.201 180.464 109.142 180.293 109.11C180.084 109.128 179.878 109.167 179.677 109.227C179.279 109.334 178.888 109.464 178.504 109.614C176.738 110.333 175.027 111.18 173.387 112.149C171.684 113.125 170.006 114.189 168.362 115.302C165.076 117.518 161.946 119.953 158.992 122.59C157.548 123.878 156.178 125.246 154.89 126.688C153.685 127.991 152.661 129.447 151.844 131.018C151.693 131.334 151.567 131.662 151.467 131.998C151.403 132.227 151.369 132.463 151.365 132.701C151.414 133.029 151.378 132.909 151.596 133.13C152.085 133.443 152.63 133.662 153.201 133.775C153.89 133.935 154.976 134.091 155.929 134.225C156.909 134.36 157.897 134.476 158.912 134.592C159.93 134.712 160.964 134.819 162.126 135.013C162.78 135.119 163.425 135.272 164.057 135.469C164.997 135.755 165.861 136.247 166.584 136.908C167.044 137.35 167.42 137.87 167.692 138.445C167.933 138.955 168.098 139.497 168.181 140.055C168.291 140.855 168.286 141.668 168.165 142.467C168.071 143.15 167.936 143.826 167.762 144.493C167.601 145.108 167.422 145.66 167.252 146.248L166.729 147.989L166.091 149.701C165.867 150.268 165.683 150.852 165.424 151.407L164.66 153.079C164.182 154.209 163.542 155.264 162.959 156.344C160.56 160.586 157.391 164.352 153.612 167.453C150.661 169.854 147.403 171.858 143.922 173.412L142.619 173.986C142.401 174.079 142.187 174.183 141.965 174.267L141.293 174.502L138.606 175.431L135.86 176.148L135.174 176.326L134.478 176.453L133.086 176.701L131.694 176.948C131.23 177.03 130.76 177.051 130.293 177.105C129.358 177.195 128.422 177.297 127.489 177.373C125.637 177.478 123.778 177.498 121.912 177.433C118.168 177.3 114.45 176.769 110.821 175.85C107.194 174.918 103.682 173.595 100.345 171.906C97.0506 170.23 93.9129 168.267 90.969 166.041C88.0923 163.852 85.3346 161.514 82.7074 159.036C80.0999 156.616 77.6116 154.128 75.104 151.892C73.253 150.251 71.3171 148.711 69.4843 147.933C68.7096 147.571 67.8561 147.404 67.0006 147.449C66.0948 147.583 65.2254 147.897 64.4442 148.37C62.4833 149.577 60.7393 151.1 59.284 152.876C57.7083 154.733 56.3174 156.737 55.1305 158.859C53.9284 160.965 52.9434 163.185 52.1902 165.487C51.8283 166.589 51.5554 167.719 51.3742 168.864C51.1983 169.885 51.1754 170.925 51.3063 171.953L51.3594 172.285C51.3859 172.405 51.4317 172.542 51.4662 172.67L51.6839 173.451C51.749 173.715 51.8394 173.971 51.9538 174.217L52.2587 174.973C52.4775 175.472 52.7717 175.943 53.0167 176.434C53.3328 176.894 53.6247 177.367 53.9608 177.819C55.4102 179.66 57.1259 181.278 59.0523 182.622C60.856 183.894 62.7499 185.036 64.7192 186.038C65.7233 186.561 66.747 187.069 67.8069 187.6L69.3111 188.327L70.8415 189.012C75.0269 190.772 79.3393 192.219 83.7425 193.342C92.619 195.654 101.723 197.005 110.893 197.37C113.181 197.455 115.469 197.477 117.75 197.404C120.032 197.351 122.306 197.191 124.564 196.953C129.052 196.52 133.474 195.571 137.74 194.123C139.865 193.37 141.943 192.492 143.964 191.494C145.996 190.499 147.982 189.411 149.923 188.23C151.853 187.04 153.731 185.768 155.556 184.414C157.379 183.061 159.129 181.612 160.824 180.105C166.067 175.435 170.666 170.101 174.505 164.241C178.067 158.804 180.769 152.86 182.516 146.613C182.69 145.92 182.864 145.322 183.034 144.819C183.217 144.33 183.374 144.064 183.454 143.877C183.619 143.519 183.616 143.524 183.753 143.819C183.843 144.026 183.96 144.22 184.1 144.397C184.265 144.594 184.472 144.751 184.706 144.857C184.741 144.873 184.773 144.893 184.803 144.917C184.814 144.936 184.825 144.92 184.828 144.971L184.832 145.172C184.836 145.446 184.834 145.745 184.825 146.067C184.816 146.39 184.8 146.736 184.776 147.107C184.736 147.486 184.684 147.892 184.623 148.322C183.891 153.295 182.432 158.134 180.291 162.689C178.118 167.325 175.403 171.692 172.2 175.699C166.815 182.333 160.342 188.02 153.052 192.524C153.05 192.565 153.047 192.607 153.041 192.648Z" fill="black"/>
</svg>
