<svg width="228" height="228" viewBox="0 0 228 228" fill="none" xmlns="http://www.w3.org/2000/svg">
<path d="M151.177 152.833C156.638 151.148 162.065 149.37 167.394 147.369C170.078 146.418 172.732 145.394 175.321 144.235L176.297 143.812L177.259 143.365L179.183 142.469C179.831 142.18 180.448 141.845 181.081 141.532C181.713 141.221 182.336 140.89 182.961 140.565L183.007 140.541C183.406 140.333 183.858 140.244 184.306 140.285C184.755 140.326 185.183 140.495 185.538 140.772C185.894 141.049 186.162 141.423 186.312 141.848C186.462 142.273 186.486 142.732 186.382 143.171C184.892 149.143 182.966 154.998 180.62 160.689C178.868 165.058 176.983 169.364 175.067 173.64C174.107 175.772 173.146 177.904 172.187 180.035L171.469 181.629L170.724 183.208L169.251 186.366C168.22 188.596 167.201 190.825 166.221 193.06C165.716 194.175 165.263 195.297 164.783 196.415C164.31 197.534 163.887 198.658 163.435 199.779L163.411 199.838C163.192 200.384 162.774 200.827 162.242 201.078C161.71 201.33 161.103 201.371 160.541 201.194C159.98 201.017 159.506 200.635 159.215 200.124C158.923 199.613 158.835 199.01 158.968 198.437C160.294 192.725 161.555 186.98 162.208 181.157C162.377 179.703 162.531 178.248 162.646 176.791L162.734 174.602L162.78 172.414C162.815 169.51 162.705 166.606 162.449 163.713L166.507 164.793C164.153 168.368 161.42 171.678 158.355 174.666C152.16 180.598 144.843 185.234 136.834 188.304C132.845 189.842 128.715 190.987 124.503 191.723C120.293 192.46 116.026 192.819 111.752 192.795C107.473 192.75 103.207 192.298 99.0136 191.445C94.816 190.59 90.7183 189.302 86.786 187.603C82.8618 185.928 79.108 183.879 75.5767 181.485C69.0234 177.04 63.214 171.587 58.3635 165.327C53.4942 159.116 49.5813 152.212 46.7548 144.843C45.3471 141.161 44.2221 137.378 43.3895 133.525C42.9633 131.6 42.6439 129.653 42.3698 127.701C42.23 126.725 42.1441 125.741 42.0297 124.762C41.9578 123.779 41.9121 122.796 41.8529 121.813C41.439 113.949 42.162 106.066 43.9995 98.4078C47.7948 83.1157 55.4568 69.0557 66.2502 57.5773C66.5698 57.2058 66.922 56.8654 67.2712 56.522L68.3163 55.4896L70.4081 53.4268L72.618 51.4892L73.7234 50.5212C74.0903 50.1964 74.4576 49.8725 74.8506 49.5805L77.1673 47.7784L78.3261 46.8779C78.7109 46.5759 79.1254 46.315 79.5237 46.0314C81.1425 44.9348 82.7108 43.7601 84.4032 42.7792C91.0397 38.6495 98.1364 35.3101 105.549 32.8289C106.65 32.4122 107.793 32.1228 108.92 31.7781L110.616 31.281L111.465 31.0337C111.749 30.9562 112.037 30.8938 112.323 30.8235L115.763 30.0072L116.623 29.8049L117.491 29.6419L119.227 29.322L120.961 29.0046L121.827 28.8467L122.7 28.7294L126.182 28.2675L127.05 28.1535L127.923 28.0809L129.664 27.9368L131.4 27.7937L132.267 27.7224L133.135 27.6905C134.242 27.6575 135.3 27.6258 136.311 27.5956C136.817 27.5888 137.31 27.561 137.792 27.5763L139.205 27.6205C141.042 27.6968 142.696 27.7264 144.178 27.925C145.66 28.0924 146.974 28.2508 148.131 28.4399C149.286 28.6679 150.287 28.8927 151.149 29.1124C153.66 29.7523 153.583 30.1687 151.377 30.3354C150.825 30.3769 150.14 30.4027 149.328 30.4118C148.923 30.4121 148.486 30.4125 148.016 30.4131C147.547 30.4146 147.045 30.4427 146.515 30.4517C145.452 30.4774 144.271 30.4908 142.97 30.492L138.73 30.6429C130.691 30.9638 122.705 32.0963 114.893 34.023C105.981 36.2117 97.4123 39.6165 89.4284 44.1416C88.4412 44.7187 87.475 45.3313 86.4972 45.9242L85.0346 46.8205C84.5573 47.1346 84.0928 47.4681 83.6213 47.7909L80.802 49.7425L78.0988 51.8493L76.7499 52.9055L75.4652 54.0367C74.6111 54.7933 73.7471 55.5389 72.9011 56.3039L70.4722 58.7168C70.0712 59.1227 69.654 59.5127 69.2663 59.931L68.1254 61.2075C55.8129 74.6815 47.9175 92.2018 46.3334 110.27C46.2523 111.517 46.1707 112.769 46.0889 114.028C46.0657 115.287 46.0881 116.551 46.0839 117.815L46.0849 118.764L46.0865 119.238L46.1198 119.712L46.2514 121.605C46.3496 122.866 46.3872 124.134 46.5685 125.381C46.6985 126.635 46.9115 127.876 47.1013 129.115C47.3422 130.346 47.55 131.579 47.8422 132.788C48.0958 134.007 48.4269 135.2 48.7273 136.392C49.0764 137.571 49.3866 138.754 49.7761 139.902C50.9575 143.598 52.4348 147.193 54.1936 150.651C55.9664 154.113 58.0078 157.431 60.2991 160.574C60.8538 161.373 61.478 162.12 62.0638 162.897C62.6685 163.658 63.3002 164.398 63.9231 165.145C65.2152 166.598 66.535 168.028 67.9368 169.375C70.7184 172.086 73.7244 174.558 76.9227 176.762C86.4873 183.42 97.7658 187.183 109.411 187.604C113.263 187.741 117.12 187.547 120.938 187.024C121.974 186.905 122.997 186.693 124.027 186.533C125.046 186.314 126.074 186.131 127.086 185.875L128.605 185.5C129.114 185.384 129.611 185.223 130.115 185.087C131.124 184.818 132.115 184.49 133.107 184.164C134.102 183.847 135.071 183.455 136.053 183.101L137.5 182.501C137.984 182.305 138.468 182.109 138.941 181.887L140.369 181.243C140.844 181.024 141.305 180.78 141.774 180.55C142.718 180.099 143.623 179.578 144.54 179.076C148.176 177.009 151.582 174.562 154.701 171.777C157.813 168.983 160.599 165.847 163.006 162.429L163.046 162.373C163.284 162.035 163.621 161.78 164.01 161.642C164.399 161.504 164.822 161.491 165.219 161.604C165.616 161.717 165.968 161.951 166.227 162.273C166.485 162.595 166.637 162.99 166.662 163.402C166.849 166.704 166.859 170.013 166.691 173.317C166.635 174.964 166.462 176.601 166.367 178.242C166.262 179.882 166.113 181.518 165.941 183.15C165.642 185.888 165.263 188.615 164.86 191.337C164.661 192.699 164.415 194.052 164.151 195.401C163.886 196.75 163.612 198.097 163.309 199.438L159.262 198.222C161.079 193.369 163.164 188.711 165.256 184.073C167.318 179.424 169.581 174.891 171.688 170.299C173.807 165.715 175.869 161.115 177.722 156.45C179.607 151.831 181.178 147.09 182.422 142.258L184.893 144.14C181.125 146.118 177.283 147.893 173.398 149.545C169.539 151.263 165.593 152.744 161.639 154.186C153.726 157.055 145.69 159.513 137.624 161.817C133.553 162.977 129.531 164.056 125.556 165.052L125.144 161.933C128.215 161.96 131.251 162.085 134.24 162.137C137.23 162.2 140.172 162.284 143.068 162.387C148.854 162.604 154.438 162.911 159.759 163.424C163.019 163.744 164.519 164.275 164.266 164.693C164.011 165.12 162.023 165.435 158.253 165.523L125.144 166.452C124.432 166.472 123.737 166.231 123.19 165.775C122.643 165.318 122.282 164.678 122.174 163.973C122.066 163.269 122.219 162.55 122.605 161.951C122.99 161.352 123.582 160.914 124.267 160.72L124.384 160.688L124.406 160.682C133.237 158.211 142.311 155.778 151.125 152.939C151.141 152.903 151.158 152.868 151.177 152.833Z" fill="black"/>
</svg>
