<svg width="230" height="230" viewBox="0 0 230 230" fill="none" xmlns="http://www.w3.org/2000/svg">
<path d="M126.385 49.9609L124.495 49.6736L122.597 49.4551L121.648 49.345L120.696 49.2683L118.792 49.1182C116.25 48.993 113.701 48.9104 111.159 49.0295C106.072 49.2001 101.017 49.9031 96.0759 51.1271C91.1307 52.3535 86.3331 54.1127 81.7672 56.3737L80.0588 57.2402C79.4915 57.5332 78.9105 57.8014 78.366 58.138L75.0507 60.07L71.8411 62.1822C70.7841 62.906 69.7727 63.6968 68.7347 64.45C60.0327 71.111 52.7279 79.4206 47.2372 88.9046C43.5875 95.1984 40.7991 101.954 38.9465 108.989L38.2798 111.624L37.7573 114.287L37.4981 115.618C37.4037 116.061 37.3685 116.512 37.3003 116.958L36.9369 119.643C36.8146 120.538 36.7871 121.441 36.7065 122.339L36.6037 123.688C36.5884 123.913 36.565 124.137 36.5563 124.362L36.5467 125.038L36.5057 127.738L36.4947 128.414C36.4953 128.638 36.5136 128.863 36.5223 129.087L36.5863 130.435C36.7423 134.022 37.1886 137.592 37.921 141.107L38.5688 143.715L38.8904 145.019L39.2998 146.297L40.1207 148.853C40.4184 149.696 40.7775 150.516 41.1012 151.35C41.7124 153.033 42.5497 154.618 43.3175 156.232C43.6788 157.051 44.1661 157.806 44.6016 158.587C45.0505 159.36 45.4841 160.143 45.9429 160.91L47.4419 163.139C47.9226 163.895 48.4412 164.626 48.9958 165.329C50.1097 166.734 51.1578 168.189 52.3793 169.509C54.7535 172.21 57.3304 174.725 60.0876 177.033C62.8583 179.332 65.7865 181.435 68.8506 183.326C69.6259 183.783 70.3846 184.269 71.1722 184.704L73.5427 185.998L75.9634 187.194C76.7647 187.605 77.6047 187.932 78.4227 188.306C81.7243 189.733 85.122 190.925 88.5908 191.875C95.5049 193.752 102.671 194.53 109.827 194.18C116.902 193.797 123.839 192.065 130.264 189.077C134.164 187.208 137.81 184.849 141.112 182.057C144.394 179.242 147.294 176.01 149.737 172.444C154.649 165.201 157.849 156.937 159.097 148.275C160.368 139.649 159.705 130.728 156.796 122.613C153.839 114.373 149.08 106.898 142.865 100.733C139.806 97.6836 136.359 95.0511 132.611 92.9037C128.926 90.7939 124.922 89.2965 120.756 88.4698C116.632 87.6842 112.401 87.6517 108.266 88.3738C107.748 88.4504 107.234 88.556 106.728 88.6901L105.197 89.0463L103.696 89.5182C103.191 89.6616 102.694 89.8309 102.207 90.0255C101.237 90.424 100.243 90.7686 99.314 91.2632L97.898 91.9529L96.5369 92.7463C95.6077 93.2402 94.773 93.8844 93.8968 94.463C93.4503 94.7419 93.0642 95.102 92.6471 95.4205C92.2394 95.7513 91.8199 96.068 91.4197 96.4076C89.8407 97.7918 88.385 99.3106 87.069 100.947C84.4268 104.221 82.3989 107.945 81.0834 111.941C78.4599 119.93 78.6739 128.926 81.897 136.622C83.8127 141.279 86.8297 145.401 90.6892 148.635C91.6168 149.427 92.6092 150.14 93.6558 150.767C94.6754 151.384 95.75 151.906 96.8659 152.326C97.9496 152.733 99.0732 153.026 100.218 153.198C100.777 153.278 101.34 153.327 101.905 153.345C102.181 153.342 102.47 153.346 102.737 153.337C102.993 153.317 103.25 153.312 103.51 153.27C105.43 153 107.267 152.307 108.887 151.241C110.27 150.361 111.485 149.241 112.475 147.935C113.954 146.008 114.672 143.604 114.491 141.181C114.378 139.713 114.236 138.835 114.573 138.565C114.731 138.433 114.979 138.463 115.325 138.673C115.818 139.002 116.239 139.427 116.564 139.922C117.134 140.749 117.55 141.671 117.793 142.645C118.139 144.034 118.198 145.479 117.964 146.892C117.455 150.102 115.378 153.706 111.762 156.327C109.383 158.081 106.594 159.194 103.661 159.56C100.726 159.852 97.762 159.512 94.9692 158.564C92.2634 157.653 89.7231 156.31 87.447 154.586C85.2654 152.946 83.285 151.054 81.5469 148.949C80.5591 147.759 79.6455 146.51 78.8111 145.207C77.9896 143.904 77.2462 142.554 76.5847 141.162C75.2708 138.395 74.2797 135.485 73.6309 132.491C72.3555 126.534 72.3578 120.374 73.6378 114.418C73.9544 112.937 74.3465 111.473 74.8126 110.031C75.2888 108.592 75.84 107.178 76.464 105.797C76.761 105.099 77.1179 104.428 77.4525 103.747C77.8094 103.078 78.2015 102.428 78.576 101.768L79.1474 100.784L79.7868 99.8438C80.2214 99.2225 80.625 98.5783 81.0879 97.9786C82.9271 95.5677 85.0035 93.3473 87.2859 91.3508C89.6046 89.4004 92.1084 87.6813 94.7616 86.2181C97.443 84.8029 100.259 83.6601 103.169 82.8068C103.896 82.5936 104.641 82.443 105.376 82.26L106.484 82.0017L107.608 81.8205C108.359 81.7114 109.104 81.5571 109.86 81.4888L112.131 81.3014C112.509 81.2648 112.889 81.2497 113.269 81.2562L114.409 81.2497L115.549 81.2451C115.929 81.2359 116.308 81.2887 116.687 81.3079L118.962 81.4756C119.713 81.5807 120.467 81.6683 121.215 81.7946C124.2 82.3042 127.125 83.1145 129.947 84.2131C135.531 86.4316 140.693 89.5894 145.211 93.5496C149.697 97.4598 153.626 101.966 156.888 106.943C160.593 112.503 163.386 118.619 165.161 125.061C166.847 131.464 167.39 138.114 166.764 144.706C166.289 149.796 165.241 154.817 163.642 159.673C162.039 164.528 159.873 169.179 157.188 173.53C155.841 175.71 154.357 177.803 152.746 179.797C151.12 181.789 149.364 183.672 147.49 185.433C143.726 188.95 139.49 191.923 134.903 194.268C130.336 196.609 125.486 198.351 120.474 199.452C115.489 200.533 110.394 201.022 105.295 200.911C95.1619 200.686 85.1776 198.424 75.9367 194.26C69.0939 191.216 62.6939 187.261 56.9106 182.502C54.0257 180.107 51.3068 177.52 48.7729 174.756L46.9307 172.627L46.4714 172.094L46.0414 171.535L45.1818 170.418L43.4651 168.181L41.8993 165.832L41.12 164.655L40.7309 164.066C40.6057 163.867 40.4959 163.659 40.3777 163.455L38.9855 160.996L38.2927 159.764L37.6834 158.489L36.4685 155.936C36.2539 155.516 36.0941 155.072 35.9193 154.634L35.4017 153.318L34.8854 152.002C34.7175 151.562 34.5278 151.13 34.399 150.676L33.5497 147.98L33.1298 146.63L32.7973 145.258L32.1366 142.511C31.9346 141.592 31.8057 140.659 31.638 139.734L31.4011 138.343L31.2841 137.647L31.2105 136.946L30.9191 134.142C30.7986 133.209 30.7805 132.27 30.7421 131.332L30.6357 128.52L30.7001 125.709L30.7343 124.305C30.7379 123.836 30.8022 123.371 30.8335 122.905C31.7738 109.571 36.1657 96.669 42.9596 85.3245C49.7851 73.9313 59.0415 64.1853 70.0682 56.7824C75.5842 53.105 81.5176 50.0961 87.7437 47.8192C90.8722 46.7241 94.0635 45.8177 97.3006 45.1049C100.537 44.4135 103.812 43.9213 107.109 43.631C120.294 42.4806 133.632 44.5811 145.906 49.2598C150.732 51.0977 155.384 53.3627 159.806 56.028C164.072 58.5808 168.097 61.5153 171.832 64.7956C175.402 67.9135 178.681 71.3495 181.628 75.0614C184.385 78.569 186.881 82.2738 189.097 86.1461C191.07 89.5915 191.556 91.456 190.987 91.4755C190.395 91.5115 188.757 89.7031 186.026 86.1186C182.157 80.9647 177.793 76.2008 172.998 71.895C168.118 67.5589 162.778 63.7701 157.073 60.5964C147.735 55.3372 137.239 51.4775 126.495 49.8721C126.46 49.9036 126.423 49.9332 126.385 49.9609Z" fill="black"/>
<path d="M176.084 83.3131C177.628 84.1637 179.172 85.0187 180.739 85.8328C181.559 86.284 182.41 86.6779 183.284 87.0117C185.637 87.8336 188.013 88.6062 190.391 89.396L192.175 89.9929L193.066 90.2954L193.122 90.3145C193.105 90.3052 193.086 90.2973 193.068 90.291C193.016 90.2714 192.967 90.2537 192.917 90.2391C192.609 90.1451 192.282 90.1297 191.966 90.1941C191.832 90.2213 191.701 90.2609 191.575 90.3123C191.503 90.3426 191.443 90.3689 191.355 90.4156C191.262 90.4641 191.173 90.5199 191.089 90.5825C190.775 90.8079 190.516 91.1016 190.332 91.4414C190.229 91.6416 190.152 91.8541 190.102 92.0739C190.097 92.0604 190.091 92.0128 190.08 91.9409L190.028 91.5081L189.919 90.5576C189.578 87.4418 189.354 84.3757 189.07 81.3797C188.82 78.4438 188.416 75.5231 187.86 72.6296C187.724 71.7509 187.692 70.8593 187.766 69.9732C187.806 69.113 188.47 68.363 189.464 67.6912C190.902 66.7099 192.735 66.6611 193.517 67.8384C193.973 68.5983 194.245 69.4542 194.312 70.338C194.683 74.2184 195.311 78.0698 196.193 81.8668C196.446 82.8997 196.804 83.9637 196.653 84.9902C196.455 86.5918 196.438 88.2107 196.602 89.8161L196.709 91.0004L196.738 91.3099C196.751 91.4555 196.762 91.6071 196.768 91.7749C196.785 92.1638 196.766 92.5535 196.712 92.939C196.631 93.5295 196.438 94.0992 196.144 94.6174C195.727 95.3464 195.095 95.9283 194.334 96.2833C193.723 96.5652 193.056 96.7011 192.384 96.6805C191.923 96.6673 191.466 96.5828 191.031 96.4298C190.958 96.4049 190.884 96.375 190.811 96.3458C190.788 96.3375 190.766 96.3279 190.745 96.3171L190.711 96.3C188.571 95.2214 186.298 94.427 184.107 93.4283C180.197 91.6532 176.313 89.7773 172.453 87.8798C170.834 87.1411 169.555 85.8165 168.874 84.1727C168.525 83.3292 169.181 81.9488 170.013 81.9385C171.171 81.9309 172.326 82.0679 173.45 82.3461C174.34 82.628 175.205 82.9823 176.036 83.4054L176.084 83.3131Z" fill="black"/>
</svg>
