<svg width="230" height="228" viewBox="0 0 230 228" fill="none" xmlns="http://www.w3.org/2000/svg">
<path d="M102.197 62.6354C102.012 67.2448 101.822 71.8531 101.675 76.4671C101.595 78.913 101.515 81.371 101.556 83.8149C101.668 90.3374 101.845 96.8581 101.991 103.379C102.142 109.9 102.292 116.42 102.39 122.942C102.511 130.974 102.637 139.007 102.706 147.04C102.765 155.074 102.841 163.108 102.933 171.141C102.964 173.564 102.796 176.015 102.645 178.414C102.494 180.711 101.869 182.212 101.042 183.156C99.8389 184.53 98.4856 183.217 98.0479 179.97C97.7869 177.834 97.6697 175.684 97.6969 173.533C97.7178 163.716 97.4025 153.944 96.6452 144.17C96.4397 141.473 96.1594 138.667 96.3058 136.037C96.7803 127.639 96.2344 119.201 96.381 110.794C96.4943 104.547 96.3426 98.2692 96.4123 92.0094C96.5236 80.8461 96.7357 69.6885 96.9535 58.5307C96.9995 56.3691 97.1791 54.2124 97.4913 52.0726C97.5685 51.555 97.6542 51.0432 97.7483 50.5372C97.8543 50.0313 97.9694 49.5315 98.0871 49.0384C98.3183 48.0519 98.5903 47.0916 98.8501 46.1603C99.3367 44.4474 100.235 44.5651 100.757 46.5571C100.845 46.9095 100.934 47.264 101.023 47.6205C101.107 47.9769 101.167 48.335 101.239 48.6947C101.368 49.414 101.539 50.1394 101.625 50.8684C101.791 52.3262 101.93 53.7991 102.045 55.2682C102.263 57.6838 102.093 60.1635 102.1 62.6137L102.197 62.6354Z" fill="black"/>
<path d="M107.26 62.5455C106.321 61.008 105.444 59.4499 104.571 57.9021C104.131 57.0729 103.646 56.268 103.118 55.4912C101.658 53.4677 100.226 51.4355 98.8207 49.3945L97.7787 47.8575L97.2644 47.086L97.0083 46.6995L96.8804 46.5062C96.8788 46.5044 96.8618 46.476 96.8725 46.496L96.9019 46.5483C96.9222 46.5829 96.944 46.6166 96.9671 46.6497C97.0136 46.7141 97.0641 46.7766 97.1205 46.8457C97.3572 47.1143 97.6532 47.325 97.9855 47.4616C98.3178 47.5982 98.6774 47.657 99.0363 47.6333C99.3953 47.6096 99.7438 47.5042 100.055 47.3251C100.366 47.1461 100.631 46.8983 100.83 46.601C100.927 46.4576 101.008 46.3037 101.071 46.1423L101.011 46.3232L100.865 46.7622L100.567 47.6398C98.6023 53.5402 96.0854 59.2455 93.0493 64.6814C92.5262 65.5064 91.8843 66.2512 91.1438 66.892C90.4576 67.535 89.4234 67.5662 88.3292 67.2588C86.732 66.8031 85.6094 65.4256 85.8992 64.2565C86.1057 63.5102 86.4668 62.8147 86.9596 62.2143C89.1041 59.3511 90.6359 56.0836 91.4607 52.6124C91.7021 51.6454 91.8486 50.6023 92.4078 49.7881C93.26 48.4772 93.9477 47.0682 94.4558 45.5922L94.8595 44.4915L95.0929 43.8601C95.3427 43.2201 95.7566 42.6557 96.2937 42.2226C96.8307 41.7895 97.4723 41.5027 98.1553 41.3904C98.8383 41.2781 99.539 41.3443 100.188 41.5823C100.838 41.8204 101.413 42.2221 101.858 42.7479C101.978 42.8913 102.088 43.0429 102.187 43.2014L102.258 43.3159L102.275 43.3484L102.309 43.4135L102.574 43.9389C103.592 46.0402 104.882 47.9882 106.023 50.0082C108.063 53.6093 110.143 57.1678 112.491 60.5351C113.5 61.9075 114.013 63.5761 113.949 65.2726C113.931 65.4971 113.866 65.7153 113.757 65.913C113.649 66.1107 113.499 66.2833 113.318 66.4195C113.145 66.5682 112.939 66.6733 112.716 66.726C112.493 66.7787 112.261 66.7774 112.039 66.7221C110.978 66.1998 109.999 65.5288 109.13 64.7297C108.465 64.0419 107.867 63.293 107.344 62.493L107.26 62.5455Z" fill="black"/>
<path d="M133.684 113.065C131.736 113.165 129.802 113.313 127.894 113.602C126.882 113.736 125.883 113.956 124.91 114.261C119.923 115.907 115.39 118.68 111.668 122.36C110.576 123.459 109.574 124.642 108.671 125.898L108.041 126.872C107.836 127.201 107.598 127.507 107.426 127.857L106.864 128.878L106.581 129.386L106.339 129.92C104.991 132.8 104.052 135.851 103.548 138.987C103.471 139.475 103.348 139.955 103.181 140.421L102.922 141.133C102.841 141.373 102.761 141.613 102.681 141.852C102.365 142.766 101.483 143.323 100.362 143.66C98.7291 144.158 97.0773 143.506 96.7965 141.969C96.7102 141.479 96.6792 140.981 96.7042 140.484C96.7497 139.983 96.8358 139.486 96.9618 138.999C97.0971 138.444 97.2247 137.889 97.3446 137.335L97.784 135.68C97.9341 135.13 98.0382 134.573 98.2058 134.025C98.3699 133.477 98.5271 132.927 98.6775 132.376L98.9002 131.546L99.1689 130.726C99.3451 130.177 99.5155 129.625 99.6801 129.069L100.265 127.422C100.456 126.868 100.64 126.308 100.878 125.765C101.126 125.162 101.352 124.524 101.64 123.921C101.941 123.336 102.317 122.791 102.76 122.302C103.1 121.917 103.491 121.569 103.841 121.195L104.885 120.077C105.247 119.718 105.601 119.354 105.951 118.986C106.128 118.804 106.295 118.613 106.477 118.436L107.03 117.913L108.133 116.866L109.3 115.896C109.497 115.738 109.688 115.572 109.893 115.424L110.514 114.992C110.932 114.712 111.347 114.424 111.782 114.174C114.305 112.642 116.973 111.358 119.748 110.34C124.679 108.648 129.767 107.92 134.74 107.535C135.71 107.442 136.69 107.504 137.64 107.72C138.111 107.835 138.574 107.983 139.024 108.163C139.483 108.373 139.932 108.579 140.371 108.78C140.546 108.839 140.703 108.943 140.825 109.081C140.947 109.22 141.029 109.388 141.063 109.568C141.078 109.762 141.042 109.957 140.959 110.133C140.856 110.377 140.697 110.594 140.495 110.767C140.192 110.979 139.885 111.193 139.576 111.41C139.281 111.596 138.969 111.753 138.644 111.881C138.336 112.017 138.026 112.147 137.713 112.271C137.404 112.384 137.093 112.459 136.782 112.543C135.757 112.743 134.721 112.885 133.679 112.966L133.684 113.065Z" fill="black"/>
<path d="M130.19 118.532C131.058 117.49 131.959 116.481 132.856 115.479C133.348 114.966 133.803 114.419 134.218 113.844C135.115 112.505 136.037 111.178 137.007 109.881C137.964 108.572 139.002 107.323 140.115 106.141L140.832 111.174C140.388 110.936 139.949 110.689 139.5 110.458C135.73 108.419 131.806 106.673 127.763 105.236C127.141 104.968 126.563 104.61 126.048 104.174C125.521 103.775 125.319 102.998 125.306 102.069C125.283 100.721 125.996 99.4945 127.013 99.3727C127.646 99.3224 128.282 99.4296 128.863 99.6844C131.471 100.825 134.184 101.712 136.964 102.333C137.746 102.504 138.602 102.615 139.21 103.117C140.65 104.294 142.304 105.018 143.893 105.893C144.27 106.101 144.595 106.391 144.843 106.74C145.091 107.09 145.257 107.491 145.326 107.913C145.396 108.335 145.369 108.767 145.247 109.177C145.124 109.587 144.91 109.964 144.62 110.281L144.532 110.374C144.139 110.804 143.725 111.213 143.291 111.601C142.008 112.691 140.976 114.022 139.843 115.26C137.8 117.474 135.896 119.812 134.144 122.26C133.76 122.805 133.266 123.266 132.695 123.614C132.123 123.961 131.485 124.189 130.821 124.282C130.47 124.363 130.1 124.304 129.792 124.119C129.619 124.015 129.463 123.885 129.329 123.735C129.171 123.57 129.044 123.379 128.953 123.17L128.827 122.757C128.812 122.64 128.81 122.521 128.822 122.404C128.832 122.173 128.856 121.948 128.887 121.724C128.941 121.284 129.042 120.85 129.187 120.43C129.473 119.776 129.836 119.157 130.269 118.588C130.243 118.569 130.218 118.552 130.19 118.532Z" fill="black"/>
</svg>
