<svg width="228" height="230" viewBox="0 0 228 230" fill="none" xmlns="http://www.w3.org/2000/svg">
<path d="M90.5124 183.263C90.657 182.801 90.7872 182.332 90.9203 181.865L91.3022 180.41L92.0965 177.377C92.6344 175.358 93.1877 173.342 93.7567 171.331C94.8957 167.309 96.0992 163.305 97.3671 159.321C99.9064 151.355 102.718 143.48 105.803 135.697C109.086 127.45 112.689 119.327 116.612 111.33C118.415 107.637 120.349 104.001 122.415 100.421C124.479 96.8459 126.675 93.3325 129.078 89.9483C131.464 86.5378 134.041 83.2667 136.795 80.1507C139.574 77.0267 142.549 74.0858 145.702 71.3463C146.064 71.0336 146.496 70.8144 146.961 70.7076C147.426 70.6009 147.91 70.6098 148.37 70.7336C148.831 70.8574 149.255 71.0923 149.605 71.4182C149.956 71.7441 150.223 72.1511 150.383 72.6042L150.395 72.6419C151.558 75.9757 153.226 79.108 155.338 81.9275C155.866 82.6301 156.422 83.3102 156.997 83.972C157.454 84.5256 157.96 85.0357 158.509 85.496C158.608 85.5731 158.715 85.6375 158.829 85.6877C158.857 85.6953 158.803 85.6992 158.84 85.7027C158.96 85.6703 159.075 85.6194 159.18 85.5519C159.351 85.4436 159.505 85.3107 159.638 85.1576C159.716 85.0681 159.79 84.9739 159.858 84.8754C159.893 84.8244 159.927 84.7706 159.961 84.7154L160.128 84.4267L160.831 83.2007C161.293 82.379 161.73 81.5435 162.169 80.7093C162.613 79.8781 163.043 79.0393 163.467 78.1972C163.898 77.3591 164.319 76.5154 164.728 75.6662C165.145 74.821 165.555 73.9724 165.951 73.117C166.354 72.2648 166.754 71.4115 167.137 70.5499C167.923 68.8369 168.7 67.1197 169.442 65.3864C170.937 61.9248 172.314 58.4128 173.618 54.8734C174.926 51.3353 176.131 47.7597 177.232 44.1465L178.032 41.45C178.24 40.729 178.375 39.9885 178.435 39.2399C178.448 39.0675 178.444 38.909 178.452 38.744C178.438 38.6006 178.445 38.4349 178.42 38.3092C178.422 38.1882 178.409 38.0674 178.381 37.9498C178.374 37.8998 178.365 37.8501 178.353 37.8011C178.338 37.7655 178.327 37.7287 178.319 37.6911C178.314 37.6622 178.304 37.6348 178.287 37.6109C178.276 37.594 178.277 37.555 178.266 37.5477C178.245 37.5378 178.254 37.4922 178.237 37.4963C178.244 37.4568 178.182 37.4453 178.082 37.3732C178.003 37.3589 177.908 37.3345 177.836 37.3149C177.753 37.3094 177.669 37.3094 177.585 37.3151L177.386 37.3331L177.055 37.3734L176.348 37.4597L173.52 37.805L167.883 38.5149C162.935 39.1354 158.014 39.8149 153.154 40.7211C148.317 41.6095 143.534 42.7727 138.827 44.2049C134.181 45.6429 129.662 47.4688 125.316 49.6637L123.705 50.4938C123.169 50.7723 122.658 51.094 122.133 51.3913L120.569 52.2992C120.349 52.4225 120.136 52.5577 119.93 52.704C119.742 52.8347 119.564 52.975 119.395 53.1157C119.096 53.3598 118.827 53.6398 118.595 53.9494C118.413 54.1944 118.366 54.3864 118.402 54.2996C118.419 54.2252 118.421 54.1478 118.406 54.0728C118.406 54.0282 118.368 53.9862 118.378 53.9644C118.376 53.9387 118.339 53.916 118.364 53.9224C118.379 53.9381 118.345 53.9159 118.385 53.942C118.456 53.993 118.532 54.0378 118.61 54.076L118.091 53.8598L124.783 55.8845L128.129 56.8972L129.802 57.4037L130.638 57.6593L130.847 57.7245C130.905 57.7818 130.982 57.7821 131.048 57.8137L131.461 57.9591L133.111 58.5407L133.523 58.6861L133.626 58.7225L133.822 58.791C134.025 58.8658 134.22 58.9605 134.404 59.0736C134.885 59.3669 135.286 59.7773 135.569 60.2673C135.852 60.7573 136.009 61.3111 136.024 61.878C136.04 62.4449 135.915 63.0067 135.66 63.512C135.404 64.0173 135.027 64.4498 134.563 64.7699C134.478 64.8282 134.39 64.8831 134.301 64.9339L134.238 64.9695L134.21 64.9864L133.982 65.1171C133.896 65.1592 133.813 65.2071 133.733 65.2603L133.433 65.4673C133.232 65.6049 133.032 65.7345 132.816 65.9067L132.177 66.3918L131.532 66.9128C129.818 68.3357 128.04 69.8213 126.339 71.3846L126.184 71.5364C126.085 71.4477 126.144 71.5212 126.116 71.5056L126.094 71.522L126.051 71.5546L125.963 71.6204L125.614 71.8849L124.916 72.4143L123.521 73.4815C122.594 74.1922 121.736 74.9897 120.959 75.8632L119.731 77.1208C119.317 77.5434 118.917 77.956 118.443 78.4162L115.914 80.8324C112.553 84.061 109.238 87.3255 106.023 90.6736L103.631 93.2004L101.233 95.7687L96.4287 100.891C93.2282 104.303 90.0371 107.714 86.8901 111.157C83.7432 114.6 80.649 118.08 77.6257 121.614C74.5922 125.141 71.6458 128.726 68.8077 132.405C63.5057 139.185 58.5857 146.26 54.0708 153.598C52.3049 156.425 50.7207 159.365 49.3281 162.397C48.4652 164.35 47.7544 166.368 47.2022 168.433C47.0226 169.011 46.9431 169.454 46.8142 169.758C46.6971 170.061 46.5821 170.226 46.4707 170.249C46.2523 170.296 46.0276 169.773 45.8647 168.677C45.7151 167.054 45.8098 165.417 46.1457 163.823C46.6726 161.285 47.5089 158.824 48.6355 156.493C49.4393 154.765 50.3515 153.056 51.3143 151.368C52.2804 149.68 53.2766 148.014 54.3162 146.335C56.3931 142.99 58.6147 139.702 60.8719 136.584C66.0638 129.4 71.6569 122.536 77.4999 115.939C83.3454 109.343 89.3957 102.974 95.4068 96.602L99.9064 91.8198C101.395 90.226 102.92 88.6075 104.454 87.0344C107.527 83.8774 110.668 80.7991 113.833 77.759L116.185 75.5013L118.457 73.1772C120.065 71.685 121.324 69.8356 122.724 68.1077L122.757 68.0668L122.773 68.0463C122.814 68.0764 122.735 67.9823 122.75 67.9855L122.824 67.9122L122.97 67.7657C123.069 67.6696 123.164 67.5682 123.257 67.4657L123.82 66.8544L124.959 65.6373C125.726 64.8298 126.498 64.017 127.308 63.2288C128.131 62.4367 128.941 61.654 129.909 60.8621L130.276 60.5648C130.405 60.4556 130.54 60.3538 130.681 60.2597L131.143 59.9461L131.377 59.7915L131.435 59.7531C131.971 60.7375 130.277 57.5221 132.644 61.9555L132.651 61.9669C132.655 61.9747 132.661 61.9816 132.668 61.9872C132.668 61.9872 132.655 61.9836 132.659 61.9845C132.663 61.9855 132.68 61.9734 132.672 61.9805C132.664 61.9916 132.659 62.0038 132.655 62.0167C131.158 66.8909 132.226 63.3641 131.885 64.4503L131.86 64.4438L131.811 64.4309L131.613 64.3789L130.821 64.1714C130.213 64.0194 129.611 63.8392 128.992 63.7106L127.181 63.1632C125.973 62.7947 124.761 62.4253 123.546 62.0548L116.262 59.8089C116.091 59.7565 115.926 59.6887 115.768 59.6063L115.746 59.5943C115.303 59.3623 114.885 59.0858 114.497 58.769C114.279 58.5904 114.074 58.3977 113.882 58.1921C113.681 57.9794 113.499 57.7495 113.338 57.5049C112.979 57.0017 112.703 56.4431 112.522 55.8509C112.327 55.2146 112.249 54.548 112.291 53.8835C112.376 52.7691 112.746 51.6958 113.363 50.7676C113.825 50.0594 114.378 49.4165 115.008 48.8561C115.564 48.3547 116.159 47.9011 116.789 47.4998L117.252 47.2173L117.644 47.0023L118.429 46.5745L119.992 45.7303C120.253 45.5926 120.509 45.4483 120.772 45.3179L121.566 44.9444L124.203 43.707L126.884 42.5905C127.772 42.2018 128.684 41.8858 129.588 41.5501C130.495 41.2232 131.392 40.8637 132.312 40.583L135.056 39.6898L137.821 38.8924C138.742 38.623 139.666 38.3801 140.593 38.1426C141.52 37.9086 142.441 37.6428 143.373 37.442C150.809 35.6855 158.312 34.4921 165.792 33.474C167.661 33.2245 169.533 32.9864 171.401 32.7739L177.088 32.1226C177.441 32.0936 177.796 32.091 178.15 32.1148C178.522 32.1514 178.891 32.2127 179.256 32.2985L179.524 32.3561L179.805 32.452C179.992 32.5185 180.179 32.5888 180.363 32.6632C180.744 32.8405 181.107 33.0554 181.446 33.3049C182.111 33.8211 182.656 34.4788 183.042 35.2313C183.133 35.4007 183.213 35.5766 183.28 35.7575C183.347 35.9313 183.428 36.1138 183.476 36.2837C183.578 36.616 183.66 36.9545 183.72 37.2972C183.91 38.499 183.91 39.7235 183.72 40.9254C183.555 41.9698 183.318 43.0013 183.01 44.0125C180.993 51.4075 178.492 58.6593 175.522 65.7199C172.353 73.1992 168.728 80.4737 164.669 87.5018C163.942 88.8128 162.856 89.8853 161.542 90.5913C160.767 91.0077 159.912 91.248 159.036 91.2951C158.124 91.3302 157.217 91.1454 156.391 90.7561C155.719 90.4371 155.095 90.0258 154.536 89.534C154.082 89.1392 153.654 88.714 153.257 88.2613C152.532 87.4709 151.851 86.6415 151.194 85.7937C148.572 82.3859 146.514 78.5724 145.099 74.501L149.321 75.6664C144.592 79.766 140.261 84.3108 136.386 89.2392C130.342 96.9132 125.332 105.448 120.906 114.297C116.497 123.166 112.561 132.327 109.034 141.624C105.508 150.929 102.384 160.383 99.6598 169.986C98.9754 172.382 98.3138 174.785 97.6749 177.195L96.7334 180.815L96.269 182.64C96.1082 183.269 95.9359 183.896 95.7522 184.519C95.0402 187.075 94.0618 189.547 92.8334 191.895C92.1586 193.19 91.2865 194.371 90.2488 195.394L89.7994 195.796C89.4591 196.059 89.1029 196.3 88.7328 196.517C88.525 196.618 88.3151 196.714 88.103 196.806C87.9076 196.896 87.7046 196.968 87.4965 197.022C87.3041 197.083 87.1085 197.133 86.9105 197.172C86.5254 197.254 86.1358 197.312 85.7437 197.348C83.2784 197.512 81.1311 196.893 79.1753 196.167C77.2861 195.426 75.4552 194.543 73.6982 193.523C71.9808 192.546 70.3446 191.511 68.7524 190.476L66.3952 188.932C65.6227 188.428 64.8836 187.971 64.0949 187.516C60.9594 185.716 57.6497 184.103 54.6536 182.091C53.1561 181.113 51.7613 179.983 50.491 178.72C50.1922 178.391 49.8821 178.081 49.6032 177.742C49.3346 177.392 49.0568 177.056 48.8073 176.702C48.5747 176.333 48.3393 175.972 48.1201 175.605C47.9132 175.232 47.7368 174.842 47.5925 174.439C47.1942 173.382 47.065 172.24 47.2167 171.119C47.3101 170.416 47.5491 170.13 47.7419 170.23C47.8043 170.264 47.8576 170.313 47.8972 170.373C47.9531 170.469 48.0144 170.561 48.081 170.65C48.2027 170.879 48.3455 171.19 48.5192 171.567C48.7177 172.006 48.9411 172.432 49.1884 172.845C49.5096 173.344 49.858 173.824 50.2322 174.284C50.9101 175.112 51.6753 175.863 52.5144 176.525C53.429 177.225 54.3911 177.86 55.3936 178.425C57.4477 179.61 59.7456 180.62 62.1092 181.681C63.2994 182.213 64.5089 182.753 65.7412 183.347C66.3591 183.655 66.9766 183.949 67.6038 184.298L68.5327 184.809L69.3975 185.307C71.6851 186.634 73.9012 187.942 76.1209 189.091C77.8655 190.025 79.6801 190.819 81.5478 191.466C82.3685 191.743 83.2141 191.938 84.0725 192.049C84.7181 192.144 85.3759 192.11 86.0085 191.948C86.1726 191.916 86.1489 191.875 86.2067 191.87C86.2188 191.864 86.2281 191.873 86.2452 191.86L86.2999 191.815C86.3373 191.786 86.377 191.76 86.4184 191.738C86.5037 191.689 86.6121 191.557 86.7167 191.48C86.8244 191.389 86.9395 191.228 87.0562 191.111C87.5881 190.443 88.0496 189.722 88.433 188.958C89.3187 187.163 90.0392 185.29 90.5854 183.362C90.5601 183.33 90.5369 183.3 90.5124 183.263Z" fill="black"/>
</svg>
