<svg width="195" height="195" viewBox="0 0 195 195" fill="none" xmlns="http://www.w3.org/2000/svg">
<path d="M60.075 75.6659C61.2897 83.9392 61.7274 92.3004 61.4445 100.63C61.3926 101.734 61.3406 102.838 61.2885 103.944L61.2122 105.601C61.1744 106.153 61.1122 106.703 61.0643 107.254L60.7695 110.559C60.6764 111.661 60.6018 112.763 60.4433 113.855L59.8995 118.238L59.7635 119.334C59.7105 119.698 59.6394 120.059 59.5782 120.422L59.1972 122.598L58.8159 124.775C58.6848 125.499 58.5775 126.229 58.3978 126.944L57.4155 131.255L57.1695 132.333C57.0905 132.693 57.0067 133.052 56.8997 133.405L56.2982 135.533C55.892 136.951 55.5062 138.375 55.0817 139.788L53.6554 143.979L52.9405 146.076L52.1178 148.133L50.4652 152.246L50.3617 152.503C50.4327 152.368 50.5469 152 50.5453 151.664C50.5588 151.306 50.4615 150.928 50.3096 150.616C50.1503 150.302 49.9381 150.053 49.699 149.864C49.4572 149.677 49.186 149.536 48.8719 149.46C48.5561 149.377 48.1961 149.37 47.8287 149.45C47.4638 149.537 47.1259 149.707 46.8795 149.922C46.7627 150.018 46.6653 150.115 46.5794 150.229L46.6626 150.123L47.9953 148.413L53.3312 141.576L64.0375 127.929L77.2783 111.163L83.9126 102.789L85.5723 100.697C86.1397 99.9789 86.6636 99.3395 87.032 98.7786C87.4095 98.2173 87.6369 97.7169 87.6957 97.4276C87.7253 97.2822 87.7249 97.1938 87.7154 97.1142C87.7132 97.0418 87.6855 96.9488 87.6144 96.7876C87.4735 96.4662 87.093 95.9447 86.5538 95.3266L84.8859 93.3872L81.5658 89.5031C79.3602 86.9125 77.1707 84.3187 74.995 81.7151C70.6427 76.5091 66.3482 71.2586 62.0492 65.9369C59.4586 62.7292 56.8706 59.2477 54.2682 55.8157C51.7858 52.5263 50.1134 49.7894 48.9773 47.5948C48.153 45.996 48.0636 45.2805 48.6976 45.4619C49.3281 45.6439 50.6901 46.7214 52.6787 48.7277C55.1923 51.2651 57.9806 54.2987 60.5861 57.2685C66.5626 64.0574 72.5294 70.8352 78.4921 77.6084C81.4729 80.9624 84.4527 84.3152 87.4322 87.6677L89.6738 90.1733L90.7966 91.4253C91.1713 91.8426 91.5865 92.3065 92.0011 92.8694C92.4129 93.4271 92.8331 94.0958 93.1475 94.913C93.4647 95.7259 93.6375 96.7093 93.5823 97.6175C93.5373 98.5329 93.3124 99.3712 93.0275 100.094C92.7405 100.82 92.3948 101.447 92.0432 102.01C91.6539 102.629 91.2524 103.183 90.8719 103.695C90.511 104.181 90.1489 104.667 89.7862 105.155C89.0582 106.124 88.3278 107.096 87.5999 108.065C86.1321 109.993 84.6417 111.883 83.1192 113.644C73.3962 124.894 64.4091 136.853 54.9602 148.355C54.0851 149.426 53.2095 150.497 52.3335 151.569L51.025 153.182L50.8616 153.384L50.7799 153.485L50.7353 153.54C50.6716 153.616 50.6046 153.691 50.5349 153.763C50.4641 153.835 50.3956 153.903 50.3163 153.971C50.2308 154.041 50.1414 154.108 50.0495 154.171C49.8724 154.298 49.6579 154.406 49.4389 154.493C48.9993 154.666 48.5117 154.728 48.067 154.685C47.172 154.591 46.4255 154.175 45.8898 153.484C45.6238 153.139 45.4181 152.715 45.3231 152.251C45.2707 152.023 45.2594 151.789 45.2593 151.557C45.2666 151.334 45.2988 151.112 45.347 150.902C45.3725 150.806 45.4017 150.711 45.4344 150.617L45.486 150.477L45.532 150.364L45.5814 150.247L45.6802 150.012L45.8775 149.542L46.272 148.603L47.0598 146.722C47.5791 145.466 48.136 144.223 48.5609 142.929L49.9266 139.082L50.2684 138.12C50.3765 137.797 50.465 137.468 50.5644 137.143L51.1462 135.186C51.5255 133.878 51.9452 132.582 52.2963 131.267L53.2724 127.303C55.5225 117.863 56.7719 108.161 56.8864 98.4283C56.9992 88.6978 56.0488 78.9431 54.0079 69.4097C52.3716 61.8043 50.5814 54.6894 49.0503 48.1761C48.768 46.8428 48.8529 46.0278 49.1883 45.8444L49.1409 46.7103C49.0452 46.9199 48.8465 47.0724 48.7321 47.1325C48.613 47.1978 48.5608 47.2172 48.5738 47.233C48.5861 47.2452 48.666 47.2532 48.8156 47.2021C48.9616 47.1559 49.1814 47.0095 49.3104 46.8074L49.3677 45.7662C49.7968 45.7373 50.4912 46.4608 51.2681 48.0144C51.8381 49.1527 52.4062 50.3119 52.9709 51.4868C53.4913 52.678 53.973 53.898 54.4689 55.1222C54.7127 55.7362 54.9572 56.3519 55.2021 56.9686C55.4478 57.5857 55.6931 58.2046 55.8872 58.8403C56.295 60.1072 56.7036 61.3765 57.1116 62.6442C57.8225 64.7219 58.2528 66.9034 58.7532 69.0738C59.285 71.2392 59.5966 73.4546 59.982 75.6415C60.0117 75.6493 60.0396 75.6565 60.075 75.6659Z" fill="black"/>
<path d="M139.156 73.7907C138.869 81.8362 138.928 89.9222 139.381 97.984C139.621 102.259 139.969 106.535 140.587 110.756C141.399 116.39 142.504 121.978 143.796 127.535C145.093 133.093 146.588 138.618 148.118 144.171L149.265 148.342L149.834 150.435L149.977 150.958L150.012 151.089L150.021 151.122C150.023 151.127 150.058 151.272 150.069 151.343C150.085 151.431 150.098 151.519 150.107 151.608C150.143 151.984 150.105 152.393 149.984 152.782C149.74 153.567 149.204 154.168 148.586 154.516C147.971 154.866 147.185 155.017 146.386 154.825C145.991 154.731 145.62 154.554 145.311 154.327C145.165 154.219 145.031 154.101 144.907 153.972L144.879 153.943L144.785 153.844L144.597 153.647L144.22 153.253C142.21 151.155 140.22 149.036 138.266 146.884C134.351 142.586 130.547 138.186 126.863 133.685C122.325 128.144 117.97 122.452 113.788 116.635C111.702 113.723 109.655 110.782 107.658 107.808C107.152 107.069 106.667 106.316 106.171 105.57L105.431 104.449L104.684 103.302C104.178 102.503 103.659 101.658 103.189 100.702C102.724 99.7469 102.288 98.6984 102.03 97.4934C101.891 96.9011 101.821 96.2582 101.789 95.6121C101.779 94.9579 101.812 94.289 101.934 93.6326C102.173 92.3242 102.66 91.1968 103.168 90.2415C103.68 89.2828 104.225 88.4687 104.703 87.7347L106.157 85.5068L111.987 76.5823C115.89 70.6339 119.83 64.6968 123.889 58.8208C126.339 55.2753 129.033 51.8416 131.741 48.5355C132.394 47.7463 133.014 47.0469 133.615 46.4366C134.22 45.829 134.797 45.3056 135.345 44.8583C135.484 44.7482 135.619 44.6411 135.751 44.537C135.818 44.4863 135.884 44.4362 135.949 44.3869C136.016 44.3376 136.072 44.2995 136.174 44.2101C136.536 43.9039 136.915 43.629 137.284 43.415C138.033 42.9762 138.668 42.8382 138.998 42.7802C139.919 42.6361 138.944 43.0742 138.686 44.6316C138.629 45.007 138.669 45.4407 138.805 45.7843C138.938 46.1348 139.116 46.3489 139.12 46.5441C139.168 46.5837 138.981 46.9002 138.867 47.1304C138.737 47.3774 138.596 47.6333 138.444 47.8977C138.139 48.4265 137.789 48.9885 137.394 49.5818C135.415 52.6029 133.112 55.8036 130.893 58.8163C125.79 65.7581 120.963 72.9127 116.262 80.1497C113.912 83.77 111.598 87.4152 109.293 91.0745C108.724 91.9747 108.231 92.7935 107.933 93.5318C107.78 93.9006 107.678 94.2437 107.625 94.5587C107.569 94.8702 107.567 95.1706 107.588 95.4928C107.682 96.7784 108.53 98.3792 109.675 100.042C109.986 100.501 110.337 100.993 110.68 101.48C111.023 101.967 111.368 102.456 111.714 102.945C112.408 103.922 113.105 104.902 113.799 105.878C114.486 106.859 115.171 107.836 115.849 108.804C116.514 109.78 117.167 110.75 117.796 111.713C121.782 117.89 126.207 123.803 130.831 129.552C135.47 135.291 140.313 140.863 145.212 146.365C146.114 147.394 147.043 148.401 147.967 149.413L148.662 150.171L148.749 150.265L148.771 150.289C148.032 150.993 150.432 148.722 147.116 151.868L147.112 151.871L147.105 151.88C147.096 151.89 147.094 151.896 147.094 151.896C147.095 151.898 147.095 151.876 147.092 151.874C147.089 151.871 147.098 151.884 147.107 151.887C147.109 151.888 147.111 151.888 147.104 151.887L147.09 151.888L147.079 151.89L147.074 151.892C142.659 153.039 145.849 152.205 144.863 152.459L144.831 152.334L144.768 152.084L144.262 150.081C143.569 147.405 142.876 144.726 142.183 142.047C140.795 136.675 139.453 131.258 138.356 125.783C137.37 120.905 136.563 115.98 135.94 111.036C135.316 106.089 134.901 101.122 134.637 96.1672C134.105 86.2537 134.069 76.327 134.643 66.4104C135.084 58.5079 136.374 51.0414 138.763 44.7842C138.806 44.6701 138.848 44.5611 138.885 44.4899L138.884 44.4942C139.043 44.2281 139.212 43.9601 139.346 43.6765C139.483 43.3943 139.578 43.1115 139.649 42.8687C139.789 42.3803 139.853 42.0393 139.942 41.8772C140.031 41.728 140.138 41.7039 140.417 42.1272C140.55 42.3427 140.738 42.716 140.828 43.2762C140.924 43.832 140.863 44.5243 140.702 45.1242L140.772 44.8688C140.773 45.1522 140.756 45.4883 140.72 45.8588C140.21 50.7267 139.861 55.8455 139.624 60.9542C139.429 65.1531 139.152 69.4711 139.069 73.7512C139.097 73.7638 139.123 73.7756 139.156 73.7907Z" fill="black"/>
</svg>
