<svg width="228" height="228" viewBox="0 0 228 228" fill="none" xmlns="http://www.w3.org/2000/svg">
<path d="M76.1961 39.3868C77.0356 38.8396 77.8565 38.2642 78.7117 37.743L81.3236 36.2548L82.6295 35.513C83.0656 35.2674 83.5279 35.0697 83.9757 34.846L86.6832 33.5446L87.3601 33.2202L88.0568 32.9397L89.4525 32.3845C90.3839 32.0174 91.3108 31.6405 92.2457 31.2844C94.1419 30.6328 96.0511 30.023 97.9891 29.5307C101.851 28.5273 105.787 27.8299 109.758 27.4451C117.921 26.6831 126.152 27.1511 134.176 28.8332C138.299 29.6826 142.351 30.8409 146.3 32.2985C156.819 36.1766 166.618 42.2654 174.27 50.8163C176.207 53.0041 177.901 55.3961 179.321 57.9501C180.042 59.2666 180.667 60.6329 181.193 62.0387C181.714 63.4813 182.109 64.9659 182.376 66.4762C182.459 66.853 182.487 67.243 182.539 67.6273C182.578 68.0152 182.649 68.3933 182.652 68.7918C182.705 69.5794 182.712 70.3694 182.672 71.1578L182.604 72.3382L182.438 73.5051C182.323 74.2807 182.163 75.0492 181.961 75.8068C180.295 81.876 176.317 87.0508 170.88 90.2209C170.541 90.4122 170.213 90.6244 169.862 90.7955L168.805 91.3007L168.275 91.5507C168.096 91.6272 167.911 91.6921 167.729 91.7627L166.63 92.1745C165.839 92.4612 165.025 92.6779 164.196 92.822C163.26 92.9939 162.306 93.0433 161.357 92.9689C160.239 92.881 159.151 92.5611 158.163 92.0295C157.176 91.4768 156.319 90.7201 155.647 89.8098C155.142 89.1177 154.696 88.3842 154.314 87.617C154.149 87.2919 154.004 87.0188 153.844 86.7515L153.375 85.9373L152.444 84.307C152.097 83.784 151.733 83.2712 151.38 82.7521L150.848 81.975C150.678 81.7105 150.492 81.4562 150.293 81.2135L149.104 79.7439C142.686 71.947 133.598 66.3243 123.845 63.595C120.847 62.744 117.773 62.1873 114.667 61.9327L112.344 61.8057L111.764 61.7738L111.184 61.7881L110.024 61.8148L108.865 61.8391C108.672 61.8453 108.478 61.8412 108.286 61.8556L107.71 61.9156L105.408 62.149C102.342 62.5572 99.3284 63.2905 96.418 64.3367L95.321 64.7141C94.9604 64.8537 94.6097 65.0187 94.253 65.1692L92.1222 66.0917L90.0637 67.1688C89.724 67.3543 89.3681 67.5111 89.0412 67.7192L88.0541 68.3322C82.7502 71.5516 78.177 75.8431 74.6273 80.9318L73.3768 82.8706L73.0632 83.3547L72.7915 83.8619L72.2462 84.8752C71.5227 86.225 70.8698 87.6114 70.29 89.0289L69.5452 91.1938C69.294 91.8676 69.0887 92.5577 68.931 93.2593C68.8975 93.4125 68.865 93.5635 68.8486 93.6873C68.8204 93.8301 68.8167 93.9271 68.8034 94.0289C68.7872 94.1985 68.821 94.2801 68.7706 94.068C68.723 93.9107 68.6523 93.7613 68.5608 93.6248C68.4996 93.5404 68.4367 93.4669 68.3791 93.4003C68.3034 93.3321 68.2606 93.2875 68.2104 93.2498C68.0088 93.1107 68.0688 93.1783 68.2674 93.2315C68.5496 93.3136 68.8359 93.3804 69.1253 93.4317C69.4691 93.4997 69.8682 93.5658 70.267 93.6334C71.0773 93.7683 71.9468 93.9127 72.8192 94.0831C73.6944 94.2536 74.5779 94.4512 75.4564 94.6763C75.8962 94.787 76.3338 94.9101 76.7708 95.0356L77.4233 95.2331C77.6428 95.3015 77.8347 95.3538 78.1494 95.475C79.4015 95.895 80.5486 96.5796 81.5127 97.4822C82.6153 98.5197 83.389 99.858 83.7379 101.331C84.0493 102.716 84.0038 104.157 83.6057 105.52C83.2638 106.693 82.7321 107.802 82.0316 108.804C81.7011 109.266 81.3462 109.71 80.9683 110.135C80.5978 110.54 80.2546 110.876 79.9125 111.2C79.2295 111.847 78.5619 112.424 77.8897 112.992C76.5466 114.119 75.1977 115.174 73.8358 116.208C71.1114 118.268 68.3426 120.226 65.5139 122.116C62.6817 124.002 59.8022 125.818 56.7711 127.512C55.248 128.356 53.6987 129.17 51.9981 129.91C51.0899 130.312 50.1549 130.652 49.1997 130.925C48.5867 131.099 47.9585 131.214 47.3237 131.269C47.1133 131.286 46.9021 131.293 46.6911 131.288L46.3363 131.273C46.2138 131.265 46.0551 131.242 45.9167 131.221C45.5856 131.171 45.2604 131.087 44.946 130.972C44.7445 130.895 44.5485 130.804 44.3592 130.701C44.2676 130.651 44.1524 130.586 44.0856 130.542L43.9298 130.429C43.723 130.277 43.5213 130.115 43.3279 129.946C43.2558 129.884 43.1874 129.818 43.123 129.747L42.9501 129.567L42.6105 129.2L42.3551 128.884C41.9942 128.448 41.7398 128.068 41.449 127.667C40.9267 126.892 40.4415 126.128 39.9934 125.374C39.0905 123.861 38.2667 122.355 37.4686 120.839C35.8834 117.809 34.4124 114.754 33.0168 111.658C31.3069 107.895 29.8036 104.042 28.5136 100.115C27.8244 98.0615 27.2839 95.9608 26.8964 93.8295C26.8428 93.5559 26.8098 93.2396 26.773 92.9366L26.7201 92.4796L26.6943 91.9649L26.6758 91.4508C26.6825 91.2456 26.6959 91.032 26.7112 90.8236C26.7378 90.4509 26.7925 90.0808 26.8749 89.7163C27.0345 88.9653 27.2935 88.239 27.6452 87.5565C28.0504 86.7809 28.6044 86.0928 29.2755 85.5313C29.8984 85.0146 30.6131 84.6199 31.3822 84.3679C32.0248 84.1559 32.6922 84.0283 33.3676 83.9885C34.4112 83.9437 35.4561 84.0406 36.4736 84.2767C37.9667 84.6105 39.4284 85.072 40.8425 85.6562C42.8551 86.4279 44.7306 87.518 46.3975 88.8847C46.7615 89.1833 47.0772 89.5365 47.3334 89.9316C47.5045 90.2296 47.5092 90.4302 47.4132 90.5726C47.2723 90.7295 47.0823 90.8342 46.8743 90.8694C46.8138 90.8856 46.7508 90.9001 46.6865 90.9125C46.6555 90.9178 46.623 90.9235 46.5891 90.9295L46.4547 90.9324C46.267 90.933 46.0592 90.9187 45.826 90.8959C44.8859 90.8103 43.5232 90.5839 41.7491 90.2915C40.8628 90.1453 39.872 89.9877 38.7942 89.83C37.7246 89.679 36.5311 89.5096 35.3764 89.444L35.1048 89.4281L34.8669 89.4278C34.7157 89.4235 34.5644 89.4282 34.4138 89.4418C34.1581 89.4567 33.9044 89.4958 33.6562 89.5587C33.4973 89.6038 33.3455 89.6708 33.2051 89.7579C33.1309 89.8136 33.066 89.8808 33.013 89.9569C32.8357 90.261 32.7258 90.5996 32.6906 90.9498L32.6599 91.1493C32.6652 91.1858 32.6677 91.2225 32.6674 91.2593C32.6696 91.3021 32.6578 91.317 32.6632 91.3827L32.6832 91.5942L32.6978 91.8061L32.7368 92.061C32.7673 92.2371 32.7824 92.3998 32.8216 92.5876C33.1681 94.2095 33.6113 95.8092 34.1489 97.3782C34.6909 99.0166 35.2884 100.656 35.9018 102.268C37.3213 105.982 38.9176 109.665 40.622 113.279C41.476 115.086 42.3606 116.877 43.2833 118.632C44.2067 120.377 45.1669 122.129 46.1854 123.695C46.4388 124.091 46.6947 124.452 46.945 124.796C47.0621 124.938 47.1932 125.117 47.2947 125.231C47.3409 125.279 47.3854 125.327 47.4287 125.377C47.4506 125.403 47.4792 125.437 47.4623 125.413C47.4317 125.439 47.5415 125.265 47.2298 125.667C47.1232 125.807 47.0222 125.952 46.9266 126.102L46.7875 126.33L46.7213 126.446C46.7433 126.418 46.22 127.241 46.4541 126.874C46.5016 126.809 46.5369 126.736 46.5581 126.658C46.6113 126.545 46.6492 126.426 46.6709 126.303C46.6747 126.254 46.7019 126.163 46.7188 126.081C46.736 125.999 46.7491 125.916 46.7579 125.834C46.7677 125.75 46.7696 125.674 46.7743 125.585C46.7877 125.48 46.7973 125.376 46.8031 125.271L46.8069 125.193C46.8082 125.181 46.8085 125.169 46.8079 125.157L46.8072 125.158C46.8072 125.158 46.8013 125.162 46.811 125.16C46.852 125.151 46.8617 125.164 46.9314 125.15C47.2634 125.101 47.5906 125.024 47.9093 124.918C48.7599 124.637 49.5919 124.302 50.4001 123.915C51.2561 123.515 52.1174 123.074 52.9753 122.611C56.4106 120.744 59.7871 118.586 63.0835 116.341C66.3747 114.086 69.6172 111.719 72.6722 109.23C73.4328 108.608 74.1779 107.976 74.8841 107.341C75.5272 106.792 76.1193 106.186 76.6534 105.53C77.06 105.026 77.3633 104.447 77.546 103.826C77.6756 103.429 77.6722 103.001 77.5366 102.606C77.37 102.262 77.0983 101.98 76.7606 101.8C76.6551 101.733 76.5133 101.684 76.3967 101.616C76.2654 101.556 76.106 101.515 75.9652 101.456C75.9105 101.43 75.7761 101.394 75.6682 101.362L75.3317 101.263C75.1083 101.194 74.8812 101.136 74.6555 101.075C72.7927 100.596 70.9033 100.229 68.9971 99.9737C68.4848 99.8936 67.9511 99.8108 67.3505 99.6856C66.614 99.5457 65.8971 99.3176 65.2152 99.0061C64.9796 98.8932 64.7515 98.7652 64.5323 98.6231C64.2745 98.4512 64.0319 98.2574 63.8073 98.044C63.3155 97.5709 62.9269 97.0012 62.666 96.3707C62.4595 95.8493 62.3304 95.3003 62.283 94.7414C62.2465 94.3183 62.2449 93.893 62.2784 93.4696C62.3335 92.8084 62.4372 92.1522 62.5888 91.5063C62.7265 90.9272 62.8603 90.3631 63.0337 89.8511L64.0512 86.7378C65.7528 82.1676 68.1586 77.8915 71.1814 74.0646C74.1487 70.2979 77.69 67.0215 81.6754 64.3553C84.7578 62.2799 88.0529 60.5393 91.5046 59.1633L92.7905 58.6334C93.2277 58.4787 93.6706 58.3388 94.1103 58.191C94.9938 57.9077 95.8659 57.5903 96.7581 57.3374C100.34 56.3505 104.011 55.7233 107.718 55.4649C108.643 55.4116 109.572 55.4234 110.498 55.4011L111.889 55.3808L113.274 55.4617C114.197 55.5237 115.123 55.5565 116.042 55.6452L118.787 56.0112C119.708 56.1067 120.604 56.3264 121.508 56.5059L122.862 56.7862L123.539 56.9268L124.204 57.1119L126.863 57.8565C127.31 57.9686 127.739 58.1359 128.173 58.2868L129.473 58.7477L130.773 59.2101C131.207 59.3615 131.62 59.5653 132.045 59.7408L134.575 60.8367L137.028 62.0952C137.434 62.3104 137.85 62.5063 138.247 62.7382L139.429 63.4491C140.21 63.9336 141.017 64.3767 141.774 64.8982L144.035 66.4807L144.599 66.8774L145.138 67.3093L146.212 68.1774C146.923 68.7621 147.659 69.3159 148.316 69.9658L150.336 71.8554C150.981 72.5139 151.596 73.2052 152.225 73.8801C152.536 74.2221 152.856 74.554 153.157 74.9048L154.019 75.9921L154.879 77.0809C155.161 77.4477 155.465 77.7964 155.711 78.1908L157.256 80.502C157.383 80.6961 157.518 80.8844 157.636 81.0837L157.975 81.6921L158.652 82.9096L159.152 83.815C159.319 84.115 159.492 84.4254 159.626 84.7068C159.848 85.1775 160.1 85.6334 160.381 86.0718C160.537 86.3219 160.737 86.542 160.971 86.7216C161.184 86.8586 161.424 86.9501 161.675 86.9906C162.551 87.0859 163.437 86.9909 164.273 86.7122C164.775 86.5623 165.316 86.3374 165.838 86.1595C166.352 85.9369 166.86 85.6965 167.365 85.4542C169.363 84.3927 171.15 82.9746 172.638 81.2699C173.013 80.8466 173.367 80.4042 173.696 79.9445C174.04 79.495 174.313 78.9979 174.63 78.5298C174.891 78.031 175.176 77.5414 175.412 77.0311L175.746 76.2564L175.913 75.8688L176.045 75.4698C176.792 73.3689 177.104 71.1377 176.96 68.9125C176.754 66.6264 176.161 64.3919 175.206 62.3047L174.842 61.5049L174.432 60.7193C174.174 60.1896 173.845 59.6867 173.554 59.1689C172.92 58.1444 172.235 57.153 171.5 56.1985C170 54.2549 168.345 52.436 166.552 50.7597C160.003 44.6758 152.299 39.9701 143.896 36.9223C135.452 33.8292 126.529 32.2495 117.536 32.2557C113.046 32.2651 108.567 32.6887 104.155 33.5211C103.049 33.7102 101.962 33.9817 100.866 34.2202L99.2404 34.6426C98.6963 34.7773 98.1586 34.9327 97.624 35.0986C97.0889 35.2628 96.5491 35.4136 96.0177 35.5885L94.4288 36.1303C93.3717 36.4982 92.3455 36.9544 91.3012 37.3611L89.7406 37.988C89.2269 38.2119 88.7301 38.4735 88.2237 38.7141C87.2184 39.2107 86.1998 39.6834 85.2031 40.1979C83.2673 41.3323 81.2758 42.3801 79.4459 43.6896C77.5398 44.8857 75.8011 46.3155 74.0138 47.6808C73.1498 48.3997 72.3231 49.1641 71.4749 49.903C71.0572 50.2796 70.6222 50.6383 70.2182 51.0293L69.0298 52.2283C64.0954 57.1635 59.8073 62.705 56.2684 68.7201C53.001 74.3244 50.362 80.2723 48.3996 86.4557C47.6153 89.1142 46.8863 90.3728 46.4546 90.1565L48.5558 89.5342C48.4546 89.4023 48.495 89.4202 48.593 89.5014L46.4054 90.1492C46.1929 90.0037 46.0588 89.4766 46.036 88.5616C46.0245 88.1043 46.0406 87.5502 46.0885 86.8996C46.1124 86.5743 46.1445 86.225 46.1846 85.8516C46.2061 85.6651 46.2284 85.4725 46.2515 85.2737C46.2895 85.0781 46.3289 84.8764 46.3695 84.6687C46.6166 83.4831 46.8652 82.2908 47.1151 81.0916C47.225 80.4861 47.4155 79.9027 47.5788 79.3087C47.7485 78.7159 47.9185 78.1218 48.0889 77.5266C48.2634 76.9321 48.4267 76.3314 48.6144 75.7379C48.8272 75.1533 49.0403 74.5676 49.2538 73.9807C49.4695 73.3937 49.6855 72.8056 49.9019 72.2165L50.229 71.3319C50.3496 71.0419 50.4824 70.7573 50.6089 70.4692C51.1255 69.3198 51.6432 68.1678 52.1621 67.0132C52.7321 65.884 53.3459 64.7735 53.9427 63.6511C54.5147 62.513 55.2231 61.4556 55.8933 60.373L56.9109 58.7557L57.1665 58.3519L57.4461 57.9649L58.006 57.1915C58.6248 56.3461 59.2454 55.498 59.868 54.6473C60.5137 53.8148 61.2194 53.0262 61.8996 52.214C63.2304 50.5612 64.777 49.0919 66.2623 47.5634C66.6276 47.1747 67.0272 46.8211 67.428 46.4685L68.6245 45.4047L69.8226 44.3423L70.422 43.8117L71.0537 43.32C72.7463 42.0181 74.3931 40.6582 76.1886 39.5101C76.189 39.4689 76.1915 39.4277 76.1961 39.3868Z" fill="black"/>
<path d="M151.007 191.163C147.654 193.232 144.138 195.023 140.494 196.52L139.119 197.071L137.693 197.578L136.98 197.829L136.261 198.047L134.823 198.483C132.897 198.991 130.965 199.456 129.024 199.776C125.176 200.44 121.284 200.821 117.38 200.914C113.52 201.019 109.656 200.925 105.805 200.632C97.6678 199.985 89.6019 198.632 81.6988 196.588C76.3578 195.263 71.1566 193.428 66.167 191.108C63.7843 189.953 61.2976 188.752 58.8799 187.276C56.3704 185.801 54.0675 184 52.0315 181.92C49.8462 179.715 48.1929 177.041 47.1975 174.101L46.871 172.961L46.7121 172.389C46.6677 172.178 46.6306 171.951 46.5919 171.732C46.4592 170.892 46.4021 170.043 46.421 169.194C46.4764 167.653 46.6923 166.121 47.0652 164.625C47.7752 161.82 48.8033 159.105 50.1295 156.532C51.4196 153.981 52.9531 151.56 54.7086 149.303C56.5225 146.911 58.7065 144.825 61.1781 143.121C61.5197 142.907 61.8457 142.684 62.2178 142.492C62.5813 142.283 62.9556 142.094 63.3391 141.925L63.9268 141.666L64.5542 141.443C65.0025 141.284 65.462 141.159 65.9288 141.068C67.8101 140.733 69.7472 140.917 71.5318 141.6C73.0313 142.178 74.4501 142.946 75.753 143.887C76.928 144.72 78.0585 145.614 79.1399 146.566C81.2448 148.395 83.1667 150.255 85.0922 152.057C88.9226 155.667 92.7643 159.064 96.9446 161.87C101.04 164.688 105.558 166.836 110.329 168.234C113.25 169.063 116.251 169.582 119.281 169.782C120.8 169.878 122.326 169.925 123.857 169.869C124.24 169.866 124.623 169.841 125.006 169.821C125.386 169.795 125.777 169.797 126.148 169.745L128.4 169.502C129.148 169.418 129.891 169.295 130.625 169.134C131.366 169.016 132.1 168.858 132.824 168.659L134.988 168.065L137.09 167.297C139.866 166.216 142.493 164.785 144.907 163.039C147.301 161.26 149.475 159.202 151.382 156.908C153.278 154.579 154.894 152.035 156.196 149.328L156.679 148.306C156.849 147.97 157.001 147.624 157.134 147.271L157.957 145.162C158.196 144.445 158.412 143.72 158.642 143C158.859 142.367 159.026 141.718 159.142 141.059C159.172 140.873 159.19 140.685 159.194 140.496C159.22 140.591 159.255 140.682 159.297 140.771C159.4 140.972 159.551 141.144 159.737 141.271C159.791 141.299 159.652 141.229 159.435 141.169C158.802 141.006 158.159 140.884 157.511 140.804L155.117 140.485C154.292 140.376 153.453 140.26 152.611 140.129L151.345 139.922L150.704 139.81L149.95 139.652C148.816 139.406 147.724 138.997 146.707 138.437C146.404 138.269 146.114 138.078 145.839 137.867L145.408 137.53C145.264 137.397 145.122 137.26 144.983 137.12C144.39 136.523 143.915 135.818 143.585 135.044C143.265 134.28 143.085 133.465 143.054 132.638C143.042 132.27 143.053 131.902 143.087 131.535C143.134 131.206 143.174 130.847 143.249 130.546C143.508 129.439 143.917 128.372 144.464 127.375C144.926 126.514 145.45 125.687 146.031 124.9C146.584 124.143 147.154 123.428 147.742 122.753C150.046 120.157 152.563 117.758 155.266 115.581C157.892 113.43 160.627 111.417 163.461 109.549C164.879 108.615 166.324 107.714 167.818 106.858C169.343 105.97 170.915 105.166 172.527 104.448C173.435 104.043 174.373 103.708 175.332 103.445L175.75 103.342C175.897 103.309 176.063 103.28 176.218 103.251L176.459 103.21L176.739 103.178C176.941 103.153 177.144 103.14 177.347 103.139C177.795 103.133 178.242 103.172 178.681 103.257C179.053 103.335 179.419 103.44 179.775 103.571C180.878 103.997 181.905 104.597 182.818 105.348C183.578 105.956 184.296 106.614 184.968 107.317C186.198 108.616 187.342 109.994 188.391 111.443C189.424 112.848 190.375 114.28 191.28 115.731C193.07 118.624 194.698 121.614 196.154 124.689C197.964 128.435 199.403 132.35 200.45 136.377C201.022 138.535 201.332 140.753 201.374 142.985C201.401 144.358 201.169 145.723 200.689 147.01C200.355 147.87 199.834 148.646 199.164 149.281C198.472 149.918 197.64 150.381 196.734 150.633C196.038 150.825 195.318 150.918 194.595 150.91C194.006 150.898 193.419 150.835 192.84 150.721C191.887 150.529 190.956 150.242 190.061 149.863C188.657 149.269 187.317 148.534 186.061 147.67C184.332 146.507 182.754 145.133 181.366 143.58C181.062 143.251 180.797 142.889 180.575 142.5C180.539 142.436 180.511 142.369 180.49 142.299C180.464 142.229 180.428 142.164 180.383 142.104C180.291 141.982 180.186 141.895 180.134 141.815C180.119 141.797 180.108 141.776 180.102 141.753C180.096 141.73 180.095 141.706 180.1 141.683C180.105 141.659 180.115 141.638 180.13 141.619C180.145 141.6 180.164 141.585 180.185 141.575C180.306 141.512 180.439 141.475 180.575 141.466C180.711 141.458 180.847 141.478 180.975 141.525C181.371 141.507 181.768 141.546 182.153 141.64C183.514 141.987 184.849 142.428 186.149 142.961C186.985 143.278 187.906 143.634 188.9 143.992C189.935 144.376 190.99 144.705 192.06 144.976C192.691 145.137 193.338 145.232 193.988 145.26C194.231 145.269 194.474 145.253 194.714 145.212C194.845 145.188 194.971 145.142 195.088 145.078C195.11 145.074 195.104 145.046 195.118 145.043C195.123 145.04 195.13 145.037 195.136 145.036H195.137C195.21 145.148 194.973 144.785 195.302 145.288L195.301 145.286L195.299 145.283L195.295 145.277L195.288 145.268C195.231 145.202 195.168 145.142 195.099 145.088C195.071 145.063 195.073 145.063 195.073 145.063L195.073 145.059C195.073 145.057 195.073 145.056 195.074 145.055C195.075 145.055 195.076 145.054 195.077 145.054C195.082 145.051 195.085 145.02 195.095 145.008C195.109 144.986 195.119 144.961 195.124 144.934C195.139 144.902 195.151 144.868 195.161 144.833C195.295 144.306 195.35 143.762 195.324 143.219C195.254 141.685 195.02 140.163 194.626 138.679C194.238 137.098 193.743 135.506 193.197 133.944C191.904 130.315 190.347 126.786 188.537 123.385C186.779 119.989 184.725 116.753 182.4 113.716C181.822 112.986 181.226 112.284 180.613 111.639C180.044 111.024 179.422 110.46 178.755 109.955C178.49 109.752 178.206 109.575 177.908 109.425C177.766 109.346 177.613 109.29 177.453 109.258C177.256 109.277 177.062 109.315 176.872 109.371C176.487 109.476 176.109 109.602 175.738 109.749C174.024 110.453 172.364 111.282 170.772 112.231C169.118 113.188 167.489 114.23 165.892 115.32C162.7 117.492 159.66 119.878 156.792 122.462C155.39 123.724 154.06 125.064 152.81 126.476C151.643 127.75 150.65 129.173 149.859 130.709C149.713 131.016 149.592 131.335 149.495 131.661C149.436 131.881 149.403 132.107 149.399 132.335C149.448 132.643 149.403 132.504 149.604 132.711C150.073 133.012 150.595 133.223 151.142 133.332C151.805 133.487 152.862 133.64 153.788 133.77C154.739 133.903 155.699 134.016 156.685 134.13C157.675 134.246 158.68 134.351 159.812 134.542C160.45 134.646 161.081 134.796 161.697 134.991C162.62 135.274 163.467 135.761 164.176 136.415C164.629 136.853 164.999 137.37 165.267 137.94C165.503 138.446 165.665 138.983 165.747 139.535C165.855 140.326 165.85 141.129 165.732 141.918C165.64 142.59 165.509 143.256 165.339 143.913C165.183 144.516 165.009 145.058 164.844 145.635C164.674 146.204 164.505 146.774 164.335 147.345L163.714 149.026C163.497 149.583 163.318 150.156 163.066 150.701L162.323 152.342C161.858 153.452 161.236 154.488 160.668 155.548C158.334 159.714 155.249 163.412 151.57 166.456C148.696 168.812 145.524 170.779 142.135 172.304L140.867 172.868C140.654 172.959 140.446 173.061 140.23 173.142L139.576 173.373L136.96 174.285L134.288 174.988L133.62 175.163L132.943 175.288L131.588 175.531L130.233 175.773C129.782 175.854 129.324 175.874 128.87 175.928C127.96 176.015 127.049 176.115 126.142 176.19C124.339 176.293 122.531 176.312 120.715 176.248C117.073 176.118 113.455 175.597 109.924 174.694C106.395 173.779 102.977 172.481 99.7308 170.823C96.5259 169.179 93.4736 167.253 90.6099 165.067C87.8125 162.92 85.1308 160.627 82.5763 158.196C80.0417 155.823 77.6235 153.382 75.1891 151.191C73.3924 149.584 71.5132 148.076 69.7433 147.319C68.9987 146.967 68.1783 146.805 67.3557 146.848C66.483 146.979 65.6455 147.283 64.8928 147.743C62.9922 148.924 61.3018 150.413 59.8911 152.149C58.3619 153.967 57.012 155.928 55.8601 158.006C54.6935 160.067 53.7375 162.241 53.0064 164.494C52.6555 165.572 52.3909 166.677 52.2151 167.797C52.0448 168.792 52.0225 169.807 52.1489 170.809L52.2 171.132C52.2254 171.249 52.27 171.383 52.3034 171.508L52.5139 172.271C52.5769 172.528 52.6644 172.778 52.7752 173.019L53.0702 173.757C53.2821 174.244 53.5673 174.704 53.804 175.184C54.1102 175.633 54.3929 176.096 54.7184 176.537C56.1238 178.338 57.7873 179.921 59.6551 181.235C61.406 182.482 63.2444 183.6 65.1561 184.582C66.1314 185.094 67.1258 185.592 68.1561 186.113L69.6167 186.826L71.1027 187.497C75.168 189.222 79.3567 190.64 83.6336 191.74C92.2569 194.008 101.101 195.333 110.01 195.692C112.232 195.775 114.456 195.797 116.671 195.726C118.889 195.674 121.097 195.518 123.291 195.285C127.649 194.862 131.944 193.932 136.087 192.515C138.151 191.776 140.169 190.917 142.132 189.94C144.106 188.965 146.035 187.899 147.92 186.742C149.795 185.576 151.62 184.33 153.393 183.004C155.163 181.678 156.864 180.259 158.511 178.782C163.604 174.206 168.074 168.981 171.808 163.242C175.274 157.916 177.907 152.093 179.618 145.973C179.788 145.294 179.959 144.708 180.126 144.215C180.306 143.737 180.459 143.478 180.538 143.298C180.699 142.953 180.694 142.964 180.831 143.256C180.921 143.461 181.037 143.652 181.177 143.826C181.34 144.019 181.547 144.17 181.781 144.266C181.816 144.28 181.848 144.298 181.878 144.32C181.889 144.338 181.901 144.32 181.904 144.369C181.906 144.434 181.907 144.5 181.909 144.567C181.913 144.836 181.912 145.129 181.904 145.445C181.896 145.762 181.881 146.102 181.858 146.465C181.819 146.838 181.769 147.236 181.711 147.658C181.003 152.538 179.587 157.289 177.506 161.76C175.395 166.311 172.756 170.597 169.642 174.53C164.405 181.04 158.108 186.622 151.017 191.04C151.015 191.081 151.012 191.122 151.007 191.163Z" fill="black"/>
<path d="M51.9827 118.353C51.6423 118.059 51.2999 117.77 50.978 117.445C50.8187 117.267 50.6237 117.124 50.4056 117.025C49.7958 116.814 49.1653 116.637 48.536 116.456L47.5978 116.177C47.288 116.092 46.9874 115.977 46.7003 115.833C45.334 115.101 44.0051 114.301 42.7188 113.436C42.5215 113.31 42.4512 112.979 42.3859 112.648C42.325 112.33 42.6405 111.558 43.1377 110.599C43.8624 109.201 44.8645 107.849 45.3392 107.682C45.4467 107.632 45.5697 107.624 45.6826 107.662C45.7954 107.699 45.8895 107.779 45.9453 107.884C46.2114 108.302 46.5796 108.645 47.0152 108.882C47.4507 109.119 47.9393 109.241 48.435 109.237C48.7349 109.248 49.0966 109.181 49.1949 109.5C49.5118 110.515 50.4443 110.559 50.9295 111.308C51.3387 111.77 51.7814 112.202 52.2538 112.6L53.3907 113.821C53.7687 114.229 54.1322 114.661 54.5158 115.06C54.8196 115.382 54.9402 115.95 54.7593 116.914C54.612 117.467 54.2891 117.956 53.8393 118.309C53.4766 118.453 53.0917 118.532 52.7018 118.543C52.4597 118.512 52.2282 118.424 52.0255 118.288L51.9827 118.353Z" fill="black"/>
<path d="M57.7203 112.294L55.6332 110.497C55.2755 110.168 54.8828 109.878 54.4622 109.634C53.2948 109.054 52.1639 108.421 51.0108 107.82C49.8638 107.211 48.722 106.594 47.6143 105.926C46.2411 105.118 44.9226 104.229 43.6125 103.328L39.6989 100.599C39.3077 100.266 38.9981 99.8478 38.7941 99.3762C38.5554 98.922 38.7786 98.0773 39.2375 97.0861C39.9064 95.6421 41.0754 94.41 41.8306 94.447C42.0503 94.4642 42.2644 94.5254 42.46 94.6269C42.6557 94.7284 42.8289 94.8682 42.9696 95.0379C44.313 96.4761 46.0001 97.549 47.8723 98.1557C48.3992 98.331 49.0014 98.4349 49.3061 98.9086C50.2808 100.42 51.8806 101.038 53.0835 102.222C53.9754 103.105 55.0323 103.758 55.9768 104.569C56.8192 105.292 57.6244 106.068 58.4505 106.814L59.6863 107.937C60.0996 108.309 60.5191 108.673 60.9156 109.069C61.6235 109.777 62.0325 110.73 62.0579 111.73C62.094 112.278 61.5125 113.086 61.0311 113.092C60.3782 113.096 59.7272 113.022 59.0917 112.873C58.622 112.724 58.1769 112.507 57.7709 112.228L57.7203 112.294Z" fill="black"/>
<path d="M67.2941 107.19C66.6935 106.783 66.108 106.354 65.52 105.928C65.2255 105.679 64.9021 105.466 64.5568 105.294C63.5998 104.892 62.6242 104.514 61.6487 104.128L60.9186 103.835C60.6811 103.728 60.4575 103.6 60.2279 103.481C59.7728 103.236 59.3252 102.979 58.8849 102.711C56.7394 101.355 54.6675 99.8858 52.678 98.31C52.3767 98.0113 52.1645 97.6347 52.0651 97.2223C51.9234 96.8126 52.2391 96.0182 52.7825 95.078C53.575 93.7088 54.7661 92.508 55.3987 92.4922C55.572 92.4894 55.7431 92.5308 55.8958 92.6126C56.0486 92.6944 56.178 92.8137 56.2717 92.9595C57.1864 94.1864 58.4966 95.0598 59.981 95.4321C60.4025 95.5461 60.8963 95.5826 61.0965 95.9887C61.7402 97.2874 63.0534 97.644 63.9591 98.58C64.6168 99.3035 65.3992 99.8522 66.1066 100.513L67.9997 102.296C68.6253 102.904 69.264 103.495 69.919 104.065C70.493 104.645 70.8241 105.423 70.845 106.239C70.8837 106.698 70.4382 107.431 70.0423 107.493C69.5086 107.574 68.9672 107.591 68.4293 107.546C68.0426 107.473 67.6722 107.331 67.3362 107.127L67.2941 107.19Z" fill="black"/>
<path d="M59.2207 86.7714C59.0859 86.5504 58.9626 86.3136 58.8259 86.0949C58.7521 85.9809 58.6858 85.8554 58.552 85.8244C58.1947 85.7423 57.8023 85.7091 57.4607 85.6055C57.1146 85.5264 56.7766 85.4151 56.4511 85.2732C55.7046 84.8977 54.9935 84.4555 54.3267 83.9518C54.223 83.8811 54.2596 83.6141 54.3001 83.3462C54.5691 82.6818 54.9216 82.0544 55.3489 81.4789C56.211 80.1667 57.2507 78.8467 57.6136 78.6316C57.8446 78.4938 57.9355 78.5669 57.9664 78.7122C58.1127 79.3763 58.5623 79.6174 59.2715 79.4995C59.4679 79.4661 59.725 79.3581 59.7078 79.6142C59.6583 80.4238 60.2518 80.3477 60.439 80.8309C60.5716 81.1989 60.8931 81.3084 61.0538 81.6388C61.3582 82.2033 61.644 82.793 61.967 83.3315C62.0949 83.5476 62.0201 84.0219 61.5829 84.9567C61.2962 85.5089 60.9241 86.0125 60.4805 86.4488C60.2237 86.6296 59.9378 86.7649 59.6353 86.8491C59.4483 86.8939 59.3861 86.7611 59.2694 86.706L59.2207 86.7714Z" fill="black"/>
<path d="M64.0498 77.1209C63.9808 76.9669 63.9113 76.812 63.8429 76.6593C63.8033 76.5821 63.7695 76.496 63.6821 76.4844C63.4482 76.4542 63.1879 76.4606 62.9621 76.4193C62.7368 76.3955 62.5148 76.3469 62.3001 76.2746C61.8248 76.0766 61.3744 75.8235 60.9581 75.5205C60.8932 75.479 60.9429 75.2788 60.9956 75.0773C61.2457 74.5541 61.5459 74.0565 61.892 73.5913C62.423 72.7577 63.0334 71.9774 63.7146 71.2612C63.8847 71.1383 63.9384 71.1856 63.9445 71.292C63.9755 71.7776 64.256 71.9187 64.7438 71.7749C64.8791 71.7344 65.0619 71.6345 65.0252 71.8263C64.913 72.4324 65.3186 72.3296 65.3978 72.6733C65.4527 72.9341 65.655 72.9942 65.7352 73.2208C65.8911 73.6075 66.0324 74.0142 66.2031 74.3806C66.2706 74.5278 66.1785 74.8802 65.8018 75.5993C65.5595 76.0273 65.2658 76.424 64.9273 76.7808C64.7446 76.9306 64.5407 77.0527 64.3224 77.1431C64.1925 77.1914 64.1621 77.0994 64.0883 77.0688L64.0498 77.1209Z" fill="black"/>
<path d="M68.5233 68.5471L68.2117 67.8452C68.1524 67.7257 68.101 67.5967 67.9759 67.5473C67.6414 67.4166 67.2733 67.3215 66.9408 67.1887C66.6058 67.0735 66.2811 66.9305 65.9701 66.7611C65.2635 66.3277 64.5964 65.8332 63.9762 65.2833C63.8795 65.2052 63.9457 64.9516 64.0173 64.6963C64.3673 64.0749 64.7951 63.5006 65.2902 62.9872C66.3127 61.7965 67.5123 60.618 67.8923 60.4558C68.1347 60.3509 68.2109 60.4381 68.2195 60.588C68.2638 61.2736 68.6659 61.5748 69.3547 61.5708C69.5457 61.5688 69.8026 61.5046 69.7524 61.7543C69.6001 62.5431 70.1719 62.5642 70.2886 63.0675C70.3726 63.4444 70.6534 63.6138 70.7791 63.9472C71.0172 64.527 71.2351 65.1282 71.4929 65.6863C71.5949 65.9101 71.477 66.3491 70.9659 67.1729C70.6369 67.6552 70.23 68.0794 69.7618 68.4282C69.4959 68.5626 69.2084 68.6488 68.9125 68.6831C68.7292 68.6979 68.6825 68.5622 68.5763 68.4924C68.5584 68.5107 68.5416 68.5279 68.5233 68.5471Z" fill="black"/>
<path d="M75.6425 61.3992L75.2549 60.666C75.2018 60.5337 75.1058 60.4229 74.9822 60.3517C74.6208 60.207 74.2284 60.0972 73.8657 59.9541C73.5012 59.8273 73.1468 59.6732 72.8054 59.4931C72.021 59.0319 71.2743 58.5095 70.5723 57.9306C70.4635 57.8482 70.5124 57.5862 70.5671 57.3223C70.886 56.6837 71.2926 56.0928 71.775 55.5667C72.7605 54.3449 73.9337 53.1392 74.3199 52.9796C74.5662 52.8762 74.6523 52.9698 74.6722 53.1272C74.6818 53.2809 74.7224 53.431 74.7916 53.5686C74.8607 53.7062 74.957 53.8284 75.0747 53.9277C75.1923 54.0271 75.3289 54.1016 75.4761 54.1468C75.6233 54.1919 75.7782 54.2068 75.9313 54.1906C76.1305 54.1945 76.3935 54.1359 76.3599 54.3954C76.2611 55.215 76.8588 55.2554 77.0195 55.7843C77.1372 56.1792 77.4409 56.3676 77.601 56.7161C77.8985 57.3239 78.1767 57.9529 78.4936 58.5386C78.6192 58.7733 78.534 59.2233 78.0729 60.0571C77.7722 60.5437 77.3833 60.97 76.9263 61.314C76.6551 61.4456 76.3619 61.526 76.0615 61.5511C75.8712 61.5609 75.8104 61.4196 75.6932 61.3445L75.6425 61.3992Z" fill="black"/>
<path d="M88.2416 57.3773C87.9994 57.0916 87.783 56.7851 87.5948 56.4613C87.5065 56.2847 87.3762 56.1326 87.2153 56.0182C86.7502 55.7634 86.2629 55.5269 85.7794 55.2809C85.5368 55.1586 85.2989 55.0301 85.0635 54.8982C84.8373 54.7604 84.6198 54.609 84.412 54.4448C83.4155 53.6268 82.4925 52.7232 81.6535 51.7444C81.5219 51.6012 81.5727 51.2989 81.6324 50.9984C81.6905 50.7091 82.2395 50.0926 83.0177 49.3468C84.1529 48.2605 85.5072 47.2612 85.9516 47.191C86.2358 47.1454 86.333 47.2748 86.3581 47.4564C86.4004 47.8391 86.5705 48.1964 86.841 48.4705C87.1115 48.7446 87.4666 48.9194 87.8488 48.9667C88.0827 49.016 88.3904 49.0028 88.3622 49.2886C88.2768 50.2045 89.0074 50.3532 89.2175 51.0013C89.4224 51.4257 89.6709 51.8276 89.959 52.2006L90.5888 53.3246C90.8113 53.6891 90.9865 54.1104 91.212 54.4804C91.3844 54.7842 91.3462 55.3012 90.9731 56.1773C90.7217 56.6818 90.3426 57.1118 89.8735 57.4245C89.5383 57.5414 89.1849 57.5976 88.8299 57.5905C88.585 57.5813 88.4669 57.418 88.2942 57.3208L88.2416 57.3773Z" fill="black"/>
<path d="M102.304 52.2544C102.082 51.9423 101.885 51.6138 101.713 51.2718C101.638 51.0833 101.517 50.9167 101.361 50.7874C100.908 50.4916 100.429 50.2211 99.9542 49.9459C99.4785 49.6865 99.0242 49.3899 98.5954 49.0587C97.5969 48.2241 96.6473 47.3327 95.7514 46.3889C95.6122 46.2511 95.6454 45.9451 95.684 45.6398C95.7228 45.3458 96.2295 44.6931 96.9543 43.8943C98.0108 42.73 99.2977 41.646 99.7571 41.5692C99.8056 41.5521 99.8574 41.546 99.9086 41.5514C99.9598 41.5568 100.009 41.5734 100.053 41.6002C100.097 41.627 100.135 41.6632 100.163 41.7063C100.191 41.7493 100.209 41.7981 100.216 41.8491C100.31 42.261 100.523 42.636 100.829 42.927C101.135 43.218 101.52 43.4119 101.936 43.4844C102.188 43.5451 102.514 43.5469 102.504 43.8502C102.475 44.8169 103.251 45.0163 103.494 45.7231C103.732 46.1825 104.007 46.6216 104.316 47.0361L104.98 48.2715C105.197 48.6879 105.373 49.1435 105.588 49.5612C105.754 49.8997 105.681 50.4397 105.215 51.3038C104.908 51.7956 104.474 52.1965 103.96 52.4652C103.606 52.5479 103.241 52.5687 102.88 52.5267C102.632 52.4942 102.528 52.3159 102.362 52.2009L102.304 52.2544Z" fill="black"/>
<path d="M116.311 49.8108L115.633 48.5559C115.527 48.3296 115.378 48.1256 115.195 47.9551C114.671 47.5362 114.1 47.1582 113.574 46.741C113.041 46.3306 112.513 45.9157 112.026 45.465C110.825 44.3582 109.743 43.1491 108.652 41.9479C108.506 41.6889 108.461 41.3853 108.525 41.0949C108.548 40.7718 109.072 40.1308 109.832 39.3643C110.94 38.2467 112.309 37.2636 112.809 37.2697C112.932 37.2619 113.052 37.3 113.148 37.3765C113.243 37.453 113.307 37.5625 113.326 37.6834C113.454 38.1814 113.698 38.6421 114.038 39.0283C114.378 39.4146 114.804 39.7155 115.281 39.9068C115.557 40.0296 115.909 40.1025 115.915 40.4444C115.944 41.5286 116.779 41.9369 117.108 42.7689C117.351 43.3881 117.807 43.8314 118.095 44.4147C118.625 45.4399 119.134 46.4835 119.687 47.4895C119.906 47.8917 119.877 48.471 119.404 49.366C119.184 49.7796 118.387 50.4407 118.067 50.449C117.676 50.4658 117.286 50.405 116.919 50.2702C116.659 50.1717 116.547 49.938 116.37 49.7636C116.35 49.7796 116.332 49.7944 116.311 49.8108Z" fill="black"/>
<path d="M136.951 57.4713C136.435 56.7553 136.008 55.9726 135.537 55.222C135.306 54.8127 135.033 54.429 134.721 54.0772C133.845 53.1772 132.938 52.3013 132.034 51.4236C131.148 50.5318 130.287 49.6204 129.463 48.6809C128.448 47.523 127.466 46.34 126.5 45.1449C125.54 43.9457 124.639 42.7 123.709 41.4766C123.451 41.0504 123.296 40.5692 123.258 40.0721C123.181 39.5784 123.661 38.8522 124.408 38.0568C125.496 36.898 126.984 36.0815 127.677 36.3333C127.876 36.4117 128.056 36.5304 128.206 36.6819C128.357 36.8334 128.474 37.0145 128.551 37.2137C128.941 38.0734 129.444 38.8773 130.047 39.604C130.661 40.3276 131.351 40.9828 132.105 41.5582C132.53 41.8819 133.044 42.1637 133.17 42.6998C133.58 44.4049 134.88 45.4404 135.62 46.8963C136.182 47.9684 136.915 48.9182 137.518 49.9624L139.122 52.7617L139.928 54.1583L140.712 55.5719C140.941 55.9881 141.085 56.4455 141.136 56.9176C141.187 57.3897 141.145 57.8674 141.011 58.323C140.882 58.8352 140.101 59.4073 139.668 59.2607C139.08 59.0594 138.521 58.7831 138.004 58.4387C137.635 58.1423 137.303 57.8029 137.014 57.4275C136.993 57.4423 136.973 57.456 136.951 57.4713Z" fill="black"/>
<path d="M159.824 73.717C159.134 72.5856 158.478 71.4315 157.799 70.292C157.437 69.6888 157.081 69.0776 156.662 68.5142C155.516 67.0276 154.341 65.5624 153.173 64.0917C152.003 62.6225 150.866 61.1306 149.762 59.6162C147.052 55.8795 144.483 52.0455 141.9 48.222C141.534 47.6035 141.274 46.9278 141.132 46.2232C140.958 45.5459 141.398 44.7332 142.141 43.911C143.225 42.713 144.832 42.0935 145.679 42.6479C146.193 43.0123 146.594 43.5138 146.837 44.0952C148.045 46.6543 149.686 48.9851 151.689 50.9843C152.244 51.5434 152.899 52.0736 153.141 52.8196C153.92 55.1977 155.629 56.9657 156.749 59.1188C157.581 60.7189 158.634 62.1809 159.533 63.7397C160.334 65.1313 161.144 66.5156 161.879 67.9505C162.623 69.3792 163.417 70.7743 164.143 72.2149C164.442 72.7819 164.659 73.3883 164.788 74.0161C164.893 74.6755 164.92 75.3449 164.87 76.0107C164.855 76.1618 164.805 76.3074 164.723 76.4351C164.641 76.5628 164.529 76.669 164.398 76.7449C164.266 76.8207 164.118 76.864 163.966 76.8712C163.815 76.8783 163.664 76.8491 163.525 76.7859C163.125 76.5688 162.725 76.339 162.334 76.0985C161.958 75.8604 161.604 75.5897 161.275 75.2896C160.771 74.7912 160.31 74.2512 159.897 73.6754L159.824 73.717Z" fill="black"/>
<path d="M165.607 65.0281L164.916 63.532C164.807 63.2631 164.656 63.0127 164.471 62.7893C163.405 61.6544 162.208 60.6084 161.187 59.443C160.561 58.724 159.956 57.9909 159.388 57.2329C158.864 56.4456 158.357 55.6472 157.845 54.8519C157.718 54.5381 157.697 54.1916 157.784 53.8647C157.834 53.5072 158.422 52.9055 159.258 52.2179C160.476 51.2164 161.96 50.4183 162.502 50.517C162.64 50.5359 162.769 50.599 162.868 50.6969C162.967 50.7948 163.032 50.9223 163.053 51.0601C163.189 51.6393 163.443 52.1841 163.799 52.6608C164.155 53.1375 164.606 53.5357 165.122 53.8308C165.409 54.0214 165.779 54.1712 165.755 54.5587C165.691 55.7868 166.551 56.4068 166.833 57.4058C167.107 58.0993 167.421 58.7764 167.773 59.4337C168.305 60.6563 168.739 61.9434 169.267 63.1684C169.473 63.66 169.411 64.2943 168.888 65.1702C168.645 65.5748 167.798 66.1232 167.46 66.0672C167.033 66.0003 166.622 65.857 166.247 65.6441C165.97 65.4865 165.856 65.2119 165.671 64.9885C165.65 65.0017 165.629 65.0142 165.607 65.0281Z" fill="black"/>
<path d="M176.274 114.661C176.702 115.208 177.142 115.743 177.536 116.325C177.734 116.637 177.976 116.919 178.253 117.164C179.033 117.77 179.841 118.349 180.645 118.932C181.461 119.49 182.238 120.101 182.972 120.763C184.743 122.402 186.389 124.162 188.049 125.909C188.287 126.239 188.427 126.629 188.453 127.034C188.52 127.447 188.084 128.178 187.406 129.026C186.417 130.261 185.07 131.281 184.448 131.204C184.278 131.183 184.116 131.117 183.98 131.014C183.843 130.911 183.735 130.774 183.667 130.617C182.971 129.279 181.849 128.21 180.477 127.582C180.088 127.396 179.615 127.268 179.498 126.833C179.306 126.207 178.958 125.639 178.487 125.183L177.835 124.498C177.627 124.255 177.443 123.993 177.284 123.716C176.811 122.872 176.133 122.219 175.593 121.437L174.151 119.344L172.747 117.215C172.367 116.654 172.243 115.9 172.538 114.838C172.676 114.347 173.431 113.641 173.829 113.671C174.348 113.71 174.857 113.83 175.339 114.028C175.665 114.209 175.96 114.44 176.214 114.714C176.234 114.696 176.253 114.679 176.274 114.661Z" fill="black"/>
<path d="M171.933 120.872C172.432 121.467 172.907 122.085 173.4 122.686C173.646 123.017 173.931 123.317 174.249 123.58C174.692 123.91 175.145 124.231 175.598 124.551L176.923 125.546C177.806 126.21 178.685 126.878 179.522 127.589C180.038 128.025 180.547 128.468 181.05 128.918L181.8 129.597L182.517 130.31L185.35 133.194C185.622 133.547 185.798 133.966 185.86 134.407C185.962 134.849 185.557 135.607 184.904 136.477C183.953 137.746 182.607 138.771 181.941 138.666C181.754 138.633 181.578 138.557 181.426 138.444C181.275 138.331 181.151 138.183 181.067 138.014C180.221 136.564 178.959 135.402 177.445 134.677C177.012 134.471 176.512 134.304 176.368 133.826C175.892 132.314 174.615 131.592 173.84 130.375C173.265 129.471 172.48 128.768 171.851 127.914L168.539 123.294C168.301 122.933 168.137 122.529 168.058 122.104C167.979 121.679 167.986 121.243 168.079 120.821C168.159 120.335 168.83 119.691 169.245 119.748C169.802 119.826 170.347 119.975 170.865 120.193C171.233 120.391 171.573 120.637 171.876 120.925L171.933 120.872Z" fill="black"/>
<path d="M163.145 125.702L164.172 127.329C164.34 127.624 164.55 127.892 164.797 128.125L166.917 129.852C167.625 130.426 168.329 131.004 168.989 131.62C169.396 131.999 169.795 132.384 170.188 132.775C170.56 133.185 170.923 133.601 171.284 134.02L173.422 136.556C173.619 136.882 173.715 137.258 173.698 137.638C173.723 138.034 173.232 138.726 172.499 139.525C171.431 140.689 170.039 141.643 169.447 141.563C169.289 141.543 169.14 141.479 169.017 141.379C168.893 141.278 168.801 141.145 168.75 140.995C168.208 139.712 167.217 138.671 165.962 138.068C165.603 137.887 165.158 137.761 165.088 137.345C164.892 135.992 163.847 135.36 163.334 134.277C162.896 133.527 162.42 132.8 161.907 132.099C161.503 131.434 161.128 130.745 160.736 130.07C160.356 129.385 159.934 128.737 159.57 128.039C159.275 127.485 159.237 126.756 159.571 125.792C159.726 125.346 160.452 124.742 160.829 124.778C161.322 124.825 161.807 124.94 162.269 125.119C162.579 125.274 162.856 125.489 163.082 125.752C163.104 125.735 163.123 125.72 163.145 125.702Z" fill="black"/>
<path d="M168.094 147.976L168.308 148.784C168.33 148.926 168.399 149.057 168.503 149.157C168.821 149.387 169.177 149.591 169.5 149.818C169.828 150.031 170.14 150.266 170.434 150.524C171.098 151.162 171.713 151.851 172.271 152.584C172.359 152.69 172.252 152.934 172.138 153.178C171.68 153.724 171.146 154.203 170.553 154.6C169.307 155.555 167.882 156.448 167.469 156.509C167.205 156.55 167.144 156.437 167.161 156.278C167.188 156.125 167.184 155.968 167.149 155.817C167.115 155.665 167.05 155.522 166.96 155.396C166.869 155.27 166.754 155.163 166.622 155.082C166.49 155.001 166.342 154.947 166.189 154.923C165.997 154.87 165.729 154.861 165.822 154.616C166.108 153.839 165.539 153.65 165.505 153.093C165.481 152.678 165.233 152.417 165.156 152.038C165.004 151.372 164.875 150.691 164.699 150.043C164.63 149.783 164.813 149.367 165.444 148.673C165.842 148.276 166.313 147.959 166.831 147.739C167.125 147.679 167.426 147.674 167.722 147.725C167.908 147.763 167.936 147.915 168.033 148.017L168.094 147.976Z" fill="black"/>
<path d="M160.913 158.038C160.984 158.252 161.046 158.474 161.122 158.685C161.149 158.798 161.208 158.902 161.292 158.982C162.468 159.685 163.493 160.616 164.304 161.72C164.377 161.805 164.328 161.988 164.275 162.171C164.021 162.567 163.701 162.917 163.329 163.205C162.568 163.893 161.673 164.529 161.385 164.568C161.201 164.594 161.141 164.509 161.131 164.391C161.118 164.147 161.023 163.914 160.861 163.729C160.7 163.545 160.481 163.42 160.241 163.375C160.093 163.334 159.895 163.327 159.93 163.144C160.037 162.565 159.595 162.422 159.499 162.004C159.389 161.73 159.258 161.465 159.106 161.212C158.908 160.714 158.73 160.2 158.524 159.707C158.443 159.51 158.54 159.185 158.968 158.623C159.242 158.301 159.579 158.039 159.959 157.853C160.177 157.801 160.403 157.795 160.623 157.835C160.764 157.865 160.793 157.988 160.87 158.07L160.913 158.038Z" fill="black"/>
<path d="M153.087 167.492C153.158 167.702 153.23 167.913 153.302 168.123C153.332 168.236 153.387 168.34 153.461 168.429C153.683 168.65 153.932 168.854 154.138 169.086C154.354 169.307 154.558 169.54 154.748 169.784C155.208 170.384 155.599 171.027 155.998 171.666C156.043 171.8 156.039 171.945 155.988 172.076C155.952 172.226 155.666 172.49 155.265 172.797C154.681 173.243 153.986 173.61 153.75 173.58C153.692 173.578 153.638 173.554 153.597 173.514C153.556 173.474 153.532 173.42 153.528 173.363C153.495 173.126 153.404 172.9 153.264 172.705C153.123 172.51 152.937 172.353 152.722 172.247C152.595 172.178 152.427 172.129 152.447 171.971C152.508 171.467 152.125 171.242 152.023 170.84C151.954 170.538 151.749 170.32 151.664 170.027C151.498 169.513 151.344 168.992 151.165 168.487C151.095 168.285 151.166 168.006 151.492 167.592C151.7 167.362 151.971 167.197 152.271 167.118C152.463 167.123 152.653 167.167 152.828 167.247C152.949 167.304 152.981 167.421 153.052 167.512L153.087 167.492Z" fill="black"/>
<path d="M144.423 174.999L144.605 175.739C144.623 175.869 144.683 175.99 144.775 176.083C145.055 176.303 145.384 176.49 145.661 176.711C145.947 176.918 146.217 177.145 146.469 177.392C147.04 178.004 147.565 178.657 148.039 179.348C148.114 179.448 148.02 179.664 147.921 179.879C147.526 180.348 147.063 180.755 146.548 181.087C145.471 181.888 144.238 182.626 143.874 182.666C143.642 182.693 143.585 182.591 143.596 182.45C143.633 182.17 143.56 181.885 143.394 181.657C143.227 181.428 142.978 181.272 142.7 181.221C142.526 181.168 142.285 181.154 142.364 180.938C142.607 180.254 142.092 180.072 142.054 179.574C142.028 179.203 141.798 178.966 141.734 178.619C141.601 178.013 141.489 177.394 141.335 176.802C141.274 176.566 141.443 176.192 142.021 175.574C142.386 175.221 142.816 174.943 143.288 174.754C143.553 174.706 143.826 174.708 144.091 174.761C144.258 174.8 144.281 174.939 144.367 175.035L144.423 174.999Z" fill="black"/>
<path d="M133.578 180.324L133.635 181.081C133.631 181.212 133.671 181.34 133.748 181.445C133.999 181.7 134.289 181.935 134.535 182.191C134.79 182.433 135.027 182.695 135.242 182.974C135.72 183.655 136.143 184.373 136.509 185.121C136.568 185.231 136.434 185.431 136.294 185.632C135.805 186.045 135.26 186.386 134.674 186.645C133.429 187.296 132.034 187.863 131.657 187.853C131.415 187.848 131.376 187.739 131.414 187.6C131.459 187.467 131.477 187.326 131.466 187.186C131.456 187.046 131.418 186.909 131.355 186.783C131.291 186.658 131.203 186.547 131.096 186.456C130.989 186.364 130.864 186.296 130.73 186.253C130.565 186.177 130.323 186.13 130.442 185.926C130.814 185.279 130.325 185.027 130.378 184.527C130.42 184.154 130.228 183.887 130.222 183.536C130.194 182.916 130.191 182.286 130.14 181.678C130.12 181.435 130.356 181.089 131.048 180.558C131.479 180.26 131.961 180.045 132.47 179.924C132.746 179.913 133.021 179.953 133.282 180.043C133.445 180.104 133.445 180.245 133.516 180.351C133.537 180.342 133.556 180.333 133.578 180.324Z" fill="black"/>
<path d="M117.368 178.439L117.739 179.526C117.792 179.719 117.886 179.899 118.014 180.054C118.398 180.434 118.817 180.793 119.203 181.172C119.597 181.538 119.973 181.925 120.328 182.33C121.157 183.334 121.935 184.38 122.658 185.463C122.771 185.623 122.7 185.902 122.621 186.18C122.545 186.447 121.977 186.947 121.181 187.538C120.02 188.399 118.656 189.132 118.224 189.094C118.174 189.096 118.124 189.087 118.077 189.069C118.031 189.05 117.989 189.022 117.953 188.987C117.918 188.951 117.891 188.908 117.873 188.862C117.856 188.815 117.848 188.765 117.851 188.715C117.832 188.299 117.702 187.895 117.474 187.546C117.247 187.197 116.93 186.915 116.556 186.73C116.34 186.609 116.05 186.524 116.105 186.239C116.271 185.334 115.623 184.937 115.486 184.222C115.324 183.734 115.134 183.255 114.918 182.788C114.636 181.901 114.376 181.001 114.071 180.129C113.95 179.781 114.074 179.302 114.632 178.594C114.988 178.201 115.452 177.921 115.965 177.789C116.296 177.8 116.621 177.877 116.922 178.016C117.13 178.116 117.186 178.317 117.309 178.474L117.368 178.439Z" fill="black"/>
<path d="M98.2366 171.674C98.5353 172.268 98.8232 172.867 99.1001 173.471C99.226 173.8 99.3941 174.111 99.6003 174.397C100.797 175.851 102.105 177.261 103.197 178.809C103.535 179.281 103.845 179.774 104.123 180.284C104.411 180.787 104.686 181.298 104.955 181.812C105.49 182.84 105.997 183.884 106.488 184.935C106.604 185.31 106.605 185.711 106.491 186.086C106.414 186.484 105.756 187.016 104.828 187.576C103.476 188.391 101.866 188.905 101.328 188.664C101.184 188.6 101.061 188.497 100.972 188.367C100.884 188.236 100.834 188.083 100.829 187.926C100.673 186.552 99.9998 185.288 98.9453 184.393C98.6506 184.13 98.2601 183.903 98.2871 183.487C98.3441 182.166 97.5103 181.302 97.225 180.148C96.9519 179.326 96.6266 178.521 96.2513 177.74C95.9742 177.014 95.6947 176.286 95.404 175.562C95.1334 174.826 94.8457 174.097 94.5354 173.378C94.2908 172.803 94.306 172.1 94.7604 171.166C94.972 170.734 95.7902 170.199 96.1528 170.297C96.6281 170.423 97.0791 170.628 97.4872 170.902C97.7565 171.134 97.9875 171.407 98.1716 171.712L98.2366 171.674Z" fill="black"/>
<path d="M75.7797 156.944C76.2828 157.949 76.7208 158.989 77.1884 160.012C77.4181 160.563 77.6907 161.095 78.0039 161.604L79.3574 163.584C79.8098 164.245 80.2192 164.928 80.6495 165.601C81.4985 166.953 82.3244 168.32 83.091 169.719C84.025 171.445 84.9298 173.189 85.7607 174.967C86.5782 176.752 87.3681 178.548 88.1304 180.358C88.3325 180.944 88.4158 181.564 88.3754 182.183C88.3742 182.791 87.7581 183.445 86.853 184.068C85.534 184.975 83.8601 185.325 83.1913 184.768C82.7986 184.414 82.5351 183.938 82.4426 183.418C81.9118 181.115 80.8729 178.961 79.402 177.112C79.0037 176.588 78.5023 176.085 78.4399 175.423C78.2347 173.309 76.9841 171.674 76.3559 169.75C75.8979 168.313 75.1353 167.019 74.6049 165.61C74.133 164.353 73.6571 163.096 73.1622 161.846C72.6721 160.594 72.1524 159.355 71.6504 158.104C71.2131 157.058 71.1411 155.895 71.4461 154.802C71.5976 154.239 72.4373 153.787 72.8994 154.079C73.5402 154.489 74.1343 154.968 74.6709 155.508C75.0628 155.963 75.4103 156.455 75.7087 156.977C75.7328 156.966 75.7549 156.955 75.7797 156.944Z" fill="black"/>
<path d="M67.0353 162.082C67.3396 162.826 67.6315 163.575 67.9248 164.324C68.0568 164.73 68.2349 165.12 68.4556 165.485C69.7289 167.377 71.1492 169.193 72.3797 171.107C73.1162 172.297 73.7573 173.535 74.4132 174.766L76.3278 178.486C76.4901 178.914 76.5401 179.376 76.4733 179.829C76.4454 180.29 75.8328 180.893 74.9473 181.525C73.6566 182.447 72.0557 183.002 71.4516 182.677C71.2819 182.581 71.1362 182.447 71.0256 182.287C70.915 182.126 70.8424 181.942 70.8132 181.749C70.4378 180.057 69.5874 178.508 68.3618 177.283C68.0191 176.932 67.581 176.609 67.5674 176.105C67.5131 175.355 67.3074 174.625 66.9628 173.957C66.6361 173.3 66.3632 172.618 66.1466 171.916C65.8684 170.842 65.3483 169.885 64.9898 168.85L64.0326 166.079C63.7322 165.146 63.425 164.217 63.1023 163.295C62.9649 162.874 62.9189 162.428 62.9675 161.987C63.016 161.547 63.1579 161.122 63.3838 160.74C63.62 160.285 64.5046 159.855 64.8836 160.049C65.3904 160.31 65.8566 160.643 66.2675 161.038C66.5462 161.365 66.7811 161.726 66.9663 162.113L67.0353 162.082Z" fill="black"/>
<path d="M58.9478 167.125C59.1224 167.541 59.3041 167.953 59.4448 168.39C59.5072 168.622 59.6169 168.838 59.7669 169.026C60.2144 169.493 60.6947 169.939 61.1717 170.387L61.8785 171.065L62.2195 171.412C62.3256 171.532 62.4202 171.659 62.5166 171.785C63.4578 173.032 64.2547 174.367 65.0661 175.694C65.1546 175.973 65.1389 176.275 65.0217 176.544C64.9367 176.855 64.3114 177.404 63.4382 178.04C62.1657 178.966 60.664 179.727 60.1681 179.661C60.0491 179.657 59.9362 179.607 59.8529 179.522C59.7697 179.437 59.7224 179.323 59.7209 179.204C59.6728 178.71 59.5013 178.235 59.2222 177.824C58.9432 177.414 58.5654 177.079 58.1235 176.853C57.8645 176.705 57.5171 176.598 57.5709 176.268C57.7442 175.214 56.9301 174.754 56.8161 173.872C56.6497 173.276 56.4408 172.693 56.1911 172.127L55.7049 170.529C55.5451 169.995 55.4128 169.444 55.2457 168.915C55.1166 168.489 55.2585 167.928 55.8417 167.151C56.2146 166.725 56.7175 166.435 57.2724 166.324C57.6597 166.361 58.0377 166.465 58.3894 166.631C58.6402 166.752 58.7249 166.981 58.8816 167.163L58.9478 167.125Z" fill="black"/>
</svg>
