<svg width="230" height="228" viewBox="0 0 230 228" fill="none" xmlns="http://www.w3.org/2000/svg">
<path d="M102.328 75.2039C98.1199 75.3244 93.9082 75.2265 89.7103 74.9104C85.5274 74.6177 81.4913 74.1838 77.4471 73.863C73.4037 73.5323 69.3712 73.2614 65.3542 73.127C61.3695 72.9707 57.3793 73.0215 53.3999 73.2794C49.2408 73.5803 45.0958 74.1882 41.4313 75.5312C40.5437 75.8629 39.6817 76.2581 38.8521 76.714C38.4381 76.9281 38.0853 77.1917 37.6961 77.4246C37.3416 77.7091 36.958 77.95 36.6205 78.2616C35.203 79.4819 33.9965 80.924 33.049 82.5308C30.4675 87.0469 29.3554 92.2428 29.8643 97.409C30.2705 102.531 32.4197 107.364 35.9598 111.117C39.3086 114.749 44.4171 116.639 49.7281 117.804C55.0811 118.931 60.7133 119.326 66.3631 119.42C72.0222 119.503 77.7272 119.278 83.4394 118.9C89.1526 118.522 94.876 117.999 100.607 117.417C112.07 116.253 123.556 114.851 135.139 113.761C142.272 113.095 149.441 112.53 156.684 112.316C163.937 112.135 171.229 112.201 178.714 113.445C179.196 113.535 179.677 113.605 180.161 113.713L181.616 114.103C182.602 114.344 183.518 114.681 184.446 115.003L185.142 115.247L185.823 115.534L187.182 116.116C187.64 116.299 188.067 116.554 188.511 116.771C188.949 117 189.393 117.216 189.824 117.459C193.287 119.428 196.373 121.988 198.94 125.019C202.171 128.822 204.475 133.312 205.672 138.141C206.87 142.97 206.928 148.008 205.844 152.863C205.744 153.352 205.59 153.831 205.463 154.316L205.262 155.04C205.19 155.28 205.099 155.515 205.018 155.753C204.848 156.227 204.686 156.703 204.506 157.172L203.897 158.559C203.047 160.404 201.986 162.146 200.736 163.751L200.272 164.358L199.764 164.932C199.422 165.31 199.088 165.698 198.734 166.066C198.013 166.79 197.252 167.474 196.455 168.115C194.875 169.414 193.141 170.517 191.292 171.4C189.493 172.258 187.62 172.954 185.695 173.478C181.999 174.45 178.207 175.017 174.386 175.17C166.933 175.536 159.718 174.958 152.643 174.566C149.107 174.366 145.604 174.192 142.158 174.189C138.789 174.144 135.421 174.374 132.089 174.876C128.206 175.524 124.562 176.706 121.72 178.817C120.3 179.884 119.069 181.18 118.079 182.649C117.057 184.188 116.251 185.858 115.685 187.613C115.154 189.221 114.72 190.86 114.387 192.519C114.053 194.054 113.811 195.48 113.582 196.778C113.139 199.376 112.748 201.467 112.318 203.1C111.695 205.479 110.879 205.586 110.056 203.571C109.806 202.954 109.608 202.316 109.466 201.666C109.255 200.78 109.096 199.882 108.991 198.977C108.93 198.463 108.871 197.919 108.82 197.343C108.789 196.765 108.764 196.156 108.745 195.517C108.718 194.111 108.78 192.705 108.93 191.306C109.127 189.304 109.515 187.325 110.091 185.396C110.697 183.336 111.567 181.361 112.678 179.519C113.839 177.612 115.299 175.9 117.003 174.448C118.678 173.034 120.551 171.869 122.564 170.988C124.763 170.033 127.063 169.324 129.422 168.875C131.686 168.447 133.976 168.168 136.278 168.041C140.727 167.83 145.184 167.868 149.628 168.154C154.006 168.386 158.329 168.706 162.614 168.906C166.837 169.149 171.071 169.141 175.293 168.884C179.43 168.58 183.49 167.88 187.094 166.396C188.867 165.679 190.529 164.717 192.031 163.539C193.531 162.383 194.85 161.011 195.941 159.469C198.154 156.352 199.504 152.715 199.857 148.92C200.247 144.879 199.679 140.803 198.199 137.018C196.718 133.233 194.366 129.843 191.33 127.119C189.749 125.704 188.018 124.461 186.168 123.414C184.32 122.408 182.386 121.567 180.388 120.901L179.221 120.55L178.637 120.372C178.437 120.32 178.227 120.287 178.022 120.244C177.606 120.164 177.209 120.075 176.776 120.001L175.469 119.782C173.716 119.519 171.945 119.294 170.148 119.154C166.561 118.844 162.913 118.764 159.253 118.779C151.926 118.834 144.541 119.348 137.152 119.997C122.368 121.315 107.551 123.231 92.6134 124.34C87.062 124.747 81.4855 125.09 75.8731 125.241C70.2231 125.435 64.5667 125.323 58.9291 124.905C53.2567 124.421 47.5004 123.572 41.9035 121.446C39.0154 120.382 36.3228 118.855 33.9326 116.928C33.3655 116.403 32.755 115.908 32.2398 115.343L31.4413 114.515L30.6978 113.637C30.1864 113.065 29.7658 112.422 29.3036 111.813L28.6807 110.851C28.471 110.531 28.2692 110.207 28.0909 109.87C26.7514 107.515 25.7579 104.983 25.1404 102.349C24.5356 99.741 24.2674 97.0672 24.3424 94.392C24.4614 89.0026 26.056 83.7465 28.9557 79.1861C29.7059 78.0347 30.558 76.9517 31.5018 75.95C32.4676 74.9375 33.5298 74.0198 34.6736 73.2097C35.8297 72.4314 37.0553 71.7597 38.3352 71.203C39.571 70.6826 40.8375 70.2365 42.1276 69.8673C47.2249 68.4596 52.3291 68.0384 57.3723 67.8655C67.4571 67.5911 77.412 68.5224 87.2229 69.3511C89.6609 69.5563 92.0964 69.6856 94.5289 69.7854C96.9587 69.8584 99.3843 69.8799 101.792 69.7969C104.171 69.7173 106.543 69.4838 108.891 69.0979C109.477 69.0158 110.033 68.8672 110.605 68.7566C111.169 68.6283 111.72 68.4718 112.272 68.3216C113.339 68.0031 114.376 67.5928 115.371 67.0956C115.756 66.898 116.119 66.6771 116.48 66.4583C116.828 66.2313 117.162 65.9854 117.482 65.7216C118.114 65.2141 118.675 64.6256 119.151 63.9716C120.107 62.6011 120.777 61.055 121.122 59.4242C121.495 57.6785 121.74 55.9083 121.855 54.1273C121.927 53.2072 121.976 52.3429 122.013 51.419C122.052 50.503 122.091 49.5917 122.129 48.6852C122.431 41.4178 122.844 34.4574 123.389 27.8977C123.458 26.775 123.619 25.6599 123.873 24.5636C124.051 23.8418 124.276 23.504 124.515 23.6027C124.748 23.6897 125.031 24.2644 125.254 25.1902C125.553 26.5187 125.74 27.8693 125.814 29.2284C126.122 34.1963 126.348 39.272 126.519 44.4086C126.602 46.9814 126.677 49.5486 126.714 52.1743L126.718 53.2076L126.7 54.2138C126.68 54.8887 126.664 55.564 126.616 56.2587C126.541 57.6914 126.371 59.1176 126.105 60.5278C125.855 61.7875 125.483 63.0201 124.992 64.2082C124.461 65.4807 123.749 66.6713 122.878 67.7441C122.438 68.2885 121.96 68.8024 121.449 69.2821C120.939 69.7445 120.399 70.1744 119.834 70.5694C119.284 70.9558 118.713 71.3121 118.124 71.6367C117.833 71.7899 117.54 71.9289 117.246 72.0738C116.953 72.2197 116.659 72.3615 116.364 72.474C114.094 73.3938 111.722 74.0434 109.297 74.4093C107.015 74.769 104.713 74.9999 102.404 75.1008C102.381 75.1364 102.355 75.1709 102.328 75.2039Z" fill="black"/>
<path d="M131.269 41.6203C130.311 40.0801 129.401 38.5101 128.522 36.9365C128.051 36.1057 127.598 35.2616 127.056 34.4899L120.243 24.7662L125.647 24.5433L125.314 25.1965L124.891 25.8014C124.745 26.0003 124.619 26.213 124.515 26.4364L124.173 27.0897L123.112 29.1071L122.092 31.1655C121.404 32.5432 120.699 33.9232 119.958 35.2985C119.21 36.6716 118.447 38.0443 117.625 39.3955C117.222 40.0732 116.801 40.7459 116.371 41.4107C115.923 42.066 115.489 42.7294 115.023 43.3738C114.431 44.1462 113.732 44.8327 112.948 45.4134C112.211 45.992 111.209 45.9569 110.157 45.5839C108.626 45.0359 107.644 43.6045 108.063 42.4375C108.353 41.6989 108.791 41.0265 109.351 40.4611C111.787 37.7683 113.721 34.6683 115.063 31.3053C115.444 30.369 115.761 29.3523 116.422 28.588C117.28 27.5763 118.02 26.4719 118.627 25.2957L119.557 23.5343C119.713 23.2408 119.808 22.9136 119.941 22.6055C119.998 22.4476 120.07 22.2957 120.157 22.152L120.402 21.7143L120.442 21.6413C120.62 21.3246 120.858 21.0455 121.144 20.8201C121.43 20.5947 121.758 20.4274 122.109 20.3276C122.46 20.2279 122.828 20.1977 123.191 20.2388C123.554 20.2799 123.905 20.3914 124.225 20.5671C124.636 20.7946 124.982 21.1205 125.233 21.5149C125.532 21.9879 125.821 22.4663 126.092 22.9555C127.247 25.0618 128.595 27.0423 129.775 29.0836C131.874 32.7267 133.988 36.26 136.412 39.6569C137.449 41.0304 137.982 42.7138 137.923 44.4285C137.931 44.6177 137.893 44.8061 137.812 44.9778C137.731 45.1495 137.61 45.2994 137.459 45.4149C137.378 45.4713 137.293 45.5209 137.204 45.563C137.104 45.6079 136.999 45.644 136.893 45.6708C136.773 45.7011 136.652 45.7223 136.529 45.7342C136.404 45.7576 136.276 45.7521 136.154 45.718C134.892 45.3562 134.033 44.5707 133.147 43.8119C132.482 43.1191 131.881 42.3683 131.351 41.5688L131.269 41.6203Z" fill="black"/>
</svg>
