<svg width="229" height="230" viewBox="0 0 229 230" fill="none" xmlns="http://www.w3.org/2000/svg">
<path d="M96.8326 160.626C94.734 161.195 92.6185 161.73 90.4489 162.188C89.3619 162.415 88.2672 162.628 87.1301 162.793L86.2782 162.917L85.3953 163.01C84.8226 163.084 84.1724 163.095 83.5575 163.128C82.8653 163.165 82.1838 162.944 81.6436 162.508C81.1034 162.072 80.7425 161.45 80.6301 160.763L80.617 160.679C79.147 151.635 78.9712 142.427 80.0949 133.333L80.5594 129.927C80.744 128.797 81.0079 127.679 81.2293 126.554L81.577 124.87L81.7511 124.028C81.8088 123.748 81.8994 123.475 81.9719 123.197L82.8957 119.883C83.0546 119.332 83.194 118.776 83.3693 118.23L83.9437 116.608L85.0951 113.366C85.5137 112.299 85.9977 111.257 86.4467 110.202C86.9179 109.157 87.3227 108.081 87.8831 107.078L89.9759 103.063L92.3353 99.1959C92.7113 98.5401 93.1616 97.9331 93.5967 97.3161L94.9051 95.4675L95.5596 94.5436L95.8868 94.0818L96.2439 93.6426L97.6721 91.8866L99.1005 90.1316C99.5864 89.5552 100.119 89.0204 100.626 88.463L102.166 86.8074L102.936 85.9808L103.757 85.2053C104.857 84.1783 105.931 83.1227 107.051 82.1204L110.517 79.24C122.52 69.713 137.164 63.7904 152.238 61.6718C159.789 60.6169 167.438 60.471 175.024 61.2373C182.598 62.0096 190.066 63.6144 197.292 66.0229L194.986 66.332L195.536 65.961L194.775 69.5866C189.858 61.8671 184.936 53.9512 181.033 45.4198C179.069 41.1564 177.376 36.7721 175.965 32.2935C174.565 27.814 173.432 23.2544 172.572 18.6392L174.71 20.8387C168.007 19.4347 161.206 18.5585 154.368 18.2181C150.957 18.0543 147.544 18.0767 144.139 18.2082C140.738 18.3968 137.343 18.6889 133.98 19.1936C119.345 21.3372 105.224 26.9837 93.4741 35.963C87.5766 40.4359 82.2685 45.6431 77.6773 51.4594C73.0704 57.2895 69.1469 63.6328 65.9842 70.364C59.6083 83.8303 56.1738 98.6603 55.2807 113.605C54.4778 128.631 56.013 143.691 59.831 158.242L59.8348 158.257C59.9512 158.708 59.9456 159.182 59.8185 159.63C59.6914 160.078 59.4475 160.484 59.112 160.805C58.7764 161.127 58.3614 161.353 57.9099 161.459C57.4583 161.566 56.9866 161.55 56.5435 161.412C51.9772 159.934 47.528 158.113 43.2332 155.966C38.9692 153.888 34.8239 151.642 30.7304 149.334L34.2809 145.84C35.7597 148.616 37.25 151.385 38.7517 154.149C40.2586 156.909 41.7776 159.663 43.3088 162.411C48.9396 172.491 54.6586 182.653 60.44 192.489C63.2126 197.197 65.4215 201.122 67.1563 204.384C68.017 206.019 68.7725 207.48 69.4044 208.799C69.7171 209.455 70.0346 210.109 70.2105 210.575C70.4123 211.084 70.5884 211.596 70.7738 212.112C71.8648 215.212 72.6382 216.015 70.3158 214.004C69.541 213.289 68.8257 212.512 68.1772 211.68C67.8469 211.254 67.4904 210.793 67.1078 210.298L65.9674 208.77C64.3714 206.593 62.485 203.853 60.3693 200.585C55.0058 192.319 49.4755 183.072 44.4541 174.205C39.5535 165.548 34.7846 156.832 30.1474 148.06L30.1423 148.05C29.8816 147.557 29.8266 146.98 29.9894 146.446C30.1521 145.912 30.5194 145.465 31.0104 145.203C31.3217 145.039 31.6688 144.956 32.0203 144.96C32.3718 144.965 32.7166 145.057 33.0237 145.229C37.0633 147.518 41.1345 149.731 45.2712 151.75C49.3456 153.793 53.5679 155.524 57.902 156.927L55.3143 159.422C51.8581 145.936 49.9898 132 50.2629 118.035C50.5148 104.086 52.8257 90.1045 57.5782 76.8838C58.1177 75.3265 58.7397 73.7906 59.3497 72.2432C59.6611 71.4723 60.0025 70.7118 60.3286 69.9437L60.8249 68.7937L61.3562 67.6575C62.7576 64.6097 64.3139 61.6361 66.0189 58.7485C67.7039 55.8675 69.5471 53.0828 71.5397 50.4071C73.484 47.7744 75.5812 45.2592 77.8203 42.8744C90.0544 29.7435 105.794 20.4287 123.159 16.0431C127.462 14.9441 131.832 14.1295 136.241 13.6044C140.642 13.0926 145.07 12.8436 149.5 12.8587C153.92 12.8656 158.337 13.118 162.729 13.6149C167.114 14.1157 171.466 14.8312 175.777 15.7245C176.254 15.8233 176.69 16.0629 177.031 16.4125C177.371 16.762 177.6 17.2058 177.688 17.6868V17.6918C178.629 22.904 179.94 28.0416 181.614 33.065L182.378 35.2979C182.644 36.0382 182.933 36.7705 183.209 37.5075L183.629 38.6115L184.082 39.703L184.996 41.8834C186.269 44.7703 187.659 47.6121 189.141 50.4175C190.644 53.2136 192.223 55.9811 193.877 58.72C195.535 61.4585 197.24 64.1843 198.964 66.9137C199.289 67.4285 199.4 68.0502 199.275 68.6464C199.15 69.2426 198.798 69.7661 198.294 70.1055L197.743 70.4749C197.448 70.6717 197.111 70.7985 196.759 70.8456C196.408 70.8928 196.05 70.8591 195.713 70.7472C187.976 68.1264 179.941 66.4948 171.798 65.8911C163.668 65.288 155.493 65.7799 147.493 67.3535C146.218 67.5539 144.975 67.8955 143.724 68.2052L141.849 68.6726C141.537 68.7535 141.222 68.8213 140.913 68.9128L139.992 69.2048L136.307 70.3701C135.095 70.8044 133.901 71.2914 132.697 71.7484C132.1 71.9903 131.485 72.19 130.903 72.466L129.149 73.2747L127.393 74.0824C127.102 74.219 126.805 74.3467 126.518 74.4906L125.668 74.9499L122.266 76.7845C121.163 77.4473 120.08 78.1456 118.984 78.8234C117.871 79.4758 116.844 80.2551 115.796 81.0047C114.756 81.765 113.679 82.4769 112.709 83.3266L109.728 85.7869L106.912 88.4355L106.207 89.0972C105.976 89.3215 105.765 89.566 105.543 89.7994L104.227 91.215L102.909 92.6299C102.468 93.0999 102.087 93.6228 101.673 94.1165C100.871 95.1251 100.026 96.1014 99.2559 97.1353L97.0268 100.298C96.8448 100.564 96.6462 100.819 96.4772 101.094L95.9759 101.922L94.972 103.576L93.9668 105.231C93.6543 105.795 93.371 106.376 93.0713 106.947L92.1828 108.668L91.7381 109.529L91.5168 109.959L91.3254 110.404L89.7904 113.963C89.6658 114.261 89.5262 114.554 89.4137 114.856L89.0931 115.771L88.4505 117.601L87.8065 119.431C87.59 120.041 87.4514 120.675 87.2697 121.296L86.2443 125.041L85.4733 128.85L85.2798 129.802C85.2078 130.118 85.153 130.438 85.1156 130.76L84.8608 132.688L84.605 134.617C84.5246 135.261 84.414 135.901 84.3924 136.551C84.2413 139.143 83.9873 141.731 84.0693 144.334C83.9708 149.539 84.5863 154.731 85.2993 159.892L83.4599 158.36C85.4976 158.241 87.5216 157.95 89.5104 157.488C91.5702 157.046 93.6336 156.517 95.6907 155.951C99.806 154.815 103.901 153.525 107.975 152.169C108.332 152.05 108.717 152.052 109.073 152.173C109.429 152.294 109.736 152.529 109.947 152.842C110.158 153.154 110.261 153.527 110.242 153.904C110.223 154.281 110.082 154.641 109.84 154.93L109.814 154.962C108.454 156.58 107.039 158.148 105.764 159.845C99.2977 168.073 94.0359 176.906 89.0705 185.413C84.1314 193.943 79.4969 202.22 74.6881 209.734C74.146 210.598 73.6451 211.358 73.2342 211.925C72.8255 212.501 72.5243 212.93 72.3094 213.248C71.881 213.882 71.7682 214.05 71.8093 213.743C71.8266 213.643 71.8721 213.38 71.9475 212.946C72.0102 212.578 72.0574 212.114 72.1157 211.647C72.1443 211.408 72.1913 211.171 72.2563 210.939C72.353 210.629 72.4779 210.329 72.6296 210.043C72.8276 209.636 73.0409 209.198 73.2695 208.729L73.6328 208.007C73.6964 207.883 73.761 207.758 73.8267 207.63L73.8763 207.535C73.8507 207.479 73.8959 207.463 73.9024 207.425L73.9966 207.226C74.7082 205.708 75.4064 204.169 76.1103 202.625C76.8206 201.079 77.6027 199.568 78.3476 198.02C79.8621 194.94 81.3683 191.817 82.9519 188.699C86.1161 182.468 89.4219 176.186 93.1119 170.093C96.9702 163.63 101.39 157.523 106.32 151.842L109.466 156.619C105.318 158.007 101.142 159.327 96.911 160.514C96.8868 160.553 96.8606 160.59 96.8326 160.626Z" fill="black"/>
</svg>
