<svg width="229" height="228" viewBox="0 0 229 228" fill="none" xmlns="http://www.w3.org/2000/svg">
<path d="M84.3806 138.555C88.393 129.719 93.5857 121.462 99.8179 114.01C100.541 113.153 101.286 112.312 102.019 111.462L104.298 108.981L106.663 106.583L109.086 104.25L111.601 108.287C111.011 108.502 110.423 108.716 109.837 108.929C108.612 109.332 107.377 109.711 106.184 110.199C104.98 110.661 103.778 111.126 102.588 111.621C100.193 112.576 97.8303 113.61 95.4911 114.692C93.1453 115.759 90.8265 116.883 88.5349 118.063C86.2403 119.235 83.9668 120.446 81.7297 121.722C72.7849 126.804 64.2029 132.496 56.0451 138.755L52.3636 133.633C57.2337 130.27 62.2797 126.887 67.9138 124.234C70.9864 122.76 74.2133 121.628 77.5357 120.859C77.9531 120.749 78.3822 120.673 78.8135 120.603L80.1036 120.385C80.9647 120.244 81.8491 120.197 82.721 120.104C83.5994 120.048 84.4869 120.06 85.3693 120.038C86.2535 120.095 87.1381 120.169 88.0202 120.239C88.61 120.286 89.1739 120.501 89.6445 120.858C90.1151 121.216 90.4726 121.7 90.6744 122.254C90.8763 122.808 90.914 123.408 90.783 123.982C90.652 124.557 90.3578 125.082 89.9356 125.495L89.8588 125.569C87.5008 127.868 84.9805 130.005 82.6371 132.323C80.2652 134.613 77.966 136.975 75.6431 139.316C73.3466 141.682 71.0978 144.093 68.8968 146.548C67.7878 147.768 66.6769 148.987 65.5963 150.232C64.507 151.469 63.4173 152.706 62.3462 153.959C58.0708 158.979 53.912 164.094 49.8698 169.303C45.8422 174.522 41.9591 179.849 38.1662 185.236C35.3531 189.277 32.4023 193.282 29.5886 197.259C26.8455 201.034 24.7092 203.26 22.9718 204.397C20.4622 206.07 20.774 203.034 24.0568 197.19C26.2707 193.373 28.6821 189.673 31.2814 186.106C43.0502 169.736 55.6254 154.079 68.9269 138.991C72.5556 134.789 76.3793 130.442 80.2382 126.654C82.0324 124.842 83.8548 123.053 85.7051 121.287L87.3856 126.159C84.6341 125.865 81.8533 126.009 79.147 126.583C76.352 127.194 73.6352 128.118 71.0481 129.335C65.7582 131.768 60.7798 135.116 55.7693 138.542L55.6997 138.59C55.0832 139.011 54.3241 139.172 53.5885 139.038C52.8528 138.904 52.2006 138.485 51.7745 137.873C51.3484 137.261 51.183 136.506 51.3146 135.773C51.4461 135.04 51.8639 134.389 52.4766 133.961L55.5244 131.838C56.5465 131.14 57.5824 130.464 58.6124 129.781C69.4512 122.688 80.8316 116.451 92.6491 111.128L94.7948 110.167L96.9563 109.243C98.3936 108.619 99.8378 108.01 101.289 107.419C102.732 106.807 104.201 106.261 105.656 105.68C107.099 105.068 108.557 104.49 110.032 103.961C110.5 103.794 111.011 103.79 111.481 103.951C111.95 104.112 112.351 104.428 112.616 104.846C112.881 105.265 112.995 105.761 112.938 106.252C112.881 106.743 112.658 107.201 112.305 107.549L112.281 107.571L110.106 109.707L107.997 111.908L105.944 114.162C105.27 114.923 104.622 115.706 103.959 116.476C96.1265 125.891 90.0783 136.646 86.1096 148.215C85.9228 148.758 85.7367 149.299 85.5578 149.82L85.5331 149.891C85.3814 150.333 85.0633 150.699 84.6459 150.912C84.2285 151.125 83.7444 151.168 83.2957 151.032C82.847 150.897 82.4687 150.593 82.2406 150.185C82.0125 149.777 81.9524 149.297 82.073 148.846C83.163 144.759 84.2668 140.873 85.1761 137.097C86.0972 133.323 86.854 129.644 87.6302 126.119C88.0021 124.387 88.388 123.577 88.78 123.72C88.9596 123.791 89.1742 124.101 89.3498 124.653C89.6001 125.427 89.7521 126.23 89.8021 127.042C89.8434 127.776 89.8624 128.518 89.8854 129.264C89.9026 130.01 89.8574 130.759 89.8417 131.513C89.7723 133.02 89.6832 134.545 89.52 136.074C89.1977 139.137 88.7109 142.182 88.0618 145.194C87.7214 146.819 87.3336 148.433 86.9271 150.053L80.7817 148.335C81.8255 145.057 83.0919 141.808 84.4475 138.633C84.4242 138.608 84.403 138.584 84.3806 138.555Z" fill="black"/>
<path d="M171.839 143.205C176.309 133.736 182.111 124.949 189.07 117.108C192.725 112.953 196.671 109.061 200.878 105.46C201.673 104.794 202.443 104.1 203.259 103.458L205.72 101.549L207.955 105.496C205.107 106.391 202.356 107.53 199.583 108.601C196.817 109.689 194.047 110.76 191.308 111.899C185.825 114.16 180.379 116.485 175.039 118.996C169.703 121.513 164.459 124.191 159.4 127.127C154.357 130.011 149.535 133.259 144.971 136.847L141.738 131.764C143.077 131.067 144.423 130.379 145.775 129.698C147.128 129.016 148.488 128.34 149.856 127.669C152.461 126.389 155.105 125.148 157.791 123.971C160.476 122.792 163.206 121.676 166.001 120.683C168.81 119.688 171.667 118.834 174.562 118.124C175.284 117.931 176.025 117.794 176.755 117.627L177.855 117.389L178.966 117.189C180.458 116.983 181.963 116.866 183.454 116.657C184.105 116.566 184.768 116.692 185.339 117.015C185.911 117.338 186.36 117.84 186.615 118.444C186.871 119.047 186.919 119.717 186.752 120.35C186.586 120.983 186.214 121.544 185.694 121.945L185.666 121.965C180.943 125.595 176.265 129.29 171.712 133.138C167.201 137.034 162.734 140.984 158.449 145.128C149.833 153.366 141.626 162.001 133.828 171.032L128.547 177.03C126.794 179.038 125.052 181.034 123.319 183.019C121.949 184.623 120.494 186.151 118.959 187.598C117.957 188.568 116.858 189.435 115.681 190.185C114.319 191.014 113.843 190.662 114.21 189.345C114.509 188.417 114.905 187.523 115.391 186.677C116.129 185.326 116.948 184.022 117.845 182.77C118.502 181.834 119.182 180.885 119.885 179.925C120.585 178.968 121.34 178.034 122.085 177.085C122.836 176.141 123.59 175.193 124.359 174.265C125.14 173.347 125.915 172.437 126.683 171.534C128.441 169.454 130.272 167.44 132.062 165.392L134.814 162.381C135.733 161.379 136.642 160.369 137.581 159.387L140.373 156.416C141.3 155.424 142.258 154.46 143.197 153.479C145.069 151.511 146.996 149.597 148.904 147.665C149.851 146.692 150.837 145.758 151.801 144.802C152.774 143.855 153.727 142.888 154.713 141.955C156.68 140.084 158.627 138.192 160.623 136.351C164.551 132.598 168.625 129.006 172.639 125.334L177.246 121.251C178.813 119.909 180.386 118.572 181.96 117.271L184.176 122.586C183.717 122.659 183.26 122.731 182.805 122.804C182.352 122.89 181.9 122.967 181.453 123.062C181.006 123.168 180.558 123.25 180.119 123.367C179.673 123.443 179.226 123.499 178.785 123.589C175.797 124.126 172.85 124.861 169.961 125.788C167.048 126.709 164.151 127.751 161.291 128.928C155.564 131.277 149.966 134.075 144.312 136.857L144.27 136.878C143.671 137.173 142.984 137.235 142.342 137.052C141.699 136.87 141.149 136.456 140.796 135.891C140.444 135.326 140.316 134.651 140.436 133.997C140.557 133.343 140.917 132.757 141.448 132.354C146.337 128.677 151.516 125.399 156.934 122.551C163.124 119.269 169.463 116.323 175.868 113.569C182.265 110.795 188.75 108.266 195.224 105.791L200.827 103.661L203.626 102.6L206.38 101.428C206.838 101.234 207.351 101.21 207.825 101.362C208.3 101.514 208.703 101.832 208.961 102.256C209.219 102.68 209.314 103.183 209.229 103.672C209.145 104.161 208.886 104.603 208.5 104.917L208.401 104.997C207.461 105.759 206.541 106.544 205.595 107.298L202.857 109.68L200.201 112.158C199.352 113.022 198.471 113.853 197.618 114.713C194.22 118.175 191.052 121.854 188.137 125.727C182.258 133.441 177.554 141.976 174.177 151.057L174.159 151.105C173.996 151.556 173.663 151.926 173.231 152.138C172.799 152.349 172.301 152.386 171.843 152.24C171.385 152.093 171.001 151.776 170.773 151.354C170.544 150.932 170.49 150.438 170.619 149.977C170.861 149.118 171.085 148.254 171.342 147.401C172.682 142.796 174.362 138.296 176.367 133.937C178.177 129.943 180.239 126.066 182.541 122.332C183.537 120.704 184.166 120.02 184.415 120.283C184.652 120.54 184.565 121.767 184.008 123.901C183.792 124.647 183.575 125.397 183.356 126.152C183.131 126.902 182.856 127.634 182.606 128.381C182.107 129.871 181.603 131.372 181.096 132.884C180.102 135.906 179.131 138.96 178.237 142.014C177.349 145.073 176.347 148.137 175.51 151.241L169.411 149.388L170.609 146.311C171.017 145.29 171.478 144.295 171.905 143.287C171.882 143.261 171.861 143.236 171.839 143.205Z" fill="black"/>
<path d="M129.805 46.5867C136.826 39.9255 144.316 33.5888 152.635 28.3193C157.064 25.5139 161.704 23.0542 166.514 20.9624L167.166 20.67L168.313 25.6226C157.426 26.2775 146.613 27.6059 136.126 30.199C125.617 32.7165 115.557 36.7482 105.938 41.6326L103.739 35.6093C106.118 35.0237 108.518 34.457 110.966 33.9627C112.188 33.7148 113.418 33.4906 114.605 33.2761C115.792 33.0608 116.944 32.8454 118.101 32.6056C119.829 32.2499 121.567 31.8486 123.311 31.4322L124.665 31.1119C125.233 30.9826 125.732 30.8991 126.234 30.8201C127.23 30.6634 128.179 30.5625 129.136 30.4695C131.042 30.2965 132.93 30.1896 134.854 30.1754C136.884 30.1264 138.914 30.2595 140.92 30.573C141.61 30.6904 142.244 31.0241 142.73 31.5255C143.216 32.0269 143.528 32.6698 143.622 33.3604C143.715 34.051 143.584 34.7532 143.249 35.3647C142.913 35.9762 142.39 36.4649 141.756 36.7597L141.714 36.7787C135.837 39.4662 130.059 42.3673 124.349 45.3982C118.661 48.4685 113.055 51.6864 107.532 55.0521C104.796 56.7741 102.039 58.4641 99.3493 60.2582C96.6373 62.019 94.006 63.8981 91.3469 65.7358C86.084 69.4907 80.9259 73.3846 75.8729 77.4176C73.9522 79.004 71.9591 80.5217 70.0056 82.0779C69.0253 82.8524 68.0471 83.6252 67.0712 84.3965C66.0826 85.1526 65.1168 85.9293 64.1571 86.7032C60.4524 89.6348 57.7418 91.2049 55.6872 91.8018C54.1966 92.2408 53.7113 91.7286 54.1954 90.4904C54.6868 89.2619 56.1149 87.2684 58.5272 84.8669C59.2932 84.1105 60.0873 83.3472 60.9006 82.5828C61.7119 81.8161 62.5443 81.0506 63.4073 80.3127C64.2681 79.5725 65.1386 78.8368 66.0098 78.1103L67.3156 77.0283C67.7583 76.6802 68.1985 76.3339 68.6362 75.9895C76.6822 69.6387 84.9229 63.5795 93.3582 57.8119C101.787 52.0357 110.404 46.5358 119.208 41.3122C121.624 39.8454 124.141 38.4367 126.637 37.0276C127.89 36.3321 129.162 35.6834 130.421 35.0388C131.682 34.4008 132.934 33.7753 134.193 33.2189L139.005 31.0339L139.744 36.8102C138.431 36.5721 137.1 36.4442 135.766 36.4278C134.345 36.3904 132.891 36.4193 131.445 36.4976C130.002 36.5777 128.546 36.7065 127.181 36.9049C127.006 36.9273 126.847 36.9572 126.684 36.9847C126.521 37.0122 126.354 37.0391 126.216 37.0714C125.961 37.1206 125.554 37.2186 125.186 37.3054L122.946 37.827C121.449 38.1695 119.939 38.5015 118.414 38.8017C116.887 39.106 115.368 39.3654 113.91 39.6367C111.002 40.1725 108.111 40.8396 105.187 41.5394L105.13 41.5531C104.435 41.7195 103.704 41.6235 103.076 41.2837C102.449 40.9439 101.97 40.3845 101.733 39.7136C101.495 39.0428 101.516 38.3081 101.792 37.6519C102.067 36.9956 102.577 36.4643 103.223 36.1608C106.54 34.6016 109.886 33.101 113.317 31.8082C119.485 29.4287 125.789 27.4114 132.194 25.7666C138.594 24.1331 145.094 22.9132 151.652 22.1144C157.108 21.4363 162.577 21.0042 168.038 20.7324L168.069 20.7308C168.616 20.7037 169.156 20.8703 169.593 21.2012C170.029 21.532 170.335 22.0058 170.454 22.5388C170.574 23.0719 170.501 23.6299 170.247 24.1144C169.994 24.5988 169.577 24.9786 169.069 25.1865C161.109 28.4451 153.729 33.13 146.888 38.5178C140.034 43.9094 133.679 49.9866 127.511 56.2754L126.586 57.2114L126.545 57.253C126.227 57.5755 125.801 57.7705 125.348 57.8012C124.894 57.8318 124.446 57.696 124.086 57.4193C123.727 57.1427 123.482 56.7445 123.398 56.3001C123.314 55.8557 123.397 55.3961 123.63 55.0082C124.795 53.0724 126.036 51.2781 127.298 49.5532C128.557 47.8282 129.853 46.1891 131.158 44.6159C132.46 43.0412 133.764 41.5277 135.07 40.0754C136.356 38.6107 137.704 37.2502 138.951 35.8771C140.167 34.5585 140.861 34.0148 141.073 34.3101C141.27 34.5936 141.01 35.7447 140.132 37.6667C139.813 38.3404 139.493 39.0181 139.171 39.6997C138.831 40.3685 138.413 40.9843 138.031 41.6295C137.242 42.8972 136.447 44.1742 135.647 45.4604C134.046 47.988 132.429 50.5419 130.816 53.0893C129.883 54.5799 128.936 56.0721 128.072 57.5608L122.875 53.6881C125.139 51.3324 127.488 48.9969 129.839 46.6864C129.828 46.6546 129.818 46.6247 129.805 46.5867Z" fill="black"/>
</svg>
