<svg width="196" height="195" viewBox="0 0 196 195" fill="none" xmlns="http://www.w3.org/2000/svg">
<path d="M135.292 47.5774C139.635 49.6959 143.703 52.2796 147.461 55.2243L148.933 56.4246C149.424 56.8253 149.922 57.2157 150.39 57.6434C151.335 58.4862 152.315 59.2853 153.234 60.1503C154.699 61.438 156.086 62.8126 157.441 64.2183C158.099 64.9398 158.775 65.6463 159.419 66.3822L161.305 68.6321L156.6 70.6614C155.759 65.9742 155.304 61.2239 155.23 56.4948C155.129 51.7623 155.389 47.057 155.816 42.4016C156.194 38.3676 156.699 34.3695 157.236 30.4002L157.247 30.3067L157.251 30.2552C157.253 30.222 157.252 30.1937 157.252 30.1755C157.253 30.1436 157.235 30.1535 157.29 30.3287C157.319 30.4061 157.376 30.5619 157.498 30.7347C157.628 30.9359 157.834 31.1529 158.135 31.3512C158.283 31.4377 158.434 31.5253 158.599 31.5749C158.744 31.6325 158.888 31.6624 159.048 31.6837C159.374 31.7261 159.62 31.6897 159.75 31.6611C159.877 31.6331 159.909 31.6147 159.867 31.6322L159.577 31.7521L158.881 32.0409L157.488 32.6179L151.909 34.9003C144.465 37.9198 137.003 40.8588 129.574 43.8393C127.333 44.7389 124.992 45.4511 122.701 46.1479C120.507 46.8134 118.86 46.6989 117.64 46.1606C115.864 45.3773 116.529 43.4772 119.403 41.9129C121.221 40.9233 123.304 40.0753 125.308 39.3575C134.53 36.0441 143.567 32.3987 152.386 28.2643C153.602 27.6919 154.835 27.0903 156.071 26.5245C156.382 26.3861 156.692 26.2478 157.001 26.1101L157.491 25.9011C157.716 25.8126 158.062 25.6653 158.617 25.5667C158.894 25.5197 159.228 25.4907 159.597 25.5153C159.976 25.5382 160.343 25.6258 160.694 25.7449C161.442 26.0055 162.112 26.5525 162.497 27.0805C162.892 27.6094 163.09 28.1151 163.199 28.5142C163.31 28.9209 163.36 29.2852 163.375 29.6001C163.402 30.1144 163.368 30.5518 163.302 30.9884L163.275 31.1518L163.255 31.2543L163.216 31.4451L163.14 31.827L162.846 33.3574C162.661 34.3778 162.488 35.4005 162.331 36.424C162.02 38.4704 161.755 40.522 161.545 42.5718C161.108 46.6738 160.876 50.7651 160.694 54.8339C160.593 57.3464 160.608 59.8649 160.76 62.3709C160.92 64.8762 161.198 67.3691 161.572 69.8436L161.573 69.8508C161.77 71.1567 160.865 72.3743 159.553 72.5702C158.669 72.7021 157.823 72.3342 157.306 71.6832L155.422 69.2984L154.112 67.7778C153.892 67.5253 153.678 67.2673 153.454 67.0188L152.763 66.2888L151.379 64.8289L149.93 63.4309L149.203 62.733L148.446 62.0677L146.931 60.7361L145.356 59.4746L144.568 58.843L143.751 58.2497L142.117 57.0605L140.429 55.9505L139.584 55.3948L138.715 54.8797L136.972 53.8519L135.183 52.9099L134.287 52.4397C133.985 52.2898 133.675 52.1557 133.37 52.0128L131.532 51.1664C130.909 50.9074 130.28 50.6663 129.654 50.4149C125.637 48.8483 121.832 47.5088 118.288 45.9188C116.659 45.1694 116.844 43.8914 118.946 43.8682C120.434 43.8132 121.939 43.9653 123.471 44.1148C124.234 44.2008 124.988 44.3532 125.751 44.4832L126.893 44.6954C127.271 44.7773 127.643 44.8795 128.018 44.9734C128.633 45.1313 129.248 45.3057 129.864 45.4905C130.478 45.6765 131.072 45.9246 131.676 46.149C132.276 46.3857 132.885 46.6039 133.474 46.8633C134.062 47.1253 134.649 47.3871 135.235 47.6482C135.254 47.6251 135.271 47.6035 135.292 47.5774Z" fill="black"/>
<path d="M114.684 88.7155C112.526 90.021 110.526 91.4321 108.818 93.0409C107.13 94.6615 105.777 96.5007 104.807 98.5659L104.895 98.3376C104.379 99.7624 104.101 101.473 103.78 103.356C103.451 105.232 103.069 107.336 102.11 109.436L102.084 109.493C102.057 109.552 102.027 109.61 101.995 109.665C100.586 112.056 98.7227 114.134 96.6779 115.852C95.387 116.918 94.032 117.859 92.6535 118.718C91.2724 119.573 89.8651 120.327 88.46 121.05C85.6461 122.479 82.8306 123.73 80.1332 125.051C76.9351 126.618 73.8607 128.267 71.2868 130.325C70.0035 131.352 68.858 132.481 67.9139 133.725C66.9679 134.968 66.2266 136.327 65.6968 137.78L65.7894 137.469C65.5576 138.533 65.4788 139.583 65.5693 140.623C65.6604 141.664 65.929 142.699 66.3369 143.744C67.1516 145.838 68.5341 147.934 69.9789 150.174C71.4212 152.415 72.9466 154.852 74.0021 157.655C74.5295 159.051 74.931 160.53 75.1573 162.042C75.386 163.554 75.4391 165.092 75.3418 166.604C75.2431 168.139 73.9129 169.303 72.3706 169.205C72.0559 169.185 71.7567 169.114 71.4807 169L71.4252 168.976C67.361 167.286 63.1545 166.012 58.9181 165.333C56.8029 165.006 54.6769 164.815 52.5952 164.863C52.0798 164.892 51.5582 164.899 51.0482 164.943C50.5424 164.997 50.0265 165.028 49.5367 165.114C49.0357 165.178 48.5568 165.278 48.0855 165.377C47.8636 165.437 47.6191 165.487 47.4151 165.551L47.108 165.644L46.9827 165.688L46.9264 165.707C46.9292 165.706 46.9318 165.705 46.9342 165.703L43.6694 165.065C41.5097 162.902 39.6776 160.496 38.1453 157.934C36.6266 155.363 35.3904 152.642 34.4541 149.811C33.3323 146.348 32.6346 142.716 32.583 138.999L32.5679 138.303L32.5905 137.604C32.6111 137.138 32.6153 136.672 32.6522 136.206C32.742 135.272 32.8208 134.339 32.999 133.409C33.1286 132.476 33.3851 131.557 33.6049 130.635C33.8937 129.727 34.1526 128.81 34.5358 127.928C34.8653 127.029 35.3214 126.179 35.7454 125.317C35.9823 124.898 36.235 124.487 36.4813 124.074C36.6081 123.869 36.7239 123.657 36.8608 123.459L37.2797 122.87C38.3647 121.273 39.6974 119.866 41.1036 118.574C43.9701 116.035 47.2954 114.151 50.7306 112.824L50.4812 112.933C53.006 111.707 55.5514 110.87 58.019 110.116C60.4886 109.366 62.8961 108.71 65.1787 107.951C67.4581 107.194 69.6157 106.334 71.4939 105.224C73.3752 104.117 74.9486 102.757 76.126 101.099L75.9579 101.362C76.6516 100.148 77.0317 98.5109 77.3009 96.5688C77.4423 95.6018 77.5647 94.569 77.7425 93.4702C77.7882 93.1947 77.8303 92.9274 77.8923 92.6113L77.9811 92.1579L78.0958 91.7407L78.5615 90.0738C78.7007 89.5109 78.9278 88.9863 79.1185 88.4456L79.4177 87.6402L79.5681 87.2379L79.7509 86.8433L80.4943 85.2693C80.752 84.7486 81.0736 84.2521 81.3636 83.7442C82.5884 81.7484 84.0879 79.8706 85.843 78.3106C87.5908 76.746 89.5119 75.4493 91.474 74.3576C93.4387 73.2549 95.4466 72.3959 97.4316 71.5916C101.409 69.9976 105.325 68.752 109.044 67.2638C111.774 66.1841 114.437 65.0451 116.963 63.7135C119.49 62.3857 121.878 60.8617 124.063 59.1127C128.216 55.7428 130.816 53.2601 132.87 51.9122C134.375 50.9365 135.015 51.287 134.69 52.839C134.518 53.6078 134.158 54.7084 133.408 55.9834C133.04 56.6247 132.64 57.3547 132.085 58.0758C131.54 58.8028 130.968 59.6225 130.224 60.3995C128.436 62.4516 126.265 64.3476 123.925 66.0144C121.583 67.6844 119.057 69.1035 116.544 70.2755C114.361 71.2824 112.152 72.1647 109.95 72.9835C107.746 73.8029 105.554 74.5408 103.404 75.306C99.1132 76.8259 94.945 78.4085 91.5485 80.8289C88.1542 83.2245 85.632 86.5061 84.3112 90.4814L84.0436 91.2137C83.9643 91.4601 83.906 91.7112 83.8355 91.9594C83.704 92.4553 83.5547 92.9578 83.4332 93.4467C83.3514 93.8962 83.2632 94.4411 83.1904 94.98L82.9724 96.6582C82.825 97.808 82.6603 99.0254 82.3613 100.296C82.0736 101.561 81.6106 102.893 80.9165 104.16C80.8841 104.219 80.8489 104.276 80.8112 104.33L80.7772 104.378C79.7771 105.804 78.5735 107.092 77.2529 108.197C75.9321 109.307 74.4928 110.215 73.0327 110.999C70.0998 112.556 67.0769 113.577 64.1626 114.518C60.2906 115.759 56.4349 116.887 53.2176 118.491C53.1608 118.519 53.1033 118.545 53.0453 118.569L52.9686 118.599C50.6344 119.533 48.4765 120.675 46.5735 122.011C45.1183 123.048 43.7952 124.247 42.6682 125.611C41.5516 126.983 40.6509 128.525 39.9623 130.172C38.5811 133.468 38.1134 137.203 38.4396 140.919C38.7501 144.638 39.7649 148.354 41.353 151.8C42.9336 155.243 45.0509 158.47 47.6621 161.092L44.7488 160.523L44.9472 160.446L45.0896 160.396L45.3649 160.303L45.8742 160.153C46.2134 160.053 46.5308 159.988 46.8607 159.906C47.5065 159.772 48.1492 159.651 48.7842 159.573C49.4235 159.471 50.0522 159.439 50.6856 159.379C51.3162 159.337 51.9422 159.329 52.5705 159.305C55.0734 159.281 57.5287 159.546 59.9312 159.97C64.6433 160.82 69.1674 162.278 73.4931 164.133L70.0675 166.208C70.244 163.91 69.9324 161.648 69.1185 159.451C68.3172 157.247 67.0439 155.118 65.6404 152.902C64.2512 150.681 62.6867 148.345 61.6094 145.523C61.0776 144.118 60.6907 142.59 60.5742 141.018C60.4548 139.446 60.6023 137.86 60.9531 136.366L60.9738 136.279C60.9892 136.213 61.0125 136.144 61.0375 136.083L61.6387 134.661C62.5507 132.695 63.7998 130.887 65.2516 129.33C66.703 127.768 68.3399 126.449 70.0318 125.303C73.429 123.017 77.0196 121.369 80.4999 119.749C83.9813 118.136 87.4064 116.578 90.4756 114.637C93.5404 112.708 96.2076 110.339 97.9127 107.374L97.8258 107.546C98.479 106.127 98.8184 104.441 99.1194 102.623C99.4271 100.807 99.6996 98.8315 100.393 96.8235L100.399 96.8057C100.415 96.7597 100.434 96.7119 100.454 96.6682C101.424 94.4932 102.779 92.4835 104.371 90.7503C105.963 89.0106 107.769 87.5371 109.634 86.2396C113.381 83.6513 117.333 81.6848 121.132 79.6085C125.981 76.9956 130.513 74.334 134.469 71.214C138.45 68.1272 141.798 64.5767 144.669 60.8898C145.961 59.1812 146.828 58.4811 147.143 58.819C147.295 58.9861 147.299 59.4096 147.124 60.0861C147.037 60.4243 146.905 60.8256 146.725 61.2887C146.543 61.7506 146.276 62.255 145.973 62.8269C144.223 66.0424 142.018 69.1677 139.374 71.9502L138.378 72.9922L137.337 73.9907C136.65 74.6697 135.905 75.2764 135.183 75.9176C133.698 77.1379 132.171 78.3178 130.592 79.3853C125.425 82.9623 119.645 85.5524 114.682 88.6144C114.684 88.6479 114.685 88.6792 114.684 88.7155Z" fill="black"/>
</svg>
