<svg width="194" height="196" viewBox="0 0 194 196" fill="none" xmlns="http://www.w3.org/2000/svg">
<path d="M45.6149 151.705C45.5891 147.153 45.5739 142.605 45.5797 138.053C45.5671 135.64 45.5889 133.216 45.4972 130.808C45.3628 127.595 45.247 124.382 45.1364 121.168C45.0121 117.954 44.9283 114.741 44.8325 111.526C44.7338 108.312 44.6822 105.097 44.6149 101.882C44.5624 98.6664 44.5344 95.4509 44.5149 92.2347C44.4997 84.3147 44.5625 76.3936 44.7125 68.4754C44.8643 60.5573 45.0684 52.6407 45.3304 44.7284C45.4025 42.341 45.6982 39.9379 46.0009 37.5889C46.2903 35.339 47.0707 33.9044 48.058 33.0343C49.4963 31.7678 50.9407 33.1514 51.1845 36.3579C51.3424 38.3873 51.2596 40.596 51.1146 42.6833C50.4209 52.2959 50.2641 61.8984 50.5938 71.505C50.6807 74.1562 50.8685 76.9149 50.6487 79.4888C49.9294 87.7125 50.2965 96.0009 50.0904 104.245C50.0113 107.309 50.0012 110.381 50.0261 113.454C50.0458 116.527 50.0654 119.602 50.0851 122.672C50.1046 133.624 50.2133 144.573 50.5276 155.52C50.6394 159.889 50.439 164.02 49.4922 167.749C49.0532 169.464 47.7641 169.433 47.3679 167.491C46.8103 164.743 46.3678 161.849 46.0723 158.962C45.827 156.587 45.8124 154.138 45.7028 151.723C45.6741 151.717 45.6474 151.711 45.6149 151.705Z" fill="black"/>
<path d="M74.3033 140.539C72.2653 143.074 70.2281 145.609 68.1886 148.146C67.116 149.498 66.03 150.85 65.0431 152.262C60.5262 158.737 56.0884 165.266 51.545 171.721C50.6029 173.06 48.7653 173.373 47.4405 172.422C47.2133 172.258 47.0159 172.069 46.8496 171.859L46.8052 171.802C45.9935 170.769 45.1727 169.742 44.3761 168.696C37.4077 159.656 30.9708 150.228 24.7673 140.686C23.8325 139.245 23.0705 137.671 22.3384 136.125C21.6375 134.644 21.6888 133.357 22.1419 132.287C22.8042 130.727 24.5717 130.715 26.1003 132.447C27.0725 133.54 27.9268 134.869 28.6732 136.169C32.1051 142.155 35.9925 147.822 40.3313 153.14C41.5277 154.608 42.8497 156.076 43.7684 157.679C45.9288 161.452 48.5973 164.881 51.2275 168.321L47.0095 168.392C47.935 167.13 48.8718 165.877 49.8436 164.652C52.5807 161.205 55.1234 157.587 57.8025 154.086C62.5958 147.853 67.3869 141.623 72.1786 135.393C74.0893 132.907 76.1831 130.778 78.6607 129.338C79.8032 128.678 80.7961 129.506 80.2037 130.811C79.3672 132.66 78.355 134.5 77.2663 136.27C76.3723 137.726 75.2582 139.078 74.2418 140.475C74.262 140.496 74.2811 140.515 74.3033 140.539Z" fill="black"/>
<path d="M135.182 146.316C135.223 141.762 135.263 137.209 135.304 132.651C135.317 130.236 135.358 127.809 135.281 125.397C135.067 118.961 134.864 112.526 134.693 106.089C134.521 99.6516 134.4 93.2128 134.352 86.7716C134.311 78.8399 134.323 70.9062 134.429 62.9723C134.526 55.0384 134.682 47.1043 134.9 39.171C134.961 36.7776 135.241 34.3669 135.536 32.0105C135.816 29.7535 136.591 28.3123 137.575 27.437C139.008 26.163 140.458 27.545 140.714 30.755C140.88 32.7868 140.806 34.9986 140.674 37.0905C140.031 46.7223 139.935 56.3453 140.327 65.9709C140.429 68.6273 140.641 71.3916 140.428 73.9728C139.757 82.2196 140.148 90.5273 139.951 98.7937C139.873 101.866 139.866 104.946 139.883 108.028C139.893 111.11 139.904 114.193 139.914 117.272C139.886 128.254 139.89 139.233 140.033 150.213C140.083 154.594 139.798 158.733 138.783 162.45C138.312 164.159 137.023 164.1 136.664 162.148C136.156 159.386 135.774 156.481 135.525 153.586C135.317 151.206 135.34 148.754 135.269 146.335C135.241 146.329 135.214 146.323 135.182 146.316Z" fill="black"/>
<path d="M160.301 63.0607C158.218 59.7625 156.136 56.4656 154.052 53.165C152.948 51.419 151.849 49.6605 150.662 47.9783C145.832 41.1408 140.915 34.4067 135.86 27.8087L140.693 27.5705C139.377 29.8318 138.06 32.0938 136.743 34.3561C129.901 46.0328 123.033 57.7162 116.064 69.3626C115.015 71.1202 113.766 72.7797 112.542 74.3998C111.365 75.9489 110.095 76.6401 108.877 76.8041C107.104 77.0422 106.416 75.2832 107.524 72.7488C108.224 71.1443 109.195 69.5171 110.187 68.022C114.746 61.1312 118.863 53.9991 122.629 46.6432C123.669 44.613 124.679 42.4561 125.973 40.6505C129.63 35.5428 132.64 29.9997 135.965 24.6715L136.019 24.5857C136.776 23.3714 138.365 23.0075 139.567 23.7732C139.855 23.9565 140.099 24.1956 140.287 24.4585C140.76 25.1259 141.227 25.7958 141.687 26.4702C144.664 30.8476 147.779 35.1483 150.69 39.5611C155.884 47.4274 160.9 55.3609 166.145 63.1269C168.241 66.2236 169.939 69.3373 170.883 72.5568C171.31 74.0425 170.228 74.748 168.999 73.5637C167.254 71.8928 165.574 70.0216 163.996 68.0911C162.697 66.5043 161.573 64.7244 160.383 63.0251C160.356 63.0368 160.331 63.0477 160.301 63.0607Z" fill="black"/>
</svg>
