<svg width="228" height="230" viewBox="0 0 228 230" fill="none" xmlns="http://www.w3.org/2000/svg">
<path d="M156.946 64.1109C155.382 66.1519 154.034 68.3521 152.922 70.6756C152.391 71.8222 151.935 73.0025 151.556 74.209L151.278 75.1125L151.071 76.0062C150.93 76.6044 150.82 77.2099 150.743 77.82C150.407 80.2894 150.504 82.7991 151.03 85.2346C151.511 87.6537 152.474 89.949 153.861 91.9816L154.425 92.7558C154.607 93.02 154.836 93.2373 155.038 93.4829C155.451 93.9618 155.897 94.4103 156.374 94.825C156.485 94.9374 156.606 95.0382 156.737 95.1262L157.115 95.4068C157.359 95.6043 157.616 95.7868 157.882 95.9534C158.414 96.2827 158.962 96.5829 159.526 96.8528C160.088 97.1049 160.671 97.3066 161.268 97.4554C161.85 97.6142 162.446 97.717 163.048 97.7626C164.188 97.8666 165.335 97.6874 166.391 97.2406C167.81 96.5696 168.987 95.4702 169.759 94.0946C170.197 93.3627 170.549 92.582 170.809 91.768C170.882 91.5648 170.935 91.3537 171 91.1466C171.051 90.9359 171.091 90.7222 171.138 90.5103C171.247 90.0891 171.327 89.6606 171.375 89.2281C171.411 88.7928 171.489 88.3614 171.498 87.9228L171.505 86.6041L171.383 85.2839C171.348 84.8428 171.226 84.4106 171.156 83.9727C170.78 82.2225 170.14 80.541 169.257 78.9875C167.508 75.8759 164.814 73.4137 161.572 71.9641L160.351 71.5303C160.146 71.4557 159.937 71.3941 159.724 71.3459C159.511 71.2943 159.302 71.226 159.086 71.1866C158.229 70.9997 157.358 70.8866 156.482 70.8486C154.714 70.7906 152.947 71.0055 151.243 71.4859C147.75 72.5168 144.532 74.3274 141.827 76.7835C139.047 79.2234 136.716 82.1387 134.94 85.3956C133.203 88.7663 131.837 92.3183 130.865 95.9884C129.857 99.7052 129.108 103.529 128.397 107.413C127.482 112.194 126.651 117.024 125.377 121.918C124.735 124.487 123.74 126.952 122.419 129.242C121.707 130.433 120.854 131.532 119.879 132.515C118.902 133.485 117.823 134.344 116.662 135.077C115.521 135.778 114.322 136.379 113.079 136.874C111.863 137.342 110.619 137.735 109.355 138.048C106.893 138.645 104.387 139.039 101.861 139.228C96.9232 139.634 92.0646 139.652 87.2962 139.927C82.535 140.187 77.8428 140.742 73.4424 142.113C71.2384 142.803 69.0914 143.667 67.0212 144.696C62.8792 146.778 59.0969 149.519 55.8196 152.816C54.1932 154.463 52.694 156.234 51.3351 158.112C49.9919 159.994 48.8057 161.984 47.7885 164.063L47.0546 165.634L46.4065 167.243C46.1768 167.774 46.0095 168.33 45.8192 168.876C45.6331 169.424 45.4366 169.969 45.293 170.531C44.4991 173.224 43.9284 175.979 43.5869 178.767C43.2601 181.553 43.1865 184.364 43.3668 187.163C43.388 187.831 43.4636 188.464 43.5136 189.073C43.5635 189.682 43.6002 190.266 43.6756 190.817C43.7384 191.37 43.791 191.9 43.8334 192.405C43.8995 192.906 43.9611 193.383 44.0092 193.839C44.0874 194.757 44.2126 195.564 44.2708 196.303C44.3189 197.046 44.3875 197.692 44.4081 198.273C44.4683 199.965 43.9757 200.2 43.0662 199.009C42.7912 198.639 42.5389 198.252 42.3105 197.852C42.0571 197.371 41.794 196.8 41.511 196.144C40.8532 194.523 40.3491 192.843 40.0055 191.127C39.4816 188.476 39.2076 185.781 39.1872 183.079C39.1796 180.331 39.4285 177.588 39.9305 174.887C41.0437 168.757 43.3786 162.92 46.7936 157.727C50.2104 152.584 54.577 148.152 59.6549 144.674C64.7142 141.176 70.4146 138.732 76.422 137.485C82.3999 136.254 88.413 136.047 94.2734 135.743C97.5014 135.568 100.803 135.384 103.931 134.957C105.473 134.749 107.002 134.455 108.511 134.074C109.942 133.704 111.34 133.211 112.688 132.6C114.736 131.697 116.542 130.318 117.961 128.576C119.343 126.718 120.371 124.617 120.993 122.38C121.68 119.988 122.247 117.564 122.692 115.115C123.175 112.633 123.607 110.124 124.05 107.6C124.884 102.467 126.051 97.394 127.543 92.4147C128.335 89.8832 129.319 87.4172 130.487 85.0385C133.444 78.9605 138.113 73.8972 143.908 70.4821C147.434 68.3806 151.438 67.2345 155.533 67.155C157.606 67.1477 159.668 67.4738 161.64 68.1213C163.628 68.764 165.485 69.7613 167.124 71.0657C168.759 72.3349 170.19 73.8505 171.368 75.5591C172.533 77.2648 173.458 79.125 174.117 81.0868C174.697 82.8502 175.044 84.683 175.148 86.5378C175.219 88.4165 175.022 90.2957 174.565 92.1181C174.073 93.9736 173.263 95.7276 172.17 97.3002C171.592 98.1175 170.913 98.857 170.149 99.5009C169.357 100.162 168.471 100.699 167.52 101.094C165.644 101.839 163.61 102.087 161.613 101.813C160.652 101.695 159.705 101.477 158.788 101.163C158.332 101.011 157.884 100.836 157.446 100.639C157.001 100.453 156.6 100.203 156.176 99.9848L155.55 99.6442C155.34 99.5328 155.155 99.382 154.956 99.2521C154.567 98.98 154.172 98.7148 153.791 98.4317C152.324 97.244 151.028 95.8569 149.94 94.3101C149.423 93.5345 148.951 92.7292 148.528 91.8981C148.104 91.0747 147.729 90.2268 147.405 89.3589C147.238 88.9285 147.117 88.4838 146.972 88.0465L146.765 87.3877C146.705 87.166 146.657 86.9415 146.603 86.7184C146.159 84.9398 145.901 83.119 145.835 81.2861C145.775 79.454 145.893 77.6204 146.187 75.8114C146.522 74.0249 147.01 72.2708 147.643 70.5685C148.926 67.241 150.664 64.1108 152.806 61.2686C153.846 59.861 154.955 58.5076 156.131 57.2137C157.291 55.9161 158.507 54.6821 159.754 53.4907C163.746 49.6794 167.974 46.537 171.99 43.5739C176.009 40.6083 179.886 37.8699 183.369 34.9484C184.963 33.6003 185.794 33.0118 185.966 33.3599C186.033 33.5182 185.953 33.926 185.661 34.5426C185.489 34.9189 185.295 35.2844 185.08 35.637C184.8 36.1177 184.492 36.5817 184.159 37.0266C183.624 37.7311 183.078 38.4378 182.513 39.1296C182.24 39.4884 181.92 39.7969 181.618 40.1245C181.311 40.447 181.006 40.7777 180.693 41.0951C179.444 42.3756 178.159 43.6241 176.838 44.8407C174.192 47.256 171.469 49.5679 168.837 51.8814C166.675 53.7893 164.519 55.6777 162.491 57.6828C160.468 59.6442 158.599 61.7619 156.902 64.0166C156.917 64.0474 156.932 64.0764 156.946 64.1109Z" fill="black"/>
<path d="M180.187 46.5357C180.47 44.7682 180.848 43.0175 181.319 41.2913C181.43 40.8392 181.558 40.3925 181.684 39.9486C181.805 39.5028 181.91 39.0541 182.001 38.6077C182.289 37.0621 182.627 35.5426 182.98 34.0304C183.159 33.2758 183.342 32.5233 183.536 31.777L183.829 30.6582C183.924 30.285 184.033 29.9161 184.154 29.5509L187.765 32.9798L186.601 33.4016L186.012 33.6125L185.716 33.7177L185.568 33.7702L185.495 33.7976L185.476 33.8052L185.472 33.8071C185.468 33.7984 185.478 33.828 185.462 33.7878H185.46H185.449L185.407 33.7871C184.973 33.7656 184.54 33.8417 184.139 34.0098C183.738 34.1415 183.338 34.2841 182.938 34.4376C181.56 34.9487 180.153 35.4655 178.716 35.9168C177.261 36.3726 175.783 36.7503 174.288 37.0484C171.232 37.6619 168.102 37.8151 165.001 37.5029C164.765 37.484 164.531 37.4514 164.299 37.4053C164.067 37.3505 163.837 37.2872 163.609 37.2182C163.153 37.0769 162.703 36.927 162.267 36.7525C161.888 36.5817 161.56 36.3133 161.316 35.9742C161.072 35.6351 160.921 35.2372 160.877 34.8205C160.818 34.5488 160.816 34.2676 160.871 33.995C160.927 33.7224 161.038 33.4646 161.198 33.2381C161.358 33.0116 161.563 32.8214 161.801 32.6799C162.038 32.5384 162.303 32.4486 162.576 32.4164C163.291 32.3935 164.006 32.4723 164.699 32.6505C166.295 33.0015 167.933 33.1174 169.562 32.9943C171.203 32.8651 172.822 32.5352 174.384 32.0119C175.233 31.6518 176.12 31.3905 177.027 31.2332C178.479 31.073 179.903 30.7209 181.264 30.1858C181.61 30.0566 181.958 29.9402 182.298 29.7819L182.81 29.559C182.978 29.4772 183.141 29.3824 183.304 29.2898C183.444 29.1489 183.599 29.023 183.764 28.9142L184.284 28.6988C184.63 28.5586 184.988 28.422 185.345 28.2964L185.94 28.082L186.039 28.0464C186.462 27.8938 186.919 27.8646 187.358 27.9621C187.797 28.0597 188.2 28.28 188.521 28.5979C188.841 28.9158 189.067 29.3184 189.171 29.7594C189.275 30.2005 189.254 30.6623 189.11 31.0919C188.469 33.0044 187.956 34.9544 187.405 36.8713C186.852 38.7544 186.36 40.6404 185.942 42.5269C185.513 44.3912 185.233 46.2874 185.106 48.197C185.039 49.7719 184.556 51.3001 183.707 52.6236C183.612 52.7898 183.48 52.9324 183.323 53.0408C183.166 53.1492 182.987 53.2208 182.798 53.2502C182.593 53.2754 182.385 53.2586 182.186 53.2009C182.071 53.1685 181.958 53.1258 181.85 53.0735C181.747 53.0169 181.594 52.9561 181.549 52.8632C181.191 52.3655 180.912 51.8146 180.723 51.2302C180.524 50.6596 180.371 50.0742 180.264 49.4793C180.195 48.993 180.169 48.5015 180.185 48.0105C180.211 47.5222 180.259 47.0347 180.277 46.5492L180.187 46.5357Z" fill="black"/>
</svg>
