<svg width="230" height="230" viewBox="0 0 230 230" fill="none" xmlns="http://www.w3.org/2000/svg">
<path d="M122.964 178.674C121.987 178.513 121.01 178.336 120.033 178.192C119.52 178.094 118.998 178.053 118.476 178.071C117.091 178.184 115.719 178.331 114.28 178.43L113.733 178.464L113.149 178.484L113.002 178.488L112.965 178.489L113.038 178.495L113.171 178.5C113.32 178.5 113.359 178.495 113.3 178.512C113.139 178.551 112.975 178.578 112.809 178.594C112.396 178.639 111.978 178.618 111.572 178.531C111.434 178.501 111.297 178.464 111.163 178.42C111.031 178.376 110.902 178.325 110.775 178.267C110.576 178.176 110.385 178.07 110.202 177.95C109.835 177.706 109.51 177.404 109.24 177.056C108.832 176.527 108.547 175.915 108.404 175.263C108.253 174.55 108.224 173.816 108.321 173.094C108.668 169.734 109.19 166.398 109.693 163.06C109.819 162.534 110.059 162.041 110.395 161.617C110.698 161.173 111.55 160.977 112.636 160.934C114.217 160.871 115.826 161.382 116.122 162.113C116.285 162.554 116.274 163.041 116.091 163.474C115.391 165.438 115.17 167.54 115.445 169.607C115.519 170.189 115.69 170.808 115.399 171.324C114.984 172.124 114.722 172.993 114.625 173.889L114.601 174.066C114.6 174.096 114.6 174.122 114.6 174.122L114.384 174.128C114.297 174.129 114.208 174.134 114.12 174.141C113.949 174.151 113.791 174.166 113.638 174.189C113.388 174.219 113.142 174.276 112.905 174.36C112.524 174.488 112.448 174.67 112.52 174.549L112.524 174.54L112.526 174.536L112.526 174.534C112.474 174.65 112.644 174.273 112.409 174.794L112.41 174.793L112.413 174.783C112.42 174.763 112.425 174.744 112.429 174.724C112.451 174.597 112.459 174.469 112.453 174.341L112.446 174.139L112.427 173.868C112.417 173.749 112.405 173.63 112.389 173.512L112.306 172.811L112.258 172.478L112.263 172.48L112.276 172.484C112.3 172.484 112.312 172.486 112.352 172.484C112.453 172.482 112.632 172.463 112.901 172.46L113.119 172.463L113.241 172.469C113.283 172.472 113.33 172.476 113.326 172.477L113.432 172.495C113.575 172.519 113.718 172.539 113.862 172.557C114.174 172.585 114.477 172.608 114.798 172.62C115.433 172.648 116.08 172.657 116.728 172.715C119.042 172.912 121.382 173.141 123.72 173.318C124.654 173.392 125.541 173.865 126.356 175.151C126.73 175.722 126.739 176.963 126.33 177.447L126.111 177.695C126.042 177.756 125.968 177.812 125.889 177.86C125.739 177.96 125.589 178.05 125.436 178.13C125.142 178.286 124.834 178.415 124.516 178.514C124.005 178.611 123.483 178.631 122.966 178.575L122.964 178.674Z" fill="black"/>
<path d="M148.24 136.694C150.425 134.194 152.554 131.651 154.56 129.029C156.55 126.399 158.448 123.71 160.166 120.933C161.866 118.184 163.359 115.312 164.631 112.34C164.917 111.596 165.237 110.87 165.497 110.109L166.232 107.802C166.724 106.268 167.134 104.709 167.46 103.132C167.657 102.304 167.806 101.466 167.908 100.622L168.097 99.361C168.173 98.9431 168.225 98.5211 168.252 98.0973L168.414 95.5602L168.455 94.9254L168.44 94.2921L168.41 93.0248L168.381 91.7566C168.375 91.3334 168.298 90.9176 168.26 90.4975L168.12 89.24C168.086 88.8198 168.03 88.4017 167.951 87.9874L167.453 85.5112C167.255 84.6937 166.991 83.8935 166.764 83.0847C165.381 78.7876 163.291 74.7513 160.581 71.1416C159.227 69.313 157.741 67.5864 156.134 65.9758C155.934 65.7774 155.736 65.5548 155.535 65.3759L154.936 64.8326L154.338 64.2869L153.697 63.7876C153.278 63.443 152.841 63.1214 152.387 62.8243C151.928 62.5326 151.499 62.1967 151.013 61.9449C143.52 57.4812 133.618 56.8025 125.76 60.594C123.788 61.5433 121.937 62.7243 120.244 64.1119C118.562 65.5108 117.043 67.096 115.718 68.8372C113.068 72.2632 111.309 76.2936 110.601 80.5667C110.416 81.5209 110.351 82.4944 110.407 83.4647C110.399 84.1758 110.567 84.8778 110.895 85.5086C110.963 85.6257 111.04 85.7364 111.127 85.8394C111.206 85.9327 111.294 86.0182 111.39 86.0947C111.602 86.2729 111.845 86.4115 112.107 86.5041C112.802 86.7295 113.542 86.7796 114.261 86.65C115.055 86.5257 115.812 86.2292 116.479 85.7814C117.156 85.3024 117.724 84.6847 118.143 83.9693C119.084 82.4659 119.518 80.4536 119.532 78.3888C119.528 77.0898 119.381 75.7951 119.094 74.5281C118.794 73.2465 118.36 71.9998 117.8 70.8085C116.647 68.3783 115.062 66.1774 113.123 64.3126C111.14 62.4113 108.884 60.8179 106.429 59.5854C105.196 58.9605 103.914 58.4386 102.595 58.0252C101.282 57.5944 99.9383 57.2635 98.5754 57.0351C95.8606 56.5626 93.0893 56.5086 90.3581 56.8751C88.9961 57.0983 87.6466 57.3925 86.3153 57.7566L84.3431 58.4307L83.8495 58.5979C83.6874 58.6605 83.5302 58.7363 83.3702 58.8049L82.4139 59.2248C79.8529 60.3543 77.4526 61.8176 75.2755 63.5768C74.7165 64.0003 74.1803 64.4531 73.6691 64.9332C73.1335 65.387 72.6211 65.8675 72.1339 66.3728C71.6483 66.8804 71.1464 67.3725 70.6724 67.8908L69.3122 69.5024C67.5602 71.7043 66.0343 74.0769 64.7576 76.5843C63.525 79.1043 62.5588 81.7459 61.8745 84.4664C60.5345 89.8904 60.6885 95.6148 61.8235 101.162C62.9445 106.726 65.1314 112.08 67.8175 117.141C70.5687 122.201 73.8391 126.961 77.576 131.344C82.0099 136.722 86.984 141.63 92.4202 145.993C97.5901 150.099 101.058 152.667 103.118 154.523C104.62 155.871 104.414 156.31 102.703 155.874C102.276 155.764 101.755 155.6 101.144 155.382C100.543 155.147 99.857 154.85 99.0861 154.499C97.212 153.61 95.3965 152.604 93.6504 151.485C90.9694 149.746 88.3969 147.845 85.9472 145.792C83.4659 143.697 81.1027 141.466 78.8688 139.11C73.785 133.786 69.3797 127.853 65.7535 121.447C62.1514 115.045 59.3486 108.12 58.0196 100.804C57.3444 97.1294 57.1332 93.3848 57.3911 89.6579C57.6794 85.9124 58.5094 82.2285 59.8553 78.7213C62.5352 71.6826 67.0197 65.4729 72.8585 60.7154L74.0917 59.7571C74.3 59.6001 74.4995 59.4305 74.7159 59.2833L75.3708 58.8481C76.2338 58.2434 77.1281 57.6848 78.0501 57.1747L79.4355 56.3973C79.8968 56.136 80.3939 55.9419 80.8724 55.7119L82.3232 55.05C82.8189 54.8581 83.3232 54.6866 83.8233 54.5052C84.3258 54.3306 84.8226 54.1393 85.3297 53.9818L86.8724 53.5819C87.3895 53.458 87.8927 53.3013 88.4198 53.2085C88.9469 53.1211 89.4695 53.0023 89.9981 52.9456C92.0753 52.6629 94.1774 52.6107 96.2662 52.7901C97.9008 52.9224 99.5222 53.1847 101.115 53.5745C102.706 53.9545 104.268 54.4497 105.787 55.0561C108.845 56.2562 111.708 57.9027 114.283 59.9419C115.579 60.9731 116.785 62.1127 117.888 63.3484C118.995 64.602 119.983 65.9564 120.838 67.3938C122.581 70.3186 123.671 73.5863 124.031 76.9723C124.225 78.716 124.172 80.4783 123.872 82.2071C123.558 84.048 122.864 85.8036 121.836 87.3626C121.281 88.1852 120.618 88.9293 119.864 89.5749C118.304 90.8573 116.414 91.674 114.411 91.931C113.377 92.0678 112.328 92.0389 111.303 91.8453C110.193 91.6247 109.14 91.1756 108.212 90.5265C107.731 90.1851 107.29 89.7901 106.898 89.3492C106.523 88.9175 106.194 88.4468 105.919 87.9453C105.409 87.0042 105.063 85.9836 104.894 84.9267C104.735 83.9832 104.688 83.024 104.754 82.0694C104.802 81.1922 104.915 80.3196 105.091 79.4591L105.329 78.205C105.428 77.7922 105.544 77.3842 105.652 76.9742C106.091 75.3428 106.676 73.7542 107.4 72.2276C108.475 69.9823 109.794 67.8622 111.334 65.9058C111.73 65.4294 112.1 64.9306 112.52 64.4756L113.78 63.1117L115.123 61.8308C115.569 61.402 116.064 61.0268 116.533 60.6237C118.456 59.0603 120.545 57.7132 122.763 56.6067C124.994 55.5071 127.345 54.6728 129.77 54.1208C134.617 53.0398 139.644 53.0546 144.484 54.164C146.905 54.7032 149.253 55.5313 151.476 56.6307C153.719 57.7282 155.818 59.0979 157.725 60.7088L158.971 61.8321C159.369 62.2099 159.728 62.5935 160.108 62.9744C160.874 63.7219 161.564 64.5461 162.287 65.3367C162.978 66.1578 163.66 66.9887 164.316 67.84L165.264 69.1464L165.738 69.8004C165.89 70.0229 166.031 70.2533 166.177 70.4795C168.569 74.0945 170.408 78.0466 171.633 82.2049C172.841 86.3676 173.432 90.6848 173.389 95.019C173.26 99.3054 172.642 103.563 171.546 107.709L170.61 110.755C170.446 111.261 170.314 111.773 170.123 112.273L169.547 113.773C169.184 114.785 168.73 115.746 168.292 116.716C167.873 117.697 167.371 118.627 166.889 119.569C164.92 123.278 162.689 126.843 160.214 130.235C155.3 136.927 149.881 143.234 144.006 149.1C141.696 151.455 139.345 153.697 136.979 155.835C134.619 157.978 132.234 160.006 129.851 161.929C125.324 165.609 120.563 168.993 115.6 172.059C113.424 173.373 112.267 173.782 112.172 173.339C112.141 173.224 112.207 173.101 112.29 172.854C112.437 172.571 112.607 172.3 112.798 172.044C113.032 171.718 113.331 171.339 113.696 170.906C113.878 170.689 114.077 170.459 114.292 170.216C114.402 170.098 114.508 169.965 114.631 169.846C114.758 169.732 114.889 169.614 115.024 169.492C121.166 164.025 127.491 158.17 133.562 152.167C138.552 147.235 143.65 142.156 148.272 136.804C148.26 136.768 148.249 136.734 148.24 136.694Z" fill="black"/>
</svg>
