<svg width="229" height="228" viewBox="0 0 229 228" fill="none" xmlns="http://www.w3.org/2000/svg">
<path d="M183.433 54.9822L181.274 56.5022L179.143 58.068C178.383 58.6145 177.656 59.206 176.967 59.8392C175.157 61.55 173.404 63.3223 171.667 65.105L166.494 70.4854C164.386 72.7047 162.271 74.9167 160.22 77.1821C159.179 78.302 158.179 79.4548 157.158 80.5903C156.167 81.7481 155.153 82.8896 154.191 84.0678C153.569 84.7578 152.886 85.3912 152.151 85.9605C151.807 86.2183 151.404 86.387 150.979 86.4516C150.553 86.5162 150.118 86.4746 149.712 86.3305C148.412 85.9828 147.684 84.7748 148.23 83.5813C148.597 82.8196 149.098 82.129 149.708 81.5414C152.377 78.8062 154.849 75.8867 157.106 72.8048C157.668 71.904 158.36 71.0904 159.16 70.39C161.801 68.3947 163.85 65.815 166.352 63.6953C167.276 62.9056 168.17 62.0801 169.07 61.2613C169.963 60.4339 170.86 59.6106 171.792 58.828C175.103 56.0217 178.517 53.3416 182 50.7558C183.337 49.6871 184.974 49.0592 186.685 48.9592C187.496 48.9298 188.146 49.8645 187.702 50.5291C187.062 51.4626 186.341 52.3379 185.546 53.1448C184.862 53.7762 184.142 54.368 183.39 54.9175L183.433 54.9822Z" fill="black"/>
<path d="M179.039 63.8609C179.518 62.0566 180.047 60.2542 180.69 58.4648C181.033 57.5161 181.396 56.5724 181.726 55.6101C182.273 53.9023 182.98 52.2494 183.838 50.673C184.741 49.0194 185.869 47.4976 187.19 46.1503L189.471 50.4561C187.71 50.9098 185.94 51.337 184.162 51.7217C177.937 53.0633 171.633 54.0372 165.309 54.7832C164.342 54.8663 163.369 54.8479 162.406 54.7285C161.971 54.673 161.558 54.5087 161.204 54.2511C160.851 53.9935 160.568 53.6508 160.384 53.2552C159.734 52.0853 160.128 50.7192 161.349 50.2766C162.145 50.0115 162.979 49.8752 163.819 49.8728C167.629 49.7585 171.41 49.1685 175.073 48.1165C176.086 47.8292 177.123 47.4449 178.154 47.4359C181.454 47.3984 184.603 46.4152 187.83 45.9263C188.031 45.8949 188.231 45.8635 188.433 45.8317L188.697 45.7903C189.17 45.7162 189.654 45.7986 190.076 46.0248C190.497 46.251 190.832 46.6085 191.029 47.0426C191.227 47.4767 191.276 47.9633 191.169 48.4277C191.062 48.8922 190.805 49.3089 190.437 49.6139C188.957 50.8413 187.845 52.5389 186.859 54.3323C184.932 57.8539 183.772 61.9759 182.897 66.1622C182.611 67.845 181.859 69.4152 180.728 70.6973C180.168 71.296 179.043 71.0996 178.896 70.2935C178.691 69.1376 178.609 67.9633 178.653 66.7902C178.732 65.8109 178.886 64.8391 179.114 63.8833L179.039 63.8609Z" fill="black"/>
<path d="M56.036 172.613C57.4426 171.507 58.8619 170.41 60.2345 169.255C60.98 168.663 61.6879 168.025 62.3542 167.346C63.2325 166.435 64.0894 165.503 64.9356 164.563C65.7921 163.633 66.6185 162.674 67.4532 161.725C69.1178 159.823 70.7407 157.888 72.3816 155.971C74.3774 153.588 76.3742 151.208 78.3031 148.772C80.2338 146.339 82.1384 143.883 83.9598 141.367C84.5483 140.624 85.2012 139.933 85.9108 139.304C86.2397 139.02 86.6343 138.821 87.0593 138.727C87.4842 138.633 87.9261 138.645 88.345 138.763C89.6664 139.029 90.4564 140.204 89.9733 141.44C89.6435 142.23 89.1805 142.959 88.6045 143.594C86.0803 146.545 83.769 149.671 81.6879 152.947C81.1773 153.9 80.5278 154.773 79.7606 155.537C77.2216 157.749 75.2884 160.492 72.8729 162.799C71.9796 163.657 71.1188 164.548 70.2479 165.431C69.3878 166.324 68.5167 167.207 67.6126 168.054C64.3969 171.086 61.0567 173.975 57.656 176.779C56.3577 177.93 54.7383 178.66 53.0132 178.872C52.1963 178.953 51.4932 178.057 51.9118 177.359C52.5147 176.376 53.2058 175.449 53.9766 174.589C54.6385 173.909 55.3415 173.27 56.0817 172.675C56.0665 172.654 56.0522 172.635 56.036 172.613Z" fill="black"/>
<path d="M61.908 163.414C61.3168 165.356 60.6137 167.262 59.802 169.124C59.3686 170.112 58.9044 171.09 58.4794 172.084C57.7569 173.826 56.9034 175.512 55.9262 177.127C54.9239 178.763 53.7798 180.309 52.5072 181.747L50.0435 177.562C51.9108 177.023 53.7876 176.513 55.6762 176.047C62.3035 174.446 69.0079 173.179 75.7637 172.252C76.7948 172.137 77.8348 172.125 78.8683 172.215C79.3218 172.25 79.7593 172.398 80.1405 172.645C80.5216 172.892 80.8343 173.231 81.0497 173.63C81.2264 173.882 81.3419 174.171 81.3869 174.475C81.4319 174.779 81.4052 175.089 81.309 175.381C81.2128 175.673 81.0497 175.939 80.8325 176.157C80.6154 176.375 80.3502 176.54 80.058 176.639C79.2089 176.928 78.3214 177.09 77.4245 177.119C73.3541 177.354 69.3272 178.078 65.4318 179.277C64.3543 179.604 63.2543 180.032 62.1535 180.084C58.6331 180.258 55.2907 181.385 51.8596 182.03C51.6494 182.07 51.4391 182.111 51.2275 182.152L50.9827 182.199C50.7005 182.253 50.4103 182.252 50.1287 182.195C49.847 182.137 49.5795 182.025 49.3413 181.865C49.1032 181.705 48.899 181.5 48.7406 181.261C48.5821 181.022 48.4725 180.755 48.4179 180.474C48.3499 180.113 48.3734 179.742 48.4861 179.393C48.5988 179.044 48.7972 178.729 49.0633 178.476C50.6494 176.901 52.0272 175.132 53.1632 173.21C55.4863 169.381 57.1778 165.205 58.1733 160.842C58.538 159.084 59.3151 157.436 60.4413 156.034C61.0003 155.381 62.1292 155.543 62.2764 156.422C62.386 157.049 62.4525 157.682 62.4752 158.317C62.5062 158.959 62.4983 159.603 62.4515 160.244C62.4162 160.775 62.335 161.303 62.2088 161.82C62.0947 162.344 61.9642 162.866 61.8352 163.387L61.908 163.414Z" fill="black"/>
<path d="M177.444 177.145C176.321 175.904 175.206 174.658 174.098 173.409C173.503 172.753 172.923 172.079 172.277 171.477C170.541 169.884 168.824 168.269 167.125 166.631C165.428 164.993 163.775 163.308 162.166 161.579C160.206 159.434 158.291 157.246 156.45 154.997C154.607 152.749 152.812 150.463 151.066 148.138C150.554 147.413 150.131 146.63 149.805 145.804C149.659 145.415 149.616 144.994 149.678 144.583C149.741 144.172 149.908 143.783 150.164 143.454C150.881 142.345 152.24 141.964 153.174 142.703C153.758 143.199 154.25 143.792 154.631 144.455C156.439 147.417 158.646 150.118 161.191 152.484C161.888 153.144 162.682 153.769 163.154 154.582C164.659 157.191 166.91 159.19 168.768 161.51C169.456 162.376 170.195 163.202 170.953 164.01C171.702 164.826 172.471 165.625 173.216 166.445C175.869 169.373 178.57 172.267 181.374 175.065C182.533 176.148 183.332 177.557 183.665 179.103C183.811 179.863 183.032 180.692 182.325 180.407C181.323 180 180.37 179.483 179.483 178.866C178.783 178.321 178.121 177.729 177.502 177.094C177.483 177.111 177.465 177.127 177.444 177.145Z" fill="black"/>
<path d="M186.347 159.646C185.869 161.223 185.493 162.829 185.219 164.454C185.138 164.886 185.094 165.324 185.04 165.761C184.984 166.197 184.96 166.636 184.969 167.076C185.045 171.221 185.732 175.332 187.006 179.279C187.143 179.712 187.163 180.172 187.064 180.615C186.966 181.058 186.753 181.467 186.447 181.802C186.14 182.137 185.751 182.386 185.317 182.525C184.884 182.664 184.421 182.687 183.976 182.593L183.817 182.557L182.285 182.225C180.852 181.926 179.412 181.667 177.967 181.438C176.52 181.219 175.068 181.036 173.612 180.89C172.154 180.755 170.694 180.655 169.231 180.598C167.768 180.55 166.304 180.538 164.84 180.575C163.944 180.569 163.05 180.483 162.169 180.319C161.755 180.234 161.368 180.05 161.042 179.783C160.715 179.516 160.459 179.174 160.295 178.786C159.673 177.603 160.046 176.249 161.295 175.829C162.107 175.59 162.955 175.498 163.799 175.559C167.644 175.738 171.421 175.798 175.278 175.798C176.346 175.722 177.42 175.815 178.459 176.074C180.631 176.79 182.847 177.189 185.04 177.743L182.212 180.65C182.078 180.142 181.946 179.634 181.823 179.125C181.7 178.615 181.62 178.096 181.535 177.58C181.116 175.139 180.862 172.672 180.776 170.197C180.753 165.812 181.364 161.445 182.592 157.233C183.011 155.577 184.005 154.121 185.399 153.125C186.06 152.675 187.106 153.133 187.108 153.893C187.096 154.961 187.015 156.027 186.865 157.085C186.805 157.514 186.713 157.939 186.588 158.354C186.485 158.777 186.367 159.199 186.273 159.623C186.297 159.631 186.32 159.638 186.347 159.646Z" fill="black"/>
<path d="M60.2823 53.9147L63.8241 57.4041C64.4532 58.0155 65.0698 58.646 65.7462 59.2007C66.6557 59.9334 67.5601 60.6727 68.4595 61.4188C69.3664 62.1567 70.2567 62.9139 71.1488 63.6701C72.9314 65.1844 74.6724 66.7467 76.3717 68.3571C78.4453 70.3571 80.4781 72.4018 82.4383 74.5147C84.4016 76.6244 86.3181 78.7763 88.188 80.9702C88.739 81.6569 89.205 82.4072 89.5757 83.2049C89.743 83.5842 89.8103 83.9996 89.7713 84.412C89.7323 84.8243 89.5883 85.22 89.3529 85.5615C88.7021 86.7079 87.3715 87.1754 86.4008 86.5027C85.7929 86.0486 85.2691 85.4926 84.8527 84.8596C82.886 82.039 80.5364 79.5032 77.8708 77.3246C77.1395 76.7153 76.3128 76.1485 75.7974 75.3716C74.1509 72.8824 71.7981 71.0472 69.8159 68.8683C69.0827 68.0527 68.2993 67.2839 67.4999 66.5313C66.7081 65.7705 65.8964 65.0303 65.1096 64.2646C62.3027 61.534 59.4509 58.8399 56.5022 56.2465C55.2875 55.246 54.411 53.898 53.9914 52.385C53.8021 51.6393 54.5273 50.7624 55.2453 50.9988C56.2629 51.3369 57.2395 51.7871 58.1569 52.3408C58.8834 52.8361 59.5752 53.3802 60.2274 53.9692L60.2823 53.9147Z" fill="black"/>
<path d="M51.9874 71.164C52.4134 69.5897 52.7382 67.99 52.9596 66.3745C53.0807 65.5125 53.1289 64.6419 53.1037 63.7719C52.8714 59.8757 52.0469 56.0371 50.6583 52.3871C50.502 51.9674 50.4584 51.5144 50.5316 51.0729C50.6049 50.6313 50.7926 50.2163 51.0762 49.869C51.3597 49.5217 51.7294 49.2541 52.1486 49.0925C52.5678 48.9308 53.0221 48.8809 53.4666 48.9475L53.659 48.9777C54.3777 49.089 55.0928 49.2177 55.8131 49.3181C58.6985 49.7547 61.6045 50.0439 64.5197 50.1845C67.4361 50.3255 70.3581 50.3033 73.272 50.1179C74.165 50.0882 75.0589 50.1399 75.9425 50.2723C76.3584 50.3426 76.7508 50.513 77.0855 50.7687C77.4202 51.0244 77.6871 51.3577 77.8628 51.7396C78.523 52.9005 78.1989 54.2665 76.9759 54.7282C76.1803 54.9959 75.3425 55.1181 74.5032 55.0888C70.6845 55.0603 66.9363 55.1572 63.1151 55.3546C62.0607 55.4871 60.9919 55.4501 59.9493 55.2452C57.5458 54.5882 55.1036 54.3248 52.6876 53.829L55.3611 50.7913C55.6194 51.5717 55.8344 52.3657 56.0053 53.1695C56.5687 55.5778 56.9524 58.0242 57.1531 60.4888C57.3834 64.8594 56.9286 69.2389 55.8049 73.47C55.4259 75.1303 54.4627 76.6007 53.0896 77.6156C52.4378 78.0736 51.3837 77.6323 51.3659 76.8784C51.3568 75.8199 51.4135 74.7619 51.5356 73.7104C51.587 73.2844 51.6681 72.8625 51.7784 72.4477C51.87 72.0269 51.9775 71.6069 52.0618 71.185L51.9874 71.164Z" fill="black"/>
</svg>
