<svg width="194" height="195" viewBox="0 0 194 195" fill="none" xmlns="http://www.w3.org/2000/svg">
<path d="M89.4249 140.599L90.6179 140.575L91.8113 140.584L94.197 140.604L96.581 140.691L97.7724 140.737L98.9625 140.815L101.341 140.975L103.715 141.201L104.901 141.317L106.084 141.464L108.448 141.763C114.737 142.679 120.968 144.011 127.037 145.903C133.485 147.865 139.765 150.444 145.809 153.413L148.815 154.952L151.774 156.581L148.33 159.837C144.627 152.431 140.959 145.007 137.339 137.56C133.729 130.108 130.155 122.638 126.638 115.141C119.61 100.143 112.786 85.0462 106.211 69.8353C103.887 64.4605 101.593 59.0721 99.3208 53.674L95.9375 45.5654L92.5949 37.4383L98.3243 37.3455C95.5537 44.8168 92.7118 52.2619 89.7864 59.6743C86.8442 67.0799 83.8373 74.46 80.7399 81.8021C77.6298 89.1386 74.4616 96.4506 71.196 103.719C67.922 110.983 64.596 118.224 61.1662 125.415C59.758 128.386 58.2637 131.333 56.7615 134.264C55.2307 137.181 53.7064 140.089 52.151 142.94C51.4083 144.306 50.6981 145.535 50.0198 146.637C49.6839 147.182 49.3425 147.724 49.0335 148.182C48.7734 148.535 48.5064 148.851 48.2253 149.148C47.6667 149.738 47.0375 150.268 46.4156 150.859C45.7936 151.444 45.1985 152.078 44.6828 152.711C43.1787 154.581 42.8664 155.342 42.9178 154.073C42.9342 153.754 42.9747 153.301 43.0552 152.681C43.1371 152.064 43.2603 151.27 43.4882 150.32C43.7141 149.372 44.0566 148.276 44.5134 147.139C44.6271 146.854 44.7472 146.567 44.8729 146.278C44.9758 146.037 45.0809 145.791 45.1882 145.54C45.3881 145.072 45.6008 144.587 45.8265 144.086C48.1168 139.021 50.8044 133.582 53.3664 128.444C59.2789 116.618 64.8742 104.654 70.1212 92.5466C75.3712 80.4408 80.32 68.2125 84.9111 55.8475C87.4638 49.0297 89.9277 41.8662 92.5844 35.3025L92.6209 35.2124L92.687 35.0495C93.3077 33.5196 95.0447 32.7852 96.5667 33.409C97.3607 33.7345 97.9432 34.3753 98.2269 35.1216C106.187 56.2945 115.52 77.0602 124.599 97.8062C131.357 113.249 138.592 128.574 145.853 143.825L149.184 150.788L152.541 157.734L152.554 157.761C153.091 158.874 152.63 160.214 151.522 160.755C150.834 161.091 150.046 161.032 149.428 160.676C138.886 154.513 127.301 150.113 115.296 147.707C103.296 145.286 90.8967 144.752 78.7042 146.165C75.7676 146.48 72.8912 146.933 70.0652 147.393C67.2491 147.903 64.4789 148.416 61.789 149.037C56.3982 150.239 51.2702 151.61 46.4263 153.062C45.2995 153.398 44.6647 153.546 44.364 153.659C44.0578 153.76 44.0591 153.759 44.2729 153.559C44.4751 153.367 44.9372 152.936 45.2462 152.289C45.4026 151.975 45.4822 151.636 45.5842 151.399C45.6378 151.279 45.7053 151.181 45.8094 151.096C45.8271 151.067 46.0023 150.986 46.1418 150.917C46.2868 150.847 46.4364 150.776 46.5904 150.702C53.5645 147.334 61.326 144.706 69.247 142.965C72.5096 142.283 75.847 141.722 79.2196 141.367C82.5916 141.017 85.9869 140.764 89.3673 140.689C89.3852 140.659 89.4022 140.63 89.4249 140.599Z" fill="black"/>
<path d="M91.3335 129.217C88.3 128.878 85.261 128.586 82.2165 128.343C79.1714 128.111 76.1213 127.929 73.0666 127.798L72.9923 127.794C71.8985 127.747 71.0497 126.818 71.0966 125.718C71.1286 124.967 71.5728 124.33 72.1981 124.018C73.999 123.122 75.8644 122.382 77.7613 121.785C82.0586 120.448 86.4894 119.907 90.8266 119.579C94.7068 119.296 98.5603 119.263 102.368 119.228L113.796 119.12L112.794 122.836C103.129 117.226 92.1668 113.914 81.065 113.2C79.8438 113.121 78.9171 112.063 78.9953 110.835C79.0531 109.927 79.6451 109.181 80.444 108.886L80.4642 108.879C83.9862 107.586 87.5727 106.463 91.2089 105.53C96.9939 104.043 102.898 103.024 108.85 102.476L107.9 106.78C101.633 103.137 94.8788 100.333 87.8782 98.4724C86.6416 98.1437 85.9043 96.8696 86.2313 95.6267C86.2751 95.4603 86.3358 95.3028 86.411 95.1558L86.4232 95.1332C86.9476 94.1231 87.732 93.2121 88.6067 92.5394C89.4823 91.8592 90.4198 91.3941 91.3221 91.047C93.1358 90.363 94.8423 90.078 96.4343 89.7768C98.0188 89.4861 99.517 89.206 100.745 88.7435C101.356 88.5139 101.886 88.2407 102.303 87.9268C102.721 87.6114 103.029 87.2642 103.268 86.8373L104.35 90.0911C99.4761 87.9179 94.5054 85.9614 89.4578 84.231L89.4522 84.229C88.2518 83.8175 87.6106 82.5058 88.0201 81.2993C88.2063 80.7505 88.581 80.3162 89.0437 80.0465C91.692 78.5067 94.5132 77.2762 97.4384 76.3858C99.2501 75.8341 101.117 75.4409 102.997 75.1981L101.115 77.4244C101.116 77.2759 101.113 77.1212 100.967 76.8712C100.837 76.6274 100.57 76.3352 100.241 76.0625C99.9092 75.7882 99.5028 75.5352 99.0767 75.3149C98.5934 75.0737 98.053 74.8377 97.4704 74.5684C96.511 74.1255 95.5232 73.5811 94.7175 72.8208C94.5162 72.6328 94.3308 72.4293 94.1579 72.2243C94.0761 72.1162 93.9954 72.0095 93.9156 71.9041C93.8384 71.8017 93.7506 71.6533 93.6755 71.5311C93.3819 71.0154 93.2109 70.5069 93.1444 70.0308C92.9943 69.0799 93.1643 68.2476 93.4702 67.583C93.7787 66.9173 94.2928 66.4289 94.8008 66.2223C94.9892 66.1485 95.151 66.1057 95.3027 66.107C95.4488 66.0996 95.5664 66.1118 95.6673 66.1538C95.8645 66.2267 95.96 66.333 95.9973 66.4551C96.076 66.7089 95.9051 66.9938 95.8573 67.3101C95.8277 67.4623 95.8308 67.6363 95.8362 67.8269C95.845 68.021 95.8692 68.2658 95.9433 68.545C96.0152 68.8208 96.1463 69.1282 96.316 69.3582C96.3562 69.4169 96.4061 69.4612 96.446 69.5091C96.4972 69.5451 96.518 69.5766 96.6104 69.6524C96.7588 69.7861 96.9322 69.9152 97.1398 70.0456C97.5915 70.3376 98.1916 70.6019 98.8992 70.8746C99.2738 71.0187 99.6507 71.1636 100.029 71.3093L100.646 71.5617C100.86 71.6546 101.099 71.7612 101.32 71.876C102.216 72.3358 103.101 72.9172 103.89 73.7954C104.281 74.234 104.645 74.7542 104.915 75.3671C105.185 75.9764 105.345 76.6815 105.348 77.3756V77.3918C105.353 78.4116 104.607 79.2586 103.632 79.4053C103.181 79.4737 102.743 79.5359 102.312 79.6141C98.3925 80.2902 94.5835 81.6708 91.126 83.6495L90.793 80.2862C95.9505 82.0907 101.032 84.0919 106.027 86.2849C106.949 86.69 107.371 87.7702 106.968 88.6976C106.946 88.7463 106.923 88.7937 106.899 88.8397L106.885 88.8651C106.374 89.8049 105.631 90.6403 104.803 91.2656C103.974 91.8972 103.083 92.3387 102.213 92.675C100.466 93.3391 98.782 93.6408 97.1972 93.9599C95.6194 94.2713 94.1076 94.578 92.8583 95.0848C92.2366 95.3367 91.6939 95.6378 91.269 95.9868C90.8423 96.3368 90.5299 96.7268 90.3008 97.195L89.0001 94.2099C90.0017 94.4601 91.0011 94.7208 91.9954 95.002C96.6409 96.3081 101.405 98.0423 105.546 100.299C107.092 101.138 108.617 102.014 110.122 102.931L110.195 102.975C111.193 103.583 111.511 104.889 110.906 105.891C110.539 106.501 109.901 106.859 109.244 106.909C99.9289 107.547 90.6946 109.664 81.8904 112.846L81.3546 108.993C84.8648 109.251 88.3532 109.762 91.7787 110.527C99.8066 112.338 107.598 115.347 114.707 119.565L114.717 119.571C115.567 120.075 115.849 121.177 115.347 122.031C115.014 122.598 114.415 122.914 113.804 122.914C110.934 122.906 108.062 122.898 105.193 122.89C99.7255 122.876 94.3008 122.752 88.9843 123.203C83.6832 123.659 78.4514 124.754 73.8078 127.122L73.1593 124.299C81.7494 124.602 90.3176 125.333 98.8274 126.478C106.559 127.512 113.762 129.126 119.947 131.332C122.79 132.354 122.377 133.256 118.96 132.744C114.114 132.04 109.044 131.335 103.998 130.7C99.8483 130.182 95.5989 129.573 91.3776 129.155C91.3636 129.175 91.3503 129.193 91.3335 129.217Z" fill="black"/>
</svg>
