<svg width="196" height="195" viewBox="0 0 196 195" fill="none" xmlns="http://www.w3.org/2000/svg">
<path d="M138.667 137.017C136.826 134.983 134.747 133.153 132.474 131.598C131.893 131.23 131.328 130.83 130.734 130.484C130.131 130.151 129.534 129.806 128.926 129.479L127.055 128.597C126.416 128.318 125.741 128.052 125.047 127.775C123.57 127.189 121.982 126.562 120.387 125.68C119.591 125.237 118.794 124.715 118.039 124.098C117.285 123.483 116.572 122.76 115.979 121.964C115.186 120.913 114.555 119.761 114.125 118.627C113.674 117.492 113.349 116.363 113.09 115.286C112.82 114.2 112.606 113.156 112.378 112.163C112.155 111.16 111.913 110.225 111.627 109.348C111.353 108.46 110.987 107.694 110.587 106.989L110.265 106.488C110.158 106.322 110.018 106.179 109.899 106.022C109.675 105.703 109.347 105.431 109.074 105.131C107.83 103.998 106.202 103.028 104.372 102.041C102.562 101.048 100.54 100.005 98.5881 98.4856C97.6158 97.7107 96.6751 96.8035 95.854 95.7441C95.0393 94.685 94.3957 93.5047 93.9262 92.3152C92.9823 89.9215 92.6557 87.5467 92.4479 85.3436C92.2471 83.1343 92.1795 81.0458 91.9667 79.1152C91.7148 76.7369 91.2119 74.632 90.1863 73.0967C89.6916 72.3134 89.0354 71.6716 88.2345 71.0559C87.4325 70.4474 86.4767 69.9001 85.4193 69.3843C83.2882 68.3438 80.7825 67.4601 78.1959 66.0477C76.9103 65.3341 75.5913 64.4614 74.4133 63.3641L73.5616 62.5189L73.3515 62.3056L73.1643 62.0789L72.7918 61.6237C72.5535 61.3166 72.2778 61.0206 72.0753 60.7008L71.4377 59.7492C71.2138 59.4328 71.052 59.1076 70.8646 58.7853C70.6875 58.4625 70.4907 58.1386 70.3325 57.8152C70.0244 57.1698 69.6855 56.5169 69.4269 55.878L69.0163 54.9153L68.6446 53.9671C68.389 53.3285 68.174 52.7217 67.9391 52.0991C67.0404 49.6508 66.1954 47.3574 65.1102 45.4007L64.6811 44.7045L64.4684 44.3557C64.3966 44.2407 64.3123 44.1436 64.2355 44.0362L63.769 43.4028C63.6083 43.1993 63.4269 43.0258 63.2598 42.8333C62.5904 42.0665 61.7908 41.4381 60.9318 40.8997C59.1951 39.8444 57.1065 39.2321 54.8474 39.007C52.1293 38.7225 49.1672 38.7406 46.2092 38.9932C43.3786 39.2449 41.3769 38.9824 39.9968 38.3167C38.9928 37.8382 38.8132 37.1356 39.4068 36.3807C40.0013 35.6312 41.3666 34.8154 43.4791 34.2297C46.1457 33.4863 49.225 33.0689 52.2223 33.1367C53.9465 33.1806 55.6956 33.3364 57.4457 33.6994C59.1915 34.0606 60.944 34.6225 62.589 35.4717C63.4127 35.8894 64.2092 36.3766 64.9544 36.9334C65.7059 37.4812 66.4097 38.0953 67.0448 38.7673L67.9758 39.7964C68.2582 40.1545 68.5227 40.5223 68.7948 40.8863C69.0801 41.2465 69.2915 41.6307 69.5318 42.0062C69.77 42.3828 70.0029 42.7607 70.1957 43.1454C71.0454 44.6755 71.6822 46.2235 72.2911 47.729C72.8982 49.2399 73.4413 50.7122 74.0311 52.1054C74.3177 52.8147 74.633 53.4721 74.9421 54.1396C75.2739 54.774 75.5965 55.4182 75.9688 55.9903L76.2372 56.4326L76.5326 56.8367L76.8258 57.2405C76.9201 57.3789 77.0203 57.5093 77.1321 57.6235L77.7699 58.3435L78.465 58.9693C80.4862 60.7532 83.7564 61.6888 86.9322 63.3325C88.2019 63.9955 89.5303 64.7185 90.8346 65.6342C92.1355 66.5447 93.4095 67.6786 94.4434 69.049C95.4648 70.4218 96.2077 71.9625 96.6796 73.4876C97.1714 75.0176 97.4153 76.5228 97.5936 77.9767C97.9223 80.8767 97.9342 83.5988 98.2182 86.0913C98.4845 88.5914 99.0583 90.7873 100.239 92.4698C101.13 93.7153 102.445 94.8109 104.054 95.8027C105.641 96.8078 107.459 97.7372 109.303 98.9092C109.763 99.1895 110.227 99.5287 110.686 99.843C111.14 100.203 111.604 100.522 112.041 100.934C112.939 101.687 113.754 102.637 114.465 103.647C115.151 104.686 115.672 105.782 116.068 106.868C116.444 107.949 116.745 109.031 116.959 110.063C117.366 111.916 117.635 113.667 118.047 115.256C118.24 116.063 118.498 116.79 118.773 117.496C119.088 118.16 119.403 118.815 119.841 119.343C120.645 120.447 121.857 121.292 123.309 122.017C124.762 122.743 126.422 123.328 128.155 124.02C128.59 124.189 129.025 124.384 129.459 124.586L130.761 125.18C131.619 125.595 132.443 126.074 133.283 126.52C134.083 127.032 134.901 127.517 135.681 128.056L136.831 128.891L137.405 129.309C137.595 129.45 137.772 129.608 137.956 129.757C140.903 132.129 143.5 134.906 145.671 137.973C147.396 140.426 148.717 143.05 149.579 145.685C150.463 148.313 150.789 150.983 150.703 153.447C150.586 155.729 149.256 155.686 148.528 153.394C147.439 150.133 145.867 146.926 144.001 143.962C142.463 141.532 140.776 139.09 138.749 136.975C138.722 136.989 138.698 137.001 138.667 137.017Z" fill="black"/>
<path d="M158.158 141.741C157.642 142.991 157.148 144.256 156.718 145.545C156.487 146.228 156.263 146.919 156.155 147.628C155.602 151.424 155.462 155.249 155.376 159.043L155.369 159.315C155.321 160.982 153.924 162.296 152.249 162.248C151.403 162.225 150.647 161.859 150.113 161.287L150.03 161.199C146.851 157.781 143.599 154.431 140.16 151.271C139.631 150.785 139.238 150.139 138.85 149.504C138.482 148.892 138.629 148.052 139.052 147.141C139.666 145.815 140.957 144.945 141.954 145.339C142.582 145.59 143.105 146.051 143.537 146.555C145.53 148.869 147.741 150.892 150.21 152.716C150.892 153.218 151.66 153.693 152.074 154.419C152.708 155.529 153.499 156.488 154.319 157.426L149.649 159.075C149.731 157.708 149.761 156.335 150.023 154.987C150.387 153.068 150.562 151.122 150.982 149.216C151.722 145.82 152.737 142.499 153.903 139.253C154.37 137.958 155.2 136.852 156.668 136.163C157.346 135.846 158.557 136.314 158.644 136.962C158.762 137.879 158.751 138.782 158.65 139.647C158.576 140.36 158.263 141.021 158.075 141.711C158.103 141.721 158.129 141.73 158.158 141.741Z" fill="black"/>
</svg>
