<svg width="195" height="195" viewBox="0 0 195 195" fill="none" xmlns="http://www.w3.org/2000/svg">
<path d="M81.8193 27.6166L79.8344 28.8243L77.9135 30.1297C77.588 30.3409 77.279 30.5739 76.9723 30.8102L76.0458 31.5117C75.7396 31.749 75.4206 31.9715 75.124 32.2209L74.2341 32.9701C71.8627 34.9695 69.6225 37.1496 67.6159 39.5536C65.4744 42.0873 63.5113 44.8206 61.8412 47.7209C61.2137 48.8624 60.5621 49.988 59.9966 51.1664C59.7065 51.7509 59.4059 52.3292 59.1242 52.9181L58.312 54.7032C57.7505 55.8822 57.2872 57.1126 56.7772 58.3176C56.286 59.5322 55.8487 60.7727 55.3816 61.9979L52.9146 58.4523C54.7635 58.4296 56.6676 58.4329 58.5917 58.5557C60.5149 58.6744 62.4105 58.9036 64.2608 59.1701C65.7665 59.3869 66.8114 60.7833 66.5946 62.289C66.4756 63.1153 66.0014 63.8028 65.3488 64.2191L65.2791 64.2631C61.4189 66.7001 57.7705 69.428 54.4486 72.4804C51.1259 75.5304 48.1354 78.9069 45.5687 82.5762L45.1377 83.1885L45.1289 83.201C44.1615 84.5751 42.2633 84.9048 40.8892 83.9374C40.2635 83.4969 39.8532 82.8586 39.6844 82.1696C38.4812 77.2306 37.1243 72.2643 35.8774 67.2229C34.6339 62.1796 33.4755 57.06 32.7395 51.7762C32.5031 50.0791 33.6873 48.5117 35.3843 48.2754C36.4728 48.1238 37.5079 48.5565 38.1727 49.3341L38.1934 49.3593C39.3526 50.7366 40.4981 52.1193 41.6272 53.3164C42.1925 53.9128 42.7504 54.4599 43.3121 54.9169C43.8749 55.3775 44.4425 55.7627 45.0666 56.1043L40.639 57.883C41.9468 53.8216 43.2491 49.7168 44.6994 45.6184C46.1446 41.5208 47.7561 37.4268 49.6994 33.4362C51.2507 30.2347 53.2336 27.1763 55.4215 24.3875C55.9582 23.7274 56.455 23.134 56.9742 22.6453C57.4963 22.1585 57.9962 21.7467 58.4729 21.4033C58.5939 21.3194 58.7116 21.2378 58.826 21.1585C58.9577 21.0723 59.0856 20.9886 59.2098 20.9072C59.4855 20.7319 59.7495 20.5847 59.9986 20.4635C60.4974 20.221 60.9343 20.0833 61.3037 20.0233C62.3766 19.8579 62.4591 20.6323 62.389 21.6804C62.3445 22.2044 62.2664 22.7855 62.0984 23.3203C62.0769 23.3874 62.0536 23.4541 62.0282 23.5203C61.9852 23.6135 61.9411 23.7091 61.8958 23.8072C61.8011 24.0046 61.6974 24.2079 61.5844 24.4167C61.3583 24.8342 61.0954 25.2737 60.7939 25.7329C59.3279 28.1046 57.721 30.6728 56.2759 33.1895L55.4206 34.7078L54.6178 36.2618C54.3447 36.7766 54.0929 37.3048 53.8451 37.8356L53.0999 39.4268C52.1499 41.5752 51.2519 43.7544 50.4401 45.9818C48.7939 50.4241 47.3935 54.9988 45.995 59.6033C45.5952 60.9198 44.2038 61.663 42.8872 61.2631C42.7398 61.2184 42.5996 61.1612 42.4674 61.093L42.3895 61.0518C41.4479 60.5587 40.5352 59.9597 39.7098 59.3066C38.8798 58.6537 38.1457 57.9561 37.458 57.2648C36.0883 55.8759 34.8877 54.4996 33.6711 53.1493L38.5849 50.9717L38.8995 52.6754C39.6145 56.3163 40.6552 60.071 41.3143 63.6841C42.3552 69.391 43.85 75.0735 45.2216 80.8522L40.4497 79.9605C42.2424 77.3796 44.2123 74.9215 46.3467 72.6242C48.4901 70.3359 50.7996 68.2142 53.2388 66.2803C54.7303 65.1131 56.252 63.9892 57.8037 62.9094C59.3622 61.8406 60.9481 60.8142 62.5597 59.8297L63.4551 64.3082C61.6906 64.0229 59.9494 63.7865 58.2157 63.652C56.4831 63.5135 54.7221 63.4794 52.9145 63.4677L52.8444 63.4672C51.5484 63.4588 50.5046 62.4013 50.5131 61.1053C50.5151 60.8076 50.576 60.5157 50.6788 60.2543L51.5433 58.0778L51.9778 56.9909L52.4479 55.9166C52.8425 55.0399 53.2073 54.1524 53.6271 53.286L54.8855 50.6878L56.242 48.1339C56.6948 47.2833 57.2062 46.4611 57.6859 45.6243C59.6707 42.3112 61.9059 39.1326 64.4178 36.1772C66.9274 33.2214 69.7152 30.4935 72.7417 28.0693C75.7665 25.6426 79.026 23.5219 82.4347 21.7141L82.743 24.9091C82.0409 24.6845 81.3399 24.4534 80.6341 24.2477C77.6915 23.3611 74.82 22.6279 72.0104 21.9996C69.2039 21.3604 66.4568 20.8113 63.8373 20.1599C63.2482 20.0081 62.746 19.8215 62.3623 19.6367C61.9818 19.451 61.7334 19.2648 61.7063 19.0643C61.6794 18.8661 61.8759 18.6419 62.401 18.4378C62.6626 18.3374 63.007 18.2457 63.4284 18.1846C63.589 18.1616 63.7618 18.1369 63.9468 18.1103C64.1053 18.0897 64.2743 18.0728 64.4538 18.0601C66.4864 17.9188 68.5918 17.8617 70.738 17.9478C72.883 18.0332 75.065 18.2578 77.2165 18.6225C79.5629 19.0271 81.8945 19.673 84.1655 20.4113C85.7324 20.9207 86.5897 22.6038 86.0802 24.1707C85.8406 24.9079 85.3411 25.488 84.7162 25.8426L84.6911 25.8568L83.2348 26.6797C82.7539 26.9603 82.2557 27.2139 81.7975 27.5263C81.8044 27.5554 81.8111 27.5827 81.8193 27.6166Z" fill="black"/>
<path d="M89.4181 93.7205C87.171 100.341 85.11 106.993 83.5735 113.75C82.7771 117.33 82.0856 120.951 81.747 124.572C81.6828 125.255 81.65 125.938 81.5998 126.62L81.5306 127.644C81.5023 127.985 81.4865 128.326 81.4852 128.666C81.4697 130.025 81.3911 131.39 81.4699 132.736C81.4949 133.411 81.508 134.087 81.5416 134.76L81.7309 136.76L81.8246 137.759L81.9881 138.74L82.3106 140.701L78.8711 138.716C79.7086 138.414 80.5153 138.111 81.2526 137.784C81.9932 137.455 82.6749 137.102 83.3779 136.672C84.7804 135.818 86.2503 134.754 87.7204 133.702C88.9528 132.82 90.6667 133.104 91.5484 134.337C92.083 135.084 92.1889 136.008 91.9148 136.817L91.8881 136.893C90.2947 141.489 88.7016 146.082 87.5972 150.633C87.051 152.91 86.6535 155.182 86.3859 157.509C86.1151 159.833 85.9653 162.22 85.8386 164.639C85.7515 166.3 84.3345 167.576 82.6736 167.489C82.0076 167.454 81.4036 167.205 80.9245 166.813L80.9147 166.804C80.2425 166.254 79.567 165.707 78.9046 165.146C74.7444 161.65 70.7503 157.956 66.9898 153.962C65.1172 151.957 63.3068 149.873 61.6001 147.668C59.8973 145.46 58.2876 143.138 56.91 140.578C56.0984 139.07 56.6629 137.19 58.171 136.378C59.1489 135.852 60.2835 135.904 61.1817 136.417L61.1962 136.426C62.6243 137.248 64.035 137.951 65.4515 138.449C66.8681 138.952 68.304 139.247 69.8176 139.361L66.5393 143.046C65.5556 137.967 64.5259 132.844 63.6841 127.638C62.8499 122.431 62.2277 117.127 62.082 111.739C61.9926 107.891 62.3944 103.965 63.1721 100.203C63.5136 98.3964 64.1048 96.9629 64.676 95.8382C64.7506 95.6986 64.8233 95.5629 64.8939 95.4309C64.9724 95.2872 65.0762 95.0991 65.1677 94.9488C65.3569 94.6343 65.5493 94.3558 65.7376 94.1147C66.1152 93.6314 66.4726 93.3 66.7797 93.086C67.6749 92.4787 67.8851 93.2701 68.2606 94.3657C68.434 94.9169 68.6614 95.5069 68.7655 96.0357C68.7778 96.1029 68.7877 96.17 68.7948 96.2374L68.8029 96.3417C68.8027 96.3992 68.8024 96.4574 68.8022 96.5164C68.7999 96.7517 68.7917 96.997 68.7775 97.2519C68.749 97.7619 68.6962 98.3104 68.6166 98.896C68.2953 101.879 67.9772 105.13 67.8153 108.259C67.5791 113.82 68.0257 119.464 68.8794 125.083C69.7086 130.706 70.9135 136.315 72.1234 141.963C72.418 143.338 71.5419 144.692 70.1666 144.987C69.9437 145.034 69.7214 145.051 69.5041 145.041L69.3911 145.034C67.4856 144.928 65.5381 144.579 63.6967 143.989C61.8512 143.405 60.1315 142.61 58.5228 141.763C58.4209 141.71 58.3189 141.656 58.2147 141.601L62.177 137.763C64.0763 140.949 66.6196 144.014 68.9438 146.982C71.1608 149.826 73.6352 152.526 76.2657 155.082C78.8924 157.642 81.6598 160.082 84.5035 162.41L80.174 164.314C80.33 161.606 80.5247 158.859 80.9043 156.086C81.272 153.312 81.8921 150.543 82.6652 147.884C83.9584 143.507 85.4911 139.315 87.0203 135.125L90.6966 137.94C89.1805 138.986 87.6786 140.052 85.9606 141.065C85.1044 141.571 84.1661 142.04 83.2376 142.431C82.3065 142.824 81.3984 143.144 80.5136 143.446L80.4031 143.484C79.2046 143.893 77.9015 143.253 77.4925 142.054C77.4477 141.923 77.414 141.778 77.3937 141.646L77.0535 139.321C77.0026 138.934 76.9318 138.546 76.8986 138.159L76.8135 136.998C76.4663 132.609 76.6632 128.257 77.1416 123.979C77.6196 119.697 78.4294 115.494 79.3754 111.342C81.2842 103.038 83.8607 94.9625 86.5762 86.9923L88.8943 89.1119L88.2059 89.3852C81.7585 91.9848 75.1578 93.2204 69.3437 92.7043C68.6772 92.643 68.185 92.4981 67.874 92.3186C67.7967 92.2727 67.7306 92.225 67.6756 92.1759C67.6028 92.1335 67.6477 92.0589 67.3822 92.0484C67.1892 92.0365 67.0448 92.0568 66.9615 92.043C66.9147 92.0395 66.8976 92.0194 66.8837 91.9964C66.8626 91.9781 66.863 91.9458 66.8852 91.9019C66.926 91.819 67.0586 91.6754 67.3332 91.5689C67.3994 91.5432 67.4785 91.5208 67.5522 91.5046C67.5608 91.492 67.57 91.4786 67.5797 91.4645C67.5993 91.4379 67.6214 91.4113 67.6459 91.385C67.7427 91.2808 67.8815 91.1775 68.0656 91.0772C68.4296 90.8804 68.9674 90.6913 69.6794 90.5354C73.7258 89.6143 77.908 88.3407 81.9347 86.7995C83.633 86.1679 85.3329 85.4789 87.0378 84.7836L87.0996 84.7585C88.6233 84.1371 90.3622 84.8686 90.9836 86.3923C91.2621 87.0753 91.2675 87.8055 91.0529 88.4549C90.4774 90.1912 89.889 91.9285 89.3444 93.6629C89.368 93.6814 89.3903 93.6986 89.4181 93.7205Z" fill="black"/>
<path d="M132.397 115.594C133.329 121.931 134.408 128.185 136.089 134.244C136.996 137.446 138.07 140.608 139.475 143.583L140.195 145.077C140.443 145.57 140.719 146.046 140.98 146.532C141.25 147.011 141.494 147.507 141.784 147.972L142.651 149.37L143.084 150.068C143.234 150.297 143.397 150.516 143.553 150.74L144.496 152.079C144.796 152.536 145.165 152.938 145.498 153.369L146.518 154.641L142.547 154.609C142.878 154.207 143.249 153.66 143.604 153.093C143.962 152.521 144.315 151.913 144.666 151.291C145.375 150.04 146.048 148.752 146.856 147.378C147.611 146.094 149.264 145.665 150.549 146.42C151.203 146.805 151.636 147.423 151.802 148.107L151.823 148.193C152.902 152.692 154.109 157.062 155.793 161.218C157.46 165.382 159.579 169.422 161.823 173.462C162.628 174.911 162.106 176.738 160.657 177.543C159.991 177.913 159.245 178.003 158.555 177.851L158.505 177.84C157.228 177.557 155.94 177.283 154.643 177.018C150.03 176.08 145.305 175.207 140.565 173.99C135.834 172.75 131.039 171.188 126.52 168.628C125.032 167.785 124.51 165.896 125.352 164.408C125.762 163.686 126.417 163.191 127.154 162.969L127.185 162.96C128.872 162.457 130.568 162.011 132.057 161.528C133.553 161.042 134.783 160.494 136.015 159.695L135.328 164.306C132.23 160.637 129.17 156.896 126.252 153.003C123.349 149.099 120.595 145.039 118.131 140.809C116.366 137.807 114.916 134.595 113.637 131.426C113.012 129.912 112.687 128.584 112.52 127.457C112.34 126.229 112.384 125.254 112.579 124.507C112.865 123.418 113.588 123.312 114.469 123.83C114.909 124.091 115.388 124.509 115.87 125.07C116.327 125.594 116.891 126.419 117.441 127.395C118.844 129.865 120.215 132.622 121.56 135.207C122.749 137.516 124.02 139.78 125.397 141.981C126.069 143.092 126.797 144.169 127.509 145.256C128.251 146.324 128.98 147.4 129.757 148.447C132.816 152.664 136.193 156.682 139.672 160.63C140.6 161.684 140.499 163.29 139.446 164.218C139.369 164.285 139.29 164.347 139.208 164.404L139.099 164.477C137.663 165.455 136.009 166.277 134.418 166.864C132.825 167.459 131.328 167.904 129.882 168.383C129.553 168.493 129.222 168.604 128.886 168.716L129.507 163.422C132.324 164.853 135.457 165.927 138.447 167.033C141.77 168.266 145.281 169.184 148.863 169.98C152.443 170.783 156.101 171.476 159.786 172.323L156.858 176.187C154.745 172.319 152.689 168.348 151.085 164.126C150.168 161.708 149.361 159.24 148.664 156.763C147.965 154.285 147.369 151.801 146.818 149.326L151.236 150.051C150.523 151.219 149.804 152.532 149.038 153.832C148.653 154.486 148.255 155.145 147.82 155.811C147.381 156.479 146.922 157.148 146.312 157.857L146.251 157.928C145.427 158.886 143.982 158.994 143.025 158.17C142.906 158.069 142.794 157.947 142.701 157.828L141.173 155.835C138.807 152.61 136.856 149.123 135.254 145.523C133.651 141.92 132.389 138.205 131.35 134.46C129.276 126.96 128.074 119.351 126.923 111.815L129.722 112.873L128.855 113.557C123.915 117.434 118.835 120.557 113.851 122.487C113.398 122.66 113.013 122.754 112.727 122.763C112.704 122.763 112.685 122.778 112.677 122.798L112.567 123.094C112.237 123.981 111.746 124.31 111.247 123.214C111.209 123.13 111.215 123.038 111.257 122.963L111.998 121.655C112.195 121.306 112.57 120.889 113.124 120.425C116.126 117.935 119.274 115.326 122.405 112.73C123.82 111.55 125.283 110.392 126.744 109.221L126.776 109.195C128.057 108.168 129.928 108.374 130.955 109.654C131.287 110.068 131.492 110.556 131.572 111.045C131.814 112.558 132.043 114.081 132.306 115.579C132.335 115.583 132.363 115.588 132.397 115.594Z" fill="black"/>
</svg>
