<svg width="230" height="230" viewBox="0 0 230 230" fill="none" xmlns="http://www.w3.org/2000/svg">
<path d="M100.478 184.024C89.5093 185.589 78.669 187.951 68.0437 191.093L67.9793 191.112C67.3321 191.302 66.6396 191.268 66.0144 191.014C65.3892 190.761 64.8682 190.303 64.5363 189.716C64.2043 189.129 64.0808 188.446 64.1861 187.78C64.2913 187.114 64.6189 186.503 65.1157 186.046C69.4705 182.045 73.7753 177.991 78.0301 173.883C84.5367 167.575 90.9147 161.083 96.9254 154.326C100.291 150.541 103.588 146.697 106.815 142.794C110.035 138.883 113.192 134.921 116.286 130.906C116.708 130.359 117.317 129.987 117.995 129.86C118.674 129.732 119.376 129.859 119.968 130.215C120.56 130.571 121 131.132 121.205 131.792C121.41 132.451 121.366 133.163 121.081 133.792L121.071 133.811C117.976 140.622 114.804 147.418 111.342 154.104C107.914 160.861 104.083 167.405 99.8694 173.703L95.5922 169.659C104.752 162.526 113.442 154.81 121.611 146.561C129.783 138.319 137.418 129.563 144.47 120.346C148.911 114.499 152.939 108.416 155.718 101.873C157.11 98.6476 158.128 95.273 158.751 91.8157C159.048 90.1067 159.234 88.3803 159.309 86.6473L159.325 85.349L159.332 84.6998L159.305 84.0524L159.252 82.7573L159.124 81.4709C158.785 78.0689 157.872 74.7488 156.425 71.651C156.238 71.2743 156.033 70.9079 155.838 70.5348L155.544 69.9767C155.441 69.7941 155.322 69.6221 155.212 69.4439L154.543 68.3809L153.796 67.3769L153.423 66.8743C153.292 66.7123 153.149 66.5618 153.012 66.4046L152.187 65.4672C151.892 65.1718 151.581 64.8903 151.281 64.5996L150.827 64.1655C150.68 64.0155 150.522 63.877 150.354 63.7515C147.72 61.5807 144.718 59.8997 141.491 58.7885C138.149 57.6547 134.683 56.9297 131.167 56.6294C124.052 55.9423 116.69 56.5571 109.46 57.6817C102.237 58.7867 95.1627 60.7058 88.3718 63.4025C85.0168 64.7903 81.7567 66.3973 78.6127 68.2131C75.5084 70.0634 72.5449 72.1402 69.7463 74.4267C68.4123 75.6357 67.0131 76.7782 65.7806 78.0908C64.4969 79.3394 63.2883 80.6629 62.161 82.0543C59.9088 84.8404 57.953 87.8536 56.3252 91.0451C52.3864 98.7283 50.1557 107.468 50.4683 116.005C50.5866 119.416 51.034 122.807 51.8042 126.132C52.4235 128.846 53.0876 130.944 53.5585 132.607C54.3276 134.986 53.9104 135.306 52.4375 133.598C51.9974 133.058 51.5904 132.491 51.2189 131.902C50.9869 131.556 50.7798 131.16 50.5407 130.741C50.3037 130.321 50.057 129.869 49.8331 129.371C48.6794 126.943 47.8289 124.383 47.3007 121.747C47.082 120.768 46.9408 119.766 46.786 118.755C46.6749 117.74 46.5493 116.715 46.5037 115.678C46.379 113.588 46.404 111.49 46.5785 109.403C46.7489 107.304 47.0501 105.217 47.4804 103.156C47.9163 101.121 48.463 99.1126 49.118 97.1381C50.6384 92.6595 52.6987 88.3829 55.2535 84.4026C56.5342 82.4182 57.9415 80.5183 59.4664 78.7148C61.002 76.9309 62.631 75.2296 64.3465 73.618C71.225 67.2062 79.4364 62.4334 88.0612 59.0061C89.1481 58.5973 90.2217 58.148 91.318 57.7674L94.615 56.647L97.9506 55.6574C99.0654 55.3384 100.194 55.0736 101.315 54.7788C105.816 53.6857 110.378 52.8546 114.975 52.2899C117.27 52.016 119.58 51.7551 121.913 51.6442C122.494 51.602 123.078 51.5798 123.663 51.5641C124.247 51.5476 124.831 51.5204 125.416 51.5129C126.589 51.5177 127.761 51.4926 128.938 51.5527C133.716 51.6583 138.457 52.4169 143.03 53.8074C145.633 54.6427 148.134 55.7686 150.485 57.164C152.899 58.599 155.088 60.3815 156.983 62.4542C160.689 66.5621 163.199 71.6062 164.242 77.0395L164.405 77.8143L164.525 78.5944C164.603 79.1148 164.692 79.634 164.757 80.1552C164.849 81.1999 164.987 82.2428 165.004 83.2891C165.1 85.3754 165.043 87.4659 164.836 89.5441L164.655 91.0965C164.603 91.6151 164.488 92.1247 164.407 92.6389C164.251 93.6693 164.001 94.6819 163.773 95.6983C163.273 97.697 162.66 99.6656 161.936 101.594C159.054 109.298 154.67 116.184 149.943 122.57C148.759 124.171 147.554 125.747 146.328 127.299L144.487 129.625L142.615 131.925C141.374 133.466 140.079 134.96 138.807 136.474C137.505 137.963 136.222 139.468 134.89 140.929C129.617 146.823 124.052 152.45 118.259 157.812C115.172 160.648 112.027 163.425 108.825 166.144C105.612 168.85 102.341 171.495 99.0129 174.081C98.5213 174.463 97.9095 174.656 97.2878 174.627C96.6661 174.598 96.0753 174.347 95.6219 173.921C95.1686 173.494 94.8826 172.92 94.8153 172.301C94.7481 171.682 94.9042 171.06 95.2554 170.546L95.2631 170.536C99.3644 164.439 103.095 158.1 106.434 151.555C109.839 144.994 113.048 138.301 116.18 131.566L120.535 134.21L120.417 134.358C112.597 144.32 104.354 153.971 95.6711 163.195C86.9943 172.427 77.8982 181.228 68.6406 189.808L66.5275 186.166C70.4762 184.983 74.4501 183.901 78.4492 182.92C82.4471 181.937 86.4746 181.079 90.5167 180.295C94.563 179.53 98.6306 178.877 102.719 178.337C106.812 177.83 110.921 177.423 115.049 177.193C120.459 176.867 125.886 176.982 131.277 177.536L130.321 180.639C129.238 180.035 128.115 179.506 126.959 179.056L126.076 178.701L125.176 178.375C124.578 178.154 123.979 177.938 123.371 177.743C120.956 176.93 118.529 176.211 116.125 175.558C113.722 174.901 111.342 174.288 108.99 173.745C106.639 173.197 104.319 172.684 102.021 172.274C98.877 171.702 97.3469 171.31 97.5845 170.842C97.8123 170.424 99.9015 169.894 103.712 170.079C108.521 170.42 113.305 171.06 118.035 171.997C120.436 172.479 122.843 173.012 125.26 173.686C126.47 174.034 127.682 174.392 128.908 174.829C129.515 175.022 130.144 175.298 130.763 175.54C131.069 175.653 131.392 175.807 131.715 175.965L132.68 176.435C133.325 176.749 133.842 177.276 134.144 177.927C134.446 178.578 134.514 179.313 134.337 180.008C134.16 180.703 133.749 181.316 133.173 181.743C132.596 182.171 131.891 182.386 131.174 182.354L130.862 182.339L127.183 182.168C122.832 182.062 118.391 182.179 113.928 182.472C109.466 182.765 104.98 183.239 100.543 183.917C100.523 183.954 100.502 183.99 100.478 184.024Z" fill="black"/>
</svg>
