<svg width="230" height="228" viewBox="0 0 230 228" fill="none" xmlns="http://www.w3.org/2000/svg">
<path d="M167.056 146.944C166.713 145.028 166.594 143.078 166.702 141.135C166.809 139.244 167.085 137.367 167.526 135.525C168.37 131.913 169.679 128.582 170.909 125.374C172.169 122.303 173.204 119.146 174.006 115.927C174.369 114.356 174.648 112.767 174.841 111.167C175.015 109.579 175.076 107.981 175.024 106.385C174.909 102.981 174.246 99.6174 173.059 96.4215C172.931 96.0126 172.749 95.619 172.589 95.2191C172.422 94.8212 172.267 94.4191 172.091 94.0241L171.531 92.8498C171.349 92.4569 171.16 92.0662 170.944 91.686C170.553 90.9183 170.122 90.1711 169.653 89.4476C169.221 88.7214 168.742 88.0239 168.218 87.3595C165.548 83.8623 162.182 80.9458 158.329 78.7908C154.412 76.5646 150.194 74.9066 145.803 73.8674C141.369 72.7864 136.827 72.1949 132.262 72.104C129.975 72.0521 127.688 72.1193 125.408 72.3053C123.145 72.497 120.897 72.8352 118.679 73.3176C114.301 74.2074 110.123 75.8809 106.35 78.2561C104.526 79.4188 102.839 80.7797 101.319 82.3134C99.8525 83.858 98.5882 85.5801 97.5567 87.4389C95.4664 91.0857 94.4261 95.2314 94.5491 99.424L94.6102 100.18L94.6171 100.271L94.6163 100.287L94.6149 100.318C94.6137 100.327 94.6135 100.336 94.6144 100.345L94.6309 100.408C94.6422 100.444 94.6573 100.479 94.6759 100.511C94.6834 100.525 94.6923 100.539 94.7026 100.551C94.7125 100.566 94.7217 100.58 94.7203 100.544C94.7265 100.501 94.7349 100.458 94.7456 100.415C94.7567 100.419 94.764 100.382 94.7749 100.371L94.7827 100.359L94.7841 100.355V100.353C94.7841 100.353 94.7855 100.351 94.7837 100.353L94.7621 100.38L94.9754 100.126C95.2666 99.77 95.5874 99.4456 95.9065 99.1198C97.1872 97.8584 98.6543 96.7977 100.257 95.9743C101.852 95.1389 103.57 94.5599 105.348 94.259C107.161 93.9422 109.015 93.9302 110.831 94.2234C111.292 94.2903 111.748 94.4013 112.203 94.5077L113.496 94.9092C113.925 95.046 114.345 95.2083 114.753 95.3953C115.17 95.5596 115.577 95.7494 115.97 95.9634C117.548 96.7686 118.992 97.8085 120.251 99.0471C121.501 100.235 122.598 101.57 123.52 103.022C123.98 103.734 124.403 104.469 124.789 105.223C125.141 105.989 125.517 106.744 125.791 107.539C126.106 108.318 126.327 109.129 126.564 109.931C126.748 110.749 126.959 111.56 127.061 112.394C127.208 113.219 127.25 114.06 127.314 114.895C127.322 115.72 127.35 116.544 127.288 117.363C127.263 118.185 127.151 118.995 127.059 119.805C126.926 120.608 126.799 121.412 126.61 122.199C126.264 123.769 125.797 125.311 125.213 126.81C124.646 128.295 123.982 129.741 123.226 131.14C121.734 133.904 119.966 136.511 117.948 138.924C117.446 139.524 116.931 140.114 116.402 140.693C115.877 141.276 115.341 141.851 114.784 142.409C113.668 143.534 112.48 144.586 111.227 145.559C108.687 147.552 105.823 149.101 102.759 150.142C99.6813 151.149 96.4483 151.608 93.2095 151.498C90.0489 151.389 86.9105 150.929 83.8531 150.127C80.8665 149.36 77.9243 148.431 75.0399 147.345C69.3116 145.266 63.7674 142.923 58.081 141.444C52.4121 139.911 46.5263 139.319 40.6624 139.692C37.1542 139.934 33.6949 140.644 30.3782 141.803C28.7298 142.38 27.1295 143.085 25.5922 143.911C24.8114 144.299 24.0832 144.773 23.3358 145.213C22.6201 145.699 21.8859 146.16 21.2106 146.695C19.0014 148.344 16.9859 150.233 15.2021 152.328C14.0429 153.699 12.9536 155.127 11.9383 156.606C10.8256 158.27 10.4534 158.18 10.8676 156.427C10.9974 155.884 11.1729 155.354 11.3923 154.84C11.6732 154.121 12.0023 153.421 12.3772 152.746C13.4248 150.862 14.7074 149.117 16.1949 147.552C20.8826 142.715 26.8832 139.327 33.4716 137.798C35.3242 137.351 37.2048 137.028 39.1008 136.829C40.988 136.622 42.8865 136.532 44.7851 136.559C46.6764 136.574 48.5655 136.692 50.4437 136.914C52.3193 137.124 54.1788 137.424 56.0221 137.814C59.6847 138.599 63.287 139.639 66.8022 140.926C70.2995 142.159 73.7277 143.485 77.1711 144.675C80.5624 145.896 84.0372 146.875 87.569 147.606C91.0119 148.324 94.5552 148.438 98.0379 147.943C99.7436 147.674 101.413 147.216 103.016 146.577C104.617 145.925 106.138 145.092 107.546 144.095C108.978 143.096 110.318 141.975 111.552 140.745C112.806 139.511 113.965 138.185 115.019 136.778C117.383 133.668 119.291 130.241 120.683 126.6C122.024 123.136 122.648 119.441 122.519 115.733C122.373 112.516 121.401 109.39 119.696 106.649C118.859 105.307 117.839 104.086 116.664 103.022L116.231 102.629L115.768 102.277L115.308 101.923C115.157 101.802 114.976 101.727 114.821 101.614C114.511 101.39 114.186 101.188 113.848 101.008C113.52 100.815 113.181 100.642 112.832 100.491L112.309 100.268C112.139 100.186 111.961 100.119 111.779 100.067C111.42 99.9622 111.056 99.8246 110.703 99.7376C109.996 99.5618 109.271 99.4644 108.543 99.4473C105.487 99.4224 102.519 100.458 100.154 102.376C100.005 102.491 99.8654 102.616 99.7284 102.744C99.5871 102.867 99.4514 102.995 99.3239 103.13C99.192 103.261 99.06 103.392 98.9415 103.533L98.6896 103.82C98.5516 103.978 98.4375 104.163 98.3124 104.337L97.9444 104.864C97.8762 104.952 97.8169 105.045 97.7673 105.144L97.6215 105.495L97.33 106.197L97.1842 106.548C97.1553 106.767 97.137 107.04 97.1128 107.284L96.9759 108.786L96.9075 109.537L96.8904 109.729L96.8773 110.118L96.851 110.896L96.6361 117.509L95.7008 115.912L95.4726 115.524L95.344 115.319L95.0864 114.91C94.6767 114.246 94.5673 114.117 94.3568 113.807C94.2781 113.699 94.2432 113.667 94.1843 113.594L94.1044 113.498C94.0923 113.487 94.0788 113.478 94.0641 113.47L93.9905 113.427L93.9788 113.487C93.9719 113.487 93.9862 113.53 93.9618 113.494L93.7805 113.164L93.4181 112.505L92.6932 111.187L91.3532 108.693C91.1208 108.253 90.9152 107.8 90.7374 107.337L90.1436 105.921C89.9279 105.402 89.778 104.858 89.6974 104.303L89.3323 102.572C89.1889 101.996 89.104 101.407 89.0789 100.814L89.0244 99.643C89.004 99.2721 89.0076 98.9002 89.0352 98.5297L89.0895 97.4202C89.5931 91.5938 91.8651 86.0553 95.6065 81.5341C96.4078 80.5531 97.2713 79.6236 98.1917 78.7512L99.6239 77.4918C100.114 77.0964 100.619 76.7303 101.116 76.3496C103.136 74.8932 105.296 73.6384 107.564 72.6035C112.058 70.6178 116.82 69.295 121.7 68.6774C126.511 68.0535 131.373 67.9104 136.212 68.2501C141.067 68.5731 145.87 69.4344 150.532 70.8177C154.732 72.0816 158.739 73.9048 162.444 76.2374C166.213 78.6087 169.511 81.6463 172.173 85.1991C172.348 85.4163 172.508 85.6446 172.653 85.8826L173.106 86.5848L174.01 87.9908L174.798 89.4181L175.19 90.1323L175.549 90.8665C176.533 92.8243 177.361 94.8554 178.026 96.9411C178.691 99.0443 179.167 101.202 179.449 103.388C179.723 105.575 179.799 107.782 179.675 109.982C179.384 114.322 178.485 118.601 177.004 122.696C175.599 126.723 173.942 130.518 172.801 134.363C172.214 136.246 171.8 138.177 171.564 140.133C171.454 141.093 171.408 142.058 171.428 143.024C171.438 143.98 171.522 144.934 171.678 145.878C171.822 146.81 172.05 147.727 172.36 148.618C172.655 149.496 173.044 150.341 173.52 151.138C173.98 151.93 174.539 152.661 175.184 153.314C175.498 153.65 175.837 153.962 176.197 154.249C176.376 154.394 176.551 154.545 176.733 154.686L177.312 155.073C179.801 156.702 182.832 157.518 185.888 157.832C188.956 158.109 192.045 158.067 195.104 157.706C198.171 157.394 201.219 156.993 204.223 156.828C207.144 156.613 210.082 156.789 212.957 157.351C213.273 157.423 213.568 157.488 213.839 157.56L214.578 157.799C214.949 157.915 215.307 158.067 215.649 158.251C216.19 158.515 216.374 158.751 216.242 158.875C215.818 159.061 215.35 159.128 214.89 159.069C214.504 159.088 214.042 159.096 213.505 159.095C212.96 159.116 212.345 159.145 211.646 159.13C207.692 159.065 203.571 159.851 199.273 160.687C197.119 161.099 194.921 161.533 192.585 161.808C190.229 162.103 187.852 162.18 185.482 162.04C183.437 161.922 181.414 161.559 179.458 160.957C177.379 160.318 175.429 159.322 173.697 158.014C172.812 157.337 171.998 156.574 171.265 155.738C171.084 155.525 170.9 155.314 170.725 155.097L170.234 154.423C169.893 153.981 169.631 153.496 169.335 153.029C168.288 151.149 167.551 149.114 167.154 147.002C167.12 146.984 167.087 146.965 167.056 146.944Z" fill="black"/>
</svg>
