<svg width="195" height="196" viewBox="0 0 195 196" fill="none" xmlns="http://www.w3.org/2000/svg">
<path d="M94.2921 160.042C93.5203 158.691 92.855 157.285 92.3015 155.833C92.0214 155.109 91.7808 154.368 91.5581 153.622C91.4534 153.248 91.3506 152.867 91.2572 152.494L91.0128 151.391C90.3737 148.446 90.0878 145.489 89.9897 142.587C89.8795 139.508 89.9717 136.464 89.9802 133.489C89.9857 130.203 90.0103 126.968 89.8418 123.805C89.6987 120.669 89.2396 117.603 88.498 114.638L88.1851 113.543L88.0296 112.995L87.847 112.46L87.4841 111.39L87.0667 110.351L86.8576 109.833L86.6206 109.332C86.4611 109 86.3106 108.661 86.1462 108.333C85.783 107.701 85.4646 107.036 85.0524 106.449C84.297 105.215 83.3824 104.131 82.4054 103.143L81.6483 102.432C81.3895 102.204 81.1069 102.009 80.8399 101.793L80.4356 101.475C80.2961 101.376 80.147 101.292 80.0037 101.199L79.1409 100.647C77.7268 99.7434 77.3094 97.8584 78.2086 96.4371C78.472 96.0207 78.8192 95.6902 79.2141 95.4539L79.2989 95.4043L80.0073 94.9839L80.3637 94.7784C80.4775 94.7016 80.5855 94.6151 80.6972 94.5347L81.3654 94.0499L81.9882 93.4973L82.301 93.2229C82.4016 93.1263 82.493 93.0179 82.5899 92.9166L83.1677 92.3035L83.6975 91.6335L83.9637 91.2995C84.0491 91.1847 84.1243 91.0594 84.2055 90.9404C85.3684 89.2456 86.2626 87.2903 86.9056 85.218C87.548 83.143 87.9231 80.9456 88.0905 78.7332L88.1503 77.9023L88.1716 77.069C88.1894 76.5364 88.1965 75.9115 88.2047 75.3L88.2569 71.6361L88.3679 64.308L88.6151 49.6242C88.7267 46.8926 89.1954 44.2377 89.97 41.6582C90.7491 39.0828 91.8448 36.5809 93.3221 34.2559C95.0863 31.4428 97.6869 29.0329 100.629 27.4566C102.038 26.698 103.348 26.3856 104.43 26.3285C104.702 26.3178 104.96 26.3192 105.205 26.3315C105.45 26.3483 105.685 26.388 105.903 26.43C106.123 26.4736 106.328 26.5266 106.52 26.5877C106.714 26.6578 106.895 26.736 107.063 26.8206C108.042 27.3148 108.122 28.0432 107.63 28.7724C107.128 29.4985 106.066 30.2378 104.652 31.1431C102.851 32.2743 101.07 33.7249 99.5786 35.4141C97.8523 37.3431 96.5326 39.7305 95.6072 42.2734C94.6963 44.832 94.1711 47.536 94.1288 50.2507C94.0686 56.1683 94.1182 62.0845 94.2732 67.9998C94.3162 69.6322 94.3815 71.2977 94.4054 72.9514C94.4174 73.7783 94.419 74.6023 94.4024 75.4178C94.3931 75.8321 94.3834 76.2166 94.3606 76.6487C94.3366 77.0877 94.3066 77.5233 94.2695 77.954C93.8196 82.2546 92.8729 86.5225 90.9847 90.5495C90.0361 92.5535 88.832 94.4876 87.3017 96.2039C85.7779 97.9192 83.9123 99.3986 81.823 100.447L81.964 95.7673C84.1308 97.0515 86.0397 98.748 87.5723 100.676C88.8864 102.338 89.9867 104.129 90.8882 105.987C91.7678 107.852 92.4708 109.771 93.0342 111.714C94.125 115.604 94.6587 119.591 94.7517 123.528C94.9282 130.488 94.2416 137.205 94.688 143.724C94.7304 144.541 94.825 145.345 94.9027 146.153C94.9493 146.555 95.0112 146.953 95.0643 147.353L95.1469 147.953L95.2545 148.546C95.3285 148.94 95.3938 149.338 95.4739 149.731L95.7442 150.9C95.9197 151.681 96.1445 152.412 96.4016 153.157C97.4288 156.115 99.0476 158.904 101.115 161.257C102.772 163.128 104.599 164.723 106.568 165.962C108.537 167.199 110.658 168.081 112.925 168.568C113.446 168.688 113.845 168.819 114.118 168.99C114.39 169.162 114.532 169.369 114.523 169.586C114.507 170.003 113.86 170.543 112.47 170.711C110.512 170.932 108.434 170.731 106.467 170.141C104.496 169.554 102.636 168.606 100.98 167.434C98.2363 165.501 96.0948 162.824 94.3817 160.021C94.3527 160.028 94.3257 160.034 94.2921 160.042Z" fill="black"/>
</svg>
