<svg width="195" height="195" viewBox="0 0 195 195" fill="none" xmlns="http://www.w3.org/2000/svg">
<path d="M95.5234 156.058C96.1976 155.026 96.7959 153.938 97.3052 152.812C97.5636 152.25 97.788 151.675 98.0007 151.097C98.1008 150.805 98.1978 150.517 98.2922 150.219L98.5542 149.293C99.2475 146.818 99.6582 144.216 99.8828 141.547C100.124 138.717 100.203 135.809 100.127 132.871C100.047 129.63 99.9309 126.336 100.015 122.975C100.076 119.587 100.475 116.151 101.226 112.764L101.549 111.496L101.711 110.863L101.905 110.234L102.296 108.976L102.755 107.731L102.989 107.109L103.257 106.496C103.439 106.088 103.611 105.677 103.802 105.272C104.225 104.475 104.602 103.66 105.102 102.893C106.018 101.324 107.172 99.8583 108.459 98.5094L109.465 97.5277C109.811 97.2111 110.189 96.9257 110.552 96.6254L111.104 96.182C111.293 96.0421 111.494 95.9166 111.69 95.7838L112.876 95.0033L113.034 100.219L111.97 99.6297L111.44 99.3302C111.269 99.2214 111.105 99.1023 110.938 98.9881L109.944 98.2895C109.63 98.037 109.327 97.7712 109.02 97.5102L108.562 97.115C108.415 96.9785 108.28 96.8318 108.139 96.69L107.305 95.8278C107.046 95.5272 106.8 95.2174 106.549 94.9109L106.176 94.4487C106.056 94.292 105.95 94.128 105.837 93.9676C104.219 91.6804 103.061 89.1737 102.242 86.618C101.425 84.0573 100.962 81.436 100.749 78.8078L100.675 77.8213L100.644 76.8332L100.603 74.9579L100.541 71.3319L100.425 64.0796L100.204 49.6021C100.031 45.3389 98.7485 40.9379 96.4991 37.3842C95.1473 35.2368 93.5568 33.2688 91.5898 31.7747C89.7148 30.3709 88.4236 29.2768 87.6048 28.0771C87.0092 27.2183 87.0964 26.4952 87.9598 26.0858C88.8073 25.6719 90.4813 25.5882 92.5917 26.4312C93.9203 26.9577 95.2323 27.7215 96.4155 28.6529C97.6014 29.5828 98.6574 30.6746 99.5471 31.8176C101.608 34.451 103.049 37.4074 104.069 40.4434C105.067 43.4836 105.656 46.6586 105.745 49.858C105.869 55.7681 106.103 61.6715 106.442 67.5788C106.536 69.209 106.654 70.8724 106.729 72.5255C106.767 73.352 106.794 74.1759 106.803 74.9916C106.803 75.3946 106.803 75.7955 106.803 76.1937C106.802 76.5605 106.795 76.9252 106.78 77.288C106.707 80.915 107.384 84.6034 108.851 87.8219C109.584 89.4281 110.52 90.9086 111.648 92.1652C112.775 93.4238 114.093 94.4509 115.558 95.2025L115.579 95.2131C116.88 95.8806 117.393 97.4763 116.725 98.7771C116.485 99.2468 116.124 99.6123 115.699 99.8582C114.077 100.799 112.624 102.02 111.352 103.459C110.262 104.7 109.316 106.11 108.528 107.636C107.759 109.175 107.13 110.809 106.619 112.497C105.628 115.892 105.118 119.464 104.931 123.084C104.57 129.606 105.057 136.398 104.367 143.335C104.293 144.201 104.164 145.069 104.05 145.935C103.986 146.368 103.905 146.801 103.832 147.234L103.72 147.883L103.581 148.531C103.486 148.962 103.399 149.393 103.296 149.823L102.954 151.107C102.73 151.963 102.433 152.837 102.11 153.674C100.809 157.039 98.877 160.124 96.4136 162.753C94.4441 164.84 92.0789 166.506 89.5317 167.423C86.9939 168.348 84.2998 168.46 82.0727 167.776C81.5592 167.626 81.2065 167.396 81.0009 167.17C80.7949 166.944 80.7352 166.715 80.8007 166.508C80.9372 166.083 81.544 165.801 82.5566 165.672C85.4434 165.291 88.1587 163.912 90.4761 161.933C92.3782 160.32 94.2045 158.37 95.5862 156.124C95.5658 156.103 95.5469 156.083 95.5234 156.058Z" fill="black"/>
</svg>
