<svg width="194" height="195" viewBox="0 0 194 195" fill="none" xmlns="http://www.w3.org/2000/svg">
<path d="M94.4967 174.575C90.1677 170.785 88.6677 164.493 88.0231 158.592C87.1994 151.049 87.462 132.817 86.2154 125.339C83.2146 107.336 74.7907 105.441 71.734 101.431C70.4453 99.7406 69.8261 97.2023 70.9746 95.4139C71.7666 94.1806 73.1715 93.6055 74.4413 92.9611C82.941 88.6477 86.3203 79.2864 88.1656 69.4805C90.0108 59.6746 88.5111 48.025 89.0104 38.0332C89.3214 31.8117 91.2019 24.2499 95.9416 20.3794C101.917 15.4998 111.668 14.9836 118.607 18.0066C126.102 21.2722 122.763 28.7055 116.827 29.8125C96.1887 33.662 113.092 53.615 105.739 81.8318C103.724 89.5669 99.4216 94.0674 92.9621 98.2376C116.283 120.439 104.059 158.79 109.481 164.475C113.06 168.228 124.339 161.366 123.595 172.577C123.274 177.416 114.911 178.65 111.863 178.789C104.272 179.137 98.9606 178.483 94.4967 174.575Z" fill="black"/>
<path d="M106.644 165.743C106.195 165.061 105.957 164.441 105.763 163.86L105.63 163.429L105.526 163.018C105.454 162.739 105.408 162.482 105.358 162.22C105.17 161.183 105.09 160.227 105.037 159.294C104.938 157.433 104.962 155.67 104.997 153.923C105.078 150.439 105.225 147.042 105.264 143.659C105.353 136.907 105.047 130.205 103.732 123.729C103.035 120.303 102.057 116.942 100.714 113.75C99.3732 110.559 97.6626 107.541 95.5809 104.824C95.2537 104.397 94.9229 103.973 94.5736 103.564C94.2358 103.145 93.8762 102.745 93.5175 102.345C92.801 101.543 92.0394 100.784 91.2651 100.038C90.2766 99.0865 90.2428 97.5095 91.1897 96.5159C91.3203 96.3789 91.4625 96.2603 91.6136 96.1598L91.6285 96.1506C93.4531 94.9532 95.1791 93.675 96.717 92.2624C98.2321 90.8335 99.5793 89.2869 100.617 87.5456C101.161 86.6907 101.594 85.7669 102.016 84.8385C102.398 83.8876 102.76 82.9237 103.031 81.9146L103.242 81.1608L103.435 80.3649C103.569 79.8359 103.674 79.2999 103.794 78.7675C104.011 77.6974 104.213 76.6242 104.369 75.5426C105.022 71.2192 105.177 66.8207 104.971 62.3959C104.778 57.9617 104.204 53.5267 103.711 48.914C103.479 46.6011 103.257 44.2414 103.306 41.7257C103.339 40.4671 103.433 39.169 103.703 37.8239C103.836 37.1528 104.021 36.4708 104.253 35.7902C104.501 35.1103 104.784 34.4286 105.16 33.774C105.893 32.4639 106.915 31.2619 108.075 30.3536C109.232 29.43 110.489 28.7503 111.735 28.2472C112.985 27.7392 114.233 27.384 115.465 27.1105L116.35 26.924C116.529 26.8839 116.707 26.8432 116.881 26.7843C117.227 26.6697 117.57 26.5343 117.883 26.349C118.512 25.9905 119.064 25.5003 119.428 24.961C119.803 24.4256 119.982 23.8669 119.974 23.4274C119.965 22.9859 119.85 22.6142 119.496 22.176C119.142 21.747 118.561 21.2903 117.802 20.9324C117.453 20.7517 116.959 20.5794 116.515 20.4012C116.063 20.222 115.58 20.1013 115.116 19.9441C114.634 19.8282 114.156 19.6989 113.669 19.599C113.175 19.5229 112.691 19.4007 112.191 19.3556C110.205 19.0973 108.172 19.0996 106.198 19.3683C103.62 19.7242 101.128 20.5515 99.0769 21.8785C98.8061 22.0278 98.575 22.2206 98.3323 22.3996C98.0932 22.5808 97.8333 22.7532 97.641 22.9493C97.2157 23.3132 96.8194 23.7358 96.4448 24.1916C95.6957 25.1051 95.0489 26.1783 94.5039 27.3412C93.4263 29.6838 92.7456 32.3484 92.3665 35.0634L92.2399 36.0862L92.1429 37.1139L92.077 38.144L92.0366 39.2195C91.98 40.6544 91.976 42.1128 91.9785 43.576C92.0101 49.4441 92.3623 55.4713 92.0989 61.665C92.0675 62.4388 92.0092 63.2194 91.9648 63.9964C91.8923 64.779 91.8343 65.5594 91.7439 66.3447C91.6377 67.1319 91.5683 67.9152 91.4234 68.706L91.2269 69.8898C91.1597 70.2821 91.0784 70.6528 91.0045 71.0353C90.3981 74.0717 89.6401 77.1276 88.527 80.142L88.1051 81.2707L87.6305 82.3904C87.332 83.1404 86.9387 83.8691 86.5895 84.607C85.8088 86.058 84.9765 87.5018 83.9364 88.8407C83.4522 89.5296 82.8703 90.159 82.3132 90.8021C82.0356 91.1247 81.7107 91.4109 81.41 91.7154C81.099 92.0111 80.8083 92.3264 80.4667 92.5918L79.47 93.4148C79.1432 93.6958 78.7696 93.9176 78.4203 94.1698C78.0594 94.4054 77.7206 94.6782 77.3395 94.8791L76.2149 95.5145C75.4408 95.9524 74.7754 96.2294 74.3268 96.4982C73.8636 96.7609 73.6537 96.9647 73.5868 97.065C73.5252 97.1552 73.4805 97.2502 73.457 97.5084C73.4476 97.6327 73.4618 97.7902 73.4819 97.9582C73.5182 98.1312 73.5512 98.3158 73.6241 98.5059C73.7547 98.8874 73.961 99.2669 74.2113 99.5831L74.4439 99.8459C74.517 99.9343 74.5877 100.025 74.7053 100.127C74.9266 100.327 75.0933 100.516 75.3682 100.737C76.3528 101.591 77.6138 102.541 78.8276 103.627C80.0411 104.727 81.2263 105.933 82.2679 107.263C82.5458 107.581 82.7717 107.937 83.0204 108.277C83.261 108.621 83.5128 108.961 83.7419 109.312L84.3879 110.387C84.5976 110.747 84.8307 111.099 85.0038 111.473C86.5517 114.411 87.6348 117.498 88.3558 120.586C88.5733 121.357 88.7128 122.131 88.8632 122.905C89.0064 123.686 89.1818 124.437 89.2961 125.242L89.4668 126.45L89.5923 127.623C89.684 128.411 89.7308 129.171 89.7969 129.943C90.0245 133.009 90.1393 136.023 90.2418 139.03C90.3644 142.657 90.3939 146.283 90.4371 149.874C90.4543 151.672 90.4875 153.451 90.5352 155.212C90.5917 156.968 90.6876 158.645 90.8816 160.34C91.5861 166.785 92.8841 170.45 93.9426 173.018C94.1203 173.498 94.2758 173.857 94.3336 174.161C94.3952 174.461 94.3785 174.686 94.2785 174.826C94.0841 175.104 93.5303 175.064 92.6581 174.601C91.8004 174.131 90.6648 173.178 89.5563 171.654C88.4403 170.138 87.4239 168.048 86.6844 165.544C85.7517 162.372 85.2908 159.02 85.0693 155.687C84.8522 152.387 84.7846 149.122 84.7294 145.947C84.6698 142.297 84.6138 138.663 84.4862 135.056C84.4136 133.258 84.3393 131.457 84.2014 129.693C84.1442 128.804 84.0495 127.941 83.9606 127.077L83.7905 125.819L83.551 124.538C82.9319 121.113 81.9889 117.776 80.5137 114.789C79.8093 113.273 78.8977 111.907 77.9017 110.618C76.8989 109.33 75.7249 108.204 74.4106 107.104L72.3147 105.397L71.7503 104.92L71.4675 104.677L71.1753 104.402C70.981 104.217 70.7877 104.038 70.5941 103.845L70.0136 103.182C69.82 102.97 69.6366 102.713 69.4595 102.457C69.2909 102.199 69.1283 101.937 68.9851 101.665C68.6958 101.124 68.4561 100.555 68.2714 99.9567C67.921 98.7589 67.7543 97.4067 68.0953 95.9635C68.2651 95.2495 68.5787 94.5292 69.0059 93.8973C69.4323 93.2683 69.9592 92.7529 70.4743 92.3569C71.5147 91.5594 72.4867 91.1448 73.2248 90.7553C74.6304 90.0017 75.9236 89.1053 77.0906 88.0322C79.3921 85.8522 81.1519 83.0411 82.4097 79.9195C82.7422 79.1501 83.0116 78.3406 83.2975 77.5421C83.5482 76.7229 83.8175 75.9145 84.0294 75.0747C84.4867 73.4136 84.8516 71.7063 85.1667 69.9777C86.5843 62.5515 85.8572 54.3606 85.9275 46.4796C85.9358 44.9062 85.9593 43.3169 85.9997 41.7204C86.0334 40.9167 86.0457 40.1203 86.0953 39.3111L86.1611 38.1001C86.1825 37.6971 86.2244 37.2686 86.2552 36.8544C86.5629 33.5207 87.2137 30.2069 88.4214 26.9713C89.0305 25.3574 89.7878 23.7639 90.7726 22.2515C91.7501 20.7468 92.9909 19.3023 94.477 18.1436C95.9041 16.9962 97.494 16.1374 99.1153 15.4363C100.741 14.7313 102.431 14.2606 104.131 13.9454C104.981 13.7672 105.838 13.6867 106.694 13.5839C107.552 13.5342 108.41 13.465 109.269 13.4864C110.985 13.4911 112.702 13.6392 114.395 13.9759C116.087 14.3112 117.77 14.7627 119.393 15.4651C120.228 15.8112 121.12 16.2619 121.953 16.8544C122.788 17.4549 123.602 18.2065 124.255 19.1737C124.907 20.1355 125.369 21.3131 125.512 22.5286C125.655 23.7457 125.474 24.9585 125.098 26.034C124.31 28.1823 122.822 29.8148 121.079 30.9093C120.204 31.4585 119.256 31.8769 118.269 32.1532C118.024 32.2299 117.772 32.2783 117.522 32.3335L116.936 32.4528C116.587 32.5163 116.248 32.5926 115.913 32.6748C115.57 32.7471 115.253 32.8528 114.921 32.9385C114.607 33.0457 114.279 33.1364 113.979 33.2586C113.363 33.4829 112.788 33.7491 112.27 34.0554C110.709 34.9621 109.708 36.1916 109.164 37.9454C108.613 39.6915 108.52 41.8334 108.593 44.0251C108.669 46.227 108.906 48.5097 109.142 50.8174C109.383 53.1276 109.63 55.4711 109.814 57.8359C110.185 62.5657 110.279 67.3961 109.822 72.2076C109.597 74.6127 109.237 77.0097 108.737 79.378C108.482 80.5691 108.215 81.723 107.871 82.9212L107.608 83.8246C107.517 84.1252 107.406 84.4221 107.305 84.7208C107.11 85.3202 106.865 85.9068 106.624 86.494C105.999 87.9532 105.247 89.3707 104.366 90.7046C103.486 92.0398 102.464 93.2713 101.373 94.4054C99.1836 96.6846 96.6867 98.5026 94.1667 100.123L94.4948 96.6106C97.0759 99.108 99.3655 101.915 101.284 104.948C103.203 107.982 104.744 111.234 105.948 114.581C108.361 121.291 109.414 128.331 109.788 135.281C109.975 138.761 109.992 142.233 109.936 145.68C109.884 149.124 109.738 152.557 109.728 155.913C109.731 157.582 109.765 159.252 109.975 160.774C110.081 161.524 110.246 162.248 110.472 162.755C110.591 163.014 110.692 163.157 110.809 163.273C110.844 163.303 110.878 163.335 110.91 163.37C110.947 163.401 110.996 163.424 111.036 163.455C111.107 163.522 111.233 163.56 111.331 163.62C111.792 163.823 112.478 163.935 113.222 163.977C113.972 164.021 114.789 164.003 115.641 163.986C116.494 163.97 117.386 163.95 118.332 164.006C119.275 164.067 120.288 164.194 121.345 164.595C121.598 164.677 121.854 164.822 122.105 164.943C122.355 165.077 122.599 165.248 122.838 165.413C123.3 165.781 123.729 166.212 124.049 166.698C124.707 167.67 125 168.72 125.149 169.687C125.206 170.168 125.259 170.649 125.255 171.106C125.277 171.574 125.241 172.016 125.22 172.463C125.218 172.661 125.173 172.973 125.134 173.244C125.074 173.519 125.019 173.799 124.92 174.063C124.748 174.604 124.468 175.089 124.167 175.534C123.54 176.408 122.762 177.05 121.976 177.538C121.187 178.033 120.378 178.394 119.572 178.683C117.957 179.261 116.347 179.575 114.754 179.765C113.957 179.856 113.165 179.916 112.365 179.933C111.956 179.943 111.577 179.933 111.195 179.929C110.813 179.924 110.433 179.919 110.051 179.903C108.53 179.855 107.02 179.751 105.536 179.537C104.054 179.325 102.598 179.008 101.218 178.533C99.8383 178.06 98.541 177.424 97.3946 176.635C96.3424 175.901 95.7062 175.201 95.3866 174.681C95.0666 174.159 95.0317 173.847 95.2384 173.741C95.6789 173.497 96.9212 174.275 99.2929 175.216C102.682 176.525 106.716 176.513 110.886 176.227L111.669 176.172C111.916 176.153 112.136 176.131 112.379 176.102C112.857 176.046 113.343 175.974 113.824 175.888C114.789 175.718 115.742 175.491 116.642 175.209C117.536 174.925 118.39 174.582 119.082 174.178C119.776 173.781 120.293 173.312 120.486 172.971C120.563 172.83 120.604 172.715 120.633 172.601C120.635 172.571 120.64 172.543 120.649 172.514C120.653 172.484 120.649 172.45 120.654 172.418C120.656 172.395 120.661 172.403 120.661 172.354L120.663 172.217L120.669 171.944C120.691 171.568 120.655 171.244 120.647 170.903C120.624 170.752 120.605 170.602 120.588 170.45C120.573 170.296 120.527 170.189 120.506 170.054C120.446 169.809 120.366 169.627 120.3 169.49C120.264 169.424 120.225 169.386 120.198 169.33C120.15 169.307 120.145 169.244 120.093 169.226C120.073 169.212 120.056 169.194 120.041 169.173C120.013 169.16 119.986 169.146 119.962 169.128C119.927 169.085 119.826 169.067 119.765 169.021C119.584 168.957 119.374 168.876 119.077 168.829C118.505 168.719 117.754 168.679 116.921 168.685C116.085 168.687 115.172 168.726 114.17 168.724C113.164 168.713 112.078 168.703 110.767 168.39C110.131 168.25 109.4 167.974 108.696 167.57C107.984 167.148 107.294 166.535 106.782 165.794C106.737 165.78 106.695 165.766 106.644 165.743Z" fill="black"/>
</svg>
