<svg width="194" height="195" viewBox="0 0 194 195" fill="none" xmlns="http://www.w3.org/2000/svg">
<path d="M98.2146 174.997C102.664 171.35 104.366 165.11 105.2 159.233C106.267 151.722 106.592 133.491 108.079 126.056C111.659 108.161 120.14 106.542 123.324 102.633C124.667 100.986 125.367 98.4689 124.277 96.644C123.525 95.3856 122.14 94.7651 120.891 94.0796C112.535 89.4916 109.46 80.025 107.932 70.1642C106.404 60.3033 108.278 48.7087 108.101 38.7059C107.991 32.4775 106.356 24.8584 101.743 20.8356C95.9281 15.7638 86.1988 14.9301 79.1665 17.7255C71.5701 20.7452 74.6674 28.2834 80.564 29.5832C101.068 34.103 83.5298 53.4949 89.9687 81.9364C91.7338 89.7331 95.8886 94.3714 102.21 98.7499C78.1854 120.18 89.1661 158.908 83.5634 164.414C79.8654 168.049 68.8143 160.823 69.1962 172.052C69.361 176.899 77.6801 178.405 80.7214 178.643C88.2973 179.238 93.6271 178.757 98.2146 174.997Z" fill="black"/>
<path d="M81.4449 162.236C81.4616 162.229 81.4959 162.158 81.5359 162.099C81.556 162.062 81.576 162.008 81.5984 161.964C81.6209 161.921 81.644 161.872 81.6651 161.806L81.7337 161.627L81.7979 161.418C81.8443 161.284 81.8807 161.12 81.9212 160.964C82.0772 160.32 82.1901 159.569 82.2761 158.793C82.4477 157.235 82.5235 155.566 82.583 153.884C82.6923 150.508 82.7367 147.045 82.8884 143.569C83.1841 136.617 83.8783 129.548 85.6645 122.634C86.61 118.974 87.8718 115.358 89.5193 111.9C91.1635 108.443 93.1998 105.151 95.6054 102.158C95.9836 101.687 96.3663 101.22 96.7683 100.769C97.1592 100.309 97.572 99.8679 97.9852 99.4275C98.8108 98.5457 99.6838 97.7112 100.573 96.8949L100.81 100.792C98.8603 99.4491 96.9415 97.9733 95.1597 96.2633C93.398 94.5355 91.7616 92.5765 90.5039 90.3693C89.8489 89.2813 89.3279 88.1246 88.8357 86.9641C88.3866 85.7904 87.9758 84.6022 87.6763 83.3996L87.4457 82.499L87.2534 81.6262C87.1193 81.0455 87.0151 80.4587 86.8971 79.8744C86.6845 78.7021 86.4884 77.5258 86.3417 76.3438C85.7262 71.6177 85.6616 66.8388 85.9769 62.1463C86.2775 57.4539 86.9753 52.8331 87.5444 48.3753C87.818 46.152 88.0578 43.9559 88.0576 41.9008C88.0584 39.8508 87.7911 37.9545 87.0473 36.5998C86.8588 36.2604 86.6599 35.9361 86.4111 35.6471C86.3001 35.4931 86.1538 35.3636 86.029 35.2182C85.8801 35.0892 85.7533 34.9444 85.59 34.8231C84.9772 34.3115 84.2299 33.8657 83.3759 33.5011C82.5262 33.133 81.5886 32.8362 80.6084 32.5956L79.8288 32.4123C79.4541 32.3234 79.0822 32.2238 78.718 32.0957C77.9907 31.8428 77.2812 31.5292 76.6191 31.126C75.2925 30.3282 74.1088 29.2564 73.2129 27.8908C72.3198 26.5411 71.6929 24.8502 71.7244 22.9956C71.737 22.0771 71.9206 21.1397 72.2601 20.2794C72.5987 19.4203 73.0803 18.6308 73.6433 17.9845C74.77 16.6777 76.1142 15.8185 77.4165 15.2274C78.0919 14.9117 78.679 14.7255 79.297 14.4988C79.9097 14.2783 80.5347 14.1297 81.1544 13.9461C81.7796 13.8073 82.4049 13.66 83.0336 13.5485C83.6641 13.4614 84.2927 13.3324 84.926 13.2868C87.4552 13.0261 90.0051 13.097 92.5242 13.5116C94.1687 13.8023 95.8101 14.1908 97.399 14.8176C98.9848 15.4368 100.553 16.1791 101.993 17.199C102.366 17.4283 102.708 17.7136 103.057 17.9874C103.404 18.2659 103.754 18.5243 104.087 18.8604C104.773 19.4881 105.382 20.1755 105.933 20.8871C107.034 22.315 107.883 23.8527 108.56 25.4135C109.888 28.5474 110.58 31.7665 110.936 34.9768L111.049 36.1829L111.126 37.3904L111.167 38.5998L111.176 39.7658C111.19 41.3196 111.148 42.8513 111.099 44.3769C110.875 50.4616 110.353 56.3797 110.422 62.1471C110.428 62.8675 110.46 63.5793 110.477 64.2958C110.522 65.0031 110.551 65.7156 110.61 66.4176C110.683 67.1139 110.72 67.8238 110.826 68.5073L110.963 69.5405C111.01 69.8866 111.078 70.2485 111.134 70.6019C111.607 73.4423 112.211 76.2272 113.088 78.8512C114.776 84.122 117.698 88.7162 122.097 91.1902C122.603 91.5155 123.309 91.8312 124.131 92.343C124.541 92.5984 124.984 92.9007 125.432 93.2895C125.878 93.6769 126.328 94.1563 126.709 94.7205C127.496 95.8643 127.868 97.2672 127.891 98.4987C127.916 99.7447 127.667 100.87 127.275 101.887C126.883 102.904 126.334 103.838 125.638 104.672L125.12 105.239C124.945 105.429 124.767 105.617 124.6 105.757C124.266 106.053 123.906 106.394 123.592 106.63C122.283 107.681 121.131 108.485 120.094 109.356C118.046 111.08 116.36 113.006 115.054 115.332C113.741 117.637 112.72 120.198 111.996 122.908C111.782 123.569 111.635 124.263 111.478 124.951C111.33 125.636 111.139 126.337 111.023 127.008L110.845 128.015L110.698 129.067C110.592 129.761 110.523 130.492 110.437 131.207C110.125 134.096 109.911 137.054 109.711 140.018C109.471 143.597 109.214 147.214 108.887 150.839C108.728 152.649 108.538 154.47 108.324 156.294C108.102 158.12 107.816 160.007 107.43 161.826C106.694 165.34 105.535 168.222 104.135 170.334C103.803 170.867 103.42 171.34 103.074 171.781C102.691 172.205 102.353 172.607 101.969 172.939C101.784 173.108 101.603 173.269 101.427 173.42C101.242 173.566 101.056 173.7 100.879 173.827C100.531 174.087 100.173 174.29 99.8365 174.462C99.3593 174.726 98.938 174.833 98.6363 174.874C98.3309 174.91 98.1245 174.861 98.0049 174.738C97.7626 174.488 97.8791 173.968 98.2334 173.223C98.5805 172.466 99.1278 171.443 99.72 170.072C100.318 168.705 100.925 166.951 101.471 164.788C102.157 162.046 102.578 159.016 102.849 155.91C103.125 152.765 103.341 149.522 103.581 146.371C103.854 142.738 104.11 139.091 104.427 135.425C104.595 133.589 104.76 131.755 104.993 129.895C105.097 128.971 105.243 128.028 105.384 127.087L105.645 125.648L105.966 124.257C106.805 120.562 107.985 116.863 109.855 113.386C110.751 111.635 111.913 109.988 113.189 108.452C114.47 106.913 115.975 105.56 117.475 104.378C118.965 103.197 120.49 102.157 121.307 101.211C121.721 100.774 121.989 100.238 122.179 99.6997C122.35 99.1643 122.388 98.6442 122.304 98.3099C122.207 97.9751 122.13 97.8074 121.727 97.4745C121.335 97.1503 120.649 96.7985 119.789 96.3447C118.012 95.3642 116.328 94.1588 114.845 92.7516C111.9 89.8989 109.796 86.3664 108.36 82.7524C107.979 81.8497 107.675 80.9332 107.355 80.0185C107.075 79.0997 106.775 78.1806 106.543 77.2568C106.04 75.411 105.645 73.5585 105.305 71.7104C105.108 70.706 104.955 69.6296 104.799 68.5638C104.679 67.5011 104.555 66.4325 104.489 65.3711C104.338 63.2459 104.277 61.126 104.3 59.0415C104.331 54.8657 104.606 50.8026 104.893 46.9459C105.011 45.4044 105.105 43.876 105.176 42.3531C105.198 41.5971 105.24 40.833 105.244 40.0824L105.258 38.9532C105.263 38.5759 105.249 38.2256 105.246 37.8602C105.167 34.9678 104.748 32.0654 103.896 29.3982C103.044 26.7375 101.727 24.3172 99.8495 22.7382C98.878 21.8831 97.7216 21.2045 96.5108 20.6252C95.2981 20.0412 93.9801 19.6234 92.6306 19.3265C91.9603 19.1578 91.2669 19.0758 90.5809 18.965C89.8858 18.9065 89.193 18.8214 88.493 18.8194C87.0978 18.7771 85.6925 18.8513 84.3231 19.081C82.9571 19.3075 81.6007 19.6216 80.345 20.1221C79.734 20.3512 79.2223 20.5981 78.7714 20.8936C78.3326 21.1881 77.9797 21.5107 77.7474 21.8343C77.5158 22.16 77.39 22.4754 77.3304 22.8116C77.2788 23.1492 77.3131 23.5248 77.4312 23.929C77.6877 24.7374 78.3379 25.6035 79.21 26.1887C79.6425 26.4862 80.1222 26.7243 80.6257 26.89C80.7494 26.9391 80.8803 26.9645 81.0079 27.001L81.1039 27.0276L81.2489 27.0635L81.5592 27.1392C81.9724 27.2349 82.3869 27.3474 82.802 27.4697C83.2159 27.5798 83.6329 27.7337 84.0475 27.8664C84.4633 28.0267 84.8782 28.1686 85.2924 28.3575C86.1199 28.7085 86.9454 29.1362 87.741 29.6633C88.9266 30.4281 90.0431 31.455 90.9246 32.6698C91.3609 33.2809 91.7315 33.9329 92.0443 34.6017C92.3411 35.2736 92.587 35.9578 92.7668 36.6406C93.4724 39.3872 93.3945 41.9701 93.2272 44.408C93.0398 46.8523 92.6992 49.1915 92.3745 51.5039C92.045 53.8137 91.7206 56.0922 91.4605 58.3636C90.939 62.9014 90.6991 67.4183 90.9579 71.899C91.0837 74.1384 91.3332 76.3648 91.7078 78.5687C91.8962 79.6618 92.1101 80.7864 92.3663 81.836L92.5582 82.6168C92.6237 82.8762 92.7088 83.1271 92.7825 83.3829C92.9237 83.8979 93.1089 84.3914 93.2864 84.8887C93.7527 86.1196 94.315 87.3013 94.9843 88.4209C95.6527 89.5412 96.4464 90.587 97.3201 91.5801C99.0646 93.5709 101.202 95.2965 103.475 96.905L103.5 96.9226C104.504 97.6328 104.745 99.0266 104.038 100.036C103.938 100.179 103.815 100.314 103.69 100.426C101.268 102.571 99.0985 104.997 97.2413 107.659C95.3845 110.322 93.8456 113.218 92.5967 116.251C90.0938 122.328 88.7777 128.919 88.1167 135.593C87.784 138.935 87.6137 142.307 87.5156 145.7C87.4121 149.097 87.4055 152.507 87.2591 155.992C87.1738 157.739 87.0721 159.498 86.7339 161.354C86.5498 162.286 86.3272 163.247 85.8143 164.285C85.5595 164.794 85.17 165.368 84.656 165.824C84.5294 165.933 84.4008 166.039 84.2708 166.143C84.1388 166.24 83.9991 166.32 83.8614 166.406C83.5844 166.588 83.3031 166.69 83.0197 166.817C81.8884 167.237 80.8533 167.3 79.9036 167.32C78.9519 167.331 78.0676 167.267 77.2196 167.213C76.3733 167.158 75.5633 167.107 74.808 167.119C74.0552 167.129 73.3576 167.211 72.8108 167.393C72.2728 167.567 71.9194 167.815 71.6345 168.192C71.3459 168.566 71.1298 169.11 70.9928 169.741C70.8659 170.381 70.816 171.091 70.8159 171.818C70.8058 172.024 70.8259 172.112 70.827 172.242C70.849 172.361 70.8543 172.482 70.8922 172.597C70.9396 172.832 71.0551 173.056 71.1783 173.285C71.4492 173.738 71.8707 174.184 72.3964 174.574C72.9152 174.969 73.5207 175.317 74.1616 175.618C75.4449 176.226 76.8569 176.671 78.2776 177.014C78.9885 177.184 79.7073 177.33 80.416 177.439C80.7613 177.494 81.1365 177.535 81.5061 177.582C81.8757 177.628 82.2444 177.676 82.611 177.713C84.0795 177.881 85.5292 178.01 86.9591 178.052C89.8131 178.147 92.624 177.892 95.2219 176.902C96.4102 176.447 97.2921 176.057 97.8948 175.85C98.4965 175.641 98.8489 175.648 98.9042 175.874C98.955 176.094 98.7267 176.558 98.1179 177.197C97.5083 177.828 96.4904 178.628 94.9753 179.338C93.9066 179.845 92.7791 180.227 91.6423 180.513C90.5031 180.813 89.3531 180.994 88.209 181.125C85.9183 181.376 83.6555 181.382 81.4327 181.297L80.5981 181.264C80.3054 181.25 79.9862 181.228 79.6912 181.201C79.0916 181.148 78.5031 181.076 77.9147 180.986C76.7389 180.807 75.567 180.557 74.3839 180.21C73.2013 179.855 72.0072 179.415 70.8024 178.741C70.2011 178.402 69.597 178.005 69.0077 177.507C68.4214 177.008 67.8435 176.403 67.3612 175.646C66.9673 175.022 66.6483 174.303 66.4575 173.541C66.4147 173.35 66.3755 173.158 66.3397 172.965C66.3099 172.773 66.2946 172.581 66.2764 172.388C66.2695 172.299 66.2574 172.178 66.257 172.115L66.2536 171.912L66.2481 171.508C66.2275 170.979 66.2756 170.399 66.3123 169.834L66.4415 168.939C66.4842 168.643 66.5802 168.316 66.6541 168.007C66.8265 167.374 67.0878 166.708 67.4621 166.049C67.6512 165.722 67.8903 165.395 68.1302 165.085C68.4062 164.79 68.6659 164.473 68.9899 164.228C69.1468 164.1 69.3065 163.975 69.4679 163.853C69.6329 163.745 69.8011 163.643 69.9705 163.542C70.3117 163.326 70.6491 163.202 70.995 163.046C71.6674 162.799 72.3358 162.63 72.9405 162.548C74.1663 162.37 75.2445 162.39 76.23 162.431C77.214 162.476 78.1196 162.552 78.9388 162.583C79.7489 162.617 80.501 162.602 80.9654 162.499C81.2213 162.46 81.3426 162.386 81.4324 162.354C81.4558 162.33 81.4941 162.324 81.4941 162.308C81.5002 162.304 81.5172 162.305 81.5051 162.303C81.5015 162.296 81.5006 162.328 81.5106 162.297C81.4898 162.278 81.4703 162.26 81.4449 162.236Z" fill="black"/>
</svg>
