<svg width="230" height="230" viewBox="0 0 230 230" fill="none" xmlns="http://www.w3.org/2000/svg">
<path d="M194.345 105.452L194.302 108.065C194.296 108.936 194.214 109.803 194.173 110.673C194.102 112.414 193.895 114.142 193.731 115.873C193.298 119.323 192.78 122.764 192.006 126.149L191.734 127.422L191.423 128.685L190.792 131.209L190.081 133.71L189.724 134.961L189.329 136.198L188.535 138.672L187.669 141.12C187.389 141.939 187.082 142.748 186.764 143.553L185.823 145.971C183.21 152.374 180.16 158.59 176.694 164.574C173.204 170.546 169.215 176.311 164.357 181.365C161.932 183.907 159.29 186.232 156.462 188.315C153.604 190.373 150.562 192.164 147.376 193.665C144.18 195.121 140.868 196.31 137.476 197.22C134.078 198.077 130.621 198.678 127.135 199.021C120.157 199.646 113.126 199.205 106.282 197.713C99.4639 196.175 92.8909 193.704 86.7482 190.37C85.9156 189.967 85.1443 189.454 84.3454 188.991L81.9688 187.564L79.6768 186.006C78.9157 185.482 78.1369 184.983 77.4175 184.402C75.9598 183.268 74.4569 182.187 73.0866 180.946L70.9878 179.135L68.9901 177.215C66.3409 174.638 63.8575 171.895 61.5549 169.004C60.9835 168.279 60.4478 167.525 59.8928 166.787L59.0673 165.674C58.7884 165.306 58.5168 164.932 58.2698 164.541L56.7431 162.228C56.4909 161.841 56.2301 161.46 55.9848 161.068L55.2863 159.871C51.5021 153.515 48.5635 146.692 46.5447 139.575C44.5729 132.471 43.432 125.161 43.1448 117.794C42.9765 112.891 43.1525 107.982 43.6715 103.103C44.2424 98.2319 45.1406 93.4046 46.3601 88.6541C48.8867 79.1843 52.6132 70.0049 57.9032 61.6804C60.5482 57.5046 63.6308 53.6225 67.0986 50.1001C70.6046 46.6008 74.5033 43.5183 78.717 40.9141C82.9252 38.3363 87.3737 36.1731 91.9999 34.4549L92.8622 34.1252L93.7359 33.8287L95.4834 33.2361C96.6518 32.8533 97.8368 32.5242 99.0133 32.1673C100.204 31.8657 101.388 31.5349 102.585 31.2585L104.383 30.8588L105.282 30.6592L106.187 30.4898C115.847 28.5961 125.742 28.2011 135.522 29.3184C145.275 30.5301 154.93 33.3854 163.517 38.3896C172.148 43.4305 179.282 50.6769 184.188 59.3852C186.629 63.6796 188.645 68.2019 190.208 72.8877C191.764 77.5397 193.015 82.2886 193.951 87.1039C194.905 91.9008 195.607 96.7311 196.159 101.568C196.709 106.404 197.111 111.27 197.263 116.157C197.564 125.914 196.885 135.84 194.207 145.383C191.574 154.992 186.726 163.85 180.052 171.247C173.466 178.651 165.526 184.729 156.661 189.156C139.031 198.02 118.277 200.582 99.0549 195.881L97.2582 195.428L95.4775 194.914C94.2851 194.589 93.1223 194.166 91.9464 193.786C89.6211 192.949 87.3121 192.054 85.0779 190.996C80.5909 188.92 76.3112 186.423 72.2965 183.538C68.2835 180.661 64.5322 177.435 61.0863 173.898C57.6508 170.356 54.5213 166.529 51.7315 162.458C44.8177 152.4 40.2099 140.939 38.2369 128.894C36.3949 116.812 37.3521 104.469 41.0347 92.8165C44.6603 81.1634 50.7475 70.4254 58.8839 61.3295C62.9475 56.7864 67.5127 52.7184 72.4924 49.2034C77.4997 45.7379 82.8659 42.822 88.498 40.5061C99.7458 35.9385 111.658 33.2202 123.774 32.4566C129.906 32.0964 136.057 32.6503 142.025 34.1002C147.987 35.6274 153.67 38.086 158.866 41.3851C164.035 44.6678 168.739 48.6321 172.85 53.171C176.956 57.6899 180.498 62.6913 183.397 68.0653C186.312 73.429 188.544 79.1362 190.041 85.054C191.558 90.9403 192.47 96.966 192.765 103.038C193.378 115.164 191.717 127.295 188.538 138.923C186.936 144.736 184.97 150.443 182.653 156.01C180.363 161.597 177.678 167.015 174.62 172.221C171.549 177.459 167.967 182.38 163.925 186.911C159.852 191.461 155.203 195.46 150.095 198.806C144.969 202.177 139.346 204.722 133.431 206.35C127.491 207.908 121.331 208.455 115.21 207.969C109.154 207.476 103.176 206.285 97.3941 204.419C94.5117 203.511 91.6744 202.482 88.8821 201.334C86.0939 200.177 83.359 198.898 80.6773 197.498C75.3043 194.701 70.2512 191.328 65.6069 187.439C63.2968 185.474 61.1111 183.367 59.0622 181.131C58.5629 180.56 58.0304 180.018 57.5587 179.424L56.1304 177.651L55.4168 176.765L55.0601 176.322L54.7329 175.857L53.427 173.994C46.5405 163.987 42.4757 152.239 40.9872 140.288C39.4936 128.29 40.4788 116.114 43.8818 104.512C44.09 103.627 44.4108 102.776 44.6871 101.911L45.537 99.3231C46.1585 97.6171 46.8312 95.928 47.4918 94.2355L48.6045 91.7466L49.1611 90.5022C49.3416 90.0851 49.5332 89.6731 49.7468 89.2717L50.9851 86.8421L51.6044 85.6277C51.8114 85.2229 52.052 84.8365 52.2741 84.4403C55.8235 78.0932 60.0551 72.1525 64.8936 66.7236C69.7095 61.3095 75.1265 56.4616 81.0398 52.2736C86.9278 48.1482 93.2705 44.7134 99.943 42.0367C105.745 39.7063 111.758 37.9406 117.899 36.764C122.938 35.7968 128.048 35.2403 133.177 35.1C140.451 34.8591 147.728 35.4943 154.851 36.9918C155.337 37.093 155.798 37.1666 156.219 37.2748L157.394 37.5764L159.207 38.0534C159.727 38.173 160.239 38.3265 160.738 38.5131C160.847 38.6066 159.161 38.2655 155.825 37.5529C150.85 36.6424 145.816 36.0859 140.762 35.8877C137.058 35.7689 133.35 35.8588 129.656 36.1571C128.64 36.2458 127.599 36.317 126.54 36.4298C125.484 36.5726 124.405 36.7185 123.305 36.8674C122.755 36.9481 122.196 37.0021 121.64 37.1066L119.953 37.4206L118.233 37.7403C117.654 37.8483 117.068 37.9467 116.488 38.0978C104.19 40.7422 92.5498 45.8323 82.2589 53.0655C71.8503 60.4647 63.0279 69.8723 56.3114 80.734C48.6359 92.9922 43.9182 106.868 42.5315 121.265C41.2492 135.566 43.482 150.275 49.6523 163.223C50.004 164.048 50.4409 164.829 50.8621 165.618L52.1314 167.983L53.5413 170.264L54.2456 171.405C54.4898 171.779 54.7595 172.136 55.0153 172.502L56.5685 174.686C57.0929 175.409 57.6878 176.077 58.2434 176.776C59.3574 178.172 60.5422 179.51 61.7932 180.785C66.8194 185.892 72.5488 190.256 78.808 193.745C85.0702 197.249 91.6964 200.058 98.5687 202.123C101.992 203.155 105.477 203.972 109.003 204.568C112.515 205.146 116.069 205.435 119.629 205.434C123.171 205.409 126.701 205.023 130.165 204.283C133.621 203.511 136.989 202.387 140.215 200.927C146.687 197.97 152.61 193.936 157.732 188.997C160.306 186.536 162.703 183.898 164.907 181.101C167.108 178.291 169.145 175.354 171.005 172.307C174.717 166.174 177.885 159.728 180.472 153.042C183.117 146.376 185.251 139.519 186.855 132.529C188.427 125.55 189.342 118.439 189.589 111.29L189.641 109.952L189.634 108.615L189.616 105.94C189.621 105.048 189.534 104.16 189.498 103.27C189.443 102.381 189.416 101.49 189.339 100.603C189.04 97.0566 188.527 93.5316 187.802 90.0473C187.615 89.1787 187.443 88.3062 187.243 87.4408L186.549 84.8685C186.317 84.0113 186.099 83.1489 185.815 82.3111L185.411 81.0461L184.967 79.7941C183.778 76.4548 182.337 73.2109 180.655 70.0905C178.803 66.6248 176.667 63.3179 174.271 60.2036C171.871 57.066 169.204 54.1418 166.3 51.4639C163.396 48.7822 160.249 46.376 156.901 44.2764C153.559 42.1912 150.009 40.4602 146.308 39.1117C144.468 38.4414 142.591 37.874 140.688 37.4121C139.732 37.2073 138.785 36.9669 137.82 36.8165C137.339 36.7344 136.861 36.6397 136.379 36.5672L134.928 36.3665C131.045 35.9094 127.128 35.8049 123.225 36.0543C119.329 36.2989 115.451 36.7802 111.612 37.4957C107.781 38.1965 104.007 39.0534 100.325 40.0986C94.4424 41.7435 88.735 43.9596 83.2839 46.7151C77.8522 49.4782 72.7772 52.8922 68.1706 56.8818C63.5654 60.8922 59.4387 65.421 55.8726 70.3782C54.0862 72.8569 52.4347 75.4301 50.9253 78.0866C49.4299 80.7531 48.0779 83.4976 46.8751 86.3083C45.6658 89.1176 44.6245 91.9962 43.7567 94.929C42.8824 97.8596 42.1709 100.836 41.6256 103.845C41.0986 106.857 40.7467 109.896 40.5717 112.949C40.3854 116 40.4029 119.059 40.6241 122.108C41.0506 128.215 42.235 134.245 44.1497 140.06C46.0507 145.887 48.612 151.478 51.7838 156.723C58.1235 167.263 66.7658 176.232 77.0633 182.959C82.1873 186.307 87.7122 188.996 93.5077 190.964C96.3995 191.957 99.3524 192.761 102.348 193.373C105.343 193.993 108.371 194.442 111.418 194.718C123.663 195.76 135.987 194.053 147.488 189.723C153.217 187.575 158.676 184.767 163.756 181.356C166.287 179.649 168.709 177.787 171.008 175.779C173.318 173.784 175.497 171.643 177.534 169.37C180.563 166.005 183.234 162.333 185.501 158.414C187.733 154.476 189.524 150.305 190.842 145.975C193.502 137.294 194.393 128.101 194.298 118.945C194.25 114.36 193.961 109.77 193.515 105.188C193.064 100.604 192.487 96.0286 191.716 91.4983C190.168 82.4509 187.835 73.502 183.92 65.2737C181.988 61.1659 179.599 57.2884 176.8 53.7145C173.988 50.1695 170.731 47.0024 167.108 44.2918L165.734 43.2969C165.284 42.954 164.817 42.6342 164.334 42.3387C163.37 41.7451 162.415 41.1362 161.444 40.553L158.441 38.9568C157.429 38.4456 156.378 38.0107 155.349 37.5331C151.16 35.7515 146.811 34.3713 142.361 33.4108C137.898 32.4439 133.361 31.8621 128.799 31.6717C124.232 31.4624 119.656 31.5863 115.108 32.0425C106.003 32.9365 97.0906 35.2326 88.6869 38.8495C81.2339 42.0719 74.4577 46.6749 68.7155 52.4158C63.0498 58.1987 58.5834 65.1175 55.1055 72.4767C54.2399 74.3197 53.4035 76.1827 52.6859 78.0915L51.5876 80.9463C51.2419 81.9051 50.938 82.8791 50.611 83.8449L50.128 85.2962C49.9694 85.7808 49.8459 86.276 49.703 86.7654L48.8722 89.7099C48.6245 90.6989 48.405 91.6951 48.1696 92.6874L47.8221 94.1772C47.7168 94.676 47.6333 95.1793 47.5376 95.6801L46.9801 98.6885L46.5583 101.719L46.3489 103.234L46.2088 104.757L45.9319 107.804L45.798 110.86L45.7333 112.388L45.7391 113.917L45.7551 116.976L45.9127 120.03C45.9429 120.538 45.9566 121.048 45.9999 121.556L46.1533 123.077C46.2609 124.09 46.3456 125.106 46.4713 126.117L46.9284 129.14C47.0115 129.642 47.065 130.15 47.1722 130.648L47.4773 132.145C48.2634 136.143 49.3331 140.08 50.6782 143.927C51.4039 145.828 52.0674 147.756 52.9351 149.598L53.5509 150.994C53.7538 151.46 53.9566 151.927 54.1985 152.375L55.587 155.094C56.0252 156.013 56.5836 156.867 57.0836 157.754L57.8529 159.072L58.2372 159.732L58.6558 160.37L60.3383 162.918L60.759 163.556L61.2144 164.168L62.1248 165.395C66.9791 171.951 72.7895 177.741 79.3618 182.574C80.1735 183.187 81.0369 183.728 81.8715 184.31C82.7129 184.882 83.5451 185.468 84.4321 185.968L87.052 187.533C87.9369 188.033 88.8526 188.477 89.7513 188.953L91.105 189.655C91.5576 189.887 92.0313 190.074 92.4931 190.285L95.2812 191.521C96.2268 191.892 97.1852 192.231 98.1366 192.588L99.5661 193.117C100.049 193.273 100.539 193.41 101.024 193.558L103.944 194.43L106.907 195.134C107.9 195.346 108.903 195.51 109.9 195.702C110.397 195.805 110.902 195.863 111.405 195.932L112.914 196.134C116.948 196.622 121.018 196.739 125.073 196.485C133.162 195.969 141.203 193.949 148.369 190.171C150.16 189.234 151.894 188.191 153.561 187.048C155.24 185.918 156.846 184.683 158.368 183.349C159.904 182.027 161.35 180.602 162.754 179.134C164.131 177.641 165.482 176.118 166.731 174.509C171.783 168.11 175.868 160.943 179.446 153.564C183.047 146.197 185.948 138.506 188.108 130.595C190.254 122.695 191.412 114.559 191.556 106.374C191.624 102.293 191.377 98.213 190.817 94.1702C190.238 90.1326 189.357 86.1443 188.179 82.2393C186.983 78.3418 185.461 74.5518 183.629 70.9095L182.934 69.5493L182.587 68.8691L182.203 68.2094L180.663 65.573L178.984 63.0246C178.715 62.5922 178.4 62.1924 178.097 61.7838L177.186 60.5609L176.457 59.5868L175.674 58.658L174.111 56.8021L172.441 55.0502L171.607 54.1751L170.723 53.3535L168.952 51.7174C168.34 51.1988 167.708 50.7049 167.088 50.1977C166.467 49.6913 165.849 49.1829 165.191 48.7281L164.221 48.025L163.225 47.3604C157.923 43.8619 152.091 41.2426 145.954 39.6037C139.912 37.9872 133.679 37.1954 127.425 37.2495C118.241 37.3149 109.146 39.0478 100.582 42.3638C99.1802 42.9074 97.7977 43.4883 96.448 44.1368L94.4148 45.0815C94.0732 45.2325 93.741 45.4015 93.4142 45.5812L92.4275 46.1053C87.2114 48.8486 82.273 52.0905 77.6817 55.7855C73.1964 59.3921 69.0098 63.3552 65.1628 67.6362C61.4073 71.7983 57.9518 76.2216 54.8225 80.8729C54.0982 81.9167 53.4793 82.9291 52.8706 83.8472C52.5696 84.3087 52.2803 84.7524 52.0028 85.1785L51.2439 86.4275C50.2733 88.0191 49.4637 89.3132 48.8833 90.3457C47.6965 92.3956 47.1245 93.2311 47.2162 92.8581C47.863 91.2201 48.6096 89.6233 49.4518 88.0766C50.2065 86.6966 51.0753 84.9779 52.2644 83.0405C53.4045 81.0735 54.8169 78.8622 56.5018 76.4067C57.1134 75.5488 57.726 74.6896 58.3396 73.829C58.9404 72.9586 59.6192 72.1439 60.2569 71.2966C61.5243 69.5942 62.9212 67.9868 64.2841 66.3431C64.9765 65.5306 65.7155 64.7565 66.4313 63.9603L67.5155 62.7735C67.8855 62.3854 68.2691 62.0099 68.6456 61.627C69.4041 60.8662 70.1633 60.1044 70.9233 59.3417C71.7149 58.6107 72.5073 57.8789 73.3006 57.1463C76.514 54.2229 79.9298 51.5299 83.5226 49.0876L84.8711 48.1587C85.3226 47.8517 85.7969 47.5787 86.2592 47.287L89.0565 45.5672C90.9861 44.5284 92.8787 43.4091 94.8864 42.504C102.868 38.6149 111.466 36.1477 120.295 35.2134C129.181 34.2172 138.174 34.8722 146.822 37.1454C154.006 39.0463 160.782 42.2472 166.814 46.5896C169.832 48.795 172.635 51.2802 175.186 54.0121L176.152 55.0283L177.056 56.0987C177.651 56.8191 178.281 57.513 178.845 58.2568L180.522 60.5034L180.939 61.0675L181.325 61.652L182.096 62.8216L182.868 63.992C183.131 64.3786 183.345 64.7941 183.586 65.194L184.993 67.6176C185.83 69.2858 186.736 70.9227 187.457 72.6458L188.026 73.9246L188.31 74.564L188.562 75.2168L189.568 77.8281C189.894 78.7018 190.16 79.5961 190.458 80.4793L190.894 81.8079L191.267 83.155C192.285 86.7384 193.046 90.3898 193.544 94.0815L193.884 96.8503C193.974 97.7755 194.028 98.7041 194.102 99.6301C194.134 100.093 194.175 100.557 194.199 101.02L194.239 102.41C194.257 103.336 194.309 104.262 194.299 105.188C194.313 105.271 194.327 105.349 194.345 105.452Z" fill="black"/>
</svg>
