<svg width="230" height="230" viewBox="0 0 230 230" fill="none" xmlns="http://www.w3.org/2000/svg">
<path d="M170.279 135.764C168.336 131.807 166.071 128.234 162.986 125.983C160.781 124.352 158.05 123.596 155.321 123.862C154.485 123.952 153.669 124.175 152.903 124.523C152.112 124.882 151.407 125.406 150.835 126.06L146.387 122.391C147.745 120.787 148.665 118.859 149.06 116.795C149.455 114.73 149.31 112.599 148.641 110.607C148.244 109.472 147.673 108.407 146.947 107.449C145.472 105.493 143.463 104.005 141.162 103.164C140.6 102.96 140.022 102.8 139.435 102.684C139.146 102.621 138.854 102.575 138.559 102.547L138.122 102.496L137.73 102.487C136.637 102.471 135.551 102.677 134.54 103.094C134.048 103.29 133.578 103.537 133.137 103.831C132.936 103.972 132.744 104.124 132.561 104.288L132.299 104.523C132.229 104.608 132.159 104.692 132.085 104.773L131.974 104.894L131.892 105.021C131.837 105.106 131.779 105.188 131.717 105.268C131.681 105.354 131.641 105.437 131.598 105.518L131.531 105.639L131.496 105.764C131.382 106.081 131.326 106.417 131.334 106.755L131.305 107.083C131.237 107.859 130.883 108.582 130.312 109.112C129.741 109.642 128.994 109.941 128.215 109.951C127.436 109.961 126.681 109.681 126.097 109.166C125.512 108.651 125.14 107.938 125.052 107.164C124.377 101.236 120.197 95.6926 114.82 92.8898C112.203 91.4776 109.253 90.799 106.283 90.926C104.862 90.9984 103.462 91.3007 102.138 91.8211C100.79 92.352 99.5287 93.0786 98.3933 93.9776C95.6623 96.1393 93.6327 99.0615 92.5606 102.375C91.5042 105.643 91.5647 109.127 92.8969 112.018C93.2489 112.783 93.3173 113.648 93.0897 114.458C92.8622 115.269 92.3535 115.972 91.6548 116.441C90.9562 116.911 90.1132 117.116 89.2769 117.021C88.4405 116.925 87.6655 116.535 87.0906 115.92L87.0657 115.892C84.4159 113.043 81.1137 110.88 77.4431 109.589C73.8384 108.344 69.9973 108.157 66.651 109.334C63.5301 110.382 60.802 113.153 59.428 116.398C58.7416 117.963 58.4087 119.66 58.4532 121.367C58.4938 122.93 58.9892 124.447 59.8789 125.733L54.0669 129.788C52.6799 127.879 50.7223 126.459 48.4764 125.735C46.1975 124.955 43.7366 124.881 41.415 125.522L41.0838 125.609C40.9745 125.641 40.873 125.69 40.7667 125.728L40.1305 125.961L39.5273 126.254L39.2222 126.395C39.1236 126.448 39.032 126.514 38.9358 126.571L38.3568 126.917L37.8102 127.326L37.532 127.527L37.2759 127.761L36.7546 128.224L36.2762 128.744L36.0321 129.001L35.8152 129.286L35.3719 129.851L34.9802 130.461L34.7804 130.765L34.6109 131.088L34.2636 131.733L33.9758 132.408L33.8279 132.745L33.7136 133.094C33.1972 134.618 32.8014 136.18 32.5299 137.765C32.495 137.936 32.4611 138.102 32.4281 138.264C32.3976 138.426 32.384 138.582 32.3573 138.739C32.3126 139.05 32.2418 139.357 32.1936 139.648C32.1568 139.936 32.1108 140.216 32.0572 140.489C32.0274 140.629 31.9987 140.763 31.971 140.893C31.9489 141.025 31.9276 141.152 31.9071 141.274C31.6423 142.734 30.9545 143.241 29.8208 142.292C29.6654 142.161 29.518 142.021 29.3795 141.872C29.2291 141.688 29.0891 141.497 28.96 141.298C28.8177 141.083 28.6727 140.844 28.5249 140.582C28.383 140.299 28.2565 140.009 28.1459 139.713C27.5549 138.163 27.2974 136.507 27.39 134.851C27.4961 132.245 28.1965 129.697 29.4378 127.402C30.6791 125.108 32.4284 123.127 34.5521 121.612C36.5079 120.266 38.7297 119.355 41.0675 118.94C43.3336 118.537 45.6547 118.556 47.9135 118.998C50.1563 119.428 52.3028 120.261 54.249 121.456C56.2356 122.669 57.9491 124.281 59.2814 126.19L59.2963 126.211C59.7172 126.821 59.8787 127.572 59.7455 128.3C59.6123 129.029 59.1953 129.674 58.5861 130.095C58.2844 130.304 57.9447 130.45 57.5863 130.527C57.2279 130.605 56.8578 130.61 56.4971 130.544C55.7688 130.411 55.1232 129.994 54.7024 129.385C53.6323 127.852 52.8727 126.124 52.4664 124.299C52.0757 122.521 51.9896 120.69 52.2117 118.883C52.5612 116.265 53.4235 113.741 54.7493 111.456C56.0751 109.171 57.8383 107.17 59.9381 105.567C61.3775 104.475 62.9797 103.615 64.6862 103.02L65.9399 102.614C66.3579 102.476 66.7912 102.406 67.2175 102.302C68.0721 102.111 68.9374 101.971 69.8088 101.883C71.537 101.726 73.2771 101.758 74.9984 101.978C78.1107 102.363 81.1316 103.289 83.924 104.716C86.6657 106.079 89.1454 107.914 91.2488 110.138L92.1792 111.154L86.5469 114.895C86.0743 113.73 85.708 112.524 85.4527 111.292C85.2168 110.074 85.0889 108.837 85.0704 107.597C85.0573 105.172 85.4404 102.762 86.2045 100.461C87.7019 95.9315 90.4854 91.9356 94.2154 88.9612C95.1528 88.213 96.1526 87.5462 97.2037 86.9683C98.2627 86.3758 99.374 85.8819 100.523 85.4927C101.681 85.0947 102.875 84.8093 104.088 84.6404C105.286 84.4723 106.497 84.4093 107.706 84.4523C112.464 84.6741 117.039 86.3503 120.814 89.2547C123.546 91.3134 125.859 93.8758 127.628 96.8039C129.436 99.7676 130.571 103.093 130.952 106.544L125.403 106.905C125.391 105.693 125.624 104.491 126.09 103.372C126.555 102.315 127.207 101.35 128.014 100.524C128.762 99.7606 129.613 99.1054 130.542 98.5776C130.987 98.3197 131.445 98.0869 131.915 97.8803C132.387 97.6963 132.856 97.496 133.341 97.36C134.795 96.8978 136.318 96.6876 137.843 96.7385L138.62 96.779L139.345 96.871C141.256 97.1323 143.109 97.7166 144.825 98.5989C147.213 99.81 149.309 101.526 150.967 103.629C152.635 105.753 153.772 108.245 154.285 110.897C154.533 112.204 154.639 113.534 154.601 114.864C154.549 116.184 154.359 117.495 154.034 118.776C153.385 121.359 152.153 123.76 150.434 125.795L150.427 125.804C150.02 126.295 149.434 126.604 148.799 126.663C148.164 126.723 147.532 126.528 147.041 126.121C146.55 125.714 146.24 125.129 146.181 124.494C146.121 123.859 146.317 123.226 146.724 122.735C147.903 121.312 149.414 120.2 151.124 119.496C152.748 118.831 154.485 118.481 156.241 118.465C159.639 118.423 162.968 119.421 165.784 121.324C168.388 123.175 170.61 125.513 172.327 128.208C173.951 130.744 175.386 133.396 176.621 136.143L173.103 135.925C174.188 134.315 175.558 132.917 177.147 131.802C179.208 130.372 181.583 129.46 184.071 129.142C186.461 128.826 188.892 129.141 191.121 130.058C193.09 130.867 194.839 132.13 196.225 133.744C197.612 135.358 198.597 137.277 199.1 139.345C199.273 139.982 199.281 140.652 199.124 141.293C198.994 141.721 198.783 141.918 198.53 141.913C197.996 141.902 197.455 141.094 196.595 139.689C195.346 137.681 193.551 136.07 191.42 135.045C189.382 134.056 187.072 133.776 184.857 134.249C182.011 134.817 179.218 136.484 177.655 138.865L177.632 138.901C177.302 139.403 176.845 139.809 176.306 140.076C175.768 140.344 175.168 140.463 174.569 140.422C173.969 140.381 173.391 140.181 172.894 139.843C172.397 139.505 171.999 139.041 171.74 138.499C171.295 137.564 170.849 136.644 170.387 135.755L170.279 135.764Z" fill="black"/>
</svg>
