<svg width="228" height="228" viewBox="0 0 228 228" fill="none" xmlns="http://www.w3.org/2000/svg">
<path d="M63.6658 120.31C66.1481 117.916 69.3242 116.369 72.7392 115.891C76.2428 115.398 79.8052 116.21 82.7501 118.171L78.0627 122.257C77.048 120.057 76.5215 117.663 76.5194 115.24C76.5484 112.804 77.1385 110.408 78.2438 108.238C79.5966 105.54 81.6437 103.25 84.1747 101.606C86.7056 99.9607 89.629 99.0196 92.6442 98.8791C93.9323 98.8325 95.2212 98.945 96.4817 99.214C98.9715 99.7708 101.296 100.904 103.269 102.521L98.7262 104.807C98.6142 101.809 98.7538 98.8077 99.1435 95.8334C99.3572 94.352 99.6615 92.8851 100.055 91.441C100.474 89.9569 101.022 88.5121 101.691 87.1227C102.386 85.6796 103.255 84.3267 104.278 83.094C105.341 81.8179 106.59 80.7092 107.983 79.8053C109.396 78.8948 110.943 78.2125 112.568 77.7837C114.167 77.3695 115.816 77.1871 117.466 77.2422C120.642 77.3704 123.754 78.1788 126.591 79.6127C129.339 80.9845 131.85 82.7873 134.029 84.9525C136.194 87.0855 138.041 89.5185 139.513 92.1769C140.988 94.8264 142.096 97.6642 142.805 100.612C143.149 102.084 143.404 103.575 143.567 105.077C143.715 106.577 143.775 108.083 143.749 109.59L137.422 108.645C138.018 106.377 139.032 104.239 140.411 102.342C141.932 100.285 144.006 98.7024 146.391 97.7779C148.783 96.9044 151.37 96.7113 153.865 97.2202C156.218 97.6913 158.445 98.6492 160.406 100.033C164.147 102.722 166.937 106.532 168.37 110.912C169.06 113.027 169.482 115.22 169.625 117.441L169.687 119.086C169.697 119.633 169.653 120.175 169.637 120.719L169.6 121.535C169.585 121.807 169.541 122.072 169.513 122.341L169.317 123.949C169.164 124.832 168.977 125.706 168.803 126.584L168.096 129.148L162.29 125.716C163.69 124.242 165.319 123.002 167.114 122.046C169.028 121.031 171.147 120.463 173.312 120.384C175.478 120.305 177.633 120.717 179.616 121.589C181.561 122.435 183.316 123.666 184.774 125.207C186.232 126.748 187.363 128.569 188.1 130.558C188.862 132.591 189.154 134.771 188.955 136.933C188.755 139.095 188.069 141.185 186.948 143.044C185.89 144.789 184.558 146.352 183.003 147.673C182.934 147.733 182.863 147.789 182.79 147.84L182.777 147.85C181.757 148.566 180.664 149.169 179.515 149.651C178.416 150.101 177.279 150.453 176.118 150.7C173.973 151.137 171.789 151.357 169.6 151.357C167.502 151.388 165.556 151.308 163.605 151.278L157.741 151.155L134.283 150.655L87.3662 149.636C80.4195 149.487 73.4186 149.089 66.5735 148.694C60.0175 148.312 55.8164 147.388 53.2502 146.24C49.5147 144.568 53.4899 142.949 62.8133 142.741C68.7135 142.609 75.1441 142.744 81.2237 142.968C109.222 143.996 137.19 144.516 165.127 144.526C167.672 144.597 170.22 144.492 172.752 144.213C175.106 143.893 177.143 143.223 178.669 142.117L178.442 142.294C179.793 141.169 180.876 139.757 181.612 138.16C182.325 136.401 182.349 134.438 181.68 132.661C180.95 130.779 179.625 129.186 177.908 128.124C176.233 127.083 174.231 126.705 172.292 127.062C170.379 127.426 168.556 128.587 166.987 130.192L166.954 130.226C166.478 130.712 165.851 131.024 165.176 131.111C164.5 131.197 163.816 131.054 163.232 130.702C162.649 130.351 162.201 129.814 161.961 129.176C161.721 128.539 161.704 127.84 161.911 127.191C162.842 124.361 163.28 121.391 163.205 118.412C163.165 116.972 162.968 115.541 162.618 114.143C162.256 112.779 161.745 111.459 161.093 110.208C160.421 108.998 159.601 107.878 158.652 106.872C157.726 105.895 156.648 105.073 155.461 104.438C153.147 103.183 150.508 102.837 148.371 103.68C147.112 104.185 146.019 105.033 145.218 106.128C144.321 107.371 143.653 108.764 143.245 110.242L143.222 110.318C143.027 110.973 142.599 111.536 142.019 111.899C141.439 112.262 140.747 112.401 140.071 112.291C139.396 112.18 138.784 111.828 138.35 111.298C137.916 110.769 137.69 110.1 137.714 109.416C137.833 106.19 137.406 102.966 136.45 99.8826C135.492 96.8105 133.988 93.9364 132.01 91.3979C130.065 88.8721 127.641 86.7544 124.877 85.1657C122.154 83.6303 119.105 82.7239 116.195 82.8454C114.052 82.9203 111.98 83.6412 110.254 84.9136C108.492 86.2882 107.105 88.0856 106.224 90.1391C105.727 91.2174 105.328 92.3378 105.031 93.487C104.859 94.0633 104.746 94.6658 104.609 95.2584C104.508 95.8643 104.378 96.4621 104.307 97.0789C103.978 99.5704 103.86 102.085 103.952 104.597L103.953 104.634C103.968 105.1 103.848 105.56 103.608 105.96C103.368 106.36 103.018 106.683 102.6 106.889C102.182 107.096 101.713 107.177 101.25 107.125C100.786 107.072 100.348 106.887 99.9864 106.592C98.1027 105.005 95.7211 104.131 93.2579 104.121C90.7468 104.186 88.322 105.051 86.337 106.59C84.352 108.129 82.9105 110.262 82.2227 112.678C81.5996 115.11 81.8517 117.684 82.935 119.948L82.9532 119.987C83.1494 120.414 83.2011 120.892 83.1005 121.351C82.9999 121.809 82.7523 122.222 82.3956 122.527C82.0388 122.832 81.5922 123.012 81.1238 123.04C80.6553 123.068 80.1905 122.942 79.8 122.682C78.2683 121.66 76.4578 121.136 74.617 121.184C72.7172 121.257 70.8705 121.831 69.2647 122.849C67.6588 123.866 66.351 125.291 65.4742 126.978C64.6284 128.649 64.3202 130.54 64.5918 132.393C64.6476 132.776 64.5891 133.167 64.4236 133.517C64.2581 133.866 63.9929 134.16 63.6614 134.359C63.3299 134.559 62.9468 134.656 62.5602 134.639C62.1736 134.622 61.8007 134.491 61.4882 134.262L61.4719 134.25L60.8626 133.802C58.5912 132.133 55.9454 131.046 53.1567 130.636C51.8596 130.479 50.5447 130.564 49.2782 130.885C48.9691 130.962 48.6651 131.059 48.3681 131.175C48.0836 131.273 47.8083 131.395 47.5453 131.541C47.0096 131.833 46.5164 132.197 46.0792 132.623C45.1669 133.499 44.464 134.57 44.0228 135.755C43.5816 136.941 43.4135 138.211 43.531 139.47C43.6796 140.717 44.2589 141.873 45.1689 142.738C45.6416 143.211 46.1446 143.652 46.6746 144.059C47.2102 144.447 47.8037 144.747 48.4329 144.949C49.0157 145.146 49.5421 145.294 49.9806 145.437C50.3502 145.553 50.7103 145.698 51.0577 145.87C51.614 146.156 51.8461 146.431 51.7393 146.664C51.6325 146.897 51.1859 147.087 50.3876 147.201C49.8888 147.273 49.3849 147.303 48.8811 147.292C48.076 147.281 47.2773 147.148 46.5117 146.899C45.8624 146.676 45.2397 146.381 44.6548 146.021C44.1164 145.695 43.6603 145.375 43.2211 145.066C42.6275 144.627 42.0916 144.114 41.626 143.541C41.1623 142.959 40.7765 142.319 40.4783 141.638C39.9103 140.321 39.6342 138.897 39.6689 137.463C39.6969 136.096 39.9542 134.743 40.4301 133.461C40.9073 132.171 41.5919 130.967 42.4571 129.897C43.3705 128.764 44.4972 127.821 45.7734 127.122C46.086 126.951 46.4078 126.798 46.7374 126.663C47.0491 126.519 47.3688 126.393 47.695 126.287C48.0208 126.182 48.3468 126.07 48.6763 125.98L49.6734 125.757C50.9873 125.521 52.3253 125.448 53.6571 125.54C55.6942 125.712 57.6914 126.205 59.5752 126.999C61.4058 127.78 63.1326 128.784 64.7162 129.99L59.2998 133.215C59.1314 132.046 59.0964 130.862 59.1955 129.685C59.3137 128.507 59.5723 127.346 59.9659 126.229C60.7538 124.044 62.0234 122.064 63.6804 120.437C63.6733 120.395 63.6684 120.352 63.6658 120.31Z" fill="black"/>
</svg>
