<svg width="195" height="194" viewBox="0 0 195 194" fill="none" xmlns="http://www.w3.org/2000/svg">
<path d="M93.3352 35.2801C93.1347 32.927 93.2183 30.3676 94.0006 27.8117L94.3544 26.8671L94.5365 26.397C94.6062 26.2431 94.6869 26.0927 94.7627 25.9408L95.2323 25.0359C95.4039 24.743 95.6033 24.4659 95.791 24.1825C96.1593 23.6173 96.5969 23.068 97.0721 22.5752C97.3021 22.3187 97.5578 22.0949 97.8025 21.8565C98.0606 21.6384 98.3116 21.4065 98.5806 21.2065C99.6432 20.3795 100.794 19.7142 101.987 19.2084C103.178 18.6948 104.409 18.3297 105.658 18.0955C108.156 17.6369 110.703 17.6639 113.142 18.1657C115.586 18.6457 117.917 19.5948 120.029 20.9085C122.122 22.2423 124.011 23.9837 125.442 26.0243C128.321 30.082 129.63 35.1333 128.98 40.0793C128.651 42.579 127.862 44.7165 127.298 46.6567C126.717 48.5948 126.34 50.3463 126.519 51.8566C126.655 53.3277 127.384 54.8009 128.476 55.9963C129.567 57.1897 131.021 58.1187 132.561 58.5247C134.083 58.9384 135.806 58.8949 137.437 58.4294C139.074 57.9631 140.625 57.0731 141.895 55.9111C142.216 55.6233 142.509 55.3087 142.792 54.9886L143.197 54.4909L143.59 53.9457C144.106 53.1893 144.592 52.3384 145.085 51.4334C146.082 49.6316 147.048 47.5687 148.687 45.5826C149.552 44.5405 150.645 43.5381 151.943 42.8052C153.243 42.0376 154.682 41.6338 156.035 41.4319C158.719 41.0468 161.41 41.3472 163.912 42.1759C166.41 43.0067 168.679 44.3546 170.604 46.03C172.534 47.7057 174.159 49.6869 175.421 51.8756C176.678 54.0661 177.59 56.46 178.062 58.9673C178.291 60.222 178.408 61.503 178.399 62.7905C178.403 63.1122 178.394 63.4341 178.369 63.7565C178.35 64.0786 178.336 64.4032 178.285 64.7133C178.197 65.3396 178.125 65.9698 178.015 66.5915C177.547 69.0794 176.629 71.4528 175.422 73.6299C174.21 75.8083 172.694 77.7906 170.968 79.547C168.651 81.8793 165.962 83.8175 163.029 85.2949C160.106 86.762 156.83 87.7053 153.686 88.1646C150.525 88.6537 147.44 88.7853 144.461 88.9897C141.487 89.1875 138.61 89.4494 135.911 90.0876C130.56 91.3754 125.58 94.3222 121.846 98.3918C119.956 100.406 118.41 102.717 117.223 105.179C116.647 106.357 116.249 107.573 116.046 108.766C115.953 109.357 115.901 109.939 115.926 110.477C115.955 111.013 116.045 111.504 116.191 111.928C116.331 112.359 116.557 112.692 116.824 112.999C116.945 113.164 117.128 113.277 117.275 113.423C117.357 113.485 117.45 113.529 117.533 113.588L117.66 113.674L117.804 113.735C118.531 114.108 119.584 114.201 120.756 114.06C121.934 113.9 123.197 113.541 124.446 113.028C125.073 112.784 125.694 112.487 126.316 112.187L128.294 111.183C130.92 109.824 133.504 108.382 136.038 106.86C137.305 106.099 138.561 105.318 139.803 104.518L143.59 102.04C144.904 101.2 146.289 100.366 147.797 99.6393C148.551 99.2777 149.336 98.9442 150.15 98.6549C150.965 98.3672 151.82 98.1281 152.675 97.9461C156.116 97.2036 159.697 97.4848 162.96 98.4521C166.238 99.422 169.221 101.087 171.824 103.167C174.425 105.255 176.657 107.785 178.37 110.665C179.22 112.096 179.968 113.645 180.506 115.209C180.777 115.986 181.059 116.761 181.253 117.559L181.573 118.748C181.662 119.148 181.736 119.55 181.818 119.951C182.453 123.163 182.609 126.43 182.403 129.634C181.959 136.054 180.139 142.193 177.617 147.922C176.998 149.35 176.286 150.833 175.355 152.304C174.419 153.765 173.218 155.25 171.556 156.416C170.728 156.998 169.804 157.471 168.791 157.813C167.783 158.134 166.744 158.295 165.722 158.317C164.697 158.345 163.698 158.21 162.74 157.978C161.782 157.744 160.862 157.407 160.002 156.962C159.141 156.52 158.321 155.999 157.575 155.374C156.832 154.755 156.137 154.021 155.568 153.283C154.424 151.777 153.598 150.09 153.079 148.374C152.545 146.656 152.3 144.907 152.241 143.178C152.215 142.322 152.251 141.419 152.3 140.663L152.436 138.451C152.508 137.053 152.49 135.743 152.264 134.782C152.147 134.313 151.989 133.957 151.822 133.708C151.773 133.655 151.737 133.591 151.693 133.535C151.638 133.492 151.59 133.445 151.545 133.392C151.499 133.34 151.423 133.312 151.37 133.263C151.316 133.208 151.253 133.183 151.194 133.154C150.958 133.032 150.715 132.967 150.373 132.961C150.034 132.957 149.607 133.029 149.146 133.186C148.216 133.498 147.196 134.148 146.333 134.919C146.225 135.022 146.123 135.108 146.009 135.222L145.667 135.57C145.432 135.796 145.223 136.047 145.001 136.287C144.781 136.528 144.583 136.789 144.371 137.037L143.781 137.821C143.021 138.887 142.364 140.028 141.822 141.221C141.279 142.413 140.851 143.657 140.561 144.928C140.26 146.219 140.124 147.419 140.021 148.935C139.966 149.675 139.91 150.466 139.815 151.292C139.724 152.114 139.59 152.99 139.355 153.906C139.25 154.358 139.085 154.835 138.92 155.305L138.613 156.021C138.513 156.259 138.366 156.499 138.24 156.736C137.697 157.676 136.959 158.598 136.057 159.298C135.841 159.488 135.601 159.626 135.371 159.787C135.139 159.942 134.904 160.096 134.648 160.226C134.146 160.492 133.627 160.704 133.106 160.869C132.585 161.034 132.062 161.15 131.542 161.229C131.007 161.313 130.547 161.319 130.058 161.349C128.117 161.425 126.187 161.035 124.47 160.375C122.744 159.718 121.205 158.813 119.82 157.811C118.439 156.803 117.204 155.694 116.056 154.549C114.9 153.393 113.876 152.234 112.876 151.127C111.876 150.017 110.903 148.949 109.912 147.978C109.303 147.382 108.685 146.828 108.058 146.315C107.43 145.808 106.788 145.361 106.135 144.963C105.806 144.774 105.477 144.586 105.14 144.429L104.891 144.306L104.66 144.215C104.504 144.158 104.36 144.079 104.196 144.034C103.561 143.811 102.873 143.685 102.185 143.606C101.492 143.543 100.799 143.57 100.129 143.652C99.465 143.755 98.842 143.939 98.2847 144.178C97.7328 144.426 97.2868 144.755 96.9231 145.109C96.5454 145.458 96.3282 145.888 96.1366 146.353C95.9622 146.828 95.8845 147.339 95.9077 147.906C95.9312 148.472 96.0585 149.087 96.2846 149.715C96.7454 150.973 97.5745 152.249 98.5888 153.335C98.7211 153.468 98.8407 153.6 98.9816 153.738L99.4189 154.153C99.7216 154.428 100.032 154.702 100.357 154.973C101.007 155.518 101.705 156.057 102.431 156.612C103.882 157.724 105.464 158.885 106.991 160.328C107.371 160.691 107.748 161.065 108.114 161.464C108.48 161.864 108.872 162.318 109.203 162.773C109.887 163.688 110.474 164.668 110.955 165.719C111.438 166.768 111.805 167.898 112.012 169.106C112.216 170.311 112.254 171.608 112.012 172.924C111.981 173.089 111.955 173.253 111.917 173.417L111.778 173.907L111.631 174.395L111.437 174.872L111.233 175.346C111.16 175.502 111.07 175.65 110.988 175.801L110.73 176.248L110.665 176.36L110.608 176.445L110.494 176.611C109.908 177.506 109.221 178.374 108.445 179.195C107.667 180.014 106.783 180.782 105.786 181.437C104.792 182.093 103.684 182.629 102.527 182.996C100.2 183.745 97.764 183.774 95.5884 183.421C93.3962 183.069 91.4006 182.381 89.5337 181.581C85.8064 179.958 82.5443 177.879 79.3933 175.809L74.7655 172.716C73.2475 171.713 71.7371 170.74 70.2645 169.945C69.5315 169.55 68.8067 169.205 68.1446 168.959C67.8217 168.847 67.5063 168.746 67.2468 168.695C66.8985 168.639 66.4974 168.552 66.1265 168.518C64.6129 168.332 63.1177 168.404 61.5918 168.725C60.0655 169.036 58.5036 169.609 56.8463 170.286C55.1817 170.962 53.4262 171.757 51.443 172.399C50.4547 172.719 49.4155 172.998 48.3323 173.195C47.2457 173.385 46.1203 173.485 44.9918 173.48C43.8607 173.486 42.736 173.343 41.6431 173.138L40.8292 172.963C40.5613 172.897 40.2995 172.819 40.0346 172.747L39.6387 172.635L39.2906 172.528L38.6046 172.31C36.7636 171.713 34.7756 171.013 32.8249 169.828C31.8535 169.24 30.9042 168.516 30.053 167.664C29.2037 166.814 28.4715 165.838 27.8831 164.797C26.6997 162.707 26.1304 160.385 26.0121 158.15C25.8883 155.904 26.2061 153.725 26.7917 151.66C27.378 149.592 28.2647 147.639 29.3933 145.822C29.9572 144.913 30.5892 144.041 31.2927 143.217C31.9879 142.391 32.7889 141.603 33.5466 140.939C36.6382 138.184 40.1583 136.165 43.6238 134.502C47.0955 132.826 50.5605 131.436 53.8101 129.907C55.4501 129.138 56.9634 128.359 58.4362 127.462C59.9034 126.572 61.3073 125.595 62.5814 124.512C65.1303 122.361 67.2502 119.814 68.3189 117.01L68.6645 115.951C68.7725 115.597 68.8222 115.233 68.9106 114.876C68.9292 114.786 68.9536 114.697 68.9686 114.606L68.9958 114.333L69.0551 113.787C69.1092 113.414 69.1164 113.081 69.1105 112.747C69.0974 112.081 68.9915 111.458 68.8212 110.959C68.6428 110.464 68.4194 110.111 68.1662 109.88C67.8769 109.63 67.5964 109.476 67.1904 109.388C66.7876 109.301 66.2466 109.302 65.6374 109.417C64.4128 109.64 62.995 110.29 61.7433 111.145C61.5835 111.249 61.4278 111.358 61.2777 111.474C61.1248 111.588 60.9794 111.691 60.7952 111.84L59.7273 112.687C59.0002 113.268 58.2322 113.877 57.4036 114.475C56.5736 115.072 55.6793 115.664 54.6702 116.193C53.6625 116.718 52.5309 117.188 51.2602 117.448C50.942 117.508 50.6154 117.554 50.2926 117.601C49.9662 117.639 49.6295 117.647 49.298 117.664C48.6307 117.667 47.9647 117.627 47.2766 117.486C45.9159 117.227 44.6244 116.659 43.5357 115.901C42.4467 115.138 41.5661 114.199 40.8471 113.194C40.1313 112.185 39.5705 111.103 39.185 109.969C38.7935 108.837 38.5459 107.66 38.4561 106.452C38.433 105.843 38.4157 105.235 38.4757 104.616C38.4909 104.299 38.5322 104.014 38.576 103.731C38.6179 103.445 38.6579 103.159 38.724 102.88C39.1715 100.615 40.1296 98.5803 41.2337 96.7733C43.4762 93.1721 46.4359 90.4361 48.9661 87.882C50.2382 86.5974 51.4304 85.3365 52.4363 84.0355C53.4242 82.752 54.3183 81.3345 54.7081 80.1442C54.9134 79.5371 55.0075 78.9686 54.9972 78.4656C54.992 77.9589 54.8774 77.5171 54.6607 77.0826C54.2507 76.2184 53.2944 75.3529 52.0611 74.7583C51.4503 74.4574 50.7798 74.2163 50.0973 74.0597C49.4174 73.8972 48.7208 73.8149 48.1016 73.8277C47.3983 73.853 46.6183 73.931 45.8575 74.0778C45.0872 74.23 44.3036 74.434 43.5076 74.6805C41.911 75.1864 40.2681 75.8588 38.5425 76.567C37.6799 76.9209 36.7896 77.2803 35.8744 77.6273C34.9724 77.9741 33.9612 78.3123 32.9723 78.5913C30.9716 79.1459 28.8618 79.5216 26.6216 79.5114C25.5069 79.5176 24.3491 79.3843 23.1947 79.1303C22.0395 78.8809 20.8754 78.4539 19.7917 77.8521C17.5983 76.6873 15.8273 74.7318 14.7468 72.5732C14.5932 72.3075 14.4966 72.0301 14.3791 71.7562C14.2694 71.4812 14.1481 71.2062 14.0535 70.9294L13.8025 70.0957L13.6806 69.6778L13.5928 69.2614L13.4243 68.4273C13.3719 68.1494 13.3496 67.8756 13.3125 67.5993C13.2321 67.0448 13.2079 66.5013 13.1855 65.9571C13.1055 63.7815 13.3719 61.6907 13.8343 59.6731C13.9497 59.1683 14.072 58.6656 14.2214 58.172C14.3557 57.6733 14.5185 57.184 14.6853 56.6958C14.8421 56.1926 15.0384 55.7616 15.2149 55.2934L15.7598 53.9152C17.6062 49.5177 20.1488 45.44 23.1079 41.7433C23.4624 41.2673 23.869 40.8367 24.2508 40.3847C24.641 39.94 25.0203 39.485 25.4206 39.0503L26.6463 37.7708L27.26 37.132L27.9004 36.5219L29.185 35.3066C29.615 34.9039 30.0719 34.5324 30.5142 34.1444C30.9648 33.7663 31.3961 33.3644 31.8627 33.0072L33.249 31.9196C36.9624 29.0416 41.0033 26.6393 45.1964 24.6261C47.2774 23.6107 49.4709 22.6882 51.8285 22.0015C54.1778 21.3225 56.7355 20.9126 59.3533 21.116C59.6677 21.1485 59.9718 21.1676 60.2891 21.2147C60.6073 21.2671 60.9262 21.3112 61.2372 21.3755C61.5457 21.4477 61.8533 21.5176 62.1559 21.5961C62.4535 21.6889 62.7494 21.7812 63.0439 21.8731C64.2057 22.2808 65.2848 22.8232 66.2673 23.4794C67.2491 24.136 68.135 24.9086 68.8925 25.7853C69.65 26.6616 70.26 27.6621 70.6934 28.7158C70.8025 28.9795 70.9107 29.2405 70.9834 29.5164C71.0594 29.7896 71.1527 30.0551 71.2043 30.3308C71.2533 30.6065 71.3018 30.8805 71.3502 31.1528C71.3856 31.4318 71.3982 31.7225 71.417 32.0034C71.4458 33.1245 71.2668 34.1276 71.0299 35.0311C70.5399 36.8374 69.8129 38.2735 69.1288 39.5928C67.7259 42.1925 66.3729 44.2716 65.4031 46.18C64.4266 48.0752 63.8202 49.7745 63.82 51.3007C63.8097 51.5801 63.8471 51.8356 63.857 52.0864C63.9036 52.325 63.9274 52.5608 63.9771 52.7726C64.0329 52.9874 64.0843 53.1845 64.131 53.3642C64.1963 53.5389 64.2534 53.7024 64.3022 53.8536C64.5162 54.4458 64.6393 54.8048 64.5339 54.9603C64.438 55.1097 64.1464 55.032 63.6376 54.6839C63.1729 54.3087 62.4634 53.6132 61.9874 52.3875C61.8744 52.0835 61.7541 51.7542 61.6869 51.3989C61.5935 51.0416 61.5547 50.6682 61.5136 50.2698C61.4622 49.4841 61.49 48.6193 61.6398 47.739C61.9257 45.9685 62.5848 44.09 63.4154 42.1299C64.2312 40.1681 65.2631 38.0829 66.0226 35.907C66.4023 34.8256 66.6628 33.7225 66.6879 32.7611C66.678 32.5304 66.6815 32.2951 66.6415 32.0891L66.6236 31.9279L66.5792 31.7547L66.4988 31.4053C66.3402 30.9488 66.16 30.4863 65.8716 30.046C65.1618 28.9279 64.0036 27.946 62.6379 27.286C61.9531 26.9605 61.2222 26.7122 60.4801 26.5562C60.2946 26.5135 60.109 26.4757 59.9221 26.4566C59.7346 26.4325 59.5552 26.3977 59.3493 26.3895C58.9513 26.3521 58.5467 26.344 58.1391 26.3447C56.5068 26.3596 54.8032 26.7073 53.0909 27.2524C51.3783 27.8042 49.6481 28.539 47.9222 29.4035C41.007 32.7747 34.6291 37.3976 29.577 42.9137C26.688 46.1005 24.1989 49.6267 22.2377 53.4129C22.0008 53.8896 21.7821 54.3749 21.5525 54.8553C21.329 55.3381 21.0838 55.8124 20.901 56.3117C20.5105 57.2983 20.0864 58.2931 19.791 59.2481C19.1944 61.1923 18.8166 63.2109 18.8021 65.1587C18.7993 66.1277 18.858 67.0883 19.0609 67.9742C19.2516 68.8631 19.5243 69.7105 19.9489 70.4266C20.3683 71.1445 20.8512 71.8055 21.5038 72.303C22.1261 72.8282 22.8501 73.22 23.6551 73.494C25.2667 74.0432 27.21 74.0814 29.1726 73.7695C30.156 73.6113 31.1476 73.3714 32.1305 73.0689C33.1015 72.771 34.1089 72.3883 35.1353 71.9817C37.1859 71.1709 39.3065 70.2346 41.6286 69.4919C42.7887 69.1219 44 68.8023 45.2628 68.591C45.5764 68.5332 45.8946 68.4873 46.218 68.4539C46.5385 68.4134 46.8605 68.3779 47.1884 68.363C47.8121 68.3093 48.5742 68.3071 49.2521 68.3656C50.6318 68.4832 51.9457 68.789 53.2129 69.2668C53.847 69.5018 54.467 69.786 55.0705 70.1195C55.6755 70.4471 56.2616 70.8328 56.8205 71.2756C57.3814 71.7127 57.9119 72.2185 58.3905 72.7909C58.8726 73.3568 59.3017 73.9972 59.6372 74.6973C59.979 75.3913 60.2354 76.1438 60.37 76.9108C60.4545 77.2935 60.4761 77.6784 60.513 78.0632C60.5145 78.4422 60.5387 78.8313 60.497 79.2004C60.3868 80.6998 59.9567 82.0792 59.3834 83.2932C59.2341 83.5901 59.0848 83.8932 58.9311 84.1831L58.4556 85.0068C58.1256 85.5446 57.7796 86.0667 57.4189 86.572C55.9682 88.5889 54.3116 90.3139 52.6999 91.9381C51.0833 93.5656 49.4999 95.087 48.1434 96.6851C46.7817 98.2825 45.6117 99.9651 44.8608 101.72C44.4853 102.596 44.217 103.486 44.0745 104.379C43.9999 104.843 43.9679 105.234 43.9729 105.657C43.9744 106.076 44.0161 106.503 44.0936 106.925C44.3913 108.614 45.2899 110.255 46.4884 111.194C47.0851 111.666 47.7335 111.961 48.4116 112.071C49.1076 112.188 49.8608 112.136 50.6371 111.898C52.2133 111.415 53.8893 110.225 55.5938 108.866L56.909 107.814L57.5997 107.27C57.8598 107.078 58.1142 106.878 58.3806 106.696C59.4399 105.958 60.5683 105.314 61.799 104.796C63.0297 104.282 64.369 103.882 65.8633 103.768C66.2284 103.726 66.6275 103.751 67.0082 103.749C67.3999 103.775 67.7994 103.82 68.1963 103.887C68.9948 104.056 69.8117 104.308 70.546 104.742C70.7296 104.848 70.9183 104.949 71.0927 105.067L71.5934 105.449C71.9268 105.7 72.2378 105.999 72.5152 106.313C73.0757 106.943 73.512 107.647 73.8353 108.36C74.4811 109.794 74.7119 111.236 74.7524 112.614C74.7614 112.959 74.7566 113.302 74.7412 113.643C74.7184 113.977 74.6784 114.3 74.6456 114.629C74.6075 114.955 74.582 115.285 74.5298 115.609L74.3276 116.574C74.0604 117.862 73.6045 119.095 73.0768 120.276C72.0011 122.637 70.4731 124.694 68.7726 126.489C67.0655 128.287 65.1702 129.833 63.1819 131.195L62.4345 131.703L61.6713 132.181L60.9059 132.656L60.1269 133.102C59.6106 133.406 59.082 133.684 58.5522 133.96C58.0211 134.247 57.4993 134.495 56.9751 134.754C54.879 135.774 52.7814 136.692 50.7282 137.606C46.6296 139.428 42.6786 141.27 39.3755 143.744C38.5455 144.355 37.7729 145.017 37.0382 145.708C36.3207 146.376 35.7149 147.079 35.1419 147.862C34.0098 149.417 33.1391 151.196 32.598 153.036C32.3007 154.051 32.1027 155.088 32.0191 156.114C31.945 157.14 31.9897 158.152 32.1605 159.109C32.3397 160.064 32.6553 160.955 33.0925 161.752C33.5453 162.54 34.1166 163.237 34.814 163.828C36.2163 165.014 38.2459 165.821 40.5636 166.537L41.4404 166.806L42.1947 167.011L42.9472 167.168C43.1977 167.214 43.4477 167.24 43.6973 167.28C44.6967 167.398 45.6877 167.385 46.6956 167.239C48.7123 166.959 50.799 166.142 53.1065 165.161C55.405 164.199 57.9666 163.101 60.852 162.584C62.285 162.323 63.7757 162.211 65.2477 162.273C65.9847 162.3 66.7146 162.379 67.4339 162.485C67.7989 162.548 68.1323 162.599 68.5212 162.678C68.9501 162.77 69.3483 162.882 69.7291 163.004C71.2324 163.505 72.4548 164.144 73.6173 164.795C74.777 165.449 75.8459 166.134 76.8919 166.82C80.2066 169.017 83.2989 171.267 86.481 173.222C88.0671 174.198 89.6671 175.106 91.2827 175.859C92.8955 176.612 94.5297 177.216 96.1162 177.532C97.7029 177.848 99.2196 177.863 100.559 177.473C101.902 177.094 103.117 176.316 104.195 175.191C104.731 174.63 105.237 174 105.696 173.304C105.766 173.209 105.786 173.158 105.821 173.098L105.924 172.922C106.001 172.809 106.029 172.672 106.094 172.551C106.192 172.296 106.265 172.023 106.311 171.732C106.497 170.567 106.179 169.092 105.497 167.739C104.23 165.034 101.257 162.967 98.0957 160.519C97.3047 159.899 96.4992 159.245 95.7081 158.526C94.9291 157.822 94.1091 156.985 93.4108 156.093C92.014 154.305 90.8655 152.232 90.3747 149.769C90.1369 148.543 90.0916 147.213 90.3433 145.891C90.4189 145.563 90.4943 145.234 90.584 144.91C90.6943 144.591 90.8084 144.273 90.9293 143.958C91.0784 143.651 91.2326 143.346 91.3918 143.044C91.4661 142.89 91.5562 142.746 91.6569 142.606L91.9502 142.185C92.7555 141.081 93.7947 140.173 94.9154 139.522C96.0406 138.881 97.2281 138.459 98.4197 138.197C100.807 137.707 103.212 137.821 105.512 138.506C105.799 138.6 106.088 138.675 106.37 138.789L107.214 139.134C107.737 139.383 108.247 139.627 108.732 139.916C109.711 140.474 110.629 141.105 111.471 141.783C114.858 144.495 117.291 147.725 119.84 150.324C120.474 150.975 121.129 151.582 121.793 152.162C122.462 152.731 123.148 153.256 123.848 153.728C124.552 154.182 125.268 154.591 125.994 154.91C126.721 155.215 127.453 155.455 128.185 155.592C128.917 155.709 129.647 155.758 130.375 155.692C131.046 155.644 131.617 155.467 132.079 155.208C132.567 154.917 132.936 154.581 133.238 154.11C133.543 153.641 133.78 153.009 133.948 152.256C134.295 150.74 134.334 148.871 134.542 146.795C134.767 144.65 135.27 142.522 136.032 140.506C136.795 138.488 137.808 136.565 139.053 134.799C139.677 133.917 140.348 133.065 141.087 132.27C141.447 131.861 141.834 131.493 142.228 131.1C142.655 130.701 143.094 130.317 143.564 129.968C144.497 129.264 145.516 128.647 146.668 128.168C147.821 127.701 149.137 127.368 150.598 127.405C152.05 127.421 153.635 127.979 154.81 128.895C155.119 129.107 155.391 129.373 155.657 129.646C155.937 129.908 156.151 130.215 156.376 130.517C156.809 131.126 157.117 131.777 157.355 132.416C157.814 133.698 157.952 134.906 158.006 136.025C158.055 137.146 158.008 138.196 157.947 139.199C157.888 140.191 157.803 141.172 157.773 142.023C157.743 142.861 157.777 143.697 157.876 144.514C158.074 146.148 158.544 147.709 159.304 149.029C160.071 150.371 161.072 151.382 162.372 152.074C162.848 152.328 163.349 152.524 163.855 152.675C164.363 152.821 164.877 152.89 165.378 152.914C165.881 152.944 166.362 152.871 166.82 152.766C167.277 152.661 167.701 152.474 168.132 152.221C168.978 151.718 169.767 150.939 170.462 149.95C171.161 148.966 171.776 147.819 172.351 146.584C174.683 141.577 176.38 136.251 176.986 130.861C177.286 128.169 177.305 125.465 176.971 122.824L176.844 121.834L176.654 120.858C176.587 120.533 176.535 120.205 176.458 119.883L176.202 118.926C176.11 118.609 176.048 118.282 175.933 117.973L175.611 117.038C175.404 116.403 175.167 115.817 174.894 115.232C172.737 110.553 168.787 106.568 164.105 104.367C161.764 103.273 159.237 102.644 156.739 102.636C155.49 102.631 154.252 102.779 153.054 103.087C151.865 103.393 150.679 103.879 149.505 104.47C147.154 105.663 144.839 107.321 142.333 108.909C139.854 110.489 137.327 111.994 134.755 113.42C133.47 114.133 132.173 114.827 130.866 115.501L128.898 116.496C128.246 116.825 127.508 117.169 126.792 117.472C125.334 118.073 123.806 118.595 122.132 118.889C121.707 118.95 121.292 119.027 120.847 119.051C120.626 119.066 120.411 119.09 120.186 119.095L119.506 119.095C118.594 119.065 117.639 118.953 116.69 118.627C116.213 118.495 115.754 118.258 115.297 118.04C115.074 117.917 114.861 117.772 114.646 117.635L114.326 117.423C114.226 117.345 114.13 117.261 114.033 117.18C113.231 116.561 112.583 115.729 112.083 114.853C111.578 113.968 111.282 113.012 111.122 112.088C110.957 111.158 110.928 110.247 110.994 109.378C111.051 108.504 111.19 107.662 111.392 106.853C111.586 106.039 111.84 105.256 112.142 104.496C112.286 104.112 112.456 103.742 112.622 103.369L113.148 102.323C113.483 101.619 113.901 100.962 114.286 100.286C117.188 95.5552 121.304 91.6352 126.094 88.8677C128.498 87.4949 131.081 86.4251 133.768 85.7024C136.458 84.9626 139.171 84.6426 141.805 84.4222C144.443 84.2126 147.018 84.113 149.519 83.9075C152.009 83.6916 154.452 83.3869 156.716 82.7287C161.249 81.4561 165.453 78.8306 168.581 75.3175C170.143 73.5612 171.433 71.5784 172.335 69.4508C172.59 68.9286 172.753 68.3763 172.938 67.8312C173.147 67.2919 173.248 66.7265 173.386 66.1701C173.547 65.6166 173.584 65.044 173.673 64.4792C173.715 64.1959 173.759 63.9121 173.766 63.6346C173.785 63.3558 173.804 63.0767 173.799 62.7956C173.845 58.298 171.84 53.7193 168.616 50.4497C167.005 48.8135 165.079 47.5014 162.985 46.7093C161.939 46.3133 160.853 46.0458 159.753 45.9285C158.664 45.8127 157.517 45.8342 156.483 46.013C155.965 46.102 155.475 46.2354 155.023 46.4111C154.57 46.5814 154.167 46.8242 153.762 47.0963C152.968 47.6538 152.262 48.4297 151.616 49.3572C150.31 51.2159 149.31 53.5982 147.81 55.9591C147.067 57.137 146.117 58.3368 145.03 59.3252C143.944 60.3219 142.727 61.1727 141.406 61.8309C138.777 63.1494 135.713 63.7592 132.693 63.2988C129.637 62.8228 126.895 61.2311 124.886 58.991C123.885 57.8642 123.052 56.5637 122.514 55.1172C121.966 53.6836 121.73 52.0763 121.789 50.5887C121.84 49.0882 122.144 47.6859 122.489 46.3709C122.843 45.0627 123.25 43.8293 123.593 42.6437C123.932 41.4584 124.221 40.3199 124.337 39.2092C124.46 38.0852 124.449 36.9409 124.31 35.8089C124.031 33.5449 123.24 31.3302 122.012 29.4078C120.789 27.4801 119.118 25.8769 117.139 24.7078C115.166 23.538 112.915 22.8047 110.627 22.5915C108.343 22.3761 106.008 22.6834 103.95 23.561C102.921 23.9923 101.974 24.5726 101.169 25.2762C100.77 25.6314 100.395 26.0084 100.076 26.4247C99.9158 26.6341 99.7781 26.8654 99.625 27.0826C99.5531 27.1945 99.4676 27.2985 99.4051 27.4161L99.2244 27.7728C98.9539 28.2329 98.7904 28.75 98.5937 29.2516C98.4605 29.7827 98.2998 30.3038 98.2337 30.8645C98.0614 31.9689 98.021 33.128 98.1101 34.3132C98.1842 35.4957 98.3503 36.6977 98.5855 37.9091C98.8089 39.1193 99.095 40.3385 99.3992 41.5688L100.336 45.3091C100.651 46.5866 100.918 47.8798 101.15 49.1816C102.067 54.3765 102.292 59.8297 101.121 65.1397C101.06 65.4026 101.011 65.6698 100.939 65.9288L100.717 66.7031L100.27 68.2485C100.141 68.7675 99.9139 69.2639 99.7273 69.7686L99.1404 71.2745L98.4143 72.7305L98.048 73.4556C97.9311 73.6993 97.7649 73.921 97.6255 74.1543L96.7478 75.5331C96.4261 75.9746 96.075 76.3979 95.7385 76.8287C94.3417 78.5123 92.6863 80.0091 90.8012 81.1499C88.9138 82.2823 86.8387 83.0819 84.6886 83.4707C83.614 83.6762 82.5238 83.7706 81.3948 83.7548C80.8311 83.7367 80.224 83.6886 79.6457 83.5567C79.0622 83.4442 78.5061 83.2536 77.9642 83.0423C75.8209 82.1433 74.0383 80.5988 72.8847 78.6307C72.3055 77.6502 71.891 76.5501 71.7352 75.3836C71.6432 74.8042 71.6491 74.2067 71.6897 73.6164C71.7619 73.0275 71.8719 72.4387 72.0803 71.8848C72.4744 70.7679 73.1349 69.7803 73.9151 68.9827C74.6968 68.1807 75.589 67.5551 76.5059 67.0419C76.986 66.7722 77.3826 66.5724 77.7989 66.3555C78.2163 66.1448 78.6198 65.9151 79.0281 65.6928C79.8414 65.2438 80.6325 64.7678 81.411 64.2792C82.9495 63.2832 84.4303 62.2147 85.7181 60.9914C87.0052 59.7781 88.145 58.4136 88.8021 56.8927C89.4758 55.3875 89.5707 53.708 88.8412 52.3047C88.1314 50.8955 86.7057 49.8464 85.1232 49.3318C83.5354 48.8118 81.7688 48.7749 80.1608 49.2743C79.3538 49.5158 78.5949 49.9031 77.9046 50.3879C77.2183 50.8795 76.615 51.4868 76.1047 52.1658C75.8472 52.5041 75.62 52.8652 75.4103 53.2366C75.1805 53.612 74.9508 53.9867 74.7218 54.3607C74.1805 55.0517 73.6106 55.7378 72.851 56.1757C72.7681 56.2305 72.686 56.2848 72.6048 56.3387C72.5154 56.3788 72.4267 56.4187 72.3389 56.4582C72.1626 56.534 71.9937 56.6173 71.8217 56.6812C71.461 56.7645 71.1272 56.8872 70.7837 56.8924C70.11 56.9836 69.4859 56.8629 68.9394 56.7467C67.8467 56.4466 67.0587 55.9408 66.5194 55.498C65.9887 55.0387 65.6786 54.6527 65.5631 54.3845C65.4406 54.1216 65.4612 53.9926 65.6092 53.9864C65.7625 53.9752 66.0032 54.0948 66.4215 54.2867C66.8355 54.4719 67.4106 54.7539 68.1562 54.9621C68.895 55.1709 69.7998 55.2704 70.631 55.051C70.7388 55.0337 70.8313 54.9704 70.9355 54.9381C71.0376 54.9005 71.1448 54.8713 71.2379 54.7996C71.3352 54.7397 71.4352 54.6834 71.5393 54.6306C71.6345 54.5525 71.7288 54.468 71.8292 54.3913C71.8787 54.3512 71.9311 54.3166 71.9813 54.2738L72.1209 54.1146C72.2175 54.0114 72.3159 53.9067 72.4157 53.8002C72.5052 53.6693 72.5961 53.5363 72.6884 53.4013L72.8326 53.2019C72.8798 53.1325 72.916 53.0448 72.9592 52.9668L73.3368 52.2556C73.5092 51.9037 73.6925 51.5553 73.9028 51.2158C74.3191 50.5368 74.8117 49.887 75.3826 49.2961C76.5208 48.1093 77.9883 47.1938 79.574 46.6731C81.162 46.149 82.8581 46.0055 84.513 46.2341C86.1663 46.4637 87.8008 47.0637 89.2364 48.115C89.9514 48.6408 90.6126 49.2842 91.1614 50.0434C91.7068 50.8043 92.1297 51.6836 92.3771 52.6102C92.627 53.5364 92.6982 54.5012 92.6192 55.4178C92.5417 56.3368 92.3211 57.2061 92.0218 58.0083C91.4181 59.6173 90.5191 60.9662 89.5378 62.1495C88.552 63.3353 87.4701 64.3705 86.3449 65.3109C84.0876 67.1833 81.6664 68.7076 79.1922 70.0723C77.0392 71.1788 75.9315 72.5491 75.8487 73.9802C75.8058 74.706 76.0193 75.5187 76.4588 76.2991C76.9151 77.0691 77.5734 77.7973 78.3553 78.3209C78.7436 78.5847 79.1547 78.805 79.5731 78.974C79.9936 79.1347 80.4184 79.2395 80.8332 79.2908C81.2268 79.3504 81.7633 79.3252 82.2904 79.3011L83.1052 79.2088L83.9249 79.0574C85.7229 78.6746 87.4501 77.9156 88.9733 76.8639C90.5015 75.8098 91.8208 74.4394 92.936 72.8671L93.7095 71.6289C93.7737 71.5254 93.8417 71.4247 93.9035 71.3192L94.0669 70.9851L94.3962 70.3182C94.878 69.4566 95.1855 68.4779 95.5623 67.5423C95.6627 67.3112 95.7322 67.0634 95.7994 66.8144L96.0102 66.0718C96.1469 65.5764 96.304 65.0829 96.428 64.5865C96.656 63.5947 96.8411 62.5883 96.9662 61.5667C97.4701 57.4775 97.1507 53.211 96.3139 48.9942C96.1111 47.9357 95.8653 46.8918 95.6025 45.8279L94.7671 42.526C94.2093 40.2866 93.6944 37.9379 93.4421 35.4487C93.4066 35.3964 93.3735 35.3465 93.3356 35.2801L93.3352 35.2801Z" fill="black"/>
</svg>
