<svg width="230" height="228" viewBox="0 0 230 228" fill="none" xmlns="http://www.w3.org/2000/svg">
<path d="M119.488 128.859C127.042 123.554 135.862 120.293 145.076 119.398C147.376 119.185 149.688 119.115 151.997 119.189C154.473 119.26 156.923 119.713 159.259 120.53C160.524 120.999 161.711 121.65 162.783 122.464C163.976 123.361 164.933 124.531 165.571 125.874C166.222 127.261 166.503 128.791 166.389 130.317C166.261 131.794 165.799 133.223 165.038 134.499C164.355 135.652 163.506 136.701 162.517 137.611C161.602 138.461 160.617 139.233 159.573 139.921C158.56 140.578 157.509 141.175 156.425 141.71L155.615 142.096L154.836 142.433L153.28 143.101C152.243 143.545 151.207 143.994 150.143 144.371L146.97 145.55C144.822 146.24 142.69 146.982 140.504 147.548C138.341 148.192 136.13 148.656 133.936 149.177C131.718 149.588 129.511 150.065 127.272 150.35C125.045 150.715 122.797 150.915 120.553 151.149C119.429 151.23 118.302 151.285 117.176 151.353C116.613 151.381 116.051 151.428 115.487 151.441L113.796 151.469L112.002 151.498L111.106 151.51L110.209 151.487L106.621 151.396C104.233 151.234 101.843 151.109 99.4664 150.804C94.7042 150.283 89.9853 149.427 85.3453 148.243C82.9483 147.698 80.6023 146.952 78.3325 146.013C77.1516 145.52 76.0105 144.937 74.9191 144.272C73.7781 143.589 72.7203 142.779 71.7663 141.856C70.7753 140.897 69.927 139.804 69.247 138.608C68.565 137.39 68.0852 136.071 67.8261 134.703C67.3649 132.056 67.5709 129.337 68.4257 126.789C68.9392 125.16 69.6316 123.592 70.4905 122.113C70.9049 121.38 71.3632 120.673 71.863 119.995L73.3563 118.008C75.4766 115.471 77.9021 113.2 80.5786 111.247C83.2655 109.38 86.1265 107.773 89.1223 106.447C92.0936 105.178 95.1483 104.109 98.2653 103.249C101.368 102.417 104.501 101.759 107.644 101.233C110.789 100.736 113.938 100.342 117.092 100.051C123.361 99.48 129.74 99.1468 136.178 99.6182C139.418 99.8555 142.634 100.344 145.797 101.08C147.389 101.444 148.962 101.914 150.519 102.432C151.298 102.697 152.071 103.009 152.845 103.299C153.601 103.637 154.368 103.951 155.112 104.312C158.106 105.753 160.911 107.551 163.464 109.668C166.06 111.799 168.317 114.306 170.159 117.104C173.988 122.829 175.508 129.771 174.417 136.555C173.885 139.856 172.882 143.065 171.44 146.086C169.998 149.066 168.2 151.863 166.083 154.417C163.966 156.917 161.607 159.206 159.04 161.25C156.508 163.258 153.837 165.086 151.046 166.72C148.28 168.346 145.449 169.823 142.587 171.179C141.155 171.86 139.724 172.523 138.271 173.139C136.82 173.758 135.383 174.409 133.919 175C128.079 177.413 122.113 179.512 116.045 181.289C109.971 183.082 103.792 184.502 97.5418 185.543C91.277 186.565 84.95 187.169 78.6036 187.35C72.2459 187.547 65.8825 187.234 59.5757 186.415C58.7838 186.341 58.0006 186.198 57.2153 186.073L54.8603 185.691C53.29 185.465 51.7231 185.113 50.158 184.792C47.0332 184.077 43.9507 183.191 40.9247 182.138C37.8908 181.058 34.9366 179.769 32.0835 178.281C29.212 176.771 26.4889 174.999 23.9498 172.987C20.7805 170.489 18.0101 167.531 15.7323 164.213L14.9157 162.938C14.6321 162.52 14.3735 162.086 14.1415 161.638L13.4405 160.296C13.1954 159.854 12.9733 159.401 12.7749 158.937C11.9486 157.095 11.2824 155.186 10.7833 153.232C9.80605 149.341 9.43703 145.324 9.68918 141.321C9.95291 137.356 10.7306 133.44 12.003 129.672C13.2621 125.914 14.949 122.311 17.0311 118.932C19.1203 115.589 21.5338 112.456 24.2374 109.578C29.6017 103.813 35.8667 99.0135 42.4446 94.8681C49.0229 90.7181 55.9285 87.1014 63.094 84.0533C70.2816 80.9866 77.7495 78.6109 85.3951 76.9591C93.0912 75.2853 100.97 74.5847 108.844 74.8742C112.8 75.0242 116.737 75.491 120.617 76.2702C122.556 76.6747 124.486 77.1266 126.39 77.6803C127.34 77.963 128.294 78.2288 129.229 78.5601L130.638 79.035C131.11 79.2031 131.605 79.3838 132.076 79.5802C133.98 80.3519 135.81 81.291 137.545 82.386C139.303 83.4864 140.941 84.7645 142.433 86.1996C143.988 87.6833 145.302 89.3959 146.329 91.2769C147.419 93.2827 147.994 95.5234 148.005 97.8015C147.964 100.103 147.316 102.353 146.124 104.328C144.996 106.129 143.612 107.759 142.015 109.168C141.267 109.855 140.514 110.494 139.744 111.103L137.445 112.955L135.056 114.689C134.654 114.972 134.267 115.277 133.852 115.542L132.615 116.347C126.029 120.665 118.847 124.015 111.291 126.289L108.453 127.099C107.507 127.368 106.54 127.56 105.585 127.794L104.148 128.129C103.668 128.234 103.181 128.311 102.698 128.403L99.7943 128.927C95.9017 129.512 91.9743 129.84 88.038 129.911C87.0545 129.934 86.0699 129.887 85.0864 129.878L83.6108 129.851C83.1195 129.827 82.6287 129.786 82.1377 129.754C81.1555 129.682 80.1753 129.627 79.1919 129.539C78.2063 129.422 77.2182 129.331 76.2382 129.164C74.2701 128.87 72.3195 128.47 70.3953 127.965C69.4383 127.679 68.4703 127.441 67.5283 127.097C67.0554 126.933 66.58 126.778 66.1096 126.607L64.7117 126.047C64.2427 125.87 63.7852 125.66 63.3305 125.442C62.8751 125.226 62.416 125.02 61.9651 124.795C61.0826 124.299 60.1726 123.86 59.3293 123.287C57.5894 122.209 55.9744 120.945 54.5132 119.518L53.4463 118.402C53.086 118.035 52.7914 117.605 52.4624 117.208C51.8227 116.396 51.2358 115.544 50.7052 114.658C50.4493 114.209 50.2276 113.741 49.989 113.282L49.6389 112.591C49.5311 112.356 49.4404 112.115 49.3408 111.877L49.0507 111.16L48.8049 110.426C48.6301 109.941 48.4988 109.442 48.3708 108.942C47.8682 106.945 47.6333 104.892 47.6721 102.835C47.7198 100.803 47.9971 98.783 48.4988 96.8126C49.5201 92.9536 51.1374 89.2744 53.2934 85.9056C55.3949 82.5791 57.8293 79.4711 60.5596 76.6286C61.9157 75.2118 63.3183 73.8356 64.7902 72.5417L69.2406 68.7848C76.5703 62.8969 84.5722 57.8829 93.0819 53.8458C101.527 49.8294 110.387 46.7358 119.507 44.6195C126.703 42.9092 134.059 41.9419 141.456 41.7331C142.952 41.7257 144.364 41.728 145.694 41.74L146.677 41.7503C146.999 41.7588 147.317 41.7885 147.63 41.807L149.448 41.9377C150.621 42.0272 151.718 42.1208 152.738 42.2186C153.759 42.3245 154.704 42.5084 155.58 42.6491C160.68 43.5287 160.552 44.1281 156.162 44.2818C151.783 44.4257 143.054 44.2499 130.914 46.0024C129.955 46.1423 128.987 46.2636 128.019 46.4184C127.057 46.6019 126.089 46.7864 125.117 46.9717C124.145 47.1553 123.168 47.3398 122.187 47.525L119.264 48.221C118.282 48.4373 117.308 48.6998 116.323 48.9328C115.346 49.1913 114.38 49.5033 113.404 49.7861C112.43 50.0751 111.454 50.3648 110.476 50.655C109.499 50.9489 108.546 51.3193 107.578 51.6475C99.8701 54.3075 92.439 57.6985 85.3879 61.7731L82.4097 63.5322C81.9067 63.8153 81.4288 64.1372 80.9497 64.4571L79.5091 65.4123L76.6269 67.3224L73.8511 69.3801L72.4629 70.4091C71.9992 70.7511 71.5327 71.0895 71.0973 71.4663L68.4364 73.6682C66.6516 75.1004 64.955 76.6373 63.3558 78.2708C61.757 79.8905 60.2552 81.6015 58.8581 83.3951C57.4602 85.1744 56.1907 87.0494 55.0592 89.006C53.9285 90.9405 52.9825 92.9753 52.2332 95.0841C51.4844 97.1619 51.0053 99.3256 50.8072 101.523C50.3949 105.882 51.5031 110.248 53.9469 113.895C55.1626 115.709 56.6521 117.327 58.3633 118.692C60.1136 120.058 62.0121 121.226 64.0236 122.174C66.0579 123.137 68.1756 123.916 70.351 124.502C72.5354 125.112 74.7613 125.566 77.0114 125.861C77.5723 125.951 78.1388 126.003 78.7042 126.062C79.2692 126.123 79.8337 126.186 80.4078 126.209C81.5513 126.273 82.6936 126.355 83.8372 126.404L87.2723 126.431C88.4169 126.414 89.5609 126.342 90.7047 126.3C95.2776 126.025 99.8187 125.366 104.279 124.328L105.946 123.92C106.501 123.783 107.059 123.658 107.604 123.483L110.89 122.501L114.125 121.365C115.197 120.97 116.245 120.514 117.306 120.092C121.508 118.309 125.554 116.183 129.403 113.737C130.347 113.102 131.321 112.509 132.24 111.839L134.991 109.821C136.769 108.443 138.475 106.977 140.103 105.427C141.63 103.893 142.883 102.216 143.468 100.398C144.066 98.5614 144.027 96.5793 143.356 94.7677C142.621 92.8512 141.481 91.1131 140.011 89.6705C138.487 88.1381 136.772 86.8047 134.907 85.7028C133.03 84.5729 131.032 83.6517 128.951 82.956C127.875 82.6029 126.803 82.2376 125.709 81.9427C124.625 81.6128 123.521 81.3555 122.422 81.0827C120.211 80.5845 117.984 80.1481 115.731 79.8665C114.609 79.7007 113.478 79.601 112.349 79.477C111.785 79.421 111.217 79.3913 110.651 79.3469C110.084 79.3052 109.518 79.2602 108.949 79.2457C98.9127 78.7645 88.599 80.2594 78.7513 83.0582C69.0271 85.8783 59.6507 89.7649 50.7958 94.6459C43.8755 98.4234 37.2282 102.713 31.3756 107.884C28.4551 110.458 25.7673 113.28 23.343 116.318C20.9343 119.341 18.8909 122.632 17.2548 126.126C14.021 133.099 12.5676 140.939 13.5288 148.487C14.0145 152.248 15.1988 155.888 17.0217 159.221C18.8628 162.551 21.2579 165.549 24.106 168.088C26.9857 170.65 30.1826 172.838 33.6198 174.6C37.0848 176.384 40.7087 177.848 44.4452 178.972C48.1988 180.116 52.0349 180.975 55.9201 181.541L58.8462 181.979C59.8217 182.122 60.8083 182.188 61.7884 182.297L64.733 182.589L67.6896 182.748C75.5843 183.132 83.4979 182.784 91.3277 181.711C99.1609 180.605 106.9 178.922 114.481 176.676C117.309 175.878 120.093 174.927 122.88 173.989L127.026 172.473C128.405 171.962 129.763 171.389 131.132 170.85C132.506 170.32 133.851 169.719 135.202 169.133C136.555 168.55 137.905 167.961 139.239 167.343C141.906 166.108 144.525 164.806 147.062 163.389C152.12 160.55 156.872 157.224 160.754 153.108C161.72 152.09 162.63 151.021 163.479 149.906C164.315 148.785 165.086 147.618 165.789 146.411C167.201 144.018 168.285 141.45 169.014 138.774C169.738 136.142 170.031 133.412 169.879 130.688C169.697 127.994 169.028 125.355 167.906 122.896C166.762 120.405 165.221 118.112 163.343 116.106C161.445 114.063 159.295 112.266 156.942 110.757C154.579 109.234 152.048 107.984 149.398 107.032C146.707 106.081 143.934 105.375 141.113 104.923C135.441 103.985 129.586 103.903 123.721 104.205C121.11 104.345 118.466 104.542 115.86 104.811C114.55 104.924 113.255 105.101 111.953 105.25C110.657 105.425 109.363 105.61 108.075 105.817C102.955 106.608 97.9273 107.906 93.0682 109.692C91.8835 110.173 90.6811 110.623 89.5457 111.195C88.9753 111.475 88.3822 111.718 87.8293 112.027L86.1668 112.946C85.5989 113.232 85.0853 113.596 84.5536 113.934C84.0298 114.282 83.4822 114.601 82.9761 114.971C81.9585 115.701 80.9808 116.484 80.0472 117.317C79.5895 117.74 79.1061 118.14 78.6665 118.58L77.3962 119.947C77.1888 120.179 76.9602 120.393 76.7696 120.638L76.2024 121.377L75.0672 122.853C73.6729 124.814 72.6576 127.014 72.073 129.341C71.4898 131.515 71.6271 133.818 72.4648 135.908C73.3322 137.91 75.006 139.535 77.0495 140.773C81.1633 143.267 86.443 144.297 91.5365 145.349C101.823 147.32 112.354 147.709 122.76 146.503C127.959 145.924 133.107 144.961 138.161 143.623C139.416 143.261 140.685 142.942 141.93 142.547L145.655 141.33L149.324 139.957C150.538 139.477 151.73 138.944 152.937 138.447C153.235 138.319 153.546 138.196 153.833 138.065L154.677 137.666C155.235 137.389 155.779 137.093 156.315 136.785C157.363 136.178 158.35 135.471 159.261 134.675C160.115 133.942 160.839 133.073 161.403 132.103C161.903 131.242 162.132 130.253 162.059 129.262C161.981 128.285 161.609 127.354 160.992 126.589C160.303 125.746 159.436 125.064 158.453 124.589C157.377 124.057 156.24 123.657 155.067 123.399C154.766 123.33 154.463 123.284 154.164 123.195C153.857 123.155 153.551 123.101 153.242 123.071C152.621 123.002 152.012 122.954 151.375 122.938C140.939 122.635 130.673 125.603 122.037 131.419C120.975 132.154 119.913 132.907 118.961 133.712C118.004 134.532 117.107 135.419 116.279 136.367C115.469 137.315 114.74 138.329 114.097 139.396C113.491 140.449 113.01 141.568 112.664 142.732C112.355 143.854 112.26 145.024 112.385 146.18C112.438 146.459 112.454 146.746 112.529 147.019L112.776 147.832C112.871 148.099 113.015 148.349 113.129 148.609C113.245 148.87 113.384 149.12 113.543 149.357C114.802 151.281 116.962 152.635 119.299 153.599C120.238 153.986 121.199 154.339 122.196 154.643C123.193 154.94 124.174 155.284 125.178 155.543C127.177 156.095 129.188 156.566 131.212 156.954C135.23 157.711 139.302 158.162 143.39 158.303C151.383 158.52 159.376 157.842 167.216 156.281C182.637 153.267 196.906 148.092 210.111 142.819C216.178 140.36 219.052 139.281 218.741 139.748C218.415 140.185 214.932 142.215 208.034 145.482C205.587 146.623 203.112 147.751 200.603 148.847C199.353 149.405 198.075 149.907 196.798 150.421C195.524 150.941 194.231 151.428 192.941 151.929C187.763 153.889 182.458 155.703 177.017 157.206C174.288 157.93 171.544 158.637 168.756 159.205C167.371 159.519 165.962 159.75 164.565 160.025C163.154 160.243 161.752 160.51 160.331 160.683C157.502 161.101 154.64 161.342 151.775 161.535C148.906 161.674 146.028 161.744 143.149 161.633C138.376 161.486 133.626 160.902 128.961 159.888C127.79 159.625 126.615 159.373 125.459 159.039L123.717 158.566L121.995 158.021C119.576 157.334 117.252 156.354 115.076 155.104C113.893 154.41 112.815 153.552 111.874 152.558C111.39 152.029 110.957 151.458 110.58 150.85C110.388 150.544 110.218 150.226 110.071 149.897C109.904 149.577 109.758 149.246 109.633 148.908C109.148 147.549 108.922 146.112 108.967 144.671C109.049 143.297 109.325 141.941 109.788 140.643C110.237 139.407 110.815 138.222 111.514 137.106C112.187 136.018 112.945 134.983 113.781 134.011C114.209 133.545 114.615 133.055 115.073 132.619L115.745 131.95L116.45 131.315C116.911 130.882 117.423 130.504 117.91 130.1L119.385 129.014C119.416 128.964 119.446 128.917 119.488 128.859Z" fill="black"/>
</svg>
