<svg width="228" height="228" viewBox="0 0 228 228" fill="none" xmlns="http://www.w3.org/2000/svg">
<path d="M182.632 139.115C178.961 132.074 174.543 125.448 169.454 119.353C164.369 113.234 158.59 107.727 152.234 102.943C148.88 100.391 145.348 98.0824 141.665 96.033C138.074 94.0065 134.214 92.4968 130.2 91.5483C124.912 90.4116 119.421 90.632 114.24 92.1891C109.021 93.7532 104.199 96.4223 100.102 100.015C96.0265 103.592 92.8143 108.046 90.707 113.043C90.4267 113.65 90.2464 114.306 90.0149 114.937L89.6838 115.89L89.5177 116.367L89.3928 116.857L88.8917 118.815C88.8516 118.978 88.8034 119.14 88.7696 119.305L88.6849 119.804L88.5142 120.802C88.2823 122.132 88.121 123.474 88.0311 124.821C87.9687 125.494 87.9963 126.174 87.9729 126.849C87.9436 127.525 87.9502 128.202 87.9927 128.877L88.1067 130.906C88.1618 131.58 88.2731 132.251 88.3516 132.924L88.4728 133.933C88.5129 134.27 88.5959 134.6 88.655 134.934L89.0401 136.933C89.1977 137.593 89.3859 138.246 89.5559 138.903L89.8162 139.887C89.9137 140.212 90.0328 140.531 90.1397 140.853L90.7952 142.782L91.5792 144.663L91.9711 145.603L92.4271 146.513L93.3387 148.334L94.3748 150.085L94.8934 150.96L95.4715 151.796L96.6281 153.467L97.8973 155.05C98.1113 155.312 98.3129 155.584 98.5364 155.837L99.2267 156.579C99.6895 157.069 100.139 157.577 100.61 158.056C104.433 161.84 109.045 164.732 114.116 166.526C116.603 167.403 119.199 167.934 121.83 168.105C124.407 168.261 126.993 167.983 129.478 167.283C129.861 167.191 130.236 167.069 130.599 166.918L131.708 166.512C132.435 166.209 133.144 165.862 133.83 165.473C135.223 164.698 136.526 163.771 137.716 162.71C138.921 161.631 140.026 160.445 141.018 159.168C142.016 157.871 142.901 156.491 143.663 155.043C145.208 152.113 146.287 148.96 146.863 145.699C147.445 142.372 147.641 138.99 147.447 135.619C147.357 133.92 147.203 132.216 146.955 130.517C146.7 128.82 146.38 127.128 146.005 125.444L145.71 124.182C145.608 123.763 145.488 123.346 145.377 122.928L144.702 120.42C144.482 119.583 144.185 118.768 143.93 117.94C143.655 117.118 143.424 116.282 143.114 115.472C140.764 108.927 137.752 102.64 134.123 96.7076C130.451 90.7728 126.282 85.1609 121.659 79.9322C117.002 74.7093 111.956 69.8465 106.565 65.3856C101.168 60.916 95.4717 56.8205 89.516 53.1278C83.563 49.415 77.3612 46.1166 70.9549 43.2562C63.2188 39.7948 55.2268 36.936 47.0505 34.7054L45.6313 34.3087C45.165 34.1942 44.7093 34.0823 44.2639 33.9729L41.716 33.3297C40.1039 32.8871 38.6271 32.5939 37.3081 32.2672C34.6721 31.5975 32.5988 31.1704 31.0219 30.7375C28.7237 30.1206 28.7592 29.84 30.8158 29.8792C31.8428 29.9052 33.3791 29.9855 35.3705 30.1944C36.3624 30.3224 37.4675 30.4752 38.6856 30.6528L40.5912 30.9383C41.2482 31.0658 41.9316 31.1984 42.6414 31.336C50.1394 32.7936 57.5028 34.8741 64.6549 37.5559C72.8234 40.6148 80.7287 44.3349 88.2923 48.6792C89.2337 49.2271 90.1598 49.8013 91.0944 50.3608C92.022 50.9317 92.9709 51.4689 93.8812 52.0674L96.6085 53.8677L97.9723 54.7674C98.4247 55.0705 98.8615 55.3967 99.3066 55.71C101.075 56.9812 102.873 58.214 104.577 59.5723L107.165 61.5666C108.012 62.2512 108.843 62.9563 109.682 63.65C113.058 66.4048 116.26 69.3721 119.352 72.4462C122.451 75.5201 125.393 78.7489 128.166 82.12C130.961 85.4844 133.566 89.0015 135.971 92.655C138.401 96.3065 140.602 100.105 142.563 104.028L143.372 105.662L143.778 106.481L144.152 107.319C144.644 108.439 145.153 109.557 145.637 110.689C146.085 111.836 146.533 112.985 146.982 114.134C147.42 115.288 147.784 116.47 148.185 117.636C148.601 118.798 148.902 119.994 149.24 121.174C149.405 121.766 149.569 122.357 149.733 122.946C149.876 123.542 150.019 124.137 150.162 124.73C150.696 127.093 151.106 129.481 151.39 131.887C151.863 135.714 151.922 139.581 151.564 143.42C151.205 147.328 150.259 151.16 148.756 154.785C147.218 158.451 145.045 161.817 142.335 164.726C140.948 166.186 139.41 167.495 137.749 168.634C136.912 169.208 136.042 169.732 135.143 170.203L133.771 170.874L132.348 171.431C131.398 171.798 130.425 172.103 129.436 172.344C128.945 172.477 128.447 172.581 127.944 172.655C127.444 172.741 126.944 172.836 126.442 172.912C124.436 173.146 122.411 173.168 120.4 172.978C116.432 172.601 112.558 171.544 108.948 169.855C105.373 168.198 102.049 166.048 99.0714 163.468C96.1261 160.885 93.5415 157.917 91.3868 154.645C88.1635 149.824 85.8184 144.47 84.4597 138.832C84.2556 138.137 84.1472 137.419 84.0054 136.709C83.8781 135.996 83.716 135.289 83.6191 134.571L83.3672 132.411C83.3326 132.05 83.2726 131.692 83.2593 131.329L83.2127 130.241C83.1858 129.516 83.1436 128.791 83.1315 128.066L83.1982 125.887L83.237 124.798L83.3515 123.712L83.5844 121.542L83.9814 119.393L84.1826 118.319C84.2647 117.964 84.3682 117.613 84.4604 117.26L85.0329 115.148C85.2559 114.454 85.5208 113.772 85.7639 113.083C86.7538 110.327 88.0772 107.702 89.7046 105.267C90.5074 104.05 91.3737 102.876 92.3 101.751C93.2313 100.634 94.2187 99.5655 95.2585 98.549C97.3325 96.5176 99.6037 94.698 102.039 93.1172C106.391 90.2812 111.241 88.2952 116.333 87.2639C121.462 86.2339 126.755 86.3449 131.837 87.5891C136.88 88.8216 141.558 91.0074 145.905 93.5448C150.225 96.0965 154.354 98.9598 158.258 102.112C173.871 114.698 185.799 131.58 192.904 150.231C194.286 153.901 195.468 157.644 196.444 161.443C197.367 165.109 198.075 168.825 198.565 172.573C199.024 176.153 199.269 179.758 199.297 183.367C199.268 185.127 199.261 186.857 199.133 188.561C199.057 190.264 198.871 191.936 198.696 193.576C198.572 194.685 198.384 195.785 198.131 196.872C197.996 197.566 197.79 197.847 197.656 197.726C197.364 197.484 197.018 195.611 196.669 192.161C196.648 191.552 196.627 190.941 196.606 190.328C196.566 189.717 196.525 189.103 196.484 188.488C196.44 187.874 196.41 187.258 196.356 186.642C196.295 186.027 196.233 185.41 196.171 184.792C196.058 183.556 195.912 182.319 195.767 181.079C195.643 179.837 195.445 178.599 195.263 177.357C194.504 172.368 193.427 167.432 192.038 162.58C189.762 154.465 186.646 146.61 182.742 139.141C182.705 139.134 182.668 139.125 182.632 139.115Z" fill="black"/>
</svg>
