<svg width="196" height="195" viewBox="0 0 196 195" fill="none" xmlns="http://www.w3.org/2000/svg">
<path d="M109.701 49.8206C110.206 50.1401 110.783 50.5759 111.317 50.9726C111.595 51.1685 111.85 51.3883 112.104 51.6095L112.868 52.2699C113.346 52.7376 113.834 53.1988 114.28 53.6898C114.715 54.1888 115.172 54.6734 115.561 55.1997C117.181 57.2655 118.483 59.4949 119.526 61.7734C121.621 66.3423 122.863 71.038 123.945 75.6662C124.514 78.1377 125.008 80.6362 125.425 83.1513C125.832 85.6688 126.156 88.2028 126.402 90.744C127.042 97.5181 126.902 104.464 125.516 111.242C124.84 114.626 123.894 117.947 122.708 121.173C121.536 124.405 120.125 127.541 118.533 130.575C116.949 133.618 115.168 136.529 113.235 139.371C111.271 142.202 109.109 144.962 106.548 147.452C105.27 148.695 103.913 149.886 102.429 150.951C100.948 152.017 99.3613 152.974 97.6777 153.774C97.2516 153.965 96.8307 154.166 96.3983 154.344L95.0831 154.843C94.1715 155.136 93.2354 155.431 92.2912 155.603C90.4046 155.981 88.4834 156.157 86.5695 156.047C84.2142 155.931 81.864 155.463 79.6176 154.591C77.3759 153.723 75.227 152.426 73.4367 150.653C71.6443 148.896 70.2484 146.644 69.4862 144.264C68.6991 141.875 68.4887 139.363 68.728 136.991C68.9553 134.61 69.5644 132.339 70.4168 130.211C71.2834 128.087 72.3876 126.095 73.6854 124.237C76.2582 120.574 79.3221 117.589 82.2118 114.706C83.6601 113.269 85.0745 111.86 86.3967 110.425C87.0556 109.707 87.6963 108.987 88.2934 108.246C88.8649 107.489 89.4733 106.76 90.0203 105.984C92.2194 102.887 93.9963 99.4804 95.3154 95.9018C97.955 88.7455 98.7676 80.8916 97.5594 73.3826C97.4195 72.2415 97.1336 71.1287 96.9196 69.9977L96.8344 69.5747L96.7221 69.1589L96.501 68.3258C96.3487 67.7682 96.2257 67.2157 96.0566 66.6501C95.7204 65.5192 95.3253 64.3002 94.9985 62.9827C94.6766 61.6622 94.4147 60.2219 94.435 58.6793C94.4398 57.9362 94.5263 57.2425 94.6907 56.5246C94.7401 56.3385 94.7888 56.1547 94.837 55.9729C94.8942 55.7966 94.9614 55.6288 95.025 55.4616C95.1449 55.1222 95.3148 54.8263 95.4659 54.5302C96.117 53.3764 96.9612 52.5472 97.8291 51.9636C98.7004 51.3821 99.6178 51.0625 100.453 50.9741C101.292 50.8792 102.042 51.0607 102.582 51.3228C102.78 51.4333 102.94 51.5427 103.066 51.6479C103.191 51.7625 103.279 51.8869 103.343 51.994C103.469 52.2129 103.488 52.3997 103.438 52.5632C103.388 52.7265 103.268 52.8681 103.113 52.9939C102.957 53.1206 102.769 53.2149 102.565 53.3546C102.156 53.6146 101.733 53.8962 101.247 54.4249C100.765 54.9206 100.198 55.7483 99.901 56.7108C99.8413 56.8602 99.832 57.0114 99.7897 57.1571L99.766 57.3716L99.7505 57.4773L99.7441 57.6148C99.7112 57.9801 99.7331 58.3683 99.7617 58.7669C99.8337 59.5689 100.029 60.4485 100.305 61.3881C100.582 62.3312 100.932 63.3276 101.29 64.3933L101.554 65.2044L101.792 66.0438C101.947 66.6028 102.101 67.1591 102.253 67.7114L102.383 68.1886L102.483 68.6724L102.682 69.6398C102.805 70.2861 102.968 70.9252 103.057 71.5761C103.224 72.8788 103.467 74.1719 103.532 75.4818L103.681 77.4401L103.715 79.4014L103.731 80.3814C103.73 80.7079 103.707 81.034 103.696 81.3602L103.612 83.3163C103.254 88.5237 102.103 93.6545 100.275 98.5378C98.3877 103.399 95.7802 108 92.4885 112.105C89.1808 116.174 85.4424 119.57 82.2949 123.158C80.5548 125.129 78.9549 127.224 77.7456 129.34C77.1425 130.418 76.6126 131.522 76.1571 132.63C75.7103 133.741 75.3629 134.856 75.0833 135.954C74.6718 137.705 74.5209 139.493 74.8124 141.166C74.8964 141.58 74.9579 142.003 75.0975 142.398C75.1619 142.598 75.2055 142.806 75.2833 143.001L75.5225 143.583C75.563 143.68 75.5979 143.78 75.642 143.874L75.7937 144.146L76.0909 144.693C76.1764 144.885 76.3179 145.042 76.4353 145.214L76.7972 145.727C78.8828 148.382 82.4727 149.971 86.1555 150.309C88.0026 150.484 89.8891 150.361 91.6796 149.942C92.1297 149.845 92.5594 149.69 93.0019 149.572C93.4438 149.424 93.8895 149.242 94.3345 149.082C94.7688 148.885 95.2067 148.698 95.6388 148.494C96.0612 148.267 96.4943 148.063 96.9105 147.821C100.263 145.914 103.22 143.175 105.857 140.1C107.821 137.813 109.592 135.293 111.245 132.68C112.897 130.074 114.389 127.369 115.701 124.586C117.018 121.805 118.159 118.947 119.079 116.026C120.003 113.108 120.74 110.135 121.21 107.124C122.081 101.756 122.192 96.2442 121.721 90.7593C121.255 85.2707 120.233 79.8051 118.848 74.4164C118.161 71.7164 117.384 69.0747 116.405 66.5366C115.909 65.2734 115.384 64.0243 114.767 62.8371C114.478 62.2302 114.133 61.6628 113.811 61.0793C113.458 60.5197 113.123 59.9449 112.734 59.4155C112.371 58.8633 111.951 58.3632 111.551 57.845C111.115 57.3636 110.705 56.8516 110.229 56.4136C109.994 56.1923 109.778 55.9467 109.528 55.7437L108.792 55.1155C108.546 54.9067 108.276 54.7316 108.02 54.5367C107.761 54.3434 107.509 54.1573 107.216 53.9728C106.64 53.5947 105.982 53.1892 105.312 52.6427C104.978 52.369 104.64 52.0569 104.326 51.6921C104.016 51.3358 103.713 50.8929 103.502 50.4716C103.101 49.6725 102.864 48.9856 102.614 48.2903C102.372 47.6186 102.149 46.8749 101.936 46.4829C101.518 45.6016 100.801 44.8007 99.9306 44.1589C99.06 43.5154 98.0446 43.0241 96.9922 42.707C94.8916 42.073 92.592 42.1259 90.9073 43.1775L90.8109 41.3289C92.2221 42.3514 93.6104 43.4114 94.803 44.6445C96.0034 45.8598 96.9611 47.2871 97.4941 48.7764C97.7769 49.616 97.8301 50.2674 97.7482 50.6992C97.6714 51.1308 97.5032 51.3329 97.2792 51.3342C96.8053 51.3396 96.271 50.5187 95.2958 49.2315C93.8479 47.3394 91.4876 45.9649 88.8391 44.5083C87.6124 43.8336 87.1678 42.2973 87.8459 41.0768C88.0065 40.7878 88.2156 40.5425 88.4576 40.3452L88.6155 40.2182C90.2283 38.912 92.208 38.277 94.0782 38.1196C95.9642 37.9615 97.8008 38.2322 99.5302 38.8265C100.999 39.3408 102.412 40.1086 103.671 41.1963C104.301 41.735 104.884 42.3726 105.395 43.0863L105.761 43.644C105.882 43.8299 106.001 44.0161 106.094 44.2284L106.383 44.8498C106.476 45.0559 106.579 45.2828 106.627 45.432L107.244 47.1682C107.341 47.4328 107.439 47.6844 107.534 47.9063C107.624 48.1231 107.726 48.3284 107.762 48.3898C107.849 48.5343 108.006 48.7344 108.328 48.99C108.642 49.2449 109.082 49.5323 109.616 49.8702C109.644 49.8527 109.67 49.8368 109.701 49.8206Z" fill="black"/>
</svg>
