<svg width="194" height="195" viewBox="0 0 194 195" fill="none" xmlns="http://www.w3.org/2000/svg">
<path d="M132.305 31.5304C135.745 33.4456 139.051 35.6155 142.169 38.0496C145.281 40.4847 148.23 43.1786 150.86 46.1654C156.1 52.0722 160.355 58.7427 163.676 65.8173C167.205 73.3224 169.63 81.347 171.018 89.5236C171.462 92.2561 171.788 95.0126 171.959 97.7876C172.111 100.564 172.121 103.354 171.967 106.146C171.808 108.938 171.448 111.727 170.918 114.492C170.771 115.181 170.654 115.876 170.48 116.561L169.966 118.617L169.359 120.652C169.168 121.334 168.901 121.995 168.674 122.667C168.553 123 168.443 123.338 168.312 123.669L167.908 124.656C167.637 125.314 167.371 125.984 167.078 126.596L166.216 128.475C165.918 129.096 165.605 129.711 165.3 130.329L164.839 131.256L164.349 132.168C164.02 132.775 163.7 133.387 163.363 133.99C162.668 135.185 161.99 136.39 161.241 137.555C160.524 138.739 159.731 139.876 158.962 141.028C158.149 142.151 157.356 143.289 156.491 144.376C154.794 146.572 152.987 148.69 151.049 150.688C149.116 152.689 147.09 154.607 144.943 156.385C142.795 158.163 140.55 159.825 138.218 161.357C133.553 164.422 128.515 166.913 123.278 168.834C118.03 170.732 112.572 172.025 107.046 172.723C101.516 173.4 95.9218 173.474 90.382 172.98C76.7401 171.724 63.4535 166.977 52.0812 159.29C46.3963 155.449 41.1889 150.881 36.6435 145.717L35.7926 144.748L34.9593 143.733C34.395 143.063 33.8678 142.362 33.3432 141.66C32.2889 140.259 31.3215 138.794 30.391 137.308C28.5593 134.316 27.0045 131.158 25.721 127.902C23.1366 121.388 21.7483 114.47 21.3066 107.557C20.8958 100.636 21.4459 93.7043 22.8034 86.9689C25.5452 73.4978 31.3883 60.7602 39.7575 49.8998C44.8191 43.3531 51.1178 37.6546 58.0252 33.2844C61.3449 31.2041 64.3273 29.9088 66.8519 29.1373C68.11 28.7393 69.2725 28.507 70.3021 28.3324C71.3493 28.1988 72.2622 28.1138 73.0823 28.1446C75.4629 28.2198 75.6817 29.1033 74.2192 30.4174C74.0362 30.5823 73.8258 30.7516 73.5911 30.9313C73.359 31.1182 73.1014 31.3123 72.8189 31.5126C72.5364 31.7129 72.2288 31.9193 71.8969 32.1318C71.5702 32.3572 71.2194 32.5891 70.8448 32.8267C69.3489 33.7825 67.5011 34.8995 65.384 36.2688C60.01 39.6996 54.5667 44.1135 49.98 48.9218C44.6804 54.4337 40.2195 60.8043 36.7359 67.6715C33.2412 74.534 30.7154 81.9053 29.331 89.4648C28.6271 93.2426 28.2419 97.0695 28.1389 100.892C28.0679 104.713 28.282 108.533 28.874 112.282C30.0306 119.78 32.6231 127.005 36.6376 133.294C37.7543 135.022 38.9806 136.699 40.2961 138.308C41.6133 139.891 43.0858 141.469 44.5573 142.978C47.5468 145.975 50.7107 148.743 53.9202 151.24C56.4767 153.243 59.183 155.068 62.0076 156.699C64.835 158.326 67.7829 159.752 70.8145 160.976C76.8778 163.424 83.2851 165.051 89.789 165.766C102.794 167.245 116.164 165.074 127.909 159.433C136.659 155.271 144.436 149.034 150.625 141.44C152.162 139.532 153.637 137.568 154.997 135.52C156.344 133.465 157.646 131.373 158.805 129.195L159.251 128.385L159.673 127.561L160.513 125.912L161.304 124.235L161.699 123.397L162.051 122.57C162.275 122.015 162.536 121.477 162.732 120.91L163.351 119.221C163.71 118.074 164.091 116.933 164.375 115.759C164.672 114.726 164.865 113.663 165.102 112.612L165.379 111.014L165.516 110.215L165.619 109.409C165.935 107.266 166.055 105.09 166.141 102.914C166.229 98.5566 165.938 94.1668 165.212 89.8332C164.882 87.661 164.394 85.5136 163.887 83.3725C163.326 81.2444 162.739 79.119 162.01 77.0382C160.608 72.8586 158.839 68.8027 156.775 64.9091C152.625 57.1481 147.251 49.9709 140.548 44.3859C133.839 38.7533 125.94 34.5104 117.614 31.6165C110.954 29.3226 104.226 27.8678 97.6773 27.1737C91.1256 26.4812 84.7512 26.5537 78.7115 27.3614C78.0194 27.4636 77.4037 27.5059 76.884 27.5564C76.3638 27.6052 75.9269 27.617 75.576 27.5954C74.8744 27.5521 74.5166 27.3754 74.532 27.0916C74.5472 26.8078 74.9365 26.4163 75.7266 25.946C76.1216 25.7113 76.6145 25.4482 77.2204 25.2154C77.8254 24.9808 78.5267 24.7011 79.3434 24.4775C81.6481 23.7984 84.0294 23.3066 86.4486 22.9086C88.8711 22.5466 91.3336 22.3157 93.8146 22.2176C98.7748 22.0552 103.8 22.4118 108.721 23.2797C116.832 24.6674 124.825 27.6611 132.189 31.5905C132.227 31.5692 132.262 31.5497 132.305 31.5304Z" fill="black"/>
<path d="M81.3345 86.731C77.6197 86.3487 73.8019 87.0361 70.4502 88.6909C75.2236 90.5454 80.6107 90.7601 85.5151 89.291C86.1144 89.1115 86.8425 88.6786 86.6879 88.0695C86.6052 87.744 86.2886 87.5419 85.9901 87.3908C83.9127 86.3397 81.4073 86.1787 79.2137 86.9554" fill="black"/>
<path d="M84.5097 82.9117C85.3385 83.1755 86.1334 83.5274 86.8807 83.9564C87.0685 84.0602 87.25 84.1802 87.4321 84.2925C87.6052 84.4034 87.9096 84.5837 88.2635 84.8662C88.6177 85.1566 89.1052 85.5935 89.4987 86.3612C89.8931 87.1413 90.0314 88.075 89.8255 88.9966C89.7734 89.2441 89.697 89.4493 89.6089 89.6652C89.5201 89.8749 89.4244 90.0408 89.3157 90.22C89.2151 90.3737 89.1065 90.5195 88.9963 90.6515C88.8957 90.7659 88.7826 90.8878 88.6798 90.9834C88.264 91.3687 87.8987 91.5806 87.5659 91.7524C87.2321 91.9203 86.9276 92.0378 86.6178 92.14L86.383 92.213L86.251 92.2498L85.9905 92.3317C84.1535 92.9731 82.2455 93.4396 80.2938 93.6831C78.3439 93.9329 76.3499 93.9362 74.3807 93.6725C73.4778 93.5389 72.5757 93.3768 71.6891 93.1396C70.7985 92.9191 69.9251 92.6249 69.0605 92.3064C67.0759 91.5753 66.0567 89.3656 66.7841 87.3708C67.1356 86.407 67.8304 85.6697 68.6786 85.2475L68.7506 85.2119C70.1693 84.5098 71.6536 83.9534 73.1773 83.5615C74.6997 83.1649 76.2595 82.9252 77.8283 82.8384C78.5849 82.7873 79.3588 83.0647 80.0786 83.3569C80.7745 83.6515 81.1516 84.609 81.2857 85.8286C81.3854 86.7163 81.2773 87.6162 81.0685 88.3438C80.8566 89.0757 80.5519 89.6165 80.1838 89.826C79.7174 90.0776 79.2388 90.0819 78.7689 89.9865C76.6073 89.5698 74.3034 90.1849 72.6302 91.613C72.4515 91.7614 72.2858 91.938 72.1103 92.087L71.8079 85.1618C72.1938 85.1881 72.5439 85.2811 72.8388 85.5222C73.5974 86.1741 74.5169 86.478 75.4487 86.6422C76.385 86.8106 77.3301 86.8569 78.2758 87.0406C79.6933 87.3097 81.1354 87.1242 82.5603 86.9894C82.8805 86.9626 83.2005 86.9294 83.5186 86.882C83.8396 86.8458 84.1562 86.789 84.4748 86.7336L84.7143 86.6931L84.744 86.6882L84.7472 86.6899L84.754 86.6944L84.7692 86.7022C84.7727 86.7041 84.7779 86.7071 84.7811 86.7105L84.8489 86.8484C84.9309 87.0135 85.0394 87.1983 85.1583 87.3781C85.3933 87.7387 85.7043 88.0462 85.9043 88.1576C85.9429 88.1851 86.0058 88.2079 86.0242 88.2171C86.0648 88.2301 86.0735 88.2316 86.0834 88.2334C86.0987 88.2343 86.0686 88.2324 86.0641 88.2349C86.046 88.2355 86.0291 88.2378 86.0138 88.2414L85.9919 88.2478L85.9893 88.2488C85.9278 88.2646 86.0716 88.2278 86.0568 88.2316L86.0553 88.232L86.0534 88.2326C86.0351 88.2333 85.799 88.3375 85.4576 88.7966L85.3194 88.9888L85.1625 89.2263L84.9799 89.525L84.9318 89.608C84.9183 89.6317 84.9294 89.6141 84.9256 89.6186L84.9243 89.6143C84.9226 89.6083 84.9123 89.5981 84.8974 89.5856L84.819 89.5349C84.6023 89.3893 84.3696 89.2609 84.1281 89.1429C83.6446 88.9064 83.1139 88.7399 82.5649 88.6328C81.6783 88.474 80.8749 88.0013 79.5261 86.8982C78.9072 86.3956 78.3053 84.8929 78.8735 84.3294C79.6563 83.5608 80.6917 83.0474 81.7728 82.8226C82.6689 82.6332 83.5941 82.8427 84.4809 83.0175C84.4907 82.9819 84.4996 82.9488 84.5097 82.9117Z" fill="black"/>
<path d="M110.162 86.8464C107.434 86.4124 104.588 86.7632 102.045 87.8465C101.759 87.9687 101.448 88.1298 101.347 88.426C101.142 89.0321 101.93 89.4678 102.551 89.6085C105.743 90.3312 109.012 90.7085 112.283 90.7318C114.556 90.7479 117.043 90.5048 118.674 88.9137C115.716 87.2805 112.278 86.5391 108.914 86.809" fill="black"/>
<path d="M114.454 83.3785C115.914 83.8736 117.294 84.5352 118.589 85.2992C119.114 85.6012 119.615 85.9431 120.135 86.2394L120.279 86.3213C121.693 87.1274 122.19 88.9335 121.388 90.3554C121.227 90.6401 121.017 90.8958 120.788 91.1034L120.212 91.6203C119.131 92.5595 117.879 93.1629 116.72 93.526C115.549 93.9006 114.44 94.0743 113.396 94.1844C112.337 94.2886 111.416 94.3274 110.445 94.3453C109.483 94.3587 108.518 94.3345 107.557 94.2624C106.373 94.1738 105.192 94.0352 104.019 93.8403C103.432 93.7455 102.848 93.6334 102.266 93.5132L101.83 93.4195L101.721 93.3959L101.492 93.3402C101.325 93.2963 101.168 93.249 101.008 93.193C100.692 93.0835 100.379 92.95 100.035 92.7604C99.6893 92.5647 99.3282 92.3402 98.895 91.9282C98.6758 91.7146 98.4552 91.4724 98.2277 91.1346C98.1253 90.9896 98.0012 90.7692 97.9047 90.5714C97.8081 90.3819 97.7103 90.1233 97.6379 89.8801C97.5633 89.6423 97.5112 89.3613 97.4811 89.0887C97.4483 88.8136 97.4509 88.5447 97.4705 88.272C97.4899 87.9898 97.5357 87.7573 97.5955 87.5174C97.6533 87.2813 97.7337 87.0434 97.8382 86.8062C98.0434 86.3391 98.3207 85.9365 98.5942 85.6288C98.8692 85.3188 99.1379 85.095 99.3742 84.9231C99.8467 84.5861 100.194 84.4333 100.444 84.32L100.956 84.1115C101.116 84.0454 101.279 83.987 101.442 83.9288C101.767 83.8081 102.098 83.7063 102.428 83.6039C103.754 83.2147 105.115 82.9681 106.488 82.8787C107.319 82.8208 108.167 83.0917 108.944 83.4154C109.697 83.728 110.07 84.7162 110.154 85.9414C110.217 86.835 110.054 87.7266 109.806 88.4418C109.556 89.1546 109.229 89.6938 108.866 89.8814C108.403 90.1257 107.946 90.1131 107.489 90.0209C106.442 89.811 105.339 89.8935 104.337 90.2464C104.086 90.3351 103.843 90.4405 103.606 90.5588L103.264 90.7478C103.26 90.7522 103.251 90.7584 103.251 90.7607L103.25 90.7653L103.249 90.7664L103.249 90.7669L103.234 90.7339L103.172 90.5952L102.935 90.0997L102.753 89.7421C102.538 89.336 102.39 89.1128 102.262 88.9464C102.007 88.6184 101.862 88.6044 101.931 88.6276C101.878 88.6213 101.895 88.6199 101.869 88.6201C101.86 88.6213 101.879 88.6191 101.885 88.6164C101.938 88.6052 102.002 88.5751 102.117 88.4977C102.328 88.3526 102.596 88.0365 102.793 87.7086C102.994 87.3848 103.123 87.0599 103.141 87.0008C103.143 86.9964 103.151 86.9701 103.147 86.9841L103.137 87.0162C103.137 87.0162 103.107 87.1166 103.095 87.1787L103.089 87.205L103.088 87.2116L103.087 87.2149L103.087 87.2165L103.087 87.2174C103.61 84.8848 103.232 86.5707 103.349 86.0502L103.357 86.0497L103.39 86.0478L103.457 86.044L103.59 86.0368C103.768 86.0275 103.944 86.0224 104.118 86.0252C104.466 86.0347 104.799 86.0878 105.101 86.2677C106.066 86.8357 107.12 87.0576 108.177 87.1787C109.236 87.3007 110.3 87.3257 111.359 87.5104C112.976 87.7963 114.416 87.6598 115.468 87.4589C116.033 87.357 116.442 87.1945 116.798 86.971L117.377 91.286C115.887 90.2562 114.164 89.467 112.323 89.0391C111.275 88.7976 110.339 88.2115 109.243 86.8306C108.74 86.1902 108.591 84.5815 109.207 84.181C110.064 83.6181 111.043 83.2978 112.024 83.1786C112.836 83.0761 113.638 83.3223 114.426 83.4843C114.435 83.4486 114.444 83.4156 114.454 83.3785Z" fill="black"/>
<path d="M129.747 132.074C127.777 130.013 125.578 128.144 123.206 126.489C122.563 126.073 121.938 125.617 121.27 125.235C120.599 124.861 119.918 124.499 119.226 124.171C115.471 122.534 111.495 121.476 107.493 120.977C103.486 120.478 99.4692 120.56 95.5164 121.167C90.6611 121.983 85.899 123.525 81.5384 125.883C80.4249 126.428 79.393 127.117 78.3257 127.745C77.8074 128.083 77.3056 128.447 76.7935 128.795L76.0281 129.321L75.2974 129.894C74.8124 130.278 74.3191 130.653 73.8383 131.043L72.4515 132.276C71.9762 132.674 71.5476 133.119 71.1135 133.559C70.6855 134.005 70.2252 134.421 69.8212 134.888C69.333 135.45 68.7906 135.969 68.2181 136.468C67.6762 136.99 67.1235 137.508 66.5586 138.017C66.4237 138.139 66.285 138.249 66.1429 138.348C66.0066 138.451 65.8729 138.547 65.732 138.63C65.4519 138.797 65.1573 138.923 64.8512 139.012C64.2393 139.191 63.5814 139.228 62.9076 139.161C61.926 139.064 61.1499 138.602 60.7452 137.872C60.339 137.144 60.3075 136.142 60.7761 135.036C60.9156 134.68 61.1093 134.352 61.3109 134.022C61.5132 133.692 61.7313 133.367 61.9605 133.048C62.1895 132.729 62.4295 132.416 62.6757 132.111C62.9352 131.817 63.2086 131.539 63.4789 131.265L64.4094 130.321L64.8704 129.848L65.3558 129.4L67.2819 127.606C67.9499 127.04 68.6118 126.469 69.2685 125.893C69.9345 125.329 70.6342 124.808 71.3085 124.254C74.0608 122.111 76.9396 120.134 79.9727 118.32C80.8219 117.847 81.6747 117.317 82.5635 116.877C83.464 116.467 84.3835 116.106 85.3109 115.887C88.3114 115.301 91.2384 114.622 94.2347 114.178C94.9814 114.062 95.7373 114.002 96.4883 113.912L97.6166 113.79L98.7521 113.744C99.5092 113.724 100.266 113.674 101.022 113.699C101.778 113.734 102.534 113.779 103.286 113.837C103.846 113.866 104.4 113.96 104.956 114.026L106.623 114.23C107.73 114.392 108.828 114.607 109.93 114.788C111.017 115.042 112.109 115.281 113.187 115.565L114.785 116.057C115.314 116.231 115.853 116.374 116.366 116.592C123.815 119.336 130.504 123.883 135.783 129.675C136.06 129.951 136.297 130.261 136.536 130.564C136.773 130.869 137.001 131.176 137.22 131.486C137.439 131.797 137.649 132.109 137.847 132.425C138.029 132.754 138.199 133.087 138.358 133.422C138.671 134.095 138.954 134.763 139.148 135.461C139.325 136.171 139.446 136.887 139.501 137.604C139.599 138.929 138.176 139.695 137.171 138.87C136.453 138.283 135.795 137.648 135.075 137.057C134.377 136.451 133.73 135.807 133.027 135.217C131.936 134.197 130.928 133.048 129.83 132.002C129.803 132.026 129.777 132.048 129.747 132.074Z" fill="black"/>
</svg>
