<svg width="195" height="195" viewBox="0 0 195 195" fill="none" xmlns="http://www.w3.org/2000/svg">
<path d="M85.5616 70.6595C79.5421 63.4314 73.5743 56.182 67.5373 49.0084L62.9938 43.6458C61.4687 41.8653 59.9568 40.0719 58.43 38.413C56.8972 36.7537 55.3155 35.2145 53.618 33.8972C52.7697 33.2389 51.8892 32.6448 50.9799 32.1138C50.0764 31.5879 49.1596 31.1426 48.1883 30.7702C46.1361 29.9978 43.9442 29.5677 41.8174 29.5947C40.7552 29.6121 39.7157 29.7561 38.7337 30.0253C37.7504 30.2948 36.8176 30.7006 36.0539 31.212C35.2562 31.7324 34.5234 32.4443 33.8876 33.2575C33.2506 34.0694 32.6922 34.9754 32.2531 35.9425C31.8226 36.9124 31.4964 37.9298 31.2994 38.9511C31.0972 39.9711 31.0432 41.0002 31.162 41.9354C31.1662 42.0984 31.208 42.2427 31.2358 42.3929C31.2677 42.5428 31.2881 42.6907 31.3242 42.8431C31.4323 43.1564 31.4876 43.457 31.632 43.7862L31.8194 44.2723C31.8835 44.4351 31.9696 44.6017 32.043 44.7663L32.272 45.2624L32.5353 45.7611C33.2395 47.0929 34.0948 48.4209 35.0014 49.7282C36.8413 52.3405 38.8918 54.8829 41.0156 57.3787C45.2694 62.3718 49.7853 67.2157 54.3317 72.0343C58.8848 76.8499 63.495 81.6308 68.1022 86.4202L75.0138 93.6099L78.4648 97.2127L80.188 99.0171L80.6188 99.4682C80.6919 99.5456 80.7448 99.5965 80.8934 99.7646C81.0192 99.9019 81.1394 100.055 81.2557 100.213C81.7166 100.843 82.1023 101.643 82.2404 102.55C82.3911 103.45 82.2633 104.428 81.9324 105.236C81.7719 105.649 81.5604 106.006 81.334 106.342L80.9711 106.857L79.5266 108.905C78.5678 110.274 77.5904 111.625 76.6182 112.98C74.6715 115.689 72.7074 118.38 70.7371 121.063L58.905 137.111C54.9805 142.458 51.0776 147.814 47.3496 153.239C45.4746 155.947 43.6853 158.688 41.9846 161.442L40.7649 163.515C40.5524 163.86 40.3774 164.206 40.1951 164.551L39.6479 165.586L39.3737 166.104C39.2714 166.284 39.2287 166.421 39.1522 166.581L38.9442 167.044C38.8767 167.199 38.8311 167.357 38.7722 167.512L38.6027 167.98L38.4773 168.449C38.3771 168.761 38.3308 169.072 38.2733 169.382C38.1541 170.143 38.1027 170.896 38.202 171.603C38.284 172.313 38.4501 172.995 38.758 173.618L38.8608 173.857C38.9002 173.935 38.9509 174.007 38.9943 174.083C39.0869 174.232 39.1647 174.388 39.2617 174.536C39.4854 174.816 39.6687 175.12 39.939 175.378C40.413 175.933 41.0414 176.402 41.6894 176.857L42.2134 177.169C42.3872 177.276 42.5607 177.383 42.7336 177.458C42.908 177.538 43.0743 177.639 43.253 177.707L43.7839 177.921C44.5034 178.171 45.2516 178.334 46.0263 178.407C47.5735 178.566 49.2353 178.318 50.8879 177.81C54.2044 176.763 57.4404 174.695 60.2519 172.218C60.9563 171.597 61.6367 170.948 62.2819 170.276C62.603 169.938 62.9154 169.597 63.2195 169.251L63.6647 168.726L64.1442 168.136L66.0628 165.779L67.9716 163.392C78.1316 150.614 88.1482 137.651 98.1377 124.692C108.121 111.723 118.06 98.7171 127.934 85.6662C132.868 79.139 137.788 72.6018 142.67 66.0419C145.113 62.7631 147.548 59.4793 149.964 56.1854L151.767 53.7285C152.344 52.9381 152.89 52.1299 153.428 51.3187C154.487 49.6891 155.473 48.0219 156.315 46.319C157.338 44.2696 158.172 42.1589 158.653 40.0893C159.134 38.0235 159.196 36.0107 158.659 34.4016C158.125 32.7981 156.965 31.5296 155.21 30.5444C153.419 29.5266 151.486 28.9657 149.489 28.9318C147.576 28.8951 145.772 29.2928 144.137 29.8333C142.499 30.3816 141.032 31.0816 139.713 31.7635C137.083 33.1612 135.04 34.4816 133.381 35.4248C132.178 36.1219 131.458 36.3832 131.174 36.1764C130.898 35.977 131.056 35.3094 131.699 34.2486C132.344 33.1901 133.468 31.7292 135.231 30.0577C136.114 29.2246 137.162 28.3432 138.419 27.4771C139.677 26.6167 141.136 25.7517 142.871 25.0556C145.051 24.1684 147.535 23.5892 150.125 23.6398C152.713 23.678 155.329 24.3936 157.607 25.5754C158.744 26.1595 159.933 26.9091 160.954 27.8848C161.984 28.8529 162.873 30.0398 163.497 31.3406C164.125 32.6403 164.487 34.0298 164.635 35.3745C164.786 36.723 164.736 38.0305 164.577 39.2737C164.2 42.1418 163.281 44.7334 162.193 47.17C161.088 49.6011 159.782 51.8785 158.36 54.0546C157.647 55.1411 156.909 56.2061 156.142 57.2456L153.903 60.2558L149.427 66.2622C143.431 74.2406 137.439 82.2144 131.449 90.1854C119.447 106.105 107.454 122.013 95.4569 137.926C88.8317 146.708 81.9837 155.884 75.1767 164.166L71.0852 169.127L69.0092 171.607L68.4902 172.228L68.2307 172.538L67.9423 172.871C67.5574 173.315 67.1625 173.742 66.7597 174.159C65.1492 175.824 63.4162 177.329 61.5551 178.692C59.6863 180.044 57.6964 181.264 55.5245 182.231C53.3542 183.187 51.0056 183.935 48.4771 184.143C45.9652 184.363 43.2738 183.998 40.8783 182.923C40.2883 182.645 39.6977 182.353 39.1718 182.016C38.9028 181.849 38.6281 181.698 38.3657 181.514L37.5861 180.943C37.3226 180.76 37.0785 180.539 36.8338 180.32C36.5919 180.096 36.3379 179.892 36.1101 179.649L35.4341 178.91C35.2031 178.67 35.0195 178.377 34.8133 178.111C33.1807 175.937 32.3789 173.098 32.4671 170.45C32.4576 170.114 32.504 169.79 32.5312 169.461C32.5634 169.134 32.5881 168.803 32.6563 168.488L32.8366 167.532L33.0889 166.607C33.1668 166.294 33.2766 165.999 33.3843 165.703C33.4955 165.409 33.5904 165.104 33.7182 164.821C33.9708 164.255 34.2264 163.659 34.4932 163.19C35.5317 161.168 36.6574 159.273 37.8174 157.415C40.1338 153.698 42.5979 150.152 45.0874 146.629C50.0756 139.596 55.2287 132.739 60.3849 125.911C64.2179 120.839 68.0411 115.758 71.7965 110.635L74.597 106.784L77.0898 103.289C77.0898 103.287 77.091 103.285 77.0936 103.284L77.0923 103.284L77.1244 103.295C77.1818 103.31 77.1887 103.315 77.2297 103.32C77.2632 103.328 77.2799 103.323 77.2405 103.327C77.2164 103.328 77.1974 103.332 77.156 103.34C77.1351 103.345 77.116 103.35 77.0987 103.356C77.0901 103.358 77.0926 103.355 77.0926 103.355C77.0921 103.349 77.0862 103.332 77.0665 103.303C77.0545 103.274 77.0168 103.236 76.9809 103.191L76.5852 102.77L75.7655 101.901L72.4824 98.4287C63.7238 89.1661 54.8482 79.9984 46.2096 70.5604C42.3705 66.3372 38.5613 62.0747 34.9566 57.5585C33.164 55.288 31.4025 52.9799 29.8239 50.4429C29.0318 49.1787 28.2801 47.8622 27.6507 46.3983C27.3351 45.6681 27.0555 44.8939 26.8337 44.0631C26.7274 43.647 26.6601 43.2029 26.579 42.7732C26.5321 42.3446 26.501 41.917 26.4693 41.4893C26.4171 39.7917 26.6637 38.1587 27.11 36.6063C27.5588 35.0537 28.2059 33.5744 29.0415 32.1915C29.8788 30.8113 30.908 29.522 32.1697 28.4171L32.645 28.0054C32.8118 27.8758 32.9882 27.7546 33.1602 27.6298L33.6809 27.2608C33.8599 27.1439 34.0532 27.0426 34.2395 26.9341L34.8052 26.6172C34.9943 26.5183 35.1845 26.4431 35.3745 26.3558L35.9455 26.1047L36.5295 25.897C39.6654 24.8081 42.9615 24.7863 46.0243 25.3705C47.5621 25.666 49.0578 26.1189 50.4963 26.7126C51.9385 27.3045 53.3178 28.0586 54.5885 28.8909C57.1548 30.5637 59.3722 32.6175 61.3849 34.7399C63.4028 36.8757 65.2218 39.0519 67.0845 41.2025C70.7899 45.5229 74.4535 49.8718 78.1044 54.2267L89.0393 67.2923L94.5234 73.8008L97.2775 77.0422L98.6599 78.6574L99.3514 79.4647L99.5242 79.6666C99.7071 79.5276 98.0251 80.9924 98.7378 80.3699L98.7399 80.3677L98.7465 80.3602C98.7503 80.3551 98.761 80.3407 98.7658 80.3298C98.8004 80.2702 98.7897 80.2087 98.7948 80.2571C98.7993 80.2901 98.8321 80.3567 98.8546 80.3741L98.8572 80.3769L98.8596 80.3789C99.0428 80.5215 97.2647 79.1506 98.0211 79.7256L98.0287 79.7155L98.0882 79.6341L98.2076 79.4716L98.6851 78.8225C99.0037 78.3896 99.3199 77.9174 99.6372 77.4685C100.268 76.5466 100.897 75.6283 101.522 74.7135C102.777 72.8689 104.021 71.0391 105.255 69.2255C107.736 65.6014 110.215 62.0626 112.722 58.6541C115.229 55.2458 117.74 51.9516 120.311 48.8357C122.875 45.7174 125.461 42.7471 128.151 40.0452C129.362 38.7805 130.387 37.9821 131.068 37.5119C131.758 37.0487 132.145 36.9491 132.216 37.1891C132.286 37.429 132.039 38.0081 131.459 38.9033C131.173 39.3556 130.788 39.8672 130.344 40.4915C129.901 41.1169 129.375 41.8228 128.761 42.6077C125.317 47.0933 122.008 51.9023 118.723 56.8048C115.441 61.7126 112.203 66.7359 108.973 71.7657C107.644 73.8342 106.299 75.9142 104.917 78.0043L103.872 79.5748L102.786 81.159C102.608 81.4215 102.394 81.7047 102.198 81.9763L101.899 82.3875L101.748 82.593C101.487 82.9318 101.156 83.2338 100.807 83.4532C100.104 83.894 99.3547 84.0624 98.6226 84.0315C97.8924 83.9974 97.1239 83.7547 96.4538 83.2179C96.288 83.088 96.1333 82.9344 95.9899 82.7746L95.9044 82.6758L95.7508 82.4975L95.4435 82.1406C92.163 78.3358 88.9181 74.4857 85.686 70.6708C85.6454 70.6687 85.6072 70.6663 85.5616 70.6595Z" fill="black"/>
</svg>
