<svg width="196" height="195" viewBox="0 0 196 195" fill="none" xmlns="http://www.w3.org/2000/svg">
<path d="M132.858 76.8759C136.835 72.2153 140.791 67.5388 144.699 62.8325C148.598 58.1244 152.481 53.3911 156.165 48.5829L157.525 46.7758C157.982 46.1738 158.398 45.5678 158.836 44.9642C159.287 44.3571 159.664 43.7621 160.061 43.1649L160.357 42.7173C160.452 42.5703 160.511 42.4451 160.59 42.3086C160.738 42.0349 160.896 41.7886 161.043 41.4961C162.212 38.9825 162.94 36.379 162.701 34.0294C162.586 32.8549 162.236 31.7446 161.659 30.6956C161.079 29.6486 160.25 28.6774 159.288 27.7811C159.036 27.5639 158.817 27.3242 158.541 27.1217L157.74 26.4956C157.473 26.2843 157.207 26.1304 156.942 25.9419C156.675 25.7648 156.395 25.6244 156.124 25.4601C155.019 24.8617 153.847 24.4908 152.64 24.3254C151.361 24.1382 150.029 24.2485 148.696 24.5437C147.362 24.8555 146.03 25.3847 144.737 26.0586C142.152 27.4276 139.739 29.3537 137.549 31.5203C137.001 32.062 136.469 32.6239 135.946 33.1949C135.422 33.7779 134.935 34.337 134.409 34.9749C133.37 36.2143 132.339 37.4687 131.311 38.725C129.258 41.2436 127.218 43.7747 125.199 46.319C119.808 53.1058 114.463 59.9381 109.169 66.7996C106.526 70.2313 103.888 73.6723 101.308 77.1268L99.3984 79.7165L99.298 79.8477L99.1529 80.0262C99.0571 80.1452 98.9516 80.2578 98.8363 80.3645C98.6156 80.5839 98.3618 80.7737 98.0987 80.9452C97.5655 81.2836 96.9622 81.4993 96.3486 81.5932C95.1245 81.7846 93.8175 81.464 92.8235 80.6793C92.5716 80.4914 92.3504 80.2663 92.1487 80.0347C92.0535 79.9199 91.9506 79.7876 91.8712 79.6795L91.7549 79.5176L91.2899 78.87L90.3567 77.575L88.4347 74.9889C85.8472 71.5457 83.1876 68.1318 80.5101 64.7358C77.8338 61.3376 75.1238 57.9631 72.3922 54.6086C69.6655 51.2494 66.8989 47.9259 64.1127 44.6265C61.3239 41.3322 58.4929 38.071 55.5986 34.9419C54.8787 34.1473 54.1451 33.3988 53.4122 32.6507L52.8633 32.0876L52.3223 31.5669C51.96 31.222 51.5875 30.8913 51.2119 30.5664C49.7034 29.2802 48.0919 28.148 46.4094 27.325C44.7295 26.5001 42.987 25.9893 41.2935 25.923C39.5995 25.853 37.9521 26.2217 36.3952 27.0067C34.8618 27.7927 33.3086 28.9866 32.2246 30.2976C31.9617 30.6319 31.6764 30.9546 31.4764 31.3135C31.3702 31.4898 31.2414 31.6567 31.1484 31.8377L30.8813 32.3836C30.8384 32.475 30.7835 32.5621 30.7488 32.6564L30.6499 32.9407L30.4446 33.5061L30.3076 34.0935L30.2354 34.3864L30.2003 34.6903L30.1198 35.2965L30.1088 35.9218L30.0988 36.2342C30.101 36.3396 30.1149 36.4473 30.1218 36.5537L30.1674 37.1943C30.1877 37.409 30.2373 37.6279 30.2688 37.8447C30.3113 38.0624 30.3221 38.2784 30.3889 38.4987C30.5094 38.9374 30.5831 39.3768 30.7477 39.8176L30.9634 40.4791C31.0372 40.6997 31.1377 40.9187 31.2227 41.1388L31.4899 41.7987L31.8007 42.4533C31.9952 42.8924 32.2339 43.323 32.4686 43.7545C32.6853 44.1774 32.9698 44.6396 33.2379 45.0922C37.4894 52.387 42.6714 59.1797 48.2024 65.7431C53.7324 72.3151 59.6211 78.6728 65.3815 85.2503L66.708 86.7747L67.3783 87.5506L68.1309 88.4983C69.0863 89.7998 69.8665 91.2301 70.4387 92.7391C71.5991 95.7547 71.8694 99.0922 71.2486 102.261C70.9384 103.845 70.4231 105.395 69.6848 106.834C69.5033 107.195 69.293 107.54 69.0952 107.892L68.944 108.155L68.8088 108.374L68.5443 108.799L67.4862 110.496L63.275 117.299C57.6871 126.384 52.1588 135.509 46.867 144.727C45.5516 147.034 44.2413 149.343 42.976 151.664C42.3356 152.823 41.716 153.985 41.1002 155.149C40.4802 156.313 39.8792 157.481 39.3181 158.628C38.1975 160.927 37.2425 163.208 36.6849 165.478C36.4095 166.608 36.2308 167.748 36.1788 168.845C36.1283 169.913 36.2137 171.002 36.4303 172.051C36.8602 174.148 37.8331 176.093 39.2133 177.357C39.906 177.988 40.679 178.456 41.5477 178.763C42.4116 179.083 43.3899 179.199 44.3965 179.193C45.4084 179.163 46.4566 178.987 47.4779 178.666C47.9868 178.5 48.4938 178.315 48.9818 178.085C49.2307 177.98 49.4638 177.844 49.707 177.728C49.9485 177.585 50.1966 177.461 50.4347 177.307C52.364 176.141 54.138 174.507 55.8336 172.658C56.6785 171.733 57.5258 170.754 58.3432 169.737C59.1575 168.719 59.9849 167.714 60.7897 166.686L63.1511 163.549C63.9217 162.488 64.6736 161.409 65.4361 160.341C68.4391 156.024 71.2833 151.574 74.015 147.047C76.7491 142.52 79.3525 137.904 81.873 133.241C84.3897 128.576 86.8243 123.861 89.1571 119.101C89.7411 117.911 90.319 116.72 90.8891 115.525C90.9791 115.348 90.971 115.325 91.2225 114.874C91.4147 114.521 91.6786 114.18 91.9651 113.874C92.5474 113.255 93.3009 112.788 94.0966 112.535C95.6813 112.018 97.4874 112.295 98.8554 113.336C99.021 113.468 99.1841 113.606 99.3374 113.75C99.4824 113.9 99.6227 114.057 99.7565 114.217C99.8881 114.378 99.9955 114.547 100.107 114.718L100.241 114.936L100.303 115.043L100.796 115.903L101.781 117.623L103.793 121.046C106.509 125.596 109.325 130.103 112.199 134.577C117.952 143.524 123.929 152.349 130.046 161.07C130.97 162.382 131.894 163.695 132.819 165.01C133.74 166.308 134.662 167.582 135.609 168.811C137.502 171.263 139.512 173.533 141.755 175.38C142.875 176.302 144.051 177.118 145.291 177.775C146.558 178.454 147.741 178.91 149.071 179.208C150.383 179.497 151.754 179.628 153.102 179.542C154.449 179.457 155.773 179.189 156.985 178.731C157.274 178.62 157.569 178.523 157.827 178.377C158.087 178.236 158.374 178.132 158.611 177.973C158.852 177.819 159.093 177.67 159.334 177.525C159.548 177.352 159.761 177.183 159.976 177.02C160.778 176.316 161.434 175.542 161.9 174.687C162.363 173.817 162.684 172.907 162.873 171.991C163.027 171.065 163.114 170.143 163.073 169.237C163.031 167.424 162.661 165.727 162.299 164.218C161.922 162.707 161.525 161.364 161.173 160.187C160.661 158.47 160.507 157.526 160.783 157.303C161.048 157.086 161.737 157.578 162.744 158.819C163.245 159.441 163.824 160.253 164.442 161.279C165.059 162.307 165.707 163.557 166.292 165.08C166.867 166.602 167.382 168.42 167.493 170.575C167.542 171.109 167.5 171.672 167.482 172.243C167.482 172.529 167.42 172.82 167.388 173.114C167.342 173.407 167.321 173.706 167.247 174.003C167.1 174.596 166.979 175.211 166.736 175.805C166.621 176.104 166.527 176.412 166.384 176.709C166.233 177.005 166.081 177.303 165.927 177.605C165.098 179.097 163.969 180.47 162.609 181.528C161.251 182.585 159.729 183.388 158.143 183.961C154.957 185.054 151.544 185.284 148.24 184.665C147.41 184.531 146.596 184.288 145.782 184.054C144.981 183.761 144.166 183.466 143.447 183.105C141.973 182.4 140.567 181.57 139.286 180.62C138 179.675 136.811 178.646 135.704 177.57C134.604 176.49 133.593 175.364 132.636 174.226C130.437 171.601 128.54 168.853 126.676 166.184C124.805 163.503 122.95 160.813 121.11 158.114C117.428 152.716 113.799 147.285 110.242 141.805C106.682 136.327 103.189 130.803 99.8194 125.191C98.9701 123.793 98.1467 122.376 97.3147 120.965L96.0878 118.833L95.4759 117.766L95.3994 117.633C95.2353 117.709 95.5985 117.489 95.5688 117.512L95.5818 117.506L95.6088 117.491C95.6272 117.48 95.6463 117.466 95.6657 117.451L95.6954 117.428C95.7044 117.421 95.7142 117.412 95.7245 117.4L95.7316 117.394L95.7414 117.382L95.7359 117.39C95.7229 117.405 95.7068 117.484 95.7117 117.476C95.7172 117.477 95.6925 117.394 95.6788 117.381L95.6732 117.374L95.6844 117.386C95.6812 117.382 95.7045 117.405 95.726 117.42C95.7338 117.423 95.7828 117.46 95.8219 117.479L95.8504 117.492L95.864 117.497C96.2357 117.684 95.9575 117.569 96.0362 117.619L95.9699 117.758L95.4398 118.865C94.7307 120.339 94.0182 121.811 93.2894 123.274C90.3927 129.136 87.3611 134.93 84.1898 140.654C81.0156 146.377 77.6977 152.03 74.1535 157.564C70.6034 163.093 66.8409 168.516 62.6345 173.677C60.5413 176.237 58.2661 178.875 55.3477 181.084C54.6217 181.636 53.8485 182.148 53.0439 182.622C52.2449 183.097 51.363 183.527 50.4772 183.88C49.587 184.239 48.6658 184.532 47.7147 184.742C46.7648 184.952 45.7918 185.105 44.7926 185.142C42.6019 185.239 40.2565 184.887 38.1192 183.844C37.0662 183.312 36.0546 182.67 35.1901 181.882C34.3301 181.098 33.5452 180.233 32.9219 179.289C31.6497 177.412 30.8267 175.335 30.3866 173.216C30.2613 172.688 30.1976 172.151 30.115 171.617C30.0677 171.079 29.9989 170.542 29.9942 170C29.9667 169.46 29.9828 168.918 30.0034 168.375C30.0367 167.842 30.0729 167.322 30.1427 166.805C30.395 164.73 30.9267 162.753 31.5842 160.891C32.2477 159.03 33.0383 157.28 33.8641 155.611C34.69 153.939 35.5422 152.364 36.3998 150.781C37.2626 149.209 38.1288 147.656 39.0126 146.136C44.64 136.42 50.501 126.896 56.3978 117.374L60.8385 110.245L63.0695 106.687L63.6281 105.798L63.9073 105.353L64.0421 105.136L64.1475 104.95C64.2831 104.699 64.4434 104.461 64.5645 104.203L64.9266 103.429C65.8058 101.326 66.0469 98.9666 65.6264 96.7235C65.4177 95.6021 65.0464 94.5111 64.528 93.4935L64.1113 92.7449L63.6352 92.0315C63.4728 91.7962 63.2816 91.5812 63.109 91.3529L62.9768 91.1835L62.8068 90.9872L62.4653 90.5933C55.2009 82.1809 47.4722 74.0009 40.3904 65.1414C36.8457 60.7193 33.4912 56.1031 30.4549 51.2612C29.6772 50.0638 28.9737 48.8153 28.2456 47.5845C27.8819 46.9899 27.5265 46.2972 27.1716 45.6322C26.9927 45.2989 26.8424 44.9422 26.6774 44.5979C26.516 44.2507 26.3502 43.907 26.2144 43.541L25.7884 42.4583L25.4265 41.3349C25.2977 40.9655 25.2114 40.5721 25.117 40.1838C25.0259 39.794 24.9206 39.4112 24.8684 39.0043C24.5682 37.4189 24.5153 35.7229 24.7552 34.0414C24.8164 33.4135 24.9902 32.7972 25.1439 32.1803C25.2092 31.8684 25.3408 31.5753 25.4447 31.2744C25.5589 30.9773 25.6585 30.6728 25.7899 30.3842C26.3328 29.239 26.9724 28.133 27.7669 27.1894C27.9622 26.9505 28.1549 26.7074 28.3553 26.4746L28.9941 25.8259C29.2109 25.616 29.4151 25.3834 29.6443 25.1946L30.3273 24.6188C31.2303 23.8438 32.2192 23.1816 33.2825 22.589C35.3898 21.3929 37.8879 20.666 40.3907 20.602C42.9001 20.5281 45.3438 21.1052 47.5161 22.0247C49.6986 22.9469 51.6482 24.1916 53.4225 25.5815C54.3108 26.2773 55.1538 27.0148 55.9592 27.7841L56.5573 28.3659L57.1178 28.9444L58.2351 30.1015C61.1541 33.2002 63.8817 36.3727 66.6013 39.5644C72.0149 45.9559 77.2668 52.4516 82.4421 59.0111C85.024 62.2959 87.5925 65.5884 90.1156 68.9253C91.3776 70.5946 92.6346 72.2656 93.8716 73.9672C94.4952 74.8078 95.1044 75.6802 95.7174 76.5433L95.947 76.8674C96.0017 76.8443 95.5396 77.1573 95.7319 77.0255L95.7266 77.0287L95.7156 77.0361L95.6919 77.0547L95.662 77.0814C95.6325 77.1114 95.639 77.1129 95.6484 77.089C95.6565 77.0695 95.657 77.0495 95.6562 77.0546C95.6559 77.0598 95.6589 77.0822 95.6659 77.0993C95.6733 77.1149 95.6673 77.1044 95.6737 77.1151C95.6638 77.101 95.6731 77.1135 95.6521 77.089C95.6466 77.0844 95.6136 77.0508 95.5864 77.033L95.3709 76.8759L95.3972 76.8406L95.4497 76.7699L95.5546 76.6285L96.3943 75.4975L98.0817 73.2597L101.482 68.8306C103.756 65.8886 106.042 62.9604 108.339 60.0405C112.929 54.1993 117.55 48.386 122.212 42.5988C124.547 39.707 126.883 36.8187 129.26 33.9487L131.053 31.7986C131.658 31.0766 132.305 30.3305 132.965 29.6281C134.288 28.2114 135.695 26.8628 137.21 25.6137C138.727 24.3684 140.344 23.2091 142.114 22.2366C142.992 21.7435 143.915 21.3048 144.872 20.925C145.824 20.537 146.827 20.2317 147.856 20.002C149.91 19.5419 152.129 19.4625 154.257 19.9064C156.395 20.3275 158.381 21.2696 160.094 22.4626C161.749 23.6436 163.297 25.0004 164.592 26.6944C165.876 28.374 166.866 30.4089 167.234 32.5641C167.612 34.7167 167.437 36.8858 166.957 38.8793C166.721 39.8817 166.402 40.8442 166.041 41.7775C165.673 42.7115 165.298 43.5956 164.747 44.5367C164.617 44.7607 164.491 45.0159 164.357 45.2128L163.959 45.822L163.159 47.0354L161.508 49.3452L159.823 51.5985L158.111 53.8173C155.816 56.7606 153.487 59.664 151.132 62.5418C146.428 68.3027 141.653 73.9932 136.849 79.6571L129.622 88.1325L127.808 90.2455L127.582 90.5096L127.394 90.7488L127.018 91.2248C126.785 91.5543 126.562 91.8927 126.35 92.2362C125.542 93.6342 125.006 95.191 124.807 96.7971C124.493 99.3614 125.034 102.005 126.33 104.209C126.492 104.484 126.676 104.746 126.846 105.017C127.022 105.288 127.257 105.603 127.46 105.894C127.88 106.486 128.299 107.077 128.717 107.668C129.548 108.851 130.376 110.03 131.2 111.204C134.485 115.906 137.663 120.557 140.715 125.15C146.807 134.34 152.443 143.277 157.22 151.988C157.761 152.994 158.211 153.876 158.573 154.633C158.933 155.39 159.191 156.03 159.375 156.534C159.74 157.546 159.774 158.039 159.504 158.002C158.953 157.931 157.254 155.73 154.313 151.368C150.152 145.189 145.706 138.95 141.202 132.658C136.686 126.371 132.082 120.044 127.465 113.748C126.517 112.453 125.566 111.154 124.612 109.852C124.136 109.2 123.659 108.547 123.182 107.894C122.916 107.509 122.634 107.081 122.366 106.673C122.126 106.241 121.881 105.81 121.657 105.369C119.911 101.803 119.531 97.5945 120.607 93.7572C121.134 91.8365 122.025 90.0113 123.216 88.4109L123.677 87.8225C123.832 87.6266 123.993 87.4213 124.117 87.2824L124.915 86.3507L126.51 84.4871C128.627 81.9948 130.742 79.5041 132.85 77.021C132.851 76.9742 132.852 76.9301 132.858 76.8759Z" fill="black"/>
</svg>
