<svg width="195" height="195" viewBox="0 0 195 195" fill="none" xmlns="http://www.w3.org/2000/svg">
<path d="M108.94 72.1995C91.7891 91.782 75.1762 111.836 58.887 132.201C56.7329 134.905 54.5761 137.611 52.4182 140.319L49.1951 144.394L47.5876 146.43C47.0665 147.094 46.5537 147.764 46.0536 148.442C44.0543 151.149 42.212 153.967 40.7367 156.883C40.0017 158.339 39.3689 159.823 38.9142 161.301C38.4619 162.775 38.2048 164.253 38.2717 165.564C38.3248 166.435 38.5266 167.204 38.8738 167.854C38.8956 167.897 38.9112 167.936 38.9372 167.982L39.0362 168.132L39.2329 168.434L39.6224 169.04L40.0693 169.591C40.2169 169.775 40.3567 169.968 40.532 170.124C41.8235 171.485 43.4415 172.506 45.339 173.148C49.1076 174.489 53.6895 174.477 58.3016 174.726C67.484 175.132 76.6887 175.378 85.8907 175.515C95.0934 175.653 104.298 175.683 113.494 175.566C122.69 175.447 131.883 175.208 141.039 174.715C143.325 174.59 145.583 174.446 147.794 174.211C150.002 173.974 152.175 173.654 154.206 173.123C154.708 172.983 155.222 172.86 155.698 172.688L156.424 172.447L157.115 172.168C157.592 171.999 157.995 171.758 158.436 171.558C158.646 171.447 158.835 171.32 159.037 171.204C159.237 171.086 159.441 170.972 159.61 170.832L160.148 170.438C160.314 170.298 160.462 170.147 160.622 170.005L160.861 169.792L161.075 169.55L161.292 169.311L161.494 169.045C162.039 168.341 162.515 167.525 162.907 166.657C163.687 164.912 164.124 162.96 164.18 161.053C164.216 159.148 163.882 157.274 163.081 155.702C162.309 154.112 161.087 152.832 159.538 151.897C159.355 151.768 159.148 151.666 158.941 151.564C158.734 151.463 158.538 151.346 158.323 151.254C157.88 151.089 157.467 150.876 156.995 150.752L156.307 150.533L155.588 150.366C155.116 150.239 154.615 150.171 154.118 150.094C153.122 149.946 152.093 149.873 151.048 149.86C150.551 149.836 149.948 149.852 149.383 149.854L147.667 149.867L140.775 149.975C136.174 150.062 131.567 150.177 126.96 150.296C117.745 150.539 108.526 150.812 99.3063 151.1L90.7915 151.371L86.5346 151.51L85.4706 151.545L84.9283 151.563L84.8604 151.565C84.7954 151.567 84.6463 151.566 84.5432 151.559C84.3167 151.55 84.087 151.514 83.8592 151.46C83.405 151.353 82.9607 151.15 82.5816 150.883C81.8195 150.342 81.3117 149.58 81.091 148.74C80.8624 147.905 80.9371 146.932 81.3391 146.116C81.4371 145.911 81.55 145.721 81.6762 145.549C81.7259 145.477 81.8346 145.338 81.8434 145.329L81.8859 145.278L82.0559 145.072L82.3958 144.661L93.2867 131.534C100.553 122.797 107.806 114.068 114.917 105.242C122.028 96.4162 129.018 87.5073 135.702 78.3925L138.205 74.972C139.035 73.8297 139.845 72.6732 140.666 71.5246C142.317 69.2329 143.909 66.9039 145.51 64.5803C146.319 63.4236 147.096 62.2474 147.877 61.0733L150.221 57.5525C151.769 55.1827 153.29 52.8275 154.719 50.451C156.144 48.0741 157.479 45.6744 158.645 43.2259C159.234 42.0038 159.766 40.7655 160.26 39.5183C160.762 38.2633 161.17 37.0592 161.493 35.831C162.144 33.3947 162.336 30.9637 161.837 28.9481C161.693 28.455 161.543 27.9698 161.317 27.5288L161.155 27.1941L161.001 26.9359C160.884 26.7658 160.761 26.5922 160.61 26.4202C160.015 25.7296 159.135 25.0536 158.106 24.482C156.042 23.3247 153.521 22.5106 150.956 21.9289C149.668 21.6385 148.354 21.4062 147.036 21.2332C146.378 21.1466 145.719 21.0729 145.064 21.0184C144.435 20.9645 143.689 20.9291 142.998 20.885C137.385 20.5161 131.729 20.3188 126.076 20.1472C114.761 19.8395 103.421 19.7433 92.0833 19.8068C80.7468 19.8728 69.4026 20.0561 58.0959 20.487C54.6855 20.616 51.272 20.7642 47.8719 20.9444L47.2336 20.9763L46.6797 21.0141C46.317 21.0461 45.9521 21.0891 45.5861 21.1413C44.8543 21.2494 44.1218 21.4021 43.4018 21.5945C41.9635 21.9824 40.5645 22.5179 39.3049 23.2234C36.76 24.6153 34.8203 26.6659 33.9261 29.1834C33.7106 29.8171 33.5297 30.4701 33.4298 31.1534C33.3778 31.494 33.34 31.8405 33.3142 32.1902C33.2977 32.5429 33.273 32.9018 33.2866 33.2208C33.3125 34.5359 33.6096 35.7066 34.2457 36.7255C34.841 37.7085 35.7133 38.5451 36.7214 39.2445C37.7227 39.9497 38.8432 40.5171 39.9682 40.9916C42.2326 41.9336 44.4888 42.5391 46.5372 43.0436C50.6633 44.0126 54.0178 44.5721 56.5824 45.1424C60.326 45.9254 60.3556 46.6403 57.0347 47.1765C55.378 47.4305 52.8893 47.6146 49.6103 47.4971C47.9708 47.4348 46.1332 47.2978 44.1028 46.984C42.0742 46.6594 39.8456 46.1991 37.4595 45.2831C35.9536 44.7052 34.4285 43.9587 32.9851 42.8944C32.2622 42.3722 31.5673 41.755 30.9331 41.051C30.292 40.3563 29.727 39.5504 29.2677 38.6848C28.3249 36.9524 27.9055 34.9688 27.8673 33.115C27.8193 31.3167 28.0606 29.4989 28.6057 27.7159C29.1618 25.9439 30.0498 24.2454 31.2041 22.7953C31.7755 22.0656 32.4054 21.3893 33.0814 20.782C33.7534 20.1688 34.4644 19.6118 35.2048 19.1201C36.6807 18.1235 38.2555 17.3563 39.8626 16.7634C41.4718 16.1708 43.1176 15.7571 44.7913 15.5078C45.7358 15.3614 46.7992 15.2907 47.6197 15.2575L50.2354 15.1248C51.9796 15.0338 53.7167 14.9803 55.4572 14.9056C58.9347 14.7817 62.4086 14.6777 65.8804 14.5981C72.8238 14.4376 79.761 14.3394 86.6962 14.2891C100.567 14.2048 114.427 14.2788 128.3 14.6776L133.504 14.8521L138.712 15.0783C140.448 15.1546 142.188 15.2722 143.926 15.3665C144.775 15.411 145.709 15.4728 146.614 15.5706C147.52 15.6657 148.42 15.7858 149.317 15.9296C152.9 16.5245 156.464 17.3984 159.945 19.0947C161.67 19.9629 163.413 21.0511 164.891 22.7434C165.255 23.1692 165.605 23.6237 165.905 24.1325C165.979 24.2571 166.062 24.3866 166.127 24.5087L166.309 24.8701C166.425 25.113 166.557 25.3507 166.657 25.5997C167.084 26.5896 167.367 27.6187 167.563 28.6465C167.736 29.6745 167.811 30.6983 167.805 31.703C167.782 32.7018 167.711 33.6906 167.558 34.6454C167.265 36.5615 166.763 38.3845 166.151 40.1313C164.927 43.5761 163.395 46.8232 161.697 49.9554C159.999 53.083 158.145 56.0783 156.277 59.0159C155.348 60.4855 154.392 61.9366 153.44 63.394C152.482 64.8459 151.551 66.3182 150.565 67.7507C146.306 74.1436 141.776 80.5321 137.153 86.7793C132.524 93.0215 127.796 99.1192 123.064 104.868C115.528 114.068 107.863 123.159 100.219 132.267C96.4056 136.822 92.5902 141.38 88.7739 145.938L87.3488 147.651L86.6363 148.508L86.2802 148.936L86.2579 148.963C87.525 150.022 84.5053 147.553 84.8142 147.801C84.8078 147.795 84.8002 147.789 84.7911 147.783C84.7653 147.768 84.7726 147.77 84.7562 147.763C84.7491 147.76 84.7482 147.761 84.7654 147.762C84.7951 147.764 84.8095 147.746 84.7743 147.772C84.742 147.789 84.7327 147.849 84.7466 147.777C84.7478 147.764 84.7477 147.753 84.7466 147.743C84.7244 146.902 84.7941 149.606 84.6956 145.854L84.7299 145.853L84.8667 145.849L85.1404 145.84L85.6963 145.823L87.9272 145.754L96.8501 145.483C108.748 145.128 120.649 144.783 132.555 144.523C138.512 144.4 144.457 144.284 150.449 144.279C152.046 144.31 153.676 144.375 155.311 144.669C156.128 144.778 156.947 145.003 157.763 145.196C158.575 145.452 159.389 145.697 160.183 146.055C161.773 146.735 163.313 147.663 164.652 148.87C165.992 150.072 167.109 151.547 167.907 153.153C168.516 154.342 168.935 155.606 169.202 156.879C169.473 158.152 169.607 159.44 169.587 160.713C169.572 163.262 169.056 165.753 168.116 168.102C167.648 169.278 167.043 170.412 166.311 171.493C166.136 171.766 165.939 172.03 165.731 172.29C165.531 172.552 165.323 172.811 165.089 173.058C164.655 173.575 164.125 174.007 163.627 174.465C161.532 176.162 159.171 177.157 156.869 177.865C154.553 178.564 152.247 178.95 149.966 179.242C147.685 179.525 145.427 179.69 143.19 179.819C138.731 180.061 134.3 180.225 129.855 180.365C120.972 180.631 112.091 180.711 103.216 180.688C94.3414 180.658 85.472 180.521 76.6117 180.257C72.6613 180.137 68.7115 180.007 64.7609 179.837C60.8027 179.67 56.8772 179.486 52.8871 179.238C50.8746 179.104 48.7959 178.897 46.6985 178.437C44.607 177.979 42.4776 177.259 40.5142 176.089C38.5512 174.924 36.8344 173.267 35.5725 171.379L35.1154 170.662L34.8887 170.302L34.6672 169.87L34.4515 169.432L34.2778 168.981L34.1106 168.528L33.9854 168.07C33.6584 166.844 33.5808 165.618 33.6407 164.457C33.7679 162.123 34.404 160.025 35.1634 158.05C35.9388 156.079 36.8781 154.228 37.902 152.451C38.9243 150.673 40.037 148.97 41.2 147.313C41.7828 146.486 42.3791 145.67 42.9878 144.866C43.5966 144.059 44.2223 143.269 44.8282 142.501C49.7069 136.3 54.6158 130.123 59.5468 123.962C79.2793 99.3286 99.5499 75.1028 120.69 51.6449C121.748 50.4785 122.803 49.3165 123.853 48.1588C124.379 47.5807 124.904 47.0037 125.428 46.4279L125.625 46.2121L125.723 46.1043C125.418 45.8217 126.154 46.4723 126.079 46.4091L126.084 46.4147L126.096 46.4259L126.124 46.4478C126.191 46.4951 126.2 46.4837 126.174 46.4831C126.149 46.4799 126.112 46.4911 126.124 46.4875C126.134 46.4857 126.184 46.4504 126.205 46.418C126.229 46.3863 126.213 46.3805 126.209 46.4694C126.206 46.4992 126.208 46.5261 126.213 46.5492C126.303 47.5416 126.227 46.8249 126.242 47.0468L126.224 47.048L126.187 47.0504L126.112 47.0553L125.816 47.0745L124.632 47.1506C123.839 47.2099 123.067 47.2274 122.29 47.2586C120.735 47.3268 119.202 47.3422 117.67 47.3758C111.553 47.4627 105.566 47.4015 99.7051 47.2921C87.9857 47.0622 76.7878 46.5937 66.2477 45.9684C56.5542 45.4077 57.1931 44.1076 68.4589 43.8608C76.4252 43.7192 84.5841 43.574 92.8289 43.4274C101.065 43.2873 109.394 43.1561 117.642 42.872C119.333 42.8048 121.031 42.7417 122.708 42.6439C123.56 42.6092 124.369 42.5357 125.192 42.4751L125.808 42.4287L126.038 42.4159C126.137 42.4125 126.237 42.4116 126.336 42.4134C126.53 42.4122 126.748 42.4463 126.951 42.4798C127.363 42.5552 127.777 42.7024 128.148 42.9086C128.896 43.3215 129.462 43.9471 129.81 44.6423C130.159 45.3388 130.312 46.1316 130.223 46.9391C130.14 47.7445 129.776 48.5426 129.283 49.1144L129.163 49.2549L129.109 49.3151L129.001 49.4355L128.785 49.6764L127.921 50.6402L126.188 52.5687C125.033 53.8561 123.876 55.1453 122.718 56.4357C118.094 61.6042 113.483 66.819 108.954 72.0493C108.951 72.0978 108.948 72.1433 108.94 72.1995Z" fill="black"/>
</svg>
