<svg width="230" height="228" viewBox="0 0 230 228" fill="none" xmlns="http://www.w3.org/2000/svg">
<path d="M74.0362 148.733C76.6084 142.889 79.3092 137.1 82.1384 131.368C82.8933 129.85 83.6494 128.331 84.4065 126.809C85.1793 125.296 85.9402 123.779 86.6743 122.253C90.6579 114.139 94.9789 106.172 99.7291 98.4436C104.468 90.687 109.697 83.2362 115.388 76.1361C122.446 67.3908 130.289 59.2964 138.819 51.9517C140.925 50.0834 143.161 48.3646 145.355 46.5982C146.468 45.734 147.615 44.9125 148.744 44.0682L150.443 42.8103C151.018 42.4021 151.606 42.0112 152.187 41.611L155.684 39.2277L159.272 36.9771C159.874 36.6082 160.459 36.2139 161.074 35.866L162.913 34.8131L164.753 33.7608C165.368 33.4136 165.972 33.0477 166.606 32.7335C168.12 31.9477 169.663 31.1968 171.208 30.4692C172.776 29.7862 174.364 29.1594 175.922 28.5236C176.296 28.3727 176.656 28.2349 177.003 28.1104C177.354 27.9935 177.696 27.9001 178.022 27.8118C178.616 27.6517 179.218 27.5218 179.826 27.4226C180.728 27.2591 181.649 27.2299 182.56 27.336C184.68 27.6383 183.373 29.4499 179.413 31.4217C178.779 31.7216 178.151 32.0715 177.504 32.4032C176.857 32.7364 176.199 33.0651 175.534 33.3879C174.869 33.7108 174.199 34.0278 173.529 34.3379C172.87 34.671 172.214 35.0025 171.568 35.3294C165.566 38.2624 159.829 41.6987 154.418 45.6007C149.007 49.4937 143.89 53.7745 139.11 58.4088L135.18 62.3522C133.897 63.698 132.594 65.0033 131.277 66.2111C127.148 70.1779 123.275 74.3993 119.683 78.8499C116.104 83.3264 112.685 87.9236 109.385 92.6032C104.442 99.5348 100.072 106.912 95.9222 114.373C88.5499 127.741 82.0116 141.545 76.3441 155.707C75.7441 157.108 75.1598 158.494 74.5463 159.84C73.9318 161.186 73.315 162.502 72.696 163.789C72.0792 165.075 71.4237 166.315 70.7625 167.517C70.1124 168.723 69.459 169.89 68.8024 171.018C67.592 173.09 66.7725 172.642 67.3654 169.942C67.8003 168.036 68.2203 166.074 68.7434 164.122C69.2917 162.18 69.8619 160.222 70.4868 158.287C71 156.696 71.5433 155.093 72.1617 153.509C72.8093 151.938 73.4589 150.36 74.105 148.793C74.0828 148.773 74.0619 148.755 74.0362 148.733Z" fill="black"/>
<path d="M51.8898 165.493C49.9707 158.474 48.2764 151.372 46.9437 144.177C46.6005 142.268 46.2847 140.347 45.9633 138.43L45.5302 135.543C45.3791 134.582 45.2191 133.624 45.0978 132.659L44.563 128.804L44.1559 124.928C43.9977 123.638 43.9494 122.335 43.849 121.038L43.7156 119.09C43.674 118.44 43.6708 117.787 43.6467 117.136C43.4193 111.898 43.5965 106.651 44.1766 101.439C45.2804 90.9166 48.1767 80.6557 52.7421 71.0933C55.6069 65.1533 59.2479 59.613 63.5713 54.615C67.9388 49.5704 73.0777 45.2362 78.8005 41.7706L80.9612 40.5034C81.6888 40.0955 82.4404 39.735 83.1794 39.3497C84.6483 38.5551 86.189 37.93 87.7046 37.2454C90.7595 35.976 93.8913 34.8965 97.0817 34.0132C100.242 33.1304 103.446 32.4064 106.68 31.8439C108.291 31.5922 109.9 31.2973 111.515 31.1107L113.935 30.8012L116.355 30.5553C120.235 30.2227 124.134 30.1463 128.024 30.3266C129.571 30.3609 131.108 30.583 132.6 30.9878C133.647 31.2767 134.633 31.746 135.515 32.374C136.576 33.1641 136.566 33.9889 135.665 34.6708C134.763 35.3575 132.966 35.876 130.443 36.1409C128.842 36.2889 127.179 36.4366 125.496 36.5119C123.821 36.6334 122.123 36.6686 120.484 36.765C116.715 36.9174 112.957 37.2741 109.227 37.8335C107.364 38.0876 105.531 38.464 103.696 38.8288L100.971 39.4718C100.062 39.6846 99.1776 39.9685 98.2806 40.2154C97.8347 40.3467 97.3839 40.4645 96.9428 40.6076L95.6263 41.0545C94.7523 41.3611 93.8623 41.629 93.0135 41.9922C92.1576 42.3384 91.2966 42.6728 90.4476 43.0309L87.9498 44.2014C87.5292 44.3877 87.1271 44.6076 86.7257 44.8288L85.5187 45.4851C85.1182 45.7063 84.7122 45.9183 84.3172 46.1472L83.158 46.8755C81.6034 47.8202 80.1076 48.857 78.6787 49.98C77.0849 51.1918 75.5824 52.5777 74.0977 53.9477C73.3796 54.6612 72.6293 55.3324 71.9328 56.0485C71.5745 56.3961 71.2181 56.7418 70.8637 57.0856C70.5179 57.4382 70.1691 57.7836 69.8174 58.1217C65.3491 62.5808 61.6544 67.7408 58.8824 73.3935C56.0749 79.0956 53.8584 85.0655 52.2673 91.2113C51.6521 93.4927 51.1331 95.807 50.7292 98.1449C50.5075 99.3106 50.352 100.488 50.1731 101.662C50.0337 102.841 49.8706 104.019 49.7719 105.203C49.5352 107.569 49.4043 109.945 49.3492 112.321C49.3078 113.508 49.3255 114.702 49.339 115.897L49.3525 117.689L49.3575 118.584L49.3972 119.48L49.5367 122.675C49.5524 123.208 49.5897 123.741 49.6376 124.273L49.7658 125.869C49.9053 128.001 50.1725 130.125 50.4144 132.252C50.5186 133.317 50.7108 134.374 50.8545 135.436C51.0196 136.495 51.142 137.56 51.3415 138.616C51.7152 140.73 52.0657 142.85 52.5172 144.954C54.2068 153.394 56.4858 161.745 59.0028 170.041C60.0071 173.352 60.9239 176.591 61.6682 179.746C62.3885 182.909 62.936 185.988 63.3035 188.939C63.6649 191.645 62.6454 191.806 61.0684 189.055L60.2397 187.581C59.9729 187.084 59.7529 186.567 59.5099 186.054C59.0421 185.023 58.5708 183.985 58.0959 182.939C57.8663 182.413 57.636 181.886 57.4051 181.358C57.1908 180.824 56.9762 180.289 56.7611 179.753C56.3362 178.68 55.9132 177.605 55.5135 176.519C54.8517 174.737 54.2376 172.918 53.6712 171.062C53.388 170.137 53.1045 169.211 52.8207 168.284C52.5452 167.354 52.2701 166.425 51.9956 165.498C51.9617 165.496 51.9295 165.495 51.8898 165.493Z" fill="black"/>
<path d="M82.9384 182.241C88.4151 178.694 94.0033 175.406 99.5899 172.169C102.551 170.455 105.536 168.76 108.424 166.963C116.139 162.17 123.733 157.311 130.943 152.012C138.139 146.817 144.844 140.984 150.974 134.586C154.669 130.68 157.996 126.449 160.916 121.945L161.968 120.245C162.318 119.678 162.682 119.116 162.994 118.538C163.319 117.965 163.647 117.394 163.946 116.805C164.255 116.223 164.562 115.64 164.843 115.043C166.003 112.671 167.014 110.231 167.87 107.736C169.591 102.755 170.658 97.5744 171.044 92.323C171.445 87.1266 171.023 81.9001 169.795 76.8327C169.091 73.7969 168.166 70.8157 167.026 67.9127C166.884 67.5705 166.757 67.2374 166.646 66.9133C166.529 66.5916 166.411 66.2883 166.315 65.9871C166.125 65.3849 165.983 64.8179 165.86 64.2961C165.756 63.8024 165.687 63.302 165.654 62.7986C165.617 62.3603 165.62 61.9195 165.664 61.4819C165.789 60.2739 166.439 59.7569 167.474 60.0394C168.505 60.3163 169.955 61.3948 171.318 63.4032C173.094 66.0585 174.433 68.9773 175.284 72.05C176.275 75.5075 176.933 79.0501 177.251 82.6306C177.572 86.1707 177.6 89.7311 177.334 93.2758C177.083 96.8046 176.571 100.31 175.802 103.765C175.047 107.228 174.051 110.634 172.821 113.96C172.154 115.805 171.392 117.664 170.528 119.465C169.692 121.24 168.696 122.936 167.552 124.534C164.072 129.473 160.255 134.171 156.127 138.594C152.034 142.967 147.587 147.002 142.83 150.656C139.324 153.361 135.735 155.944 132.099 158.445C128.461 160.944 124.77 163.352 121.019 165.627C107.669 173.761 93.9924 181.067 81.4406 189.957C76.4333 193.501 71.6906 196.748 66.9851 199.31C65.9119 199.909 65.2661 200.05 65.0634 199.715C65.015 199.609 64.9922 199.493 64.9966 199.376C65.0089 199.2 65.0436 199.026 65.0998 198.858C65.28 198.312 65.5354 197.793 65.8588 197.316C66.1506 196.896 66.4439 196.474 66.7389 196.049C66.8882 195.842 67.0557 195.648 67.2395 195.47L67.7665 194.914C68.4742 194.174 69.1911 193.427 69.9299 192.696C71.4305 191.266 72.9677 189.832 74.5738 188.499C77.1896 186.266 80.1256 184.317 82.9703 182.34L82.9384 182.241Z" fill="black"/>
</svg>
