<svg width="230" height="228" viewBox="0 0 230 228" fill="none" xmlns="http://www.w3.org/2000/svg">
<path d="M178.419 144.553L178.276 145.212L175.539 157.838L171.526 145.633C165.338 126.81 159.608 107.849 154.338 88.7493C153.916 87.2153 153.494 85.6793 153.071 84.1412L158.622 84.3682C155.4 92.798 152.174 101.256 149.054 109.709L137.172 141.947L131.257 158.051C129.342 163.378 127.629 168.679 126.735 174.028L122.894 197.028L120.579 173.804C117.244 140.354 113.908 106.901 110.572 73.4432C109.648 64.0239 108.724 54.6029 107.799 45.1803L114.735 45.8241C109.74 62.9346 104.745 80.0471 99.7499 97.1615L92.2407 122.829L88.483 135.663C87.2187 139.938 86.0197 144.231 84.78 148.513L81.3821 160.249L77.9613 148.518C74.7083 137.364 71.4865 126.169 68.509 114.881C67.0228 109.237 65.615 103.566 64.2857 97.8689L63.3174 93.5892L62.3907 89.2982L62.1681 88.2229C62.0517 87.8732 61.99 87.5122 61.8983 87.1572L61.3903 85.0191L60.9065 82.874L60.8005 82.3348C60.7847 82.152 60.7582 81.9702 60.7212 81.7905L60.5352 80.7071L67.0675 81.3935C66.524 82.5837 65.9681 83.7679 65.4 84.9459C64.8117 86.1543 64.2091 87.3569 63.583 88.5484L61.6924 92.1161C61.0601 93.3042 60.404 94.4799 59.7354 95.6476C59.0847 96.8254 58.4205 97.9949 57.7428 99.1563C56.3936 101.482 54.9161 103.728 53.4137 105.941C53.0162 106.5 52.713 107.02 52.2404 107.67C51.6902 108.467 51.0159 109.173 50.2427 109.761C49.7645 110.112 49.2407 110.398 48.6853 110.611C48.1861 110.8 47.6687 110.939 47.1413 111.025C46.3357 111.14 45.5213 111.184 44.7079 111.156C34.6891 111.041 28.1991 110.248 24.1707 109.178C18.3059 107.624 24.1948 105.839 38.4029 105.364C39.5266 105.332 40.6625 105.299 41.8106 105.266C42.94 105.24 44.0788 105.214 45.2272 105.188C45.5945 105.18 45.9607 105.144 46.3226 105.081C46.4012 105.065 46.4783 105.042 46.553 105.013C46.6091 104.991 46.6617 104.96 46.7091 104.923C46.9602 104.714 47.1815 104.473 47.3669 104.205C47.5055 104.021 47.6571 103.808 47.822 103.569C48.0084 103.347 48.1459 103.092 48.3125 102.855C49.5955 100.933 50.8412 98.9747 52.0611 97.0133C53.2809 95.0519 54.4868 93.0917 55.5564 91.0928C56.0939 90.1113 56.6185 89.123 57.1303 88.128C57.6401 87.1323 58.1098 86.1171 58.5841 85.1058C59.5248 83.0786 60.4174 81.0339 61.2619 78.9718L64.7883 70.3602L66.7242 79.5457L66.9475 80.6048C66.9897 80.7803 67.0108 80.96 67.0703 81.1321L67.1712 81.6637L67.5254 83.7997L67.9052 85.9321C67.9627 86.2887 68.0449 86.6403 68.0827 87.0011L68.2994 88.062L69.2201 92.2959L70.1861 96.5212C71.5023 102.15 72.9188 107.757 74.4355 113.344C77.4421 124.523 80.7743 135.626 84.1185 146.742L78.6205 146.747L81.6599 136.226L84.6321 125.687L90.5124 104.592C93.6282 93.3262 96.7741 81.574 100.165 70.7168C102.937 61.8357 105.65 52.9238 108.305 43.9809L113.007 28.2046L114.463 44.5525C116.865 71.52 119.618 98.5285 122.01 125.475C123.411 141.368 124.919 157.3 126.428 173.253L120.943 173.052C121.937 167.32 123.731 161.867 125.651 156.598C127.591 151.338 129.558 146.178 131.519 140.973C138.893 121.49 146.266 102.013 153.637 82.5407L156.242 75.661L158.19 82.7268C163.854 103.267 170.06 123.649 176.807 143.873L172.814 144.122C174.077 138.064 175.501 132.051 177.01 126.069C178.193 121.382 179.438 116.789 180.709 112.294C181.356 110.051 181.997 107.828 182.633 105.626C182.807 105.059 182.92 104.587 183.169 103.876C183.312 103.472 183.509 103.089 183.754 102.736C184.05 102.316 184.435 101.966 184.882 101.709C185.605 101.325 186.411 101.122 187.231 101.116C187.565 101.102 187.858 101.105 188.136 101.103L188.986 101.101C198.033 101.082 206.692 101.232 214.852 101.604C222.358 101.951 221.918 103.449 213.241 104.091C207.1 104.547 200.809 104.966 194.45 105.351C192.86 105.445 191.267 105.54 189.67 105.634L188.471 105.702L187.885 105.736C187.712 105.747 187.568 105.76 187.454 105.774C187.227 105.8 187.135 105.852 187.238 105.821C187.329 105.787 187.415 105.739 187.491 105.678C187.588 105.605 187.674 105.519 187.747 105.422C187.84 105.284 187.783 105.366 187.721 105.628L187.45 106.722L186.876 109.039L185.726 113.669C183.208 123.809 180.455 134.139 178.339 144.441C178.367 144.477 178.394 144.514 178.419 144.553Z" fill="black"/>
</svg>
