<svg width="196" height="195" viewBox="0 0 196 195" fill="none" xmlns="http://www.w3.org/2000/svg">
<path d="M77.5274 68.5189C82.2038 73.1887 86.8593 77.8752 91.5009 82.5771L98.4533 89.6445C100.76 91.9917 103.074 94.3206 105.414 96.6389C110.373 101.55 115.42 106.43 120.565 111.156C127.432 117.461 134.374 123.691 141.342 129.905L151.799 139.229L157.025 143.899C157.449 144.277 157.926 144.707 158.373 145.13C158.823 145.558 159.267 145.992 159.7 146.44C160.569 147.335 161.407 148.269 162.2 149.265C162.991 150.263 163.74 151.318 164.413 152.462C165.087 153.603 165.685 154.841 166.115 156.215C166.339 156.894 166.493 157.626 166.61 158.371C166.696 159.131 166.756 159.908 166.681 160.71C166.583 162.309 166.021 163.932 165.178 165.277C164.762 165.958 164.27 166.557 163.756 167.115C163.496 167.385 163.224 167.634 162.956 167.892C162.662 168.138 162.375 168.392 162.051 168.619C161.423 169.09 160.699 169.487 159.94 169.816C159.173 170.138 158.349 170.353 157.521 170.47C155.854 170.695 154.216 170.466 152.792 170.016C151.355 169.568 150.096 168.916 148.942 168.196C146.647 166.736 144.76 164.989 143.049 163.148C142.62 162.687 142.208 162.217 141.803 161.742L140.657 160.355L138.439 157.648L129.572 146.813L107.771 120.098C104.158 115.681 100.531 111.392 96.4501 107.796C94.4138 106.001 92.2581 104.406 89.9811 103.106C89.408 102.791 88.8432 102.455 88.2509 102.192L87.3733 101.769C87.0786 101.634 86.7756 101.525 86.4775 101.4C85.2944 100.885 84.0568 100.518 82.7589 100.17C80.166 99.4881 77.3606 99.0316 74.4316 98.397C72.969 98.0793 71.4688 97.7089 69.9715 97.2308C68.4716 96.761 67.02 96.1828 65.6002 95.5543C59.9303 92.9918 54.9966 89.3535 50.5576 85.3838C41.7279 77.4105 34.3551 67.8767 28.9776 57.2886C27.3501 54.0973 25.9505 50.7746 24.7779 47.3804C24.1942 45.666 23.6279 43.8425 23.3534 41.8272C23.2189 40.8215 23.1556 39.7699 23.2337 38.6866C23.2813 38.1365 23.3378 37.6165 23.4685 37.0363C23.5846 36.459 23.771 35.9047 23.9861 35.3647C24.8265 33.3114 26.3416 31.6922 28.168 30.8458C29.0758 30.4237 30.0449 30.2163 30.9465 30.2025C31.8586 30.1933 32.6522 30.3679 33.3432 30.6155C34.7247 31.1225 35.6402 31.8712 36.3382 32.5556C37.0354 33.2493 37.5122 33.9216 37.8811 34.5334C38.9189 36.3324 38.3802 36.8385 36.7786 36.2491C35.9805 35.9789 34.8898 35.412 33.6519 35.0096C33.037 34.8089 32.4029 34.693 31.8375 34.7219C31.2763 34.7617 30.8191 34.9117 30.3231 35.2787C29.7034 35.7308 29.1363 36.5592 28.8708 37.4952L28.7832 37.8471L28.7241 38.2038C28.6934 38.4745 28.6707 38.7507 28.6659 39.0369C28.6568 39.6093 28.7074 40.216 28.8087 40.8463C29.0107 42.1086 29.4136 43.4538 29.8969 44.8345C30.1343 45.5261 30.4132 46.2304 30.6742 46.9267C30.8055 47.2757 30.9366 47.6238 31.0672 47.9708C31.2076 48.3143 31.3476 48.6566 31.487 48.9979C36.5997 61.5812 44.7784 72.9894 55.0369 81.9426C57.6 84.163 60.2911 86.2109 63.1429 87.931C65.9925 89.6504 68.9965 91.047 72.1118 91.9575C75.2358 92.8723 78.6494 93.3318 82.2158 94.0751C83.9968 94.4436 85.8223 94.9072 87.6372 95.5319L88.9777 96.0479L89.6477 96.3087L90.2985 96.6052L91.5977 97.2061L92.8541 97.875C94.6889 98.8796 96.4615 100.019 98.1144 101.284C98.5359 101.593 98.9502 101.909 99.3471 102.241C99.7477 102.57 100.156 102.893 100.55 103.228C101.324 103.909 102.108 104.585 102.84 105.295C104.333 106.698 105.73 108.161 107.051 109.642C108.38 111.119 109.615 112.623 110.797 114.115C112.65 116.485 114.504 118.857 116.36 121.23C118.226 123.582 120.092 125.937 121.959 128.292C125.71 132.989 129.493 137.667 133.287 142.339C137.083 147.008 140.879 151.679 144.674 156.348L146.075 158.068C146.528 158.608 146.99 159.139 147.467 159.649C148.42 160.67 149.422 161.624 150.468 162.459C151.514 163.287 152.609 164.001 153.697 164.477C154.787 164.951 155.841 165.166 156.763 165.065C157.107 165.024 157.442 164.961 157.768 164.829C157.935 164.782 158.092 164.685 158.257 164.618C158.415 164.519 158.581 164.447 158.737 164.329C159.06 164.128 159.365 163.854 159.679 163.559C159.984 163.268 160.245 162.96 160.474 162.647C160.934 162.019 161.191 161.349 161.313 160.624C161.44 159.902 161.378 159.098 161.178 158.258C160.782 156.571 159.789 154.808 158.596 153.169C157.394 151.52 155.953 149.965 154.415 148.513C147.793 142.492 141.169 136.467 134.554 130.452C122.77 119.665 111.052 108.775 99.6885 97.505L82.7822 80.5517C77.1352 74.9223 71.4638 69.3174 65.7577 63.7498C61.2028 59.3091 56.8307 54.9443 52.6948 50.7043C48.5658 46.455 44.6801 42.3262 41.0868 38.344C37.7769 34.686 38.8614 33.9172 43.3447 37.5108C49.6565 42.6185 56.0166 48.2352 62.2338 53.9324C67.3431 58.6198 72.3878 63.6365 77.4211 68.5377C77.456 68.5302 77.4886 68.5235 77.5274 68.5189Z" fill="black"/>
<path d="M93.1896 98.0268L103.259 89.2009L108.301 84.795L110.825 82.5935L112.088 81.4931L112.359 81.2574C112.24 81.3645 112.13 81.4871 112.035 81.6184C111.988 81.6812 111.941 81.758 111.907 81.8141C111.874 81.8673 111.843 81.9225 111.814 81.979C111.757 82.0922 111.709 82.2111 111.673 82.3309C111.643 82.4247 111.624 82.4924 111.607 82.5769C111.591 82.6521 111.58 82.7519 111.574 82.808C111.569 82.8557 111.565 82.9038 111.564 82.9519C111.563 82.9976 111.565 83.0536 111.567 83.0905L111.571 83.1681C111.595 83.3779 111.615 83.3855 111.607 83.3702C111.606 83.3591 111.581 83.2938 111.556 83.23C111.438 82.941 111.207 82.5137 110.963 82.1075C110.715 81.6951 110.438 81.2699 110.157 80.8664C110.017 80.666 109.874 80.469 109.77 80.3359C109.549 80.0357 109.309 79.7451 109.118 79.4265C108.702 78.8074 108.389 78.1396 108.105 77.4681C107.046 74.7458 107.016 71.8253 107.795 69.1646C107.89 68.8304 107.999 68.5004 108.127 68.1759C108.215 67.9086 108.459 67.3625 108.634 67.0683C109.01 66.4011 109.377 65.8909 109.748 65.3839C110.491 64.3943 111.244 63.5018 112.011 62.6323C113.545 60.8989 115.119 59.2625 116.718 57.6552C120.109 54.252 123.613 50.9912 127.187 47.8008C130.766 44.6163 134.409 41.5069 138.195 38.5271C139.991 37.1215 141.818 35.747 143.771 34.4476C144.756 33.8004 145.753 33.1671 146.888 32.5839C147.454 32.2916 148.051 32.0105 148.784 31.7639C149.147 31.6417 149.569 31.5274 150.088 31.458C150.207 31.4385 150.389 31.4338 150.537 31.4278C150.694 31.4242 150.834 31.4166 151.055 31.4449C151.265 31.4721 151.44 31.49 151.673 31.5543C151.925 31.6294 152.174 31.7282 152.408 31.8443L152.443 31.862C153.375 32.3252 153.857 33.3293 153.701 34.301C153.651 34.6093 153.59 34.9185 153.518 35.2234C153.443 35.5004 153.356 35.7117 153.27 35.9578C153.226 36.0728 153.184 36.2034 153.137 36.3047L152.996 36.6073L152.709 37.2089C152.508 37.5666 152.31 37.941 152.102 38.2829C151.892 38.6158 151.685 38.96 151.471 39.2827C150.617 40.5815 149.711 41.7621 148.794 42.9314C146.955 45.2561 145.039 47.4544 143.093 49.6174C142.121 50.7005 141.138 51.7671 140.15 52.8288C139.162 53.8894 138.157 54.9284 137.161 55.9793C135.177 58.091 133.141 60.136 131.118 62.1981L128.138 65.2431C127.195 66.2345 126.302 67.2524 125.528 68.2794C125.153 68.7917 124.784 69.3082 124.5 69.8061C124.213 70.2985 123.985 70.7905 123.886 71.1433C123.828 71.3239 123.825 71.4449 123.823 71.4832C123.819 71.5317 123.829 71.4364 123.768 71.311C123.709 71.1839 123.601 71.0828 123.592 71.077C123.58 71.0653 123.644 71.1115 123.803 71.1563C123.885 71.182 123.961 71.2001 124.157 71.2465L124.271 71.275C124.302 71.2827 124.395 71.3084 124.35 71.2948C124.315 71.2833 124.286 71.2791 124.245 71.2712C124.164 71.2552 124.067 71.2473 123.959 71.2493C123.743 71.2512 123.513 71.3169 123.387 71.3795C123.259 71.4392 123.225 71.4749 123.244 71.4566C123.197 71.5053 123.782 70.9413 123.973 70.7816L124.775 70.0623L127.983 67.1852L134.398 61.4318L137.606 58.5555L138.421 57.8251C138.747 57.5342 139.067 57.2689 139.387 57.0176C140.028 56.5141 140.669 56.058 141.322 55.623C142.629 54.7575 143.963 53.9757 145.427 53.276C146.166 52.9286 146.926 52.5999 147.828 52.3216C148.289 52.1859 148.767 52.0548 149.414 51.9832C149.739 51.9507 150.106 51.9283 150.579 51.9771C151.058 52.0393 151.698 52.155 152.435 52.6599C152.794 52.9063 153.149 53.2741 153.393 53.6643C153.65 54.0701 153.786 54.4591 153.873 54.8298C153.906 54.9933 153.931 55.1596 153.949 55.3256C153.965 55.4869 153.962 55.6032 153.963 55.7446L153.959 55.9476L153.944 56.1148L153.904 56.4437C153.765 57.231 153.551 57.728 153.349 58.1878C152.934 59.0906 152.495 59.7859 152.048 60.4659C151.152 61.8027 150.216 62.9846 149.263 64.1422C148.305 65.2941 147.339 66.399 146.341 67.4951C145.343 68.5922 144.324 69.6624 143.291 70.7094C141.225 72.8007 139.112 74.809 137.007 76.7837L133.865 79.7321L132.312 81.2028C132.245 81.2646 132.328 81.1919 132.365 81.1497C132.404 81.1026 132.447 81.0549 132.486 81.003C132.561 80.8994 132.626 80.7859 132.679 80.6684C132.784 80.4314 132.833 80.1777 132.828 79.9253C132.827 79.4287 132.557 78.8771 132.135 78.5592L132.095 78.531L132.13 78.5578L132.206 78.6146L132.356 78.7287L132.62 78.9384L133.023 79.2652C133.069 79.3004 133.128 79.3506 133.163 79.3742L133.265 79.4481C133.311 79.4724 133.353 79.5032 133.373 79.5077C133.425 79.5257 133.438 79.5439 133.55 79.5543C133.64 79.5741 133.813 79.5766 134.012 79.57C134.424 79.5514 134.981 79.4498 135.55 79.3166L135.994 79.1964L136.216 79.1371C136.289 79.1175 136.332 79.0994 136.392 79.0812C136.5 79.0496 136.619 79.0058 136.741 78.9574C136.859 78.9162 136.987 78.859 137.115 78.804C138.144 78.3513 139.274 77.6762 140.377 76.9315C141.486 76.1886 142.589 75.3622 143.683 74.5105C146.64 72.1914 149.527 69.6534 152.407 67.0815C155.293 64.5061 158.155 61.8762 161.149 59.2842C162.655 57.989 164.174 56.7031 165.88 55.4523C166.757 54.8279 167.619 54.2101 168.862 53.6097C169.188 53.4607 169.527 53.3117 169.993 53.177C170.423 53.0548 171.029 52.8978 171.943 52.9888C172.065 53.0043 172.187 53.0239 172.307 53.0475L172.487 53.0859C172.554 53.1033 172.629 53.1277 172.7 53.1509C172.99 53.253 173.259 53.3565 173.534 53.5301C173.672 53.6172 173.806 53.7124 173.935 53.814C173.999 53.8648 174.062 53.9172 174.123 53.9708C174.137 53.9775 174.325 54.1525 174.493 54.3682C174.834 54.811 174.96 55.1351 175.077 55.5106C175.126 55.6829 175.143 55.782 175.166 55.924C175.186 56.046 175.203 56.2148 175.204 56.2855C175.22 56.6833 175.181 56.9441 175.146 57.1541C175.129 57.247 175.108 57.3502 175.088 57.4334L175.028 57.6569C174.949 57.9215 174.868 58.1349 174.794 58.3116C174.496 59.0166 174.223 59.486 173.949 59.9685L173.244 61.1564C173.363 60.9134 173.212 61.2264 173.157 61.3445C173.084 61.5037 173.016 61.6248 172.944 61.7664C172.802 62.0344 172.661 62.2886 172.519 62.5263C172.235 63.0114 171.949 63.4569 171.66 63.8968C170.502 65.6381 169.296 67.2313 168.056 68.803C165.577 71.9334 162.973 74.9142 160.265 77.812C157.552 80.7042 154.733 83.5042 151.746 86.1717C148.746 88.8301 145.617 91.3835 142.013 93.5798C140.191 94.6599 138.265 95.6776 135.915 96.3349C135.314 96.4865 134.703 96.6267 134.03 96.6992C133.702 96.7442 133.35 96.7608 132.999 96.7723C132.652 96.7778 132.255 96.7656 131.922 96.7323C130.561 96.5946 129.427 96.272 128.348 95.9041C126.207 95.1487 124.315 94.1849 122.464 93.0259C122.002 92.7366 121.545 92.4247 121.085 92.0897C120.857 91.9295 120.622 91.7376 120.392 91.5617C120.372 91.5457 120.368 91.5429 120.374 91.549L120.38 91.5553L120.393 91.5657C120.404 91.5704 120.414 91.5756 120.423 91.5845C120.444 91.5949 120.464 91.6078 120.487 91.6168C120.674 91.689 120.782 91.6536 120.88 91.5861L117.122 95.4265L113.133 99.6195C107.852 105.247 102.714 111.022 97.6584 116.882C87.5513 128.606 77.7429 140.648 67.8016 152.612C66.3012 154.416 64.7913 156.219 63.2613 158.009L60.9644 160.692L60.3838 161.365L59.6559 162.142C59.4189 162.407 59.1551 162.642 58.8901 162.876C58.6233 163.107 58.3695 163.354 58.0894 163.567C56.9828 164.442 55.7813 165.185 54.5027 165.786C54.1848 165.938 53.848 166.057 53.521 166.192L53.0268 166.386C52.8592 166.444 52.6858 166.491 52.5154 166.544C52.1724 166.643 51.8329 166.75 51.4868 166.838L50.4266 167.045C49.0012 167.257 47.5243 167.342 46.0504 167.079C44.5899 166.836 43.125 166.374 41.8502 165.594C41.6956 165.505 41.5417 165.417 41.3887 165.329C41.2368 165.24 41.1043 165.126 40.9633 165.026C40.6887 164.816 40.4171 164.608 40.1485 164.403C39.8867 164.192 39.6685 163.946 39.4344 163.72C39.3205 163.605 39.2073 163.49 39.0947 163.376C38.982 163.257 38.8754 163.164 38.757 163.001C37.7892 161.85 37.2481 160.509 37.0501 159.291C36.9755 158.983 36.9757 158.687 36.9417 158.391C36.9303 158.244 36.919 158.098 36.9077 157.953C36.911 157.811 36.9144 157.67 36.9177 157.53C36.9295 157.252 36.9292 156.973 36.9592 156.709C36.9974 156.447 37.0351 156.19 37.0724 155.935C37.1039 155.679 37.1689 155.441 37.2299 155.206C37.2921 154.971 37.3535 154.74 37.4141 154.512C37.5705 154.075 37.7214 153.651 37.8898 153.254C38.5822 151.673 39.4659 150.483 40.3174 149.531C40.5347 149.296 40.7357 149.063 40.9512 148.858C41.1704 148.658 41.3823 148.465 41.5872 148.279C41.989 147.903 42.4178 147.613 42.8005 147.336C43.0785 147.135 43.3375 146.977 43.5771 146.861C43.8127 146.741 44.0189 146.652 44.1965 146.593C44.5516 146.475 44.793 146.476 44.9292 146.582C45.2035 146.796 45.0502 147.426 44.5543 148.398C44.0919 149.391 43.2946 150.763 42.5809 152.551C42.2435 153.444 41.9103 154.44 41.7526 155.493C41.5894 156.54 41.6377 157.638 41.9501 158.528C42.0596 158.801 42.1808 159.054 42.336 159.268C42.3925 159.394 42.5075 159.465 42.5819 159.57C42.6325 159.661 42.8264 159.801 42.9542 159.922L43.3725 160.304L43.8326 160.615C44.122 160.852 44.4697 160.98 44.789 161.159L44.9102 161.225L45.0414 161.268L45.3022 161.359C45.4787 161.412 45.6397 161.505 45.8263 161.534C46.1936 161.604 46.5476 161.72 46.9353 161.732C47.6874 161.843 48.4883 161.762 49.2852 161.652C50.8803 161.346 52.4994 160.674 53.8811 159.66C54.2172 159.396 54.5742 159.156 54.8767 158.855C55.0331 158.711 55.1966 158.574 55.3495 158.427L55.7803 157.962L55.9978 157.732L56.2458 157.443L56.7487 156.851C57.084 156.457 57.4183 156.064 57.7513 155.673C70.048 141.279 81.9851 126.591 94.3619 112.208C100.562 105.027 106.888 97.936 113.453 91.0484L115.929 88.4781L116.548 87.8353L116.703 87.6746L116.78 87.5942C116.805 87.5683 116.825 87.5459 116.887 87.4872C117.091 87.2861 117.311 87.1022 117.545 86.9341C118.483 86.2678 119.63 85.9073 120.795 85.9281C121.378 85.9382 121.967 86.0479 122.525 86.2527C122.804 86.3547 123.078 86.4781 123.335 86.6295C123.464 86.7046 123.593 86.7792 123.712 86.8673L124.033 87.103C124.413 87.3982 124.839 87.6922 125.278 87.9769C126.165 88.5425 127.116 89.063 128.079 89.5177C129.977 90.4075 132.116 91.107 133.369 90.8617C133.76 90.8065 134.188 90.7113 134.634 90.5647C135.077 90.4289 135.537 90.2472 135.999 90.044C136.924 89.6325 137.861 89.1222 138.786 88.5544C140.831 87.2906 142.837 85.7557 144.785 84.1199C146.734 82.4796 148.63 80.7266 150.477 78.9264C154.168 75.3206 157.677 71.5319 160.951 67.8012C162.257 66.3109 163.526 64.7905 164.727 63.2467C165.326 62.4751 165.909 61.6964 166.451 60.92C166.719 60.5324 166.98 60.145 167.219 59.7666C167.453 59.3934 167.675 59.0137 167.819 58.72C167.791 58.7738 168.055 58.2344 168.112 58.163L168.337 57.7943L168.719 57.174C168.953 56.787 169.179 56.3896 169.299 56.1278L169.354 56.0056L169.354 56.0061C169.336 56.0004 169.37 56.012 169.435 56.0325L169.746 56.1251C169.936 56.1845 170.109 56.2369 170.296 56.28C170.643 56.3704 170.965 56.4267 171.217 56.454C171.484 56.4766 171.673 56.4742 171.802 56.4335C171.825 56.4299 171.848 56.4218 171.871 56.4089C171.896 56.3929 171.891 56.4008 171.903 56.3911C171.739 56.5597 172.285 55.9995 171.539 56.7644L171.538 56.7665L171.537 56.7691C171.537 56.7691 171.539 56.7693 171.542 56.7663C171.547 56.7578 171.516 56.8065 171.511 56.8234C171.501 56.8477 171.495 56.8715 171.491 56.8939C171.493 56.9072 171.462 56.9864 171.456 57.029C171.436 57.187 171.405 57.5343 171.466 57.8462C171.48 58.0535 171.512 58.2565 171.562 58.4527C171.587 58.5487 171.616 58.6407 171.642 58.7792C171.649 58.8253 171.638 58.7946 171.637 58.8053C171.627 58.8093 171.629 58.8025 171.607 58.8108L171.539 58.8361C171.5 58.8437 171.42 58.8861 171.358 58.9101C171.079 59.0354 170.717 59.2411 170.355 59.4682C169.99 59.6943 169.61 59.9611 169.231 60.2299C168.47 60.7791 167.703 61.3782 166.939 61.997C163.88 64.4921 160.87 67.2285 157.826 69.934C154.779 72.6472 151.711 75.3747 148.467 77.9919C146.838 79.2974 145.169 80.5771 143.361 81.7774C142.456 82.3768 141.513 82.9549 140.478 83.4859C139.964 83.7525 139.418 84.0037 138.829 84.2319C138.538 84.3471 138.224 84.4519 137.902 84.55L137.058 84.7784C135.919 85.0476 134.721 85.321 133.139 85.2014C132.359 85.1379 131.438 84.903 130.654 84.4739C130.449 84.3718 130.289 84.2589 130.108 84.1471C129.946 84.0378 129.794 83.9256 129.653 83.8194L129.008 83.298C128.919 83.2231 128.855 83.177 128.791 83.1276L128.736 83.0848C128.656 83.024 128.577 82.9609 128.5 82.8958C128.345 82.7679 128.203 82.6165 128.068 82.464C127.534 81.8356 127.219 81.0428 127.164 80.2493C127.106 79.4562 127.296 78.6436 127.718 77.9548C127.819 77.7804 127.943 77.6222 128.068 77.4659C128.133 77.3914 128.201 77.3184 128.27 77.2472L128.403 77.1154L128.683 76.8513L130.923 74.7523C133.908 71.9712 136.881 69.2466 139.681 66.4194C141.085 65.0046 142.432 63.5758 143.746 62.0868C145.051 60.6097 146.326 59.0974 147.381 57.5944C147.769 57.0418 148.116 56.4803 148.348 56.0106C148.399 55.9006 148.451 55.7897 148.479 55.71C148.502 55.6605 148.504 55.6386 148.515 55.609C148.521 55.5934 148.527 55.5798 148.524 55.5806L148.525 55.576C148.536 55.5762 148.488 55.5664 148.613 55.5874C149.229 55.7214 149.806 55.7077 150.079 55.6588C150.387 55.6069 150.425 55.4842 150.327 55.6145C150.234 55.7358 150.09 56.1106 150.05 56.6427C150.033 56.7853 150.032 56.9165 150.031 57.0653C150.026 57.1482 150.024 57.2309 150.024 57.3132C150.024 57.374 150.024 57.3384 150.024 57.3482L150.024 57.3476C150.023 57.3453 149.989 57.3506 149.965 57.3505C149.828 57.3653 149.577 57.4199 149.312 57.5017C148.773 57.6662 148.157 57.9222 147.55 58.2111C146.327 58.7939 145.094 59.5115 143.941 60.2863C143.365 60.6738 142.807 61.0815 142.303 61.4928C142.179 61.5955 142.058 61.698 141.943 61.7995L141.523 62.1701L140.671 62.9217C136.148 66.925 131.621 70.9315 127.093 74.9391L126.916 75.1059C126.823 75.1947 126.715 75.294 126.59 75.3986C126.337 75.608 126.015 75.8501 125.565 76.0574C125.12 76.2646 124.542 76.4091 123.986 76.4021C123.711 76.3991 123.443 76.3683 123.203 76.3155L122.861 76.2325C122.434 76.1316 121.836 75.9602 121.258 75.6646C120.673 75.3682 120.029 74.9005 119.532 74.2225C119.027 73.5499 118.748 72.7005 118.691 71.9783C118.628 71.2503 118.718 70.6178 118.848 70.0638C119.123 68.9657 119.554 68.1303 119.997 67.3457C120.904 65.818 121.927 64.5406 122.986 63.3357C123.516 62.734 124.058 62.1556 124.605 61.585L126.235 59.9397C130.495 55.6717 134.747 51.3929 138.816 46.9967C140.844 44.7916 142.846 42.5617 144.706 40.2753C145.638 39.1349 146.532 37.9747 147.328 36.8114C147.728 36.2305 148.089 35.6486 148.4 35.0872C148.488 34.943 148.533 34.8171 148.604 34.6819C148.662 34.5532 148.749 34.4049 148.776 34.302L148.899 33.975C148.903 33.913 148.918 33.8556 148.943 33.7974L150.825 34.7269C150.769 34.8099 150.737 34.8976 150.727 34.9803C150.692 35.1022 150.648 35.2821 150.65 35.4266C150.649 35.4646 150.65 35.5023 150.652 35.5396C150.653 35.5804 150.643 35.647 150.641 35.6992C150.634 35.8103 150.634 35.9207 150.639 36.0299C150.641 36.079 150.646 36.1514 150.65 36.1803L150.656 36.1776C150.665 36.1726 150.648 36.1784 150.64 36.1802C150.6 36.1904 150.568 36.1848 150.482 36.2127L150.371 36.2393L150.234 36.2855C149.863 36.4102 149.411 36.6095 148.958 36.8434C148.045 37.3137 147.105 37.8931 146.178 38.5002C144.32 39.7243 142.491 41.0856 140.689 42.483C137.086 45.2894 133.58 48.2728 130.149 51.3329C126.722 54.3981 123.362 57.5474 120.135 60.7979C118.524 62.423 116.944 64.0767 115.461 65.7673C114.727 66.6114 114.007 67.4719 113.393 68.3194C113.092 68.7328 112.797 69.1807 112.653 69.4845L112.606 69.5834C112.589 69.6185 112.567 69.6882 112.547 69.7389L112.424 70.0693C112.357 70.2948 112.277 70.5174 112.226 70.7475C111.754 72.5746 111.91 74.5672 112.687 76.1788C112.893 76.5736 113.114 76.9598 113.389 77.3014C113.428 77.3605 113.589 77.5561 113.678 77.6785L113.963 78.0694C114.146 78.3261 114.321 78.5816 114.492 78.8414C114.835 79.3619 115.164 79.8911 115.48 80.4741C115.637 80.7678 115.791 81.0725 115.941 81.4291C116.015 81.6041 116.089 81.8045 116.158 82.0303C116.223 82.2759 116.301 82.5287 116.312 82.9932C116.305 83.2384 116.305 83.5317 116.111 83.9869C116.059 84.101 116.014 84.1958 115.935 84.3133C115.855 84.4324 115.761 84.5471 115.66 84.6511C115.518 84.7925 115.553 84.7525 115.53 84.7753L115.489 84.8111L115.163 85.0976L114.51 85.6707L113.205 86.8172L110.595 89.1134L105.38 93.7114L84.562 112.154C78.1325 117.874 71.835 123.37 65.7298 128.559C59.6265 133.752 53.7008 138.617 48.0592 143.149C45.471 145.238 44.0459 146.018 43.9126 145.541C43.8489 145.305 44.1147 144.76 44.7349 143.92C45.0452 143.502 45.4426 143.004 45.9343 142.445C46.4276 141.891 47.0125 141.268 47.6912 140.578C55.3901 132.79 63.6966 124.932 72.0315 117.177C78.8891 110.81 86.1113 104.474 93.1857 98.1485C93.1855 98.1089 93.1857 98.0717 93.1899 98.0271L93.1896 98.0268Z" fill="black"/>
</svg>
