<svg width="195" height="195" viewBox="0 0 195 195" fill="none" xmlns="http://www.w3.org/2000/svg">
<path d="M80.0001 53.4836C79.2938 62.2937 87.1871 70.9749 96.0194 70.6465C100.708 70.4721 105.082 68.1034 108.642 65.0471C111.618 62.4913 114.254 59.1995 114.775 55.3108C115.895 46.9498 107.501 37.7341 99.0652 37.7341C89.7771 37.7341 80.7064 44.6735 80.0001 53.4836Z" fill="black"/>
<path d="M84.6063 39.792C86.2336 38.5985 88.0147 37.6729 89.8496 36.9272L91.2459 36.4188C91.7189 36.2723 92.1999 36.1496 92.6754 36.0166C93.1477 35.8719 93.6371 35.7877 94.1234 35.6969C94.6113 35.6131 95.09 35.4944 95.5869 35.4606C96.1098 35.4079 96.6314 35.3497 97.1539 35.3075L98.733 35.28C98.9883 35.2681 99.2692 35.2812 99.5522 35.2977C99.8333 35.3089 100.113 35.3255 100.389 35.3606C100.946 35.4101 101.491 35.5017 102.033 35.5978C104.919 36.1599 107.543 37.4484 109.783 39.1552C112.024 40.868 113.935 42.9927 115.38 45.4704C116.8 47.9481 117.785 50.829 117.799 53.9321C117.805 55.4674 117.555 57.0767 117.049 58.5351C116.543 59.9947 115.845 61.3462 115.021 62.5469C114.011 64.0344 112.845 65.3357 111.61 66.5015C110.376 67.6702 109.075 68.7058 107.667 69.6706C106.259 70.6258 104.743 71.467 103.125 72.1534C101.498 72.8205 99.7699 73.3454 97.9574 73.5844C97.0523 73.7135 96.1422 73.7626 95.1897 73.7531C94.2499 73.7182 93.309 73.6383 92.3947 73.4478C91.4795 73.266 90.5792 73.0218 89.7173 72.6951C88.8495 72.3809 88.0166 71.9933 87.2194 71.553C84.024 69.7931 81.418 67.1876 79.5879 64.1016C78.4732 62.2386 77.8661 60.0612 77.6654 57.9306C77.4881 55.8638 78.269 54.5028 79.2655 53.835C79.9924 53.3387 80.7117 53.4506 81.2858 53.8779C81.8506 54.3126 82.2949 55.0483 82.5899 56.0326C82.7744 56.6595 82.9685 57.3039 83.1775 57.9524C83.3782 58.6024 83.6072 59.2546 83.8562 59.8869C84.9866 62.8106 87.2897 65.3814 90.0816 66.818C91.4799 67.5239 92.9889 67.9615 94.4885 68.0333C95.9647 68.1065 97.5153 67.8348 98.9744 67.2961C100.601 66.7101 102.137 65.7134 103.716 64.9436C104.983 64.328 106.196 63.5075 107.309 62.5838C108.412 61.6604 109.398 60.6338 110.187 59.5335C110.986 58.4369 111.564 57.268 111.909 56.094C112.074 55.5043 112.174 54.9193 112.231 54.3026C112.279 53.6878 112.264 53.0585 112.215 52.4203C112.041 50.5166 111.27 48.5761 110.139 46.8562C109.008 45.1294 107.52 43.6072 105.85 42.3969C104.363 41.3163 102.695 40.5033 100.976 40.1177L100.33 39.9934L99.6821 39.9107L99.0316 39.8715L98.3274 39.8861L97.6215 39.8969C97.3859 39.9031 97.1519 39.9441 96.9165 39.9652C96.4471 40.0215 95.9716 40.0454 95.5079 40.1583C93.6364 40.4918 91.7941 41.1162 90.0858 42.0105C88.3826 42.9117 86.8091 44.0711 85.4774 45.4533C85.1918 45.7132 84.9564 46.0088 84.7043 46.2894C84.4592 46.5745 84.1783 46.8343 83.9643 47.1351C83.7346 47.4261 83.4985 47.7116 83.2545 47.9927C83.0371 48.2874 82.8281 48.5859 82.6012 48.8766C82.4926 49.0241 82.365 49.164 82.2656 49.3156C82.1647 49.4681 82.0643 49.6197 81.9643 49.7704C81.767 50.0752 81.5231 50.3673 81.3344 50.6793C80.9674 51.3057 80.508 51.9229 80.1598 52.5865C79.4512 53.788 78.1542 53.7387 78.1125 51.9431C78.1038 49.4464 78.9055 46.8133 80.2587 44.5766C81.3757 42.7277 82.9833 41.198 84.6454 39.872C84.6324 39.8457 84.6204 39.8212 84.6063 39.792Z" fill="black"/>
<path d="M83.7875 122.93C84.4598 118.032 87.5564 113.511 91.8249 111.017C96.0934 108.523 103.17 108.645 107.467 111.09C112.519 113.964 115.138 120.065 115.041 125.877C114.944 131.689 112.514 137.23 109.441 142.164C105.902 147.849 101.454 152.968 96.319 157.266C98.2965 152.424 101.563 144.586 100.572 136.083C95.0197 140.312 82.0997 135.225 83.7875 122.93Z" fill="black"/>
<path d="M92.6222 133.889C93.1729 134.124 93.741 134.328 94.3183 134.459C94.8946 134.586 95.4743 134.661 96.0391 134.674C97.1651 134.685 98.1978 134.423 98.937 133.935L99.2042 133.759C100.409 132.963 102.031 133.295 102.827 134.501C103.084 134.891 103.224 135.335 103.254 135.77C103.349 137.217 103.4 138.664 103.304 140.093C103.166 142.668 102.725 145.192 102.175 147.636C101.768 149.494 101.246 151.31 100.655 153.082C100.065 154.853 99.4002 156.585 98.75 158.259L94.6337 155.252C97.9049 152.399 100.869 149.203 103.46 145.74C104.755 144.008 105.963 142.211 107.069 140.361C108.168 138.517 109.156 136.636 109.947 134.717C110.637 133.069 111.168 131.391 111.52 129.709C111.684 128.868 111.825 128.026 111.884 127.186C111.931 126.766 111.933 126.348 111.952 125.929C111.95 125.516 111.955 125.113 111.926 124.705C111.746 121.448 110.538 118.203 108.515 115.906C108.388 115.763 108.251 115.633 108.122 115.495C107.992 115.355 107.861 115.219 107.715 115.101L107.296 114.727L106.85 114.393L106.629 114.223L106.394 114.078L105.927 113.783C105.606 113.625 105.303 113.448 104.947 113.314C104.614 113.157 104.233 113.052 103.873 112.921C103.489 112.825 103.117 112.703 102.718 112.634C101.936 112.457 101.118 112.369 100.301 112.319C99.4808 112.268 98.6597 112.306 97.8496 112.37C97.0485 112.466 96.251 112.589 95.5112 112.805C94.7803 113.024 94.0668 113.279 93.4818 113.62C92.8274 113.992 92.1598 114.455 91.5535 114.957C90.0923 116.185 88.6949 117.614 87.6344 119.279C87.1315 120.074 86.6364 120.716 86.1443 121.256C85.8846 121.523 85.6397 121.766 85.3769 121.983C85.1072 122.198 84.8473 122.391 84.5761 122.56C83.7819 123.054 83.0546 123.012 82.5694 122.313C82.4483 122.14 82.3416 121.925 82.2544 121.672C82.1789 121.421 82.1232 121.131 82.0909 120.803C82.0332 120.151 82.1072 119.36 82.3468 118.474C82.9798 116.242 84.328 114.01 86.0211 112.322C86.9847 111.341 88.0437 110.457 89.1853 109.69C89.4679 109.495 89.7572 109.309 90.0567 109.138L90.5008 108.875C90.653 108.788 90.8246 108.707 90.9857 108.624C91.313 108.458 91.6404 108.29 91.9728 108.166C92.3044 108.036 92.6348 107.886 92.9688 107.789C94.3008 107.334 95.6409 107.059 96.9764 106.915C98.3124 106.769 99.6462 106.74 100.977 106.817C102.308 106.897 103.636 107.104 104.96 107.436C106.279 107.772 107.612 108.248 108.888 108.952C111.385 110.337 113.468 112.383 114.983 114.716C116.673 117.279 117.848 120.343 117.953 123.305C118.106 128.059 117.011 132.49 115.348 136.548C114.509 138.573 113.524 140.506 112.43 142.346C111.337 144.186 110.145 145.935 108.846 147.613C105.588 151.797 101.955 155.72 97.8478 159.092L97.8154 159.119C96.801 159.952 95.3033 159.805 94.4704 158.79C93.8934 158.087 93.7884 157.15 94.1143 156.365L95.2025 153.762C96.3727 150.909 97.3721 148.046 97.9962 145.12C98.3043 143.66 98.5265 142.189 98.6425 140.716C98.7398 139.244 98.728 137.773 98.6071 136.312L101.772 137.657C100.57 138.527 99.2035 139.036 97.8602 139.27C96.5122 139.49 95.177 139.457 93.8962 139.247C91.3361 138.82 88.9631 137.703 87.0124 136.06C85.125 134.487 83.8116 132.346 83.2737 130.176C82.7178 127.998 82.957 125.846 83.6374 124.085C83.9868 123.271 84.4793 122.971 84.8946 123.087C85.1029 123.144 85.2935 123.303 85.4396 123.549C85.5923 123.795 85.6683 124.132 85.741 124.549C86.0455 126.932 86.9004 129.083 88.2968 130.721C88.8671 131.396 89.4984 132.031 90.2138 132.591C90.9272 133.15 91.7257 133.63 92.5755 133.965C92.5908 133.94 92.6051 133.917 92.6222 133.889Z" fill="black"/>
</svg>
