<svg width="195" height="194" viewBox="0 0 195 194" fill="none" xmlns="http://www.w3.org/2000/svg">
<path d="M103.361 149.216C101.338 149.729 99.367 150.42 97.4491 151.219C96.4824 151.605 95.5548 152.071 94.6175 152.517C93.7056 153.01 92.7835 153.487 91.9077 154.039L91.2418 154.439L90.597 154.87C90.1722 155.164 89.7277 155.432 89.3176 155.746L88.075 156.672C87.6684 156.985 87.2792 157.304 86.9116 157.624C85.4316 158.901 84.3315 160.272 83.947 161.595C83.7421 162.245 83.7039 162.941 83.7879 163.683C83.8904 164.424 84.122 165.197 84.4951 165.937C84.8541 166.682 85.3533 167.384 85.9147 168.015C86.4958 168.652 87.1605 169.213 87.8942 169.687C90.8305 171.603 94.8679 172.046 98.5517 171.152C100.398 170.71 102.17 169.945 103.712 168.897C104.486 168.364 105.188 167.799 105.839 167.103C106.165 166.754 106.514 166.425 106.8 166.038C107.1 165.664 107.415 165.303 107.673 164.893C109.889 161.734 111.097 157.807 111.378 153.794C111.521 151.785 111.438 149.747 111.14 147.742C110.846 145.747 110.319 143.746 109.632 141.79C108.256 137.874 106.211 134.14 103.824 130.579C101.297 126.804 98.3643 123.183 95.3492 119.657C92.3226 116.14 89.1162 112.782 85.7516 109.599C79.0116 103.244 71.5658 97.6694 63.4446 93.3129C57.9977 90.3728 52.2901 87.7101 46.6588 84.714C43.8454 83.2075 41.0441 81.6269 38.321 79.8563C35.6049 78.0773 32.9464 76.1373 30.5085 73.8659C28.0575 71.6207 25.8448 69.0226 24.0557 66.1153C23.1828 64.6481 22.4024 63.118 21.7741 61.5215C21.1672 59.915 20.6335 58.2955 20.3263 56.5886C19.6419 53.1953 19.626 49.6979 20.1742 46.3267C20.7231 42.9506 21.8569 39.7095 23.3908 36.696C24.9316 33.683 26.8953 30.8961 29.2111 28.4241C29.4886 28.104 29.7945 27.8103 30.1002 27.5163L31.0144 26.6317C31.6372 26.0558 32.3018 25.5229 32.9459 24.9691C33.6213 24.4651 34.2886 23.9488 34.9779 23.4654L36.031 22.7692C36.3821 22.5372 36.7309 22.301 37.098 22.0968C42.8695 18.6235 49.3749 16.6102 55.9303 15.7958C59.2139 15.3911 62.5213 15.2737 65.8128 15.4168C69.1065 15.5597 72.4011 15.9718 75.6432 16.6853C78.883 17.4107 82.0745 18.4457 85.1336 19.8461C88.1884 21.248 91.1184 23.0164 93.7419 25.2175L94.7004 26.0735C95.0171 26.3622 95.3467 26.636 95.639 26.9523L96.5383 27.8757C96.686 28.0318 96.8418 28.18 96.9824 28.3427L97.3997 28.8356C98.5307 30.1108 99.5929 31.5668 100.451 33.08C102.188 36.1154 103.342 39.4412 103.871 42.8725C104.389 46.302 104.32 49.8539 103.466 53.3011C103.038 55.0218 102.418 56.7125 101.591 58.3173C100.769 59.9238 99.711 61.4285 98.4783 62.7767C97.272 64.1039 95.7589 65.3712 94.1175 66.2803C92.4726 67.1979 90.7065 67.8384 88.9112 68.2293C85.3134 69.013 81.6082 68.8042 78.1235 67.7696C76.3799 67.2507 74.6892 66.4983 73.119 65.4938C71.5537 64.4891 70.0887 63.2463 68.8985 61.721C67.7072 60.2026 66.7859 58.4268 66.2573 56.5438C66.1349 56.0732 66.0286 55.5939 65.9362 55.1203L65.7552 53.7071C65.6949 52.7626 65.6634 51.8104 65.7583 50.8751C65.9123 49.0003 66.3659 47.1859 67.0198 45.4923C67.6857 43.8029 68.5533 42.2394 69.5328 40.7817C70.512 39.3217 71.6188 37.9766 72.8206 36.7416C74.0198 35.5031 75.2998 34.3554 76.6601 33.3091C79.3371 31.2685 82.2344 29.5308 85.2676 28.0989C88.3125 26.6942 91.4854 25.5905 94.7205 24.7932C97.9591 24.0121 101.252 23.5076 104.553 23.2768C107.855 23.0561 111.162 23.0825 114.444 23.3401C117.724 23.61 120.978 24.1006 124.185 24.7921C127.39 25.4948 130.545 26.4047 133.634 27.5007C141.239 30.226 148.38 34.1137 154.806 38.9785C161.221 43.8471 166.924 49.7281 171.378 56.528C175.831 63.3172 178.975 71.048 180.145 79.2092C181.289 87.4203 180.188 95.8008 177.293 103.476C175.846 107.32 173.921 110.987 171.568 114.382C170.39 116.079 169.081 117.689 167.692 119.231C166.284 120.758 164.763 122.187 163.156 123.523C161.528 124.836 159.803 126.034 157.996 127.112C156.17 128.158 154.267 129.078 152.295 129.842C150.309 130.568 148.281 131.177 146.193 131.581C144.11 131.99 141.989 132.205 139.859 132.229C135.605 132.275 131.275 131.556 127.244 129.84C125.235 128.98 123.301 127.88 121.557 126.512C119.809 125.161 118.263 123.585 116.931 121.886C114.261 118.479 112.426 114.643 111.083 110.769C110.411 108.826 109.863 106.865 109.403 104.894C108.944 102.922 108.571 100.914 108.322 98.8699C107.825 94.7904 107.84 90.5215 108.782 86.3103C109.012 85.2592 109.318 84.2182 109.669 83.1904C109.843 82.6749 110.065 82.1582 110.265 81.6439C110.487 81.1377 110.728 80.64 110.965 80.1408C111.974 78.1748 113.239 76.346 114.744 74.7088C116.25 73.0736 118 71.6271 119.98 70.4836C121.955 69.3407 124.176 68.5056 126.512 68.1669C128.838 67.8068 131.281 67.9404 133.559 68.5634C135.841 69.1811 137.946 70.2553 139.777 71.6035C143.443 74.3209 146.075 78.029 147.714 82.086C148.128 83.1018 148.454 84.1521 148.741 85.2134C149.004 86.2823 149.217 87.366 149.343 88.468C149.458 89.5711 149.533 90.6839 149.484 91.8062C149.482 92.086 149.464 92.3666 149.44 92.6472C149.416 92.9253 149.404 93.2142 149.368 93.4829L149.138 95.0881C148.762 97.2105 148.218 99.311 147.4 101.281C147.302 101.529 147.212 101.781 147.107 102.026L146.774 102.749C146.546 103.227 146.342 103.721 146.091 104.185L145.339 105.578C145.094 106.047 144.798 106.478 144.528 106.929C143.996 107.837 143.371 108.668 142.781 109.53C142.143 110.345 141.533 111.191 140.85 111.963C139.532 113.555 138.094 115.019 136.618 116.428C135.14 117.838 133.578 119.134 131.994 120.396C130.4 121.651 128.736 122.763 127.093 123.918C123.73 126.105 120.286 128.184 116.659 129.904L115.311 130.571C114.864 130.8 114.395 130.98 113.939 131.187L111.181 132.389C110.254 132.77 109.309 133.109 108.374 133.47L106.967 134.003C106.498 134.179 106.016 134.32 105.541 134.48L102.681 135.412C101.719 135.694 100.748 135.947 99.7822 136.215L98.3313 136.611C97.8452 136.734 97.3535 136.834 96.8649 136.946L93.9284 137.6L90.9647 138.12L89.4822 138.376L87.9893 138.565L85.0025 138.936L82.0006 139.165L80.4995 139.276L78.9942 139.317L75.9836 139.393L72.9715 139.327C72.4697 139.313 71.9673 139.311 71.4658 139.287L69.9626 139.179C68.9608 139.103 67.9576 139.043 66.9572 138.953L63.9642 138.585C61.9624 138.36 59.9998 137.99 58.067 137.641C54.2027 136.922 50.4537 136.129 46.7628 135.635C44.5399 135.343 42.3268 135.132 40.1599 135.129C38.0167 135.124 35.8714 135.308 33.7986 135.727C31.7301 136.155 29.7338 136.808 27.907 137.709C26.0937 138.628 24.4705 139.807 23.1335 141.224C20.4839 144.043 19.1006 148.051 19.0708 152.091C19.063 153.097 19.1383 154.12 19.2896 155.102C19.4426 156.065 19.6942 157.024 20.0325 157.959C20.7095 159.829 21.7317 161.6 23.0113 163.135C24.2384 164.604 25.6432 165.795 27.1091 166.654C28.5756 167.515 30.0997 168.038 31.5814 168.239C32.3227 168.344 33.0548 168.358 33.7679 168.302L34.0351 168.285L34.2769 168.249C34.4367 168.22 34.6016 168.219 34.7573 168.173C34.9158 168.137 35.0733 168.102 35.2298 168.067C35.3841 168.018 35.5374 167.969 35.6897 167.92C36.9071 167.504 38.0039 166.785 38.9198 165.925C39.8442 165.07 40.5756 164.069 41.1624 163.062C41.7352 162.044 42.144 161.003 42.4078 159.993C42.9374 157.969 42.8598 156.075 42.3257 154.541C42.2328 154.259 42.1172 154.006 42.0197 153.758C41.898 153.527 41.7968 153.297 41.6842 153.095C41.5648 152.898 41.4557 152.712 41.3571 152.536C41.2459 152.373 41.1431 152.224 41.0543 152.083C40.6861 151.535 40.4773 151.206 40.5443 151.03C40.6042 150.863 40.9142 150.881 41.5009 151.116C42.0544 151.385 42.9 151.9 43.7212 152.925C44.5399 153.935 45.3125 155.457 45.6019 157.371C45.8899 159.276 45.7377 161.539 44.9006 163.889C44.4818 165.062 43.8932 166.258 43.0905 167.421C42.2842 168.577 41.2756 169.72 39.9711 170.687C38.6726 171.646 37.0888 172.468 35.2736 172.837C35.0506 172.88 34.8144 172.939 34.5977 172.966C34.3795 172.995 34.1603 173.023 33.94 173.051C33.4985 173.098 33.0485 173.128 32.5952 173.135C31.6864 173.159 30.7626 173.074 29.8365 172.928C27.4902 172.54 25.2653 171.603 23.31 170.325C21.3497 169.044 19.6388 167.428 18.2083 165.593C16.7796 163.756 15.6223 161.696 14.8213 159.468C14.4206 158.354 14.1081 157.2 13.9011 156.015C13.7042 154.844 13.5846 153.684 13.5593 152.506C13.5382 151.331 13.5988 150.153 13.7436 148.981C13.8935 147.81 14.1413 146.647 14.4707 145.504C14.796 144.359 15.2356 143.241 15.7601 142.16C16.2846 141.079 16.9012 140.033 17.6279 139.061C17.9767 138.565 18.3871 138.121 18.7679 137.653C19.1663 137.201 19.6018 136.786 20.0202 136.356C20.4696 135.963 20.9135 135.561 21.3767 135.188C21.8551 134.84 22.3158 134.46 22.812 134.146C24.7718 132.837 26.8838 131.861 29.0272 131.149C30.2599 130.725 31.5161 130.423 32.7738 130.153C34.0357 129.92 35.3016 129.719 36.5718 129.618C37.841 129.492 39.1123 129.468 40.3816 129.469C41.6375 129.492 42.8844 129.549 44.1174 129.662C49.0601 130.087 53.7749 131.122 58.3763 132.001C59.5275 132.222 60.6713 132.434 61.811 132.628L63.5169 132.906L65.2229 133.121C67.4924 133.453 69.7839 133.594 72.0724 133.749C76.6583 133.959 81.2603 133.775 85.8243 133.266L87.5343 133.057C88.1043 132.987 88.6757 132.926 89.2399 132.817L92.6362 132.234L96.0014 131.494L96.8426 131.308L97.6736 131.081L99.3357 130.628C103.754 129.383 108.097 127.845 112.264 125.92C116.427 123.99 120.437 121.744 124.243 119.198C128.071 116.661 131.601 113.786 134.715 110.548C137.807 107.307 140.407 103.649 142.08 99.6644C142.917 97.6744 143.468 95.5957 143.747 93.4933C143.782 93.2319 143.83 92.9651 143.854 92.7082L143.91 91.9466C143.924 91.4357 143.936 90.9243 143.908 90.4101C143.861 89.3829 143.725 88.3531 143.508 87.3359C143.066 85.3015 142.283 83.3273 141.237 81.5182C140.175 79.7199 138.845 78.0864 137.29 76.7697C135.731 75.4627 133.953 74.4827 132.081 73.9816C130.21 73.4574 128.248 73.4931 126.35 73.9424C126.11 73.9817 125.88 74.0716 125.645 74.1414C125.413 74.2209 125.174 74.2723 124.947 74.371C124.491 74.5617 124.027 74.7279 123.59 74.9714C122.694 75.401 121.855 75.9727 121.051 76.5871C119.462 77.8521 118.058 79.4062 116.972 81.166C114.743 84.6334 113.846 88.9046 113.796 93.2256C113.773 97.5601 114.588 102.012 115.836 106.319C116.456 108.464 117.219 110.545 118.143 112.517C119.059 114.494 120.165 116.343 121.455 118.003C121.627 118.238 121.812 118.461 122.002 118.677C122.192 118.895 122.373 119.121 122.568 119.333C122.967 119.745 123.352 120.174 123.781 120.552C124.188 120.955 124.639 121.303 125.076 121.668C125.297 121.847 125.536 122.001 125.764 122.169C125.999 122.329 126.215 122.514 126.465 122.653C128.388 123.871 130.527 124.813 132.808 125.368C137.362 126.512 142.338 126.355 146.951 125.111C151.593 123.874 155.896 121.536 159.563 118.466C163.238 115.397 166.289 111.625 168.664 107.547C172.447 101.021 174.577 93.4643 174.674 85.9042C174.692 84.0144 174.578 82.1286 174.353 80.2581C174.11 78.4011 173.721 76.5175 173.251 74.6727C172.276 70.9826 170.866 67.396 169.07 63.9937C165.479 57.1808 160.41 51.1164 154.486 46.0455C148.556 40.9723 141.761 36.8594 134.513 33.9007C127.27 30.962 119.519 29.1694 111.732 28.8207C103.961 28.4738 96.1094 29.5706 89.0534 32.5527C87.2884 33.2893 85.5896 34.164 83.95 35.1295C83.1241 35.6041 82.3375 36.1382 81.5443 36.6622C80.7751 37.2206 79.9956 37.7727 79.2852 38.3601C76.4135 40.7076 73.9496 43.6062 72.5085 46.8049C71.7912 48.4001 71.3462 50.062 71.256 51.7094L71.232 52.0185L71.2411 52.326L71.2534 52.9409C71.266 53.3506 71.3486 53.7525 71.3845 54.1599C71.5302 54.9417 71.7407 55.6988 72.0648 56.417C73.3317 59.3058 76.2479 61.4898 79.5681 62.5353C82.0399 63.3164 84.7418 63.5141 87.2806 63.0714C88.55 62.8521 89.7776 62.4682 90.8996 61.9136C91.4582 61.6336 92.0023 61.3283 92.5025 60.968L92.8796 60.7003C93.0042 60.6096 93.1159 60.5044 93.2354 60.408L93.5899 60.1135L93.9378 59.779C94.8647 58.8865 95.6747 57.8728 96.353 56.7661C97.0266 55.6562 97.5644 54.4533 97.9701 53.1962C98.7796 50.6803 99.0608 47.9494 98.8355 45.2457C98.6153 42.5412 97.9166 39.8584 96.7837 37.391C96.2161 36.1583 95.5442 34.9758 94.7596 33.8821C94.554 33.6141 94.3698 33.3388 94.1489 33.0751L93.4848 32.2837C93.0613 31.7401 92.5584 31.2626 92.0828 30.762C88.1851 26.8181 83.0217 24.1237 77.5488 22.4909C72.0589 20.8555 66.2126 20.2427 60.4321 20.4989C54.6598 20.776 48.9307 21.9804 43.7299 24.2986C41.1324 25.4563 38.674 26.893 36.4379 28.6059C34.2169 30.3054 32.2341 32.3097 30.5533 34.5509C27.2062 39.0289 25.0475 44.4312 24.7384 49.9138C24.5976 52.3584 24.8444 54.7868 25.4641 57.1463C26.1004 59.5149 27.0626 61.7902 28.3709 63.886C29.6764 65.9834 31.2775 67.9203 33.0791 69.6976C34.8844 71.4741 36.8987 73.0808 39.0129 74.5791C43.2525 77.5736 47.9103 80.1028 52.656 82.5462C57.4051 84.9931 62.2677 87.3437 67.0425 90.0152C76.6358 95.4121 85.2383 102.36 92.8565 110.149C94.7598 112.1 96.6028 114.105 98.3966 116.152C100.175 118.213 101.922 120.288 103.598 122.439C105.275 124.59 106.898 126.803 108.399 129.119C109.894 131.438 111.27 133.857 112.448 136.392C113.613 138.932 114.568 141.593 115.23 144.342C115.889 147.115 116.172 149.972 116.103 152.823C116.042 155.675 115.55 158.53 114.649 161.275C113.758 164.022 112.361 166.642 110.497 168.921C110.055 169.509 109.523 170.024 109.019 170.562C108.507 171.096 107.925 171.592 107.341 172.056C106.156 172.975 104.871 173.748 103.525 174.377C100.826 175.614 97.8848 176.284 94.9077 176.3C91.9396 176.318 88.901 175.67 86.2156 174.187C83.5422 172.711 81.2664 170.406 79.994 167.541C79.3546 166.115 78.9679 164.528 78.9741 162.88C78.9837 162.058 79.0995 161.223 79.3191 160.42C79.5404 159.62 79.8656 158.861 80.2563 158.163C81.0412 156.762 82.066 155.614 83.1286 154.612C83.6619 154.111 84.2097 153.645 84.761 153.202C85.3138 152.763 85.8798 152.356 86.4391 151.932C90.9802 148.643 96.1264 146.241 101.497 144.745C112.249 141.755 123.9 142.282 134.317 146.235C136.391 147.028 138.419 147.932 140.349 149.006C142.281 150.071 144.154 151.238 145.895 152.57C147.649 153.892 149.299 155.307 150.834 156.878C152.36 158.456 153.775 160.21 154.824 162.25C155.345 163.268 155.767 164.359 156.031 165.502C156.29 166.644 156.415 167.825 156.279 169.071C156.141 170.288 155.772 171.446 155.227 172.504C154.681 173.562 153.957 174.529 153.054 175.338C152.154 176.144 151.057 176.796 149.821 177.119C148.588 177.446 147.241 177.414 146.044 177.016C144.834 176.625 143.782 175.897 142.972 175.025C142.157 174.151 141.56 173.139 141.146 172.08C140.733 171.02 140.508 169.903 140.468 168.775C140.453 168.214 140.482 167.637 140.561 167.088C140.64 166.547 140.75 166.013 140.899 165.494C141.487 163.41 142.55 161.581 143.727 159.947C144.915 158.306 146.213 156.845 147.526 155.405C148.846 153.968 150.23 152.594 151.708 151.336C153.183 150.078 154.751 148.932 156.422 147.975C158.091 147.02 159.876 146.278 161.713 145.805C165.407 144.837 169.331 145.299 172.554 146.914C174.035 147.661 175.175 148.556 175.962 149.451C176.741 150.353 177.24 151.183 177.493 151.875C177.782 152.552 177.837 153.079 177.848 153.389C177.857 153.7 177.786 153.817 177.645 153.748C177.504 153.681 177.292 153.436 177.029 153.026C176.73 152.631 176.342 152.085 175.761 151.464C175.156 150.863 174.386 150.167 173.309 149.535C172.229 148.919 170.872 148.336 169.233 148.012C168.078 147.765 166.882 147.7 165.708 147.755C165.117 147.771 164.539 147.87 163.961 147.956L163.114 148.153C162.831 148.218 162.537 148.329 162.249 148.413C161.096 148.793 159.973 149.296 158.889 149.902C157.805 150.51 156.768 151.236 155.764 152.028C153.754 153.611 151.917 155.514 150.168 157.548C149.298 158.564 148.427 159.634 147.639 160.679C146.854 161.729 146.146 162.786 145.592 163.855C145.035 164.923 144.641 165.999 144.457 167.058C144.425 167.19 144.42 167.323 144.4 167.455C144.381 167.588 144.363 167.721 144.364 167.833C144.36 167.952 144.348 168.068 144.347 168.188L144.361 168.55C144.402 169.033 144.469 169.528 144.626 170C144.913 170.947 145.435 171.81 146.05 172.374C146.36 172.649 146.68 172.86 147.005 172.999C147.332 173.121 147.674 173.18 148.006 173.19C148.655 173.166 149.364 172.914 150.031 172.316C150.705 171.755 151.252 170.896 151.593 170.008C151.742 169.559 151.876 169.1 151.902 168.655C151.941 168.429 151.919 168.217 151.926 168.002C151.931 167.898 151.903 167.756 151.896 167.634C151.882 167.508 151.879 167.382 151.85 167.255C151.779 166.749 151.634 166.243 151.466 165.735C151.271 165.231 151.066 164.722 150.78 164.222C149.886 162.569 148.529 160.986 146.98 159.506C145.399 158.027 143.697 156.637 141.889 155.395C140.081 154.149 138.151 153.067 136.158 152.108C134.16 151.157 132.092 150.327 129.957 149.683C125.698 148.378 121.235 147.637 116.756 147.55C112.278 147.432 107.791 147.964 103.491 149.09C103.451 149.131 103.413 149.17 103.361 149.216Z" fill="black"/>
</svg>
