<svg width="195" height="194" viewBox="0 0 195 194" fill="none" xmlns="http://www.w3.org/2000/svg">
<path d="M45.8592 170.734L42.9119 170.071C41.9321 169.839 40.9587 169.58 39.9819 169.335L34.1216 167.841C33.1206 167.567 32.014 167.251 30.8513 166.732C30.2712 166.472 29.6773 166.158 29.0968 165.767C28.5164 165.38 27.9484 164.897 27.4676 164.382C26.4888 163.346 25.8134 162.181 25.3201 161.065C24.8219 159.943 24.4955 158.852 24.2179 157.814C22.1437 149.766 21.483 141.614 21.2309 133.591C21.1061 129.575 21.0786 125.593 21.05 121.619C21.0196 117.642 21.011 113.665 21.0123 109.689C21.0172 101.736 21.0789 93.7844 21.1801 85.8332C21.286 77.403 21.4377 68.9558 21.5974 60.5126C21.6777 56.2915 21.7579 52.0709 21.8382 47.8533C21.8768 45.7448 21.9155 43.6373 21.9542 41.5307L22.0093 38.372L22.037 36.7826C22.0488 36.2319 22.0689 35.6542 22.121 35.0491C22.2006 34.1445 22.3421 33.1661 22.7049 32.1356C23.0517 31.1165 23.6821 30.0218 24.5891 29.1816C25.4903 28.3368 26.5421 27.8079 27.4961 27.4752C28.4572 27.1397 29.3622 26.956 30.1884 26.8063L34.9127 26.0089C36.4822 25.745 38.0511 25.4769 39.6244 25.2356L44.3409 24.492L49.0636 23.7884C52.2109 23.3106 55.3668 22.8931 58.5204 22.4587C71.1419 20.7728 83.8098 19.4322 96.5031 18.3995C109.199 17.4025 121.92 16.686 134.654 16.3533L139.429 16.2348L144.205 16.1577L146.593 16.1227L147.816 16.1084C148.263 16.1095 148.775 16.1192 149.36 16.1957C149.94 16.2728 150.612 16.4187 151.315 16.7473C152.015 17.0644 152.719 17.6152 153.19 18.1929C153.675 18.7729 153.982 19.3595 154.209 19.8798C154.436 20.4046 154.585 20.8772 154.712 21.2935C156.566 27.4839 157.98 33.771 158.953 40.1447C159.186 41.6708 158.132 43.0959 156.598 43.3276C156.556 43.334 156.514 43.3394 156.472 43.3438L156.449 43.3462C136.786 45.3503 117.121 47.3547 97.4545 49.3593L68.1577 52.342C68.0116 52.3645 67.9756 52.394 68.0802 52.3471C68.1754 52.3097 68.4332 52.1247 68.5586 51.9224C68.6936 51.7214 68.7094 51.5879 68.7069 51.6113C68.7028 51.6255 68.6906 51.7592 68.6973 51.9607L68.9103 55.537L69.3715 62.8887C69.6934 67.7888 70.0199 72.6888 70.3753 77.587C71.3641 91.3629 72.4907 105.129 73.7553 118.884L74.7296 129.197L75.2361 134.352L75.4946 136.929C75.5822 137.783 75.6636 138.67 75.757 139.448C75.941 141.022 76.242 142.463 76.7451 143.432C76.9927 143.917 77.265 144.271 77.5647 144.531C77.7282 144.65 77.8715 144.771 78.064 144.865C78.2552 144.962 78.4801 145.052 78.7409 145.13C79.7717 145.455 81.4084 145.517 83.1727 145.599C84.8935 145.677 86.6132 145.78 88.3353 145.826C102.106 146.329 115.908 146.011 129.642 144.877C136.509 144.309 143.359 143.538 150.179 142.564C151.886 142.329 153.586 142.05 155.289 141.795C156.991 141.53 158.687 141.231 160.387 140.95C162.08 140.666 163.611 140.369 164.82 139.883C165.421 139.642 165.939 139.369 166.328 139.056C166.722 138.742 167.013 138.421 167.259 138C167.5 137.577 167.7 137.056 167.844 136.441C167.984 135.822 168.071 135.121 168.12 134.368C168.21 132.879 168.179 131.07 168.202 129.361C168.219 125.912 168.228 122.464 168.212 119.015C168.186 112.117 168.094 105.22 167.936 98.3238C167.779 91.4279 167.553 84.5335 167.266 77.6415L167.154 75.0573L167.096 73.8253C167.073 73.4712 167.039 73.1756 166.995 72.9725C166.953 72.7612 166.901 72.6643 166.896 72.6524C166.886 72.6444 166.941 72.703 166.943 72.7036C166.949 72.7087 166.892 72.664 166.722 72.6203C166.555 72.5759 166.303 72.5343 165.997 72.5102C165.688 72.485 165.333 72.4762 164.917 72.4737L163.614 72.4636L161.007 72.4435L155.792 72.4032L114.145 72.0853C113.417 72.09 112.829 72.1736 112.573 72.2731C112.443 72.3201 112.405 72.3516 112.398 72.3549C112.392 72.3624 112.398 72.3509 112.36 72.4168C112.283 72.5321 112.162 73.0353 112.133 73.7111C112.116 74.0501 112.112 74.4432 112.111 74.8824L112.104 76.1632C112.091 79.5789 112.133 82.9955 112.268 86.4088C112.525 93.236 113.061 100.053 113.892 106.835C114.6 112.693 115.512 118.547 116.6 124.368L113.364 121.976C124.067 121.001 134.74 119.773 145.226 118.271C146.188 118.126 147.225 118.003 147.933 117.861C148.295 117.787 148.61 117.704 148.843 117.613C149.077 117.523 149.233 117.434 149.331 117.362C149.425 117.286 149.484 117.229 149.559 117.107C149.632 116.99 149.701 116.794 149.754 116.543C149.862 116.036 149.875 115.331 149.856 114.545C149.781 111.266 149.753 108.307 149.765 105.642C149.79 100.311 149.975 96.1545 150.274 92.9644C150.708 88.3198 151.433 88.2984 152.254 92.2313C152.665 94.1976 153.1 97.1527 153.535 101.013C153.752 102.942 153.969 105.099 154.184 107.47C154.285 108.657 154.392 109.897 154.502 111.189C154.554 111.835 154.606 112.495 154.659 113.167C154.708 113.843 154.772 114.493 154.803 115.321C154.826 116.293 154.816 117.439 154.355 118.754C154.119 119.405 153.741 120.083 153.235 120.658C152.732 121.236 152.127 121.693 151.537 122.016C150.346 122.661 149.242 122.898 148.289 123.085C147.845 123.161 147.4 123.237 146.954 123.314C146.523 123.386 146.091 123.458 145.659 123.531C142.198 124.101 138.685 124.635 135.151 125.131C128.082 126.121 120.926 126.947 113.927 127.604L113.882 127.609C112.503 127.738 111.269 126.783 111.02 125.454C110.87 124.644 110.727 123.866 110.584 123.091C109.066 114.699 107.974 106.237 107.309 97.7468C106.977 93.5017 106.751 89.2494 106.632 84.9953C106.572 82.8681 106.539 80.7405 106.535 78.613C106.524 77.5494 106.541 76.4856 106.547 75.422C106.553 74.8836 106.549 74.3812 106.569 73.7814C106.592 73.1845 106.632 72.5413 106.77 71.8282C106.906 71.1244 107.145 70.3296 107.614 69.5504C108.073 68.767 108.798 68.0589 109.578 67.6009C110.358 67.1413 111.154 66.9018 111.866 66.7672C112.58 66.6349 113.24 66.5906 113.845 66.5771C114.15 66.569 114.437 66.5705 114.719 66.5721L115.514 66.5794L117.102 66.5942L120.276 66.6232L132.973 66.7326C141.436 66.7951 149.897 66.8577 158.357 66.9202L164.702 66.9606C165.219 66.9648 165.822 66.9627 166.469 67.0165C167.116 67.0683 167.835 67.1721 168.613 67.4288C169.006 67.5661 169.408 67.7382 169.808 67.9769C170.206 68.2212 170.597 68.5151 170.935 68.8737C171.626 69.5883 172.053 70.4694 172.272 71.2276C172.502 71.9987 172.577 72.6836 172.626 73.2961C172.671 73.9187 172.685 74.4133 172.712 74.9451L172.854 78.1047L173.113 84.4248C173.433 92.8523 173.668 101.282 173.806 109.714C173.876 113.93 173.923 118.146 173.947 122.362L173.968 128.687L173.964 131.849C173.964 132.897 173.96 134.022 173.872 135.2C173.777 136.381 173.599 137.632 173.175 138.927C172.956 139.573 172.69 140.225 172.325 140.858C171.959 141.486 171.527 142.103 171.012 142.641C169.993 143.729 168.758 144.513 167.56 145.051C166.354 145.6 165.165 145.937 164.03 146.203C162.887 146.469 161.811 146.653 160.773 146.833L157.625 147.383C155.523 147.736 153.418 148.071 151.312 148.395C146.659 149.097 141.944 149.712 137.204 150.248C132.46 150.754 127.693 151.207 122.93 151.516C118.168 151.824 113.416 152.059 108.708 152.141C106.354 152.209 104.011 152.193 101.685 152.21C99.3589 152.176 97.0484 152.176 94.7594 152.09C92.9313 152.038 91.1032 151.983 89.276 151.893L86.5346 151.774L83.7947 151.616L81.0394 151.454C80.0836 151.387 79.033 151.294 77.8999 151.039C76.7746 150.785 75.5303 150.345 74.3947 149.555C73.2713 148.775 72.3752 147.716 71.7561 146.638C71.126 145.554 70.7588 144.461 70.4869 143.417C70.2195 142.37 70.0611 141.362 69.9424 140.392C69.8861 139.912 69.8358 139.43 69.7934 138.975L69.6662 137.624L69.411 134.922C69.0799 131.317 68.7485 127.712 68.4171 124.105C67.1201 109.678 65.9386 95.2271 64.8998 80.7625C64.3804 73.5304 63.8966 66.2949 63.452 59.0574L63.1258 53.629L63.0854 52.9505L63.0463 52.2082C63.035 51.6369 63.017 50.9267 63.2904 50.0006C63.43 49.543 63.6654 49.0287 64.0279 48.5602C64.3861 48.0895 64.8686 47.6968 65.3289 47.4374C66.2674 46.9203 67.0428 46.823 67.6166 46.7408L78.5475 45.6484C93.0313 44.2339 107.508 42.82 121.968 41.4077C133.258 40.3152 144.563 39.2211 155.923 38.1219L153.734 40.9205C153.161 37.0701 152.421 33.2421 151.512 29.4522C151.056 27.5579 150.563 25.6715 150.024 23.7979C149.89 23.3413 149.748 22.8281 149.626 22.4491C149.503 22.0649 149.375 21.7695 149.276 21.6105C149.226 21.5303 149.188 21.4852 149.167 21.4631C149.143 21.4409 149.144 21.4423 149.118 21.4266C149.073 21.3989 148.9 21.3333 148.594 21.3002C148.013 21.2311 146.859 21.2808 145.897 21.2825L142.915 21.316C140.926 21.331 138.938 21.3698 136.949 21.4168C132.971 21.4873 128.995 21.626 125.018 21.7605C117.065 22.0575 109.117 22.5016 101.178 23.0556C97.2077 23.3244 93.2429 23.6568 89.2782 23.9818C85.3167 24.3437 81.3552 24.6976 77.4009 25.1147C67.8347 26.0977 58.2884 27.2717 48.7696 28.6361C46.3881 28.9656 44.0119 29.3294 41.6358 29.695C39.2579 30.0487 36.8851 30.435 34.5131 30.8254L30.9723 31.407C29.8553 31.5971 28.8948 31.8489 28.2658 32.2138C27.9563 32.4009 27.7296 32.5844 27.5438 32.8292C27.3556 33.0724 27.1939 33.3794 27.0644 33.7626C26.8051 34.5346 26.7106 35.5664 26.679 36.6934C26.2744 55.8462 25.8696 75.0532 25.7314 94.2182C25.6603 103.805 25.6581 113.39 25.7574 122.971C25.8592 132.55 25.9637 142.092 27.6726 151.334C27.7771 151.911 27.8844 152.487 28.0106 153.059C28.1332 153.631 28.2448 154.207 28.3872 154.774C28.6568 155.917 28.9221 157.056 29.2734 158.068C29.6214 159.087 30.0559 160.008 30.6171 160.726C30.8979 161.087 31.2047 161.392 31.5517 161.655C31.9057 161.918 32.3069 162.154 32.7629 162.357C33.6691 162.77 34.7478 163.068 35.9105 163.369L39.3958 164.246L42.8813 165.124C43.4609 165.276 44.044 165.412 44.63 165.538L46.3844 165.928L49.8933 166.709L51.6479 167.099C52.2337 167.225 52.8237 167.33 53.4114 167.447C55.7654 167.897 58.1153 168.371 60.473 168.803L67.5681 169.978C69.9375 170.341 72.3167 170.641 74.6907 170.976C76.5831 171.261 78.4822 171.436 80.3686 171.655C81.3124 171.761 82.2544 171.866 83.1945 171.972L84.6033 172.13L86.0125 172.255C87.8903 172.418 89.7605 172.581 91.6228 172.742L93.0181 172.865L94.413 172.951C95.342 173.008 96.269 173.066 97.1939 173.123C98.1189 173.181 99.0419 173.239 99.9627 173.297L101.343 173.385L102.721 173.436C104.557 173.507 106.384 173.577 108.202 173.646L109.565 173.701L110.924 173.722C111.83 173.734 112.733 173.747 113.633 173.759C114.535 173.773 115.433 173.787 116.33 173.801C117.226 173.814 118.12 173.837 119.012 173.818C133.281 173.789 146.942 172.964 159.779 171.602C165.669 170.889 168.492 170.879 168.139 171.368C167.962 171.612 166.99 171.982 165.208 172.451C164.317 172.685 163.224 172.945 161.928 173.226C161.279 173.364 160.581 173.518 159.829 173.658C159.075 173.783 158.27 173.917 157.415 174.059C138.05 177.318 117.35 178.531 96.8399 177.59C92.6202 177.45 88.3868 177.067 84.1319 176.741C79.8887 176.289 75.6218 175.877 71.374 175.249L68.1826 174.814C67.1176 174.675 66.0613 174.475 64.9999 174.308C62.8807 173.953 60.756 173.625 58.6413 173.245C56.5314 172.839 54.4222 172.432 52.315 172.026L50.7358 171.718L49.1653 171.372C48.1185 171.142 47.0723 170.911 46.027 170.681C45.974 170.7 45.9241 170.717 45.8592 170.734Z" fill="black"/>
</svg>
