<svg width="195" height="195" viewBox="0 0 195 195" fill="none" xmlns="http://www.w3.org/2000/svg">
<path d="M52.927 37.4284C54.0385 37.639 55.111 38.0134 56.1211 38.497C57.1312 38.9845 58.0906 39.5812 58.9408 40.3222C59.8417 41.0944 60.6607 42.0187 61.3588 42.9898C62.3026 44.2807 63.028 45.7938 63.2776 47.5528C63.4024 48.4264 63.3946 49.3585 63.2152 50.2867C63.0358 51.2149 62.6809 52.1274 62.209 52.9035C61.2613 54.4713 59.9821 55.5868 58.6717 56.437C57.3535 57.2911 55.8988 57.9112 54.3856 58.2817C52.5214 58.7419 50.5675 58.8433 48.6409 58.5508C47.6893 58.4065 46.7026 58.1569 45.751 57.7825C44.8033 57.4042 43.8829 56.9049 43.0171 56.2497C42.1552 55.5828 41.3401 54.76 40.7044 53.7304C40.3885 53.2156 40.1194 52.6618 39.9205 52.0729C39.7333 51.4879 39.5851 50.899 39.5227 50.2945C39.3862 49.0855 39.5266 47.8881 39.823 46.839C40.1194 45.786 40.5523 44.8462 41.0359 44.0155C41.6248 43.0015 42.4672 42.2371 43.3018 41.5936C44.1052 40.9774 45.0724 41.0475 46.0084 41.4609C47.3773 42.0771 48.0325 43.5085 47.5684 44.5576C47.2681 45.2284 46.8196 45.7978 46.3828 46.3009C45.8797 46.8781 45.4741 47.4943 45.2401 48.0871C45.0061 48.6838 44.9359 49.2414 45.0217 49.7328C45.0295 49.8576 45.0802 49.9786 45.1153 50.0995C45.1426 50.2243 45.2089 50.3257 45.2557 50.4349C45.3688 50.6494 45.5326 50.8444 45.7159 51.0316C46.0981 51.4021 46.6246 51.7101 47.233 51.9051C47.5684 52.0104 47.9311 52.0807 48.2821 52.1509C48.637 52.225 48.9685 52.2951 49.3195 52.4668C50.4271 52.9972 51.7492 53.0361 52.9699 52.7709C54.2023 52.5096 55.3528 51.9597 56.398 51.3552C57.1702 50.9106 57.7435 50.3062 58.0321 49.7173C58.3207 49.144 58.3909 48.481 58.2856 47.6971C58.1998 47.0068 57.9112 46.2619 57.4978 45.5871C57.2872 45.2517 57.0532 44.9203 56.7841 44.6317C56.6515 44.4835 56.4916 44.3431 56.3473 44.1948C56.1991 44.0505 56.0275 43.9296 55.8676 43.7892C54.5377 42.7557 52.7827 42.1357 50.9926 42.0694C50.2789 42.0499 49.5769 41.9913 48.8437 41.9211C48.1105 41.8393 47.3305 41.7028 46.4374 41.5351C45.6145 41.3713 44.893 40.2948 45.5989 39.5811C46.5856 38.6061 47.9155 37.9042 49.3195 37.5532C50.4817 37.2607 51.7141 37.3621 52.888 37.5103C52.8958 37.483 52.9036 37.4557 52.9114 37.4245L52.927 37.4284Z" fill="black"/>
<path d="M41.1761 87.0519C42.0419 87.4887 42.9155 88.0308 43.7267 88.7523C44.5379 89.4699 45.2711 90.4254 45.7352 91.4862L45.9185 91.9074C45.9692 92.0517 46.0082 92.196 46.055 92.3403C46.1369 92.6328 46.2305 92.9136 46.2773 93.2256L46.3553 93.6819L46.3982 94.1421C46.4333 94.4502 46.4255 94.7505 46.4333 95.0508C46.4255 95.8542 46.2929 96.6342 46.0706 97.3635C45.8405 98.0889 45.5246 98.7597 45.1502 99.3837C44.3936 100.624 43.4069 101.677 42.2018 102.508C39.8228 104.138 36.9602 104.742 34.1951 104.434C32.4947 104.231 30.8099 103.689 29.2967 102.761C28.9106 102.543 28.5557 102.266 28.193 102.004C27.8342 101.72 27.4871 101.416 27.1634 101.084C26.516 100.421 25.931 99.6645 25.4669 98.7636C25.0028 97.8744 24.6596 96.8175 24.5855 95.6709C24.5114 94.5126 24.7298 93.3777 25.1705 92.3364C25.6151 91.299 26.2703 90.4332 26.9567 89.7585C27.647 89.0877 28.3685 88.5729 29.0822 88.14C29.948 87.6174 30.9074 87.4068 31.8005 87.2781C32.6624 87.1533 33.3995 87.6837 34.004 88.491C34.8776 89.6766 34.901 91.2366 34.1522 91.8996C33.6764 92.3247 33.1148 92.5743 32.5844 92.7615C31.9721 92.976 31.4261 93.2568 31.0166 93.5727C30.6032 93.8925 30.3458 94.2357 30.2366 94.5555C30.1937 94.6335 30.2054 94.7193 30.1781 94.7973C30.1625 94.8792 30.1781 94.9689 30.1625 95.0469C30.1664 95.2029 30.2054 95.3511 30.2717 95.511C30.3965 95.8269 30.6695 96.1701 31.04 96.4665C31.2428 96.6303 31.4885 96.7668 31.7186 96.9111C31.8356 96.9852 31.9409 97.0593 32.0462 97.1451C32.1593 97.227 32.2568 97.3284 32.3387 97.4493C32.6273 97.8159 33.0095 98.1201 33.4385 98.3463C33.8753 98.5608 34.355 98.7012 34.8464 98.7831C35.3417 98.8494 35.8409 98.8689 36.3401 98.8455C36.8354 98.8104 37.3268 98.7519 37.8143 98.6778C38.5397 98.5647 39.2378 98.2527 39.7799 97.8627C40.3454 97.4532 40.829 96.915 41.1956 96.3612C41.5193 95.8659 41.7338 95.3433 41.7845 94.8597C41.8274 94.614 41.8001 94.38 41.7728 94.1382C41.7338 94.0173 41.7104 93.8847 41.6792 93.7599C41.6246 93.6468 41.5856 93.522 41.531 93.4011C41.3009 92.9331 40.8953 92.4807 40.3298 92.0868C39.7682 91.689 39.0662 91.3575 38.3096 91.0962C37.0967 90.6828 35.9111 90.0705 34.7996 88.8186C34.2887 88.2375 34.394 86.9505 35.1116 86.7204C36.1217 86.3967 37.2176 86.268 38.3369 86.3382C39.2612 86.4006 40.1777 86.7438 41.1254 87.1299C41.141 87.1026 41.1527 87.0792 41.1644 87.0519H41.1761Z" fill="black"/>
<path d="M92.3754 71.6157C92.9214 71.916 93.4713 72.2748 94.0134 72.7428C94.5555 73.2264 95.0859 73.8387 95.4759 74.5914C95.5734 74.7981 95.6631 75.0048 95.745 75.2115C95.8152 75.426 95.8737 75.6444 95.9322 75.8589C95.9946 76.0773 96.0102 76.2879 96.0453 76.5024L96.0921 76.8222L96.1116 77.1537C96.1623 77.7465 96.0726 78.3588 95.9127 78.9282C95.7411 79.4898 95.4876 80.0085 95.1912 80.4492C94.5945 81.3462 93.8613 81.9702 93.093 82.4733C92.3169 82.9725 91.4862 83.3235 90.5658 83.5341C89.6649 83.7369 88.7952 83.7876 87.906 83.7096C86.8179 83.5965 85.722 83.3235 84.6495 82.7307C84.1152 82.4499 83.5965 82.0638 83.1129 81.6153C82.6332 81.159 82.2042 80.6052 81.8649 79.9929C81.783 79.8408 81.7089 79.6809 81.6348 79.521L81.5295 79.2792C81.4944 79.1895 81.4593 79.0803 81.4281 78.9828C81.3657 78.78 81.3072 78.5772 81.2565 78.3705C81.2214 78.1677 81.1941 77.9649 81.1707 77.7621C81.1434 77.5554 81.1395 77.3604 81.1434 77.1654C81.1473 76.9704 81.1512 76.7715 81.1707 76.5843C81.2214 76.2177 81.2799 75.8394 81.3891 75.504C81.7986 74.1273 82.5708 72.9963 83.7681 72.0837C84.5052 71.5416 85.605 71.3037 86.6502 71.4636C87.1494 71.5221 87.5355 71.8419 87.75 72.2046C87.9606 72.5907 87.9996 73.0704 87.9333 73.5501C87.8319 74.256 87.4497 74.8839 87.1962 75.4299C87.1299 75.5664 87.0714 75.6951 87.0246 75.816C87.0051 75.8706 86.9817 75.9291 86.9622 75.9915L86.9388 76.0656V76.0461L86.9505 76.0032C86.9505 76.0032 86.9505 76.0032 86.9505 75.9993C86.9388 76.0383 86.97 76.3152 87.1377 76.6116L87.1728 76.6818L87.1494 76.6545C87.1299 76.635 87.1065 76.6467 87.0792 76.6428C87.048 76.635 87.0246 76.6545 86.9934 76.6623C86.9622 76.6701 86.931 76.6857 86.9076 76.7091C86.7945 76.7871 86.7048 76.9314 86.7009 77.0445C86.6853 77.0757 86.7009 77.0952 86.7009 77.1186C86.7009 77.142 86.7048 77.1615 86.7243 77.1732C86.7399 77.181 86.7321 77.2044 86.7594 77.2005H86.7828L86.7048 77.2161C86.6853 77.2161 86.658 77.2239 86.6229 77.2395H86.6151V77.2434C86.3967 77.3292 86.9115 77.1264 86.8608 77.1459L86.8725 77.1537L86.8998 77.1654L86.9466 77.1849C86.97 77.2005 87.0168 77.2044 87.0519 77.2122C87.0831 77.22 87.1221 77.2239 87.165 77.22C87.3444 77.2239 87.5511 77.1069 87.5862 77.3604C87.6174 77.5671 87.7578 77.7231 87.9255 77.8401C88.101 77.9493 88.3116 78.0195 88.5339 78.0507C88.9707 78.1131 89.4621 78.0585 89.8326 78.0741C90.1485 78.0897 90.48 77.9766 90.7296 77.8284C90.9831 77.6802 91.1625 77.5086 91.2756 77.4228C91.3731 77.3409 91.4199 77.3331 91.4745 77.2707C91.5135 77.1771 91.5564 77.0913 91.5252 76.9626C91.494 76.8261 91.3458 76.6155 91.0923 76.4127C90.8427 76.206 90.4878 76.0188 90.1017 75.8589C89.4855 75.5976 88.9083 75.0672 88.3233 73.8582C88.0542 73.2966 88.1283 72.0096 88.5768 71.7561C89.2047 71.3973 89.8911 71.2218 90.597 71.2062C91.182 71.1945 91.7475 71.4636 92.3403 71.6898C92.352 71.6625 92.3637 71.6391 92.3754 71.6118V71.6157Z" fill="black"/>
<path d="M118.966 22.8813C120.144 23.0958 121.415 23.4936 122.577 24.1917L122.807 24.3282L123.057 24.4959C123.225 24.609 123.392 24.7221 123.54 24.8508C123.852 25.0926 124.129 25.3461 124.418 25.5957C125.167 26.2665 125.775 27.066 126.22 28.0215C126.657 28.9692 126.914 30.1392 126.727 31.4379C126.547 32.7366 125.76 34.047 124.785 34.8309C123.802 35.6421 122.745 36.036 121.797 36.2544C120.608 36.5118 119.562 36.5391 118.447 36.4377C117.339 36.3168 116.197 36.036 115.081 35.4705C114.528 35.1858 113.982 34.8348 113.478 34.4058C113.225 34.1913 112.991 33.9612 112.757 33.7116C112.511 33.4347 112.289 33.15 112.094 32.8497C111.326 31.6524 110.912 30.3225 110.904 28.8912C110.897 28.0254 111.279 27.1284 111.837 26.403C112.11 26.0559 112.492 25.8648 112.917 25.8414C113.33 25.8102 113.79 25.9467 114.219 26.1768C114.851 26.5161 115.331 27.066 115.737 27.5106C115.935 27.7329 116.119 27.9318 116.263 28.08C116.419 28.2399 116.536 28.3413 116.602 28.4037C116.774 28.5597 116.762 28.5909 116.661 28.7001C116.427 28.9536 116.47 29.5269 116.727 29.8155C116.758 29.8545 116.786 29.8896 116.825 29.913L116.875 29.9559L116.949 30.0066C117.043 30.0768 117.152 30.1275 117.269 30.1704C117.503 30.2562 117.776 30.2913 118.069 30.2718C118.396 30.2523 118.743 30.1002 119.028 30.3381C119.492 30.7164 120.171 30.7671 120.643 30.6852C120.877 30.6423 121.08 30.576 121.208 30.5175C121.345 30.4629 121.403 30.4317 121.481 30.4473C121.571 30.4473 121.633 30.4863 121.653 30.3498C121.676 30.2211 121.653 29.9754 121.571 29.6829C121.497 29.4216 121.36 29.1447 121.189 28.9068C121.142 28.8522 121.099 28.7976 121.052 28.7352C121.002 28.6884 120.955 28.6377 120.908 28.5831C120.857 28.5441 120.81 28.4973 120.756 28.4505L120.526 28.3023C119.894 27.9201 119.028 27.6939 118.041 27.6159C117.261 27.5457 116.427 27.1947 115.545 26.1339C115.14 25.6425 115.003 24.3594 115.374 24.0201C115.9 23.5443 116.513 23.2089 117.183 23.0061C117.737 22.8384 118.353 22.932 118.977 22.9632C118.977 22.932 118.985 22.9047 118.989 22.8774L118.966 22.8813Z" fill="black"/>
<path d="M158.66 76.7014C159.576 77.6569 160.317 78.8113 160.816 80.0515C161.308 81.2917 161.557 82.5865 161.569 83.854C161.585 85.1995 161.359 86.5099 161.011 87.7813C160.781 88.6315 160.438 89.4622 159.997 90.25C159.783 90.6478 159.518 91.0222 159.253 91.3966C158.964 91.7593 158.671 92.1142 158.348 92.4301C157.072 93.7288 155.489 94.6375 153.871 95.2147C153.059 95.4955 152.233 95.7022 151.406 95.8387C150.579 95.9674 149.748 96.0337 148.921 96.0415C148.095 96.0415 147.272 95.983 146.457 95.866C145.649 95.749 144.838 95.5735 144.027 95.3239C143.029 95.0158 142.022 94.5946 141.059 94.0135C140.096 93.4285 139.171 92.6914 138.388 91.7593C136.804 89.8951 136.009 87.5707 135.884 85.3126C135.755 83.0467 136.262 80.7496 137.436 78.7294C138.586 76.756 140.263 75.1999 142.132 74.1274C143.266 73.4761 144.577 73.1875 145.825 73.09C147.038 73.0042 147.892 73.6672 148.368 74.5915C148.719 75.2662 148.723 75.9916 148.559 76.6039C148.387 77.2123 148.056 77.7037 147.576 77.9845C146.968 78.3394 146.308 78.5539 145.657 78.7684C144.156 79.2442 142.857 80.2972 142.163 81.5998C141.496 82.8595 141.406 84.5131 141.94 85.7923C142.073 86.1511 142.284 86.467 142.463 86.7673C142.65 87.0637 142.818 87.3328 142.927 87.6448C143.095 88.1284 143.45 88.5964 143.929 88.9708C144.401 89.353 145.002 89.6494 145.653 89.8717C146.305 90.094 147.018 90.2539 147.736 90.3553C148.45 90.4606 149.167 90.5152 149.881 90.5386C150.411 90.562 150.942 90.5269 151.453 90.4372C151.967 90.3553 152.459 90.2149 152.919 90.0355C153.387 89.8639 153.812 89.6338 154.206 89.3764C154.604 89.1268 154.963 88.8187 155.282 88.5028C155.852 87.9451 156.292 87.2041 156.593 86.3929C156.874 85.5739 157.014 84.6808 156.944 83.7994C156.913 83.3626 156.842 82.9258 156.71 82.5124C156.593 82.0912 156.413 81.7012 156.195 81.319C155.984 80.9329 155.692 80.5858 155.392 80.2465C155.076 79.9189 154.721 79.6147 154.339 79.3495C153.726 78.9244 153.098 78.5383 152.447 78.1093C151.792 77.6881 151.102 77.2279 150.279 76.717C149.526 76.2646 149.23 74.9932 150.302 74.5876C151.043 74.338 151.846 74.2093 152.669 74.1976C153.484 74.2054 154.315 74.3224 155.111 74.5564C156.429 74.9464 157.583 75.8083 158.605 76.7521C158.629 76.7326 158.648 76.717 158.675 76.6975L158.66 76.7014Z" fill="black"/>
<path d="M126.399 121.617C126.968 122.288 127.413 123.041 127.717 123.872C128.021 124.695 128.165 125.623 128.087 126.555C128.076 126.812 128.037 127.027 127.994 127.245C127.955 127.464 127.904 127.678 127.842 127.885C127.729 128.306 127.577 128.708 127.428 129.106C127.023 130.159 126.395 131.075 125.654 131.824C124.909 132.569 124.047 133.169 123.095 133.618C122.14 134.066 121.11 134.355 119.897 134.398C118.739 134.429 117.635 134.211 116.621 133.809C115.377 133.302 114.223 132.534 113.26 131.391C113.014 131.122 112.803 130.771 112.593 130.455C112.491 130.287 112.402 130.096 112.312 129.913C112.226 129.726 112.133 129.55 112.066 129.343C111.93 128.938 111.797 128.532 111.746 128.084C111.719 127.861 111.68 127.643 111.676 127.421C111.676 127.194 111.676 126.972 111.692 126.746C111.692 126.52 111.731 126.301 111.778 126.087C111.821 125.868 111.867 125.654 111.918 125.44C112.051 125.038 112.183 124.64 112.386 124.27C112.573 123.887 112.807 123.548 113.053 123.213C113.306 122.904 113.576 122.592 113.856 122.347C114.137 122.078 114.426 121.871 114.718 121.656C115.003 121.473 115.299 121.278 115.584 121.134C116.161 120.818 116.719 120.596 117.265 120.405C117.928 120.171 118.622 120.214 119.266 120.295C119.886 120.373 120.373 121.033 120.752 121.941C121.298 123.267 121.235 124.796 120.689 125.268C120.342 125.576 119.936 125.67 119.554 125.701C118.677 125.759 117.901 126.06 117.593 126.426C117.288 126.758 117.347 127.195 117.639 127.218C117.791 127.269 117.994 127.214 117.944 127.475C117.881 127.916 118.314 128.341 118.786 128.556C119.273 128.786 119.784 128.817 120.198 128.903C120.557 128.965 121.009 128.868 121.399 128.692C121.797 128.517 122.152 128.271 122.475 128.017C122.76 127.791 122.998 127.53 123.166 127.261C123.212 127.194 123.236 127.124 123.283 127.054C123.318 126.984 123.337 126.914 123.376 126.84C123.4 126.766 123.415 126.691 123.443 126.617C123.454 126.555 123.462 126.504 123.482 126.446C123.521 126.208 123.474 125.888 123.326 125.568C123.181 125.248 122.943 124.94 122.666 124.71C122.444 124.523 122.269 124.328 122.042 124.02C121.812 123.716 121.508 123.322 120.927 122.908C120.666 122.717 120.358 122.347 120.194 121.953C120.03 121.563 120.038 121.126 120.373 120.857C120.603 120.662 120.876 120.533 121.161 120.397C121.446 120.272 121.75 120.198 122.066 120.128C122.37 120.085 122.694 120.057 123.006 120.065C123.306 120.089 123.634 120.112 123.918 120.186C124.905 120.409 125.673 121.044 126.325 121.68C126.348 121.66 126.368 121.641 126.391 121.621L126.399 121.617Z" fill="black"/>
<path d="M81.8491 142.97C82.7695 143.933 83.4988 145.053 83.9902 146.312C84.4738 147.572 84.6922 148.995 84.5089 150.407C84.3178 151.897 83.6977 153.196 83.0308 154.307C82.1338 155.809 80.956 156.979 79.669 157.95C78.3703 158.921 76.9234 159.67 75.3985 160.188C72.3526 161.222 68.9635 161.319 65.785 160.29C63.8506 159.654 61.9357 158.66 60.325 156.866C59.5372 155.965 58.843 154.83 58.4959 153.535C58.1332 152.248 58.1098 150.895 58.3555 149.686C58.5934 148.469 59.0575 147.373 59.6464 146.398C60.2392 145.423 60.9607 144.565 61.7953 143.816C62.0098 143.633 62.2243 143.454 62.4466 143.278C62.6728 143.114 62.9107 142.935 63.133 142.795C63.5776 142.506 64.0339 142.241 64.498 142.011C65.4223 141.546 66.3583 141.196 67.2787 140.915C68.3902 140.579 69.529 140.56 70.5859 140.595C71.5999 140.63 72.3175 141.27 72.8323 142.159C73.5928 143.461 73.2496 145.021 72.0523 145.579C71.2957 145.934 70.4806 146.094 69.724 146.199C68.8465 146.32 68.0314 146.527 67.2904 146.823C66.9277 146.979 66.5689 147.147 66.2491 147.354C66.0736 147.451 65.9527 147.556 65.8084 147.654C65.6758 147.771 65.5354 147.872 65.4145 148.001C64.9075 148.492 64.5019 149.101 64.2835 149.721C64.0456 150.337 64.0339 150.949 64.1587 151.402C64.3303 151.917 64.6462 152.135 64.8139 152.685C64.9582 153.126 65.3209 153.578 65.8006 153.956C66.2764 154.339 66.8809 154.631 67.5049 154.861C68.125 155.103 68.7919 155.224 69.4588 155.337C70.1296 155.434 70.8121 155.466 71.5063 155.501C72.5359 155.528 73.5772 155.337 74.5561 154.994C75.535 154.651 76.4476 154.159 77.2783 153.574C78.0349 153.063 78.6745 152.435 79.1542 151.772C79.6261 151.105 79.8991 150.419 79.942 149.74C79.9849 149.054 79.786 148.27 79.3687 147.549C79.162 147.186 78.9046 146.843 78.6082 146.531C78.3157 146.219 77.9764 145.946 77.5942 145.692C76.3813 144.893 75.067 144.12 73.6669 142.826C73.0234 142.241 73.0858 140.942 74.0374 140.735C75.3712 140.454 76.8688 140.486 78.3664 140.919C78.9787 141.094 79.5832 141.383 80.1526 141.745C80.4373 141.925 80.7142 142.124 80.9872 142.334C81.268 142.553 81.5332 142.783 81.7906 143.017C81.814 142.997 81.8335 142.982 81.8608 142.962L81.8491 142.97Z" fill="black"/>
<path d="M178.932 164.709C179.669 165.426 180.309 166.382 180.656 167.439C181.026 168.519 181.061 169.63 180.897 170.617C180.718 171.67 180.324 172.591 179.88 173.456C179.583 174.037 179.22 174.583 178.78 175.087L178.437 175.453L178.089 175.781C177.852 175.991 177.61 176.19 177.356 176.374C176.346 177.107 175.246 177.598 174.162 177.934C173.62 178.101 173.078 178.23 172.54 178.327C172.271 178.374 172.005 178.417 171.736 178.452C171.456 178.483 171.147 178.507 170.855 178.53C169.677 178.581 168.515 178.464 167.357 178.16C166.647 177.98 165.933 177.703 165.227 177.356C164.521 176.974 163.819 176.541 163.164 175.902C162.525 175.266 161.904 174.498 161.522 173.542C161.136 172.598 160.945 171.6 160.992 170.586C161.046 169.58 161.312 168.62 161.713 167.809C162.111 166.99 162.618 166.284 163.191 165.684C163.761 165.083 164.408 164.56 165.095 164.143C165.754 163.738 166.425 163.422 167.076 163.172C167.868 162.864 168.694 162.856 169.439 162.891C170.161 162.93 170.722 163.562 171.179 164.44C171.853 165.727 171.795 167.271 171.066 167.805C170.609 168.148 170.098 168.285 169.626 168.355C169.08 168.433 168.593 168.57 168.172 168.765C167.957 168.87 167.786 168.964 167.618 169.088C167.454 169.213 167.306 169.354 167.177 169.502C166.924 169.806 166.768 170.149 166.744 170.43C166.721 170.722 166.807 170.902 166.967 171.046C167.146 171.206 167.357 171.132 167.361 171.436C167.388 171.678 167.54 171.951 167.825 172.158C168.098 172.368 168.445 172.54 168.831 172.653C169.603 172.899 170.461 172.938 171.272 173.004C172.692 173.074 173.971 172.626 174.856 172.064C174.962 172.002 175.055 171.931 175.153 171.865C175.231 171.799 175.317 171.74 175.395 171.662C175.551 171.514 175.707 171.35 175.831 171.163C176.093 170.797 176.264 170.371 176.323 169.985C176.358 169.79 176.354 169.607 176.334 169.432C176.331 169.342 176.303 169.26 176.284 169.174C176.241 169.088 176.225 168.987 176.171 168.905C176.007 168.546 175.671 168.191 175.196 167.864C174.439 167.349 173.565 166.635 172.848 165.266C172.52 164.635 172.828 163.383 173.46 163.234C174.357 163.036 175.328 163.028 176.362 163.285C177.208 163.492 178.043 164.053 178.862 164.752C178.885 164.732 178.905 164.713 178.924 164.693L178.932 164.709Z" fill="black"/>
<path d="M179.072 128.014C179.431 128.287 179.794 128.61 180.129 128.989C180.301 129.184 180.445 129.367 180.613 129.601C180.792 129.85 180.937 130.104 181.061 130.357C181.319 130.9 181.455 131.442 181.615 131.992C181.826 132.721 181.908 133.583 181.619 134.554C181.475 135.034 181.213 135.529 180.866 135.954C180.508 136.387 180.082 136.718 179.681 136.952C178.866 137.416 178.206 137.549 177.762 137.67C177.309 137.783 176.822 137.869 176.296 137.908C175.648 137.955 174.931 137.947 174.139 137.783C173.355 137.627 172.466 137.288 171.682 136.707L171.393 136.48C171.303 136.41 171.171 136.278 171.066 136.176C170.836 135.954 170.66 135.72 170.485 135.478C170.161 134.998 169.919 134.491 169.775 133.988C169.474 132.978 169.439 131.937 169.775 130.79C169.989 130.092 170.621 129.421 171.382 129.039C171.736 128.848 172.162 128.883 172.505 129.063C172.856 129.254 173.152 129.605 173.382 130.026C173.722 130.646 173.85 131.368 174.041 131.933L174.076 132.038V132.027C174.076 132.027 174.065 132.003 174.057 131.992L174.045 131.968C174.045 131.968 174.045 131.968 174.045 131.964C174.053 131.984 174.162 132.097 174.357 132.187C174.58 132.3 174.86 132.346 175.008 132.346H175.059C175.055 132.346 175.079 132.346 175.059 132.346L175.044 132.354C175.044 132.354 175.044 132.366 175.051 132.362C174.97 132.382 174.755 132.495 174.63 132.604C174.595 132.639 174.576 132.651 174.544 132.682L174.525 132.705L174.513 132.717L175.075 132.062L175.102 132.034C175.137 132.003 175.176 131.956 175.211 131.91C175.301 131.8 175.379 131.594 175.402 131.8C175.461 132.132 175.75 132.226 176.065 132.222C176.225 132.222 176.401 132.202 176.584 132.19C176.756 132.179 176.99 132.167 177.138 132.202C177.247 132.229 177.317 132.241 177.333 132.257C177.337 132.265 177.333 132.249 177.341 132.272L177.407 132.436C177.438 132.526 177.489 132.627 177.52 132.694C177.594 132.85 177.653 132.947 177.703 133.017C177.731 133.052 177.746 133.08 177.766 133.099L177.824 133.165C177.848 133.189 177.82 133.162 177.82 133.165C177.77 133.13 177.688 133.091 177.547 133.056C177.426 133.025 177.286 133.013 177.161 133.017C177.13 133.017 177.099 133.017 177.068 133.021H177.033H177.04C177.056 133.021 177.064 133.009 177.076 133.002C177.122 132.959 177.142 132.881 177.165 132.818C177.22 132.787 177.146 132.627 177.048 132.502C176.947 132.37 176.795 132.226 176.592 132.093C176.28 131.875 175.984 131.336 175.855 130.104C175.8 129.535 176.132 128.287 176.44 128.068C176.881 127.76 177.345 127.612 177.832 127.608C178.238 127.608 178.604 127.865 179.018 128.076C179.033 128.049 179.045 128.025 179.061 128.002L179.072 128.014Z" fill="black"/>
<path d="M115.416 173.187C116.122 174.256 116.473 175.461 116.43 176.748C116.423 177.083 116.364 177.43 116.302 177.766C116.228 178.07 116.157 178.37 116.079 178.667C115.881 179.462 115.522 180.192 115.069 180.808C114.613 181.428 114.067 181.954 113.459 182.383C112.846 182.812 112.164 183.144 111.415 183.358C111.228 183.409 111.033 183.452 110.842 183.495C110.643 183.526 110.44 183.557 110.241 183.577C109.843 183.608 109.446 183.612 109.052 183.573C108.084 183.483 107.137 183.195 106.236 182.668C105.343 182.134 104.465 181.315 103.919 180.192C103.775 179.919 103.677 179.622 103.576 179.33C103.486 178.975 103.397 178.604 103.385 178.257C103.326 177.54 103.436 176.877 103.619 176.276C104.009 175.083 104.695 174.112 105.744 173.347C106.384 172.887 107.332 172.719 108.217 172.863C108.642 172.918 108.981 173.203 109.169 173.558C109.356 173.92 109.395 174.388 109.336 174.868C109.247 175.574 108.915 176.225 108.716 176.791C108.693 176.857 108.669 176.927 108.646 176.998L108.615 177.095C108.607 177.115 108.615 177.095 108.615 177.099L108.623 177.064V177.044V177.052C108.623 177.056 108.623 177.06 108.623 177.06C108.615 177.115 108.65 177.321 108.763 177.524C108.825 177.653 108.9 177.75 108.974 177.836C108.993 177.855 109.009 177.875 109.024 177.891L109.009 177.879C109.009 177.879 108.985 177.867 108.974 177.867C108.927 177.863 108.888 177.902 108.903 177.91C108.915 177.914 108.888 177.902 108.864 177.898C108.841 177.891 108.814 177.887 108.786 177.883C108.728 177.879 108.693 177.863 108.638 177.863H108.506C108.463 177.863 108.416 177.875 108.404 177.875C108.393 177.875 108.381 177.879 108.369 177.883L108.35 177.891L109.013 177.688C109.013 177.688 109.013 177.688 109.017 177.688C109.036 177.68 109.056 177.668 109.067 177.661C109.095 177.645 109.13 177.625 109.153 177.606C109.227 177.555 109.309 177.481 109.399 177.388C109.446 177.337 109.438 177.341 109.41 177.434C109.305 177.738 109.531 177.906 109.734 177.93C109.96 177.969 110.097 177.918 110.358 177.969C110.553 178.008 110.752 177.941 110.92 177.852C111.087 177.758 111.224 177.641 111.357 177.547C111.598 177.391 111.762 177.173 111.844 177.037C111.942 176.826 111.852 176.409 111.665 176.147C111.591 176.046 111.579 175.87 111.54 175.586C111.497 175.297 111.419 174.856 111.123 174.303C110.861 173.788 110.518 172.516 111.091 172.181C111.864 171.729 112.893 171.693 113.732 171.974C114.434 172.204 114.925 172.75 115.362 173.25C115.385 173.23 115.409 173.215 115.432 173.195L115.416 173.187Z" fill="black"/>
<path d="M30.541 133.715C30.8179 133.844 31.0987 134 31.3717 134.164C31.5082 134.246 31.6447 134.336 31.7812 134.429C31.9255 134.531 32.0698 134.628 32.2063 134.741C32.7484 135.17 33.2203 135.662 33.622 136.219C34.0471 136.816 34.3864 137.479 34.6906 138.22C35.1196 139.187 35.2288 140.482 34.9246 141.582C34.6321 142.693 34.0471 143.579 33.4231 144.269C32.1712 145.634 30.5488 146.484 28.7938 146.804C27.7096 146.999 26.5552 146.999 25.3618 146.687C24.1801 146.398 22.9555 145.72 22.0312 144.725C21.7933 144.46 21.5242 144.125 21.3292 143.801C21.1381 143.469 20.9548 143.13 20.8378 142.787C20.5648 142.097 20.4634 141.41 20.4283 140.735C20.4166 140.065 20.4712 139.406 20.6506 138.762C20.7208 138.442 20.8573 138.119 20.9743 137.807C21.1303 137.491 21.2629 137.179 21.4774 136.874C21.6022 136.691 21.727 136.516 21.8986 136.352C22.0663 136.188 22.2496 136.04 22.4368 135.907C22.8502 135.642 23.2831 135.435 23.7628 135.314C23.9812 135.248 24.2074 135.244 24.418 135.291C24.6286 135.334 24.8197 135.42 24.9874 135.541C25.3306 135.802 25.5763 136.2 25.7362 136.66C25.9702 137.335 25.9429 138.064 25.9663 138.665C25.9741 138.965 25.9936 139.234 26.0287 139.437C26.0365 139.476 26.0443 139.515 26.0521 139.554C26.0521 139.562 26.056 139.565 26.056 139.565C26.056 139.565 26.056 139.558 26.056 139.569C26.0638 139.589 26.0716 139.608 26.0833 139.624C26.095 139.64 26.1028 139.655 26.1106 139.667C26.1184 139.675 26.1301 139.686 26.1496 139.722C26.1847 139.776 26.2237 139.819 26.2666 139.858C26.2861 139.874 26.3173 139.916 26.3407 139.936C26.3602 139.955 26.3563 139.952 26.3524 139.948L26.3407 139.94C26.2588 139.889 26.1223 139.956 26.0443 140.088C25.9663 140.221 25.9351 140.392 25.9546 140.54C25.978 140.689 26.0677 140.79 26.1496 140.806C26.173 140.806 26.1925 140.806 26.2081 140.806L26.2432 140.786L26.2549 140.778L26.2354 140.794C26.3524 140.716 26.3914 140.786 26.485 140.743C26.6683 140.708 26.8282 140.541 26.8984 140.771C27.0505 141.133 27.4873 141.25 27.9007 141.188C28.3258 141.141 28.7275 140.962 29.1409 140.864C29.4646 140.79 29.7454 140.599 29.9209 140.423C30.1003 140.244 30.1588 140.112 30.2212 140.061C30.2758 140.014 30.3343 139.967 30.3343 139.803C30.3343 139.647 30.2563 139.421 30.1081 139.195C29.956 138.969 29.7688 138.758 29.5114 138.579C29.2345 138.388 28.8991 138.22 28.5091 138.083C27.9007 137.861 27.2416 137.358 26.6527 136.149C26.3875 135.591 26.5045 134.304 26.8984 134.043C27.4561 133.677 28.0801 133.466 28.7665 133.411C29.332 133.368 29.9092 133.595 30.5176 133.797C30.5293 133.77 30.5371 133.743 30.5488 133.715H30.541Z" fill="black"/>
<path d="M181.241 41.1919C181.619 41.8003 181.9 42.4282 182.052 43.1068C182.208 43.7815 182.274 44.4796 182.181 45.2167C182.165 45.4078 182.126 45.5989 182.079 45.7939C182.028 45.9889 181.993 46.1761 181.919 46.3672L181.709 46.9327L181.486 47.4124C181.096 48.2665 180.488 49.0075 179.802 49.5613C179.111 50.119 178.347 50.5129 177.559 50.7703C176.767 51.0277 175.948 51.1525 175.102 51.133C174.267 51.1174 173.37 50.938 172.571 50.5987C171.588 50.1853 170.715 49.5847 169.966 48.7735C169.229 47.9701 168.601 46.921 168.339 45.6496C168.269 45.3376 168.238 45.0061 168.215 44.6785C168.215 44.3392 168.203 44.0428 168.269 43.6372C168.316 43.2472 168.421 42.8962 168.538 42.5452C168.671 42.2137 168.815 41.8783 168.995 41.5936C169.346 40.9969 169.779 40.5016 170.274 40.0882C170.765 39.667 171.327 39.3238 171.97 39.0781C172.743 38.7739 173.729 38.8324 174.595 39.1795C175.012 39.3394 175.293 39.6904 175.406 40.0882C175.519 40.486 175.465 40.9579 175.305 41.4181C175.071 42.0889 174.599 42.6505 174.267 43.1497C174.111 43.3681 173.92 43.7308 173.987 43.6021C173.994 43.5787 173.979 43.6255 173.983 43.6177C173.955 43.6996 173.94 43.957 174.002 44.1949C174.01 44.23 174.018 44.2651 174.03 44.2963C174.033 44.3119 174.041 44.3275 174.045 44.3431L174.053 44.3665C174.053 44.3665 174.033 44.3158 174.018 44.3158C173.987 44.2924 173.948 44.2885 173.905 44.2924C173.823 44.3041 173.76 44.3665 173.757 44.4055C173.749 44.4133 173.76 44.4211 173.764 44.4289C173.788 44.4445 173.718 44.4133 173.679 44.4016L173.558 44.3743C173.558 44.3743 173.523 44.3704 173.503 44.3704H173.495C174.236 44.4211 173.702 44.386 173.866 44.3977H173.874L173.889 44.4133C173.959 44.464 174.061 44.4913 174.193 44.4991C174.349 44.5186 174.568 44.4445 174.49 44.6551C174.381 45.01 174.626 45.283 174.88 45.4039C175.133 45.5365 175.379 45.5404 175.699 45.6691C175.937 45.7627 176.202 45.7471 176.428 45.6925C176.658 45.6379 176.845 45.5404 177.009 45.4741C177.157 45.4117 177.274 45.3454 177.38 45.2557C177.395 45.2362 177.45 45.1972 177.45 45.1972C177.458 45.1894 177.481 45.1894 177.497 45.1816C177.504 45.166 177.524 45.1543 177.543 45.1387C177.551 45.1153 177.563 45.0919 177.582 45.0646C177.692 44.8228 177.582 44.2963 177.352 43.996C177.259 43.8868 177.247 43.7152 177.189 43.4227C177.13 43.1458 176.997 42.6934 176.588 42.202C176.221 41.7379 175.648 40.5445 176.268 40.1077C176.471 39.9517 176.709 39.8503 176.962 39.7606C177.22 39.6631 177.481 39.6163 177.754 39.5929C178.035 39.5617 178.296 39.5773 178.565 39.6085C178.842 39.6358 179.088 39.7021 179.337 39.7879C180.153 40.0648 180.722 40.6888 181.174 41.2621C181.198 41.2465 181.221 41.2309 181.248 41.2114L181.241 41.1919Z" fill="black"/>
<path d="M19.4608 13.0338C20.584 12.3201 21.8047 11.9652 23.0644 11.9067C23.743 11.895 24.4177 11.9574 25.1197 12.0783C26.0479 12.2148 27.0346 12.6204 27.799 13.2561C28.5751 13.8879 29.1562 14.7147 29.5228 15.5727C29.8972 16.4346 30.0649 17.3316 30.061 18.2208C30.061 19.11 29.8972 20.007 29.5384 20.8767C29.0938 21.9375 28.3138 22.9827 27.2023 23.712C26.0986 24.4452 24.7765 24.7689 23.5636 24.726C22.3429 24.687 21.2392 24.3321 20.2759 23.7939C19.3126 23.2479 18.4702 22.5069 17.8072 21.5553C17.5966 21.2823 17.4796 20.9157 17.3821 20.5764C17.3119 20.2098 17.269 19.8471 17.2807 19.4805C17.2924 18.7668 18.01 18.2442 18.9499 18.018C19.6363 17.8464 20.3656 17.8737 20.9662 17.8971C21.5746 17.9283 22.0231 17.9361 22.2181 17.9556C22.3429 17.9712 22.3897 17.9868 22.4326 18.018C22.4482 18.0336 22.456 18.0531 22.4521 18.0765C22.456 18.0999 22.4599 18.1272 22.4521 18.1623C22.417 18.3183 22.4794 18.4821 22.5652 18.6381C22.6744 18.7785 22.8109 18.9189 22.9864 18.9813C23.1541 19.0632 23.3413 19.0671 23.4973 19.0437C23.5714 19.0086 23.6494 19.0047 23.704 18.9423L23.782 18.8721C23.8015 18.837 23.8171 18.8058 23.8288 18.7746C23.8444 18.7434 23.8561 18.7044 23.8522 18.6576C23.8522 18.6147 23.8522 18.5874 23.8522 18.564C23.8444 18.5328 23.8405 18.5172 23.8444 18.525L23.8522 18.5328V18.5367L23.8717 18.5757V18.5679V18.5601L23.8834 18.5874C24.0511 18.8565 24.25 18.7668 24.3475 18.5718C24.4567 18.369 24.4801 18.0882 24.5854 17.8113C24.6751 17.5968 24.64 17.3901 24.5932 17.2419C24.5425 17.0859 24.4879 16.9962 24.4294 16.8987C24.3826 16.809 24.3319 16.7115 24.1954 16.6413C24.1408 16.5867 24.0472 16.5789 23.9614 16.536C23.8639 16.5282 23.7625 16.4892 23.6494 16.497C23.1931 16.4619 22.6276 16.6569 22.2415 16.9611C22.1713 17.0235 22.066 17.0664 21.9685 17.1132C21.9139 17.1327 21.8554 17.1522 21.7813 17.1717C21.7189 17.1912 21.6526 17.2107 21.5707 17.2302L21.3016 17.2965L20.9974 17.3901C20.7595 17.4603 20.5099 17.5578 20.2135 17.6904C19.6636 17.9322 18.3649 18.0882 18.1036 17.4759C17.9086 17.0586 17.854 16.5984 17.8423 16.1226C17.8618 15.6624 17.9476 15.1827 18.1231 14.7654C18.2518 14.3988 18.4819 14.118 18.7237 13.8333C18.9733 13.572 19.2463 13.338 19.5115 13.1157C19.4959 13.0923 19.4764 13.0689 19.4608 13.0455V13.0338Z" fill="black"/>
<path d="M78.0587 19.9681C78.086 20.128 78.0665 20.3113 78.008 20.5219C77.9768 20.6311 77.9456 20.7637 77.8364 20.8378C77.6804 20.947 77.5244 21.0835 77.384 21.3019C77.2475 21.5164 77.1578 21.766 77.1149 21.9883C77.0369 22.4407 77.0876 22.7605 77.2085 22.9984C77.2826 23.1427 77.3801 23.2714 77.5244 23.3884C77.5556 23.4157 77.6102 23.4508 77.6297 23.4664C77.6492 23.482 77.6765 23.4976 77.696 23.5093C77.7389 23.5327 77.7779 23.5522 77.8052 23.5639C77.93 23.6107 77.9105 23.5678 77.7623 23.5405C77.7194 23.5327 77.6804 23.3065 77.6297 23.0803C77.5829 22.8619 77.5868 22.1248 77.6297 21.1615C77.6921 19.7614 77.8481 18.2677 78.008 17.9284C78.1094 17.71 78.2108 17.7178 78.3044 17.8153C78.5189 18.0298 78.7646 18.1429 79.0688 18.178C79.373 18.2131 79.7435 18.1702 80.2349 18.1195C80.5118 18.0961 80.8433 18.0103 81.0032 18.3574C81.2294 18.8878 81.4751 19.2076 81.7364 19.5547C81.9899 19.8979 82.2473 20.2801 82.2785 20.7832C82.298 21.1459 82.337 21.5281 82.3097 21.9337C82.2863 22.3393 82.1888 22.78 81.9704 23.1505C81.7832 23.4625 81.5453 23.7355 81.284 23.9422C81.0305 24.145 80.7614 24.2893 80.5235 24.3751C80.0438 24.5467 79.6538 24.5584 79.3379 24.5428C79.0805 24.5272 78.788 24.1333 78.4526 23.0179C78.2966 22.5031 78.086 21.2278 78.0821 20.9314C78.0821 20.5141 78.0821 20.2411 78.0704 20.0773C78.0626 19.9408 78.0899 20.0422 78.086 20.0461C78.0782 20.0188 78.0665 19.9915 78.0587 19.9642V19.9681Z" fill="black"/>
<path d="M77.4384 116.606C77.0874 116.509 76.7013 116.388 76.2996 116.247C76.0851 116.173 75.8784 116.084 75.6483 116.084C74.9619 116.084 74.2599 115.967 73.5501 115.592C73.1952 115.405 72.8364 115.14 72.5088 114.773C72.1851 114.407 71.9043 113.927 71.7483 113.385C71.565 112.753 71.5455 112.055 71.6859 111.419C71.8263 110.78 72.0915 110.288 72.3528 109.902C72.8949 109.134 73.4214 108.755 73.8855 108.432C74.0259 108.334 74.2872 108.428 74.529 108.537C74.763 108.638 75.2154 109.231 75.7458 110.035C76.5102 111.209 77.2122 112.538 77.3253 112.882C77.3994 113.104 77.3526 113.131 77.2668 113.088C77.0679 112.991 76.9353 112.995 76.9197 113.053C76.9197 113.065 76.9158 113.084 76.9314 113.1L76.9431 113.112L76.9509 113.12L76.9314 113.104L76.7832 112.975C76.5882 112.811 76.4088 112.687 76.2567 112.597C76.1787 112.55 76.0812 112.507 76.0305 112.48C75.9993 112.464 75.9642 112.453 75.9291 112.441C75.9096 112.433 75.8862 112.425 75.8628 112.418C75.8355 112.41 75.8121 112.406 75.7848 112.398H75.7536C75.7575 112.398 75.7419 112.398 75.7731 112.398H75.8043L75.816 112.39C75.9291 112.367 75.66 112.421 75.6873 112.418C75.6873 112.418 75.7146 112.41 75.7536 112.39C75.7965 112.371 75.8433 112.336 75.9018 112.289C76.0695 112.152 76.1904 111.911 76.1865 111.899L76.1787 111.922L76.1709 111.957V111.981L76.2372 111.497C76.2333 111.528 76.2411 111.599 76.2762 111.645C76.3425 111.755 76.4907 111.848 76.6857 111.907C76.8378 111.957 77.1069 112.343 77.5671 113.42C77.7777 113.919 78.1131 115.167 78.0975 115.471C78.078 115.904 78 116.197 77.8674 116.396C77.7582 116.559 77.5749 116.493 77.4072 116.52C77.4111 116.548 77.415 116.575 77.4228 116.606H77.4384Z" fill="black"/>
<path d="M132.53 56.7177C132.682 57.0219 132.896 57.1506 133.064 57.2091C133.158 57.2442 133.243 57.2403 133.24 57.2949C133.216 57.4353 133.193 57.6108 133.306 57.8253C133.36 57.9267 133.458 58.0437 133.598 58.1334C133.672 58.2036 133.723 58.2504 133.789 58.2816C133.867 58.3167 133.934 58.3362 133.981 58.3401C134.023 58.3518 134.055 58.3401 134.055 58.3401C134.062 58.3362 133.988 58.3401 133.891 58.383C133.864 58.3947 133.715 58.227 133.555 58.071C133.403 57.915 132.951 57.3339 132.362 56.5734C131.5 55.4658 130.65 54.2334 130.611 53.8239C130.584 53.5704 130.701 53.4924 130.857 53.4963C131.574 53.5158 132.007 53.2194 132.619 52.5486C132.787 52.3653 132.994 52.0962 133.251 52.26C134.027 52.7943 134.729 52.4316 135.544 52.9971C136.118 53.43 136.64 53.7576 136.948 54.2724C137.214 54.7248 137.366 55.2123 137.424 55.7232C137.479 56.2341 137.436 56.7879 137.229 57.33C137.073 57.759 136.391 58.071 135.373 57.4626C134.909 57.1896 134 56.2575 133.704 56.16C133.306 56.0001 132.955 56.0781 132.733 56.2302C132.549 56.3706 132.619 56.5695 132.616 56.7099C132.584 56.7099 132.557 56.7099 132.53 56.7099V56.7177Z" fill="black"/>
<path d="M171.507 22.0312C171.07 22.0819 170.656 22.0468 170.282 21.9922C170.083 21.9649 169.892 21.9103 169.713 21.9649C169.241 22.1053 168.714 22.1989 168.141 22.1599C167.575 22.1287 166.944 21.9298 166.444 21.5905C165.832 21.1732 165.372 20.6077 165.072 19.9837C164.771 19.3597 164.619 18.6655 164.623 17.9362C164.623 17.7139 164.861 17.4955 165.107 17.3239C165.349 17.1562 166.097 17.1874 167.041 17.3746C167.728 17.5111 168.426 17.7061 169.003 17.8504C169.061 17.866 169.116 17.8777 169.159 17.8894C169.167 17.8894 169.174 17.8894 169.178 17.8894C169.202 17.8933 169.225 17.8933 169.252 17.8972C169.373 17.905 169.471 17.8582 169.428 17.8777C169.42 17.8816 169.401 17.8933 169.385 17.9089C169.354 17.9323 169.319 17.9674 169.288 18.0064C169.272 18.022 169.256 18.0493 169.249 18.061C169.249 18.0649 169.233 18.0883 169.237 18.0805L169.249 18.0532C169.276 17.9947 169.295 17.9089 169.295 17.8543C169.295 17.7451 169.276 17.8114 169.354 17.9323C169.291 17.8387 169.568 18.3184 170.477 19.0165C170.902 19.348 171.901 20.1748 171.998 20.4907C172.15 20.9314 172.123 21.3097 172.006 21.5905C171.908 21.8284 171.659 21.8557 171.472 21.9571C171.483 21.9844 171.495 22.0078 171.511 22.0351L171.507 22.0312Z" fill="black"/>
<path d="M154.581 117.059C154.663 117.199 154.721 117.355 154.741 117.511C154.748 117.593 154.76 117.686 154.686 117.714C154.585 117.749 154.44 117.835 154.323 117.956C154.202 118.069 154.081 118.264 154.007 118.427C153.855 118.778 153.84 119.067 153.883 119.254C153.906 119.371 153.949 119.461 154.007 119.551C154.031 119.586 154.093 119.652 154.101 119.66C154.12 119.679 154.132 119.691 154.144 119.699C154.187 119.726 154.12 119.656 153.925 119.566C153.871 119.539 153.875 119.309 153.871 119.071C153.871 118.841 154.058 118.131 154.351 117.211C154.776 115.873 155.333 114.481 155.595 114.2C155.762 114.02 155.868 114.059 155.942 114.18C156.297 114.742 156.847 114.875 157.837 115.019C157.974 115.038 158.13 115.054 158.262 115.109C158.395 115.167 158.524 115.28 158.543 115.448C158.617 115.99 158.793 116.349 158.984 116.747C159.167 117.133 159.354 117.581 159.3 118.096C159.253 118.474 159.226 118.856 159.136 119.254C159.046 119.652 158.882 120.05 158.648 120.35C158.215 120.912 157.662 121.239 157.209 121.395C156.745 121.559 156.359 121.583 156.016 121.59C155.743 121.59 155.407 121.22 154.994 120.128C154.799 119.621 154.526 118.361 154.522 118.065C154.522 117.644 154.522 117.367 154.53 117.199C154.53 117.059 154.596 117.148 154.612 117.144C154.6 117.117 154.592 117.09 154.581 117.062V117.059Z" fill="black"/>
<path d="M138.15 177.13C137.569 176.865 137.101 176.502 136.699 176.132C136.488 175.929 136.305 175.718 136.075 175.574C135.447 175.2 134.835 174.697 134.367 173.959C134.137 173.589 133.942 173.172 133.825 172.711C133.708 172.228 133.665 171.822 133.688 171.397C133.731 170.34 134.125 169.428 134.55 168.765C134.983 168.082 135.459 167.595 135.907 167.17C136.044 167.041 136.329 167.076 136.598 167.131C136.863 167.181 137.421 167.673 138.087 168.363C139.059 169.373 139.971 170.566 140.1 170.925C140.182 171.155 140.108 171.218 139.991 171.218C139.433 171.202 139.211 171.604 139.566 171.986C139.659 172.091 139.878 172.193 139.683 172.107C139.363 171.986 139.195 171.947 139.09 171.935H139.031V171.931L138.571 171.959H138.579H138.594L138.633 171.947C138.688 171.935 138.762 171.908 138.844 171.865C138.883 171.846 138.918 171.822 138.957 171.795C138.977 171.783 138.992 171.772 139.004 171.756L138.984 171.775C138.852 171.92 138.887 172.251 139 172.454C139.047 172.524 139.051 173.004 139.577 174.053C139.819 174.544 140.303 175.746 140.139 176.093C139.928 176.584 139.55 176.916 139.148 177.083C138.809 177.228 138.474 177.091 138.154 177.04C138.146 177.068 138.142 177.095 138.134 177.126L138.15 177.13Z" fill="black"/>
<path d="M30.6854 175.952C30.8687 176.022 31.0403 176.112 31.1807 176.178C31.2509 176.214 31.3328 176.253 31.3211 176.214C31.3094 176.089 31.1105 176.128 30.9779 176.175C30.8453 176.229 30.6815 176.385 30.6893 176.721C30.6893 176.923 30.7673 177.2 30.9233 177.446C31.0715 177.684 31.2704 177.859 31.442 177.961C31.793 178.156 31.8398 178.078 31.6838 178.058C31.637 178.05 31.5941 177.828 31.52 177.602C31.4537 177.384 31.4108 176.65 31.3913 175.687C31.3601 174.283 31.442 172.785 31.6487 172.438C31.7774 172.216 31.9256 172.224 32.066 172.321C32.3897 172.544 32.7368 172.657 33.1814 172.746C33.6221 172.84 34.1759 172.879 34.8896 173.105C35.2757 173.214 35.7788 173.398 35.8763 173.858C36.0362 174.591 36.1922 175.176 36.2858 175.734C36.3755 176.288 36.3911 176.818 36.1883 177.255C35.8802 177.887 35.7008 178.479 35.2367 178.959C34.4567 179.716 33.6299 179.946 32.9981 180.098C32.7368 180.156 32.3351 179.872 31.6331 178.936C31.3055 178.503 30.701 177.36 30.6425 177.064C30.5606 176.639 30.5411 176.35 30.5489 176.159C30.5567 175.999 30.6737 176.054 30.7283 176.019C30.7127 175.995 30.6971 175.972 30.6815 175.944L30.6854 175.952Z" fill="black"/>
<path d="M16.3217 63.0474C15.8264 62.79 15.4325 62.4546 15.101 62.1153C14.9216 61.9359 14.7773 61.737 14.5706 61.6239C14.0207 61.3119 13.4786 60.8829 13.0457 60.2589C12.6128 59.6466 12.3359 58.7808 12.3671 57.9696C12.4061 56.9751 12.7688 56.0898 13.307 55.3956C13.8452 54.6975 14.5745 54.1398 15.4871 53.8005C15.7679 53.6991 16.1267 53.8278 16.4348 53.9994C16.739 54.1632 16.9652 54.8964 17.0549 55.8519C17.1251 56.55 17.1134 57.2754 17.1368 57.8682C17.1368 57.9501 17.1407 58.0242 17.1446 58.0866C17.1446 58.0944 17.1446 58.0983 17.1446 58.1061C17.1446 58.1373 17.1563 58.1607 17.168 58.2036C17.1953 58.2894 17.2499 58.3869 17.2928 58.4415C17.3357 58.4961 17.3591 58.5039 17.3279 58.4844C17.3084 58.4727 17.2772 58.4532 17.2343 58.4337C17.168 58.4025 17.0783 58.3791 17.0003 58.3713C16.9769 58.3674 16.9223 58.3713 16.9145 58.3713C16.9106 58.3713 16.8833 58.3713 16.8911 58.3713C16.9028 58.3713 16.9145 58.3674 16.9223 58.3635C16.9886 58.3479 17.1329 58.2738 17.2109 58.1997C17.2811 58.1373 17.3006 58.0944 17.2811 58.1295C17.2616 58.1607 17.2226 58.2738 17.2148 58.383C17.2148 58.4337 17.1563 58.9251 17.5853 60.0054C17.7842 60.5085 18.2054 61.737 18.0611 62.0685C17.8778 62.5404 17.5463 62.8485 17.1992 63.0045C16.9028 63.141 16.6181 63.0045 16.3451 62.9538C16.3373 62.9811 16.3334 63.0084 16.3256 63.0396L16.3217 63.0474Z" fill="black"/>
</svg>
