<svg width="230" height="228" viewBox="0 0 230 228" fill="none" xmlns="http://www.w3.org/2000/svg">
<path d="M124.101 164.094L125.156 162.361L125.002 162.674C125.608 161.274 126.506 160.017 127.636 158.984C128.836 157.892 130.301 157.127 131.888 156.763C132.273 156.673 132.663 156.604 133.056 156.557L133.994 156.48L135.455 156.346C136.449 156.237 137.471 156.135 138.475 155.99C140.491 155.727 142.499 155.387 144.495 154.984C146.492 154.588 148.476 154.124 150.445 153.59C158.337 151.495 165.91 148.357 172.959 144.262C180.702 139.722 187.785 133.871 192.951 126.707C195.605 123.06 197.71 119.048 199.198 114.799C200.659 110.582 201.408 106.155 201.415 101.696C201.404 97.2179 200.714 92.7671 199.367 88.4928C198.691 86.3364 197.89 84.2206 196.967 82.1561C196.021 80.0909 194.963 78.0701 193.821 76.089L194.027 76.3982L192.297 74.2877L191.434 73.2315C191.135 72.8892 190.817 72.5626 190.509 72.2272L188.653 70.2258C188.009 69.5823 187.337 68.9653 186.682 68.3329L185.694 67.3893C185.364 67.0753 185.002 66.7953 184.658 66.4964L182.569 64.728C181.857 64.1572 181.113 63.6245 180.387 63.0701L179.293 62.2456C178.931 61.9674 178.537 61.7306 178.16 61.4709L175.879 59.9436C175.107 59.4497 174.306 59.0001 173.522 58.5255C171.969 57.5496 170.306 56.752 168.691 55.8779C165.39 54.2353 161.992 52.7891 158.516 51.5471C156.79 50.887 155.012 50.3597 153.247 49.8006C152.37 49.5048 151.462 49.2961 150.571 49.0436C149.673 48.8087 148.785 48.5401 147.88 48.3317C146.065 47.9281 144.268 47.4579 142.433 47.137L139.691 46.6097L136.93 46.1756C129.537 45.0629 122.068 44.519 114.59 44.5488C107.072 44.5409 99.5612 45.0356 92.1097 46.0297C91.1759 46.1386 90.2461 46.2769 89.3175 46.4226L86.5295 46.8467L83.7536 47.3403L82.3655 47.5866L80.9842 47.8661L78.2221 48.4284L75.4759 49.0573C73.639 49.4554 71.8336 49.968 70.0118 50.4218L67.2843 51.1985L65.9244 51.5877L64.6136 51.9817L63.958 52.1782L63.3208 52.3997L62.0476 52.8436C61.2111 53.1716 60.3693 53.4899 59.5463 53.8519C56.2386 55.2876 53.0964 57.072 50.1739 59.1744C47.2423 61.2803 44.5376 63.6803 42.1028 66.3364C39.6464 68.9826 37.4803 71.8799 35.6411 74.9796C34.715 76.525 33.8698 78.1167 33.1088 79.7483C32.7539 80.5746 32.357 81.3847 32.0446 82.2284L31.5491 83.4836L31.1075 84.758C29.9413 88.1628 29.1569 91.6846 28.7685 95.2597C28.6484 96.1504 28.6226 97.049 28.5427 97.9438C28.5243 98.8405 28.4667 99.7398 28.4857 100.636C28.5002 101.532 28.5003 102.426 28.5869 103.335C28.6594 104.239 28.6984 105.147 28.7959 106.049C29.1843 109.659 29.9136 113.224 30.9744 116.699L31.3853 117.996C31.5174 118.431 31.6572 118.862 31.8298 119.282L32.8096 121.823L33.932 124.307C34.3241 125.126 34.7524 125.929 35.1674 126.739C38.6504 133.194 43.3226 138.946 48.9422 143.695C51.76 146.09 54.7676 148.257 57.9359 150.173C65.6685 154.813 74.1451 158.107 82.9987 159.913L84.5425 160.221C85.0451 160.327 85.5377 160.424 86.0229 160.495L88.7967 160.96C90.5681 161.185 92.1666 161.448 93.6175 161.58L95.6755 161.818L97.5109 161.983L99.1318 162.152L100.546 162.272C103.102 162.519 103.143 162.856 100.938 163.264C100.387 163.362 99.6957 163.478 98.8697 163.573C98.0443 163.646 97.0842 163.717 95.9947 163.784C94.9053 163.846 93.6882 163.828 92.3469 163.838C91.6761 163.842 90.9779 163.788 90.2479 163.759C89.5193 163.715 88.7568 163.702 87.9722 163.619C79.6307 162.916 71.4633 160.854 63.7989 157.516C54.9786 153.721 47.012 148.217 40.3668 141.328C37.0529 137.858 34.1498 134.024 31.7142 129.9C29.2771 125.762 27.3616 121.343 26.0107 116.742C24.6548 112.144 23.8278 107.409 23.5455 102.627C23.4201 100.218 23.4436 97.8029 23.616 95.3962C23.8192 92.9912 24.1691 90.6006 24.6638 88.2375C27.3568 76.0466 33.9151 65.0301 43.379 56.8002C45.4601 55.009 47.6696 53.3699 49.9902 51.8959C52.3005 50.4244 54.7239 49.1351 57.238 48.0401C59.6937 46.9906 62.2243 46.1226 64.8092 45.4432C68.6873 44.351 72.6718 43.4003 76.6434 42.5402L79.6375 41.9459L81.1347 41.6495L82.6386 41.3889L85.6465 40.8682L88.6659 40.4161C89.671 40.2557 90.6807 40.1251 91.6911 40.0029L94.7218 39.6252C96.7494 39.4339 98.771 39.1807 100.805 39.0497L103.853 38.8186L106.907 38.662L108.434 38.5852L109.963 38.5469L113.022 38.4699L116.084 38.4763L117.615 38.4822L119.146 38.5292L122.208 38.6276L125.267 38.8115C127.309 38.908 129.343 39.1492 131.38 39.3236C132.397 39.4335 133.411 39.5725 134.427 39.696C135.442 39.8213 136.458 39.9442 137.468 40.1188L140.501 40.6043C141.511 40.7783 142.514 40.9919 143.52 41.1849C145.537 41.5476 147.525 42.07 149.523 42.5297C150.517 42.7797 151.503 43.0714 152.492 43.3414C153.482 43.6132 154.471 43.886 155.444 44.2169L158.375 45.1665C159.344 45.5071 160.303 45.8778 161.267 46.2335C168.528 48.9398 175.416 52.5424 181.769 56.9562C182.585 57.4806 183.333 58.1034 184.112 58.6819L185.271 59.5642C185.656 59.8595 186.049 60.1452 186.411 60.4699C187.878 61.7437 189.4 62.9565 190.767 64.3427C191.462 65.023 192.181 65.6788 192.853 66.3804L194.828 68.5278C195.153 68.8891 195.494 69.2371 195.806 69.6096L196.725 70.7419L198.561 73.0087C198.618 73.0791 198.67 73.1538 198.715 73.2321L198.746 73.2853C201.045 77.231 202.928 81.4013 204.365 85.7299C205.815 90.1113 206.66 94.667 206.878 99.2731C207.086 104.08 206.531 108.889 205.232 113.525C203.931 118.131 201.96 122.525 199.379 126.567C196.823 130.559 193.807 134.243 190.394 137.546C187.011 140.816 183.33 143.767 179.398 146.362C171.566 151.493 163.009 155.441 154.006 158.077C149.529 159.409 144.963 160.428 140.342 161.129C139.186 161.295 138.029 161.457 136.868 161.585C136.294 161.658 135.693 161.711 135.099 161.769L134.208 161.854C133.945 161.881 133.725 161.882 133.535 161.919C132.77 162.024 132.05 162.34 131.458 162.832C130.832 163.371 130.339 164.046 130.016 164.803L130 164.84C129.977 164.891 129.951 164.943 129.924 164.991C126.861 170.341 122.847 175.098 118.076 179.031C113.033 183.232 107.178 186.367 100.869 188.244L100.787 188.268C100.416 188.376 100.018 188.35 99.6642 188.194C99.3108 188.038 99.0251 187.762 98.8585 187.415C98.6919 187.069 98.6552 186.675 98.755 186.305C98.8548 185.934 99.0846 185.611 99.4032 185.393C100.307 184.743 101.138 184 101.883 183.176C102.671 182.324 103.41 181.428 104.095 180.493C104.787 179.561 105.439 178.602 106.033 177.619C106.631 176.648 107.179 175.648 107.674 174.622C108.689 172.662 109.35 170.542 109.628 168.356C109.751 167.312 109.607 166.253 109.209 165.278C108.759 164.308 107.984 163.523 107.015 163.057C105.884 162.569 104.701 162.21 103.489 161.987C102.703 161.816 102.337 161.589 102.448 161.361C102.504 161.241 102.68 161.136 102.981 161C103.16 160.929 103.343 160.867 103.529 160.815L103.876 160.723L104.29 160.666C104.584 160.631 104.914 160.6 105.279 160.576C105.657 160.584 106.076 160.611 106.531 160.649C106.777 160.683 107.021 160.731 107.261 160.792C107.53 160.846 107.794 160.918 108.053 161.007C108.328 161.117 108.614 161.234 108.904 161.368C109.207 161.527 109.496 161.709 109.769 161.913C110.106 162.15 110.416 162.422 110.693 162.726C110.982 163.021 111.239 163.346 111.459 163.695C111.89 164.358 112.215 165.084 112.422 165.846C112.771 167.197 112.877 168.599 112.733 169.986C112.617 171.242 112.379 172.484 112.023 173.695C111.692 174.864 111.286 176.011 110.81 177.13C109.87 179.347 108.724 181.472 107.387 183.479C106.698 184.505 105.954 185.494 105.159 186.442C104.292 187.488 103.311 188.435 102.233 189.266L99.3711 183.698C101.28 183.019 103.146 182.227 104.959 181.325C106.886 180.354 108.75 179.266 110.543 178.069C112.344 176.851 114.067 175.522 115.701 174.091C117.328 172.641 118.86 171.089 120.288 169.445C121.69 167.788 122.979 166.039 124.146 164.212C124.13 164.174 124.115 164.138 124.101 164.094Z" fill="black"/>
</svg>
