<svg width="228" height="228" viewBox="0 0 228 228" fill="none" xmlns="http://www.w3.org/2000/svg">
<path d="M147.186 57.937C143.399 60.5996 139.497 63.1673 135.428 65.5234C134.398 66.0984 133.394 66.6912 132.341 67.2499C131.289 67.8136 130.226 68.3513 129.152 68.8629C127.005 69.89 124.822 70.8248 122.602 71.6673C118.16 73.3656 113.58 74.6796 108.913 75.5949C104.19 76.5468 99.3733 76.9507 94.5578 76.7988C92.0964 76.7081 89.6473 76.4077 87.237 75.9008C84.7613 75.3844 82.3569 74.5713 80.076 73.479L79.2132 73.0538C78.9296 72.9022 78.651 72.7378 78.3701 72.5795C77.8071 72.2751 77.2558 71.9089 76.7061 71.5454C75.5966 70.7795 74.5631 69.9088 73.6199 68.9454C71.6348 66.9028 70.247 64.3555 69.6071 61.58C69.0087 58.7766 69.2306 55.8602 70.2462 53.1796C71.2172 50.6111 72.7671 48.3009 74.7756 46.4284C75.7494 45.5126 76.8103 44.694 77.9431 43.9842C78.5022 43.6255 79.0894 43.3116 79.6709 43.0054C80.2292 42.7409 80.785 42.468 81.3467 42.2136C83.5833 41.2293 85.8954 40.4264 88.2607 39.8126C93.2088 38.5471 98.2984 37.9193 103.406 37.9445C104.041 37.9414 104.677 37.9695 105.313 37.98L107.22 38.0758C108.494 38.1997 109.774 38.2688 111.039 38.4737C113.577 38.8123 116.088 39.3302 118.554 40.0236L120.394 40.5715C121.008 40.7559 121.605 40.99 122.211 41.1975C123.429 41.5976 124.597 42.1327 125.786 42.6121L127.525 43.4362L128.392 43.8533L129.239 44.3135C129.801 44.624 130.371 44.9204 130.926 45.2438L132.566 46.2582C134.742 47.64 136.798 49.2015 138.714 50.9265C139.699 51.7604 140.58 52.7091 141.495 53.6199C141.937 54.0899 142.352 54.5871 142.781 55.07L143.418 55.7999C143.624 56.0492 143.815 56.3101 144.014 56.565L144.802 57.5915L145.196 58.1054L145.58 58.7017C145.834 59.101 146.092 59.4986 146.335 59.9032L146.963 61.164C147.062 61.3758 147.177 61.5831 147.264 61.7991L147.511 62.4507C147.67 62.8864 147.849 63.319 147.987 63.7594C148.254 64.6359 148.473 65.5266 148.642 66.4274C148.974 68.1964 149.134 69.9936 149.118 71.7935L149.067 73.122L149.037 73.7859L148.971 74.4433L148.834 75.7579L148.625 77.057C148.036 80.5088 146.958 83.859 145.424 87.0067C145.247 87.4068 145.027 87.79 144.82 88.1786C144.608 88.5592 144.41 88.969 144.184 89.3245L142.836 91.4797L142.16 92.5565C141.937 92.9167 141.671 93.2458 141.428 93.5916L139.935 95.6425C139.456 96.3421 138.88 96.9588 138.35 97.6157L136.725 99.5541L134.992 101.389C134.411 101.997 133.849 102.625 133.224 103.185C131.995 104.326 130.807 105.518 129.503 106.566L127.583 108.184C126.927 108.702 126.256 109.198 125.593 109.705C120.273 113.702 114.566 117.155 108.558 120.014C102.593 122.865 96.4203 125.262 90.0936 127.182C88.5059 127.688 86.8527 128.112 85.2076 128.473C83.5574 128.838 81.8875 129.139 80.1924 129.359C78.4793 129.59 76.7538 129.717 75.0253 129.738C73.2324 129.77 71.4406 129.632 69.6739 129.325C68.7478 129.162 67.835 128.932 66.943 128.634C66.0073 128.33 65.1035 127.935 64.2444 127.455C63.3432 126.954 62.506 126.346 61.751 125.644C60.9843 124.922 60.3137 124.104 59.7557 123.211C58.6325 121.408 58.0152 119.336 57.9686 117.212C57.9837 115.159 58.463 113.135 59.3707 111.293C60.2067 109.628 61.2535 108.077 62.4852 106.678C63.6464 105.347 64.9147 104.112 66.2773 102.987C68.9372 100.791 71.8271 98.8893 74.8966 97.3154C75.6715 96.9249 76.4543 96.5462 77.2744 96.1986C78.1141 95.8381 78.9196 95.5576 79.7232 95.2626C81.3436 94.7052 82.983 94.2252 84.636 93.8099C86.2912 93.4063 87.961 93.0763 89.6403 92.8033C91.3227 92.5517 93.0132 92.3496 94.7134 92.2311C98.1326 91.9842 101.567 92.06 104.972 92.4575C105.83 92.5442 106.684 92.6982 107.539 92.8271C108.391 92.9973 109.245 93.1424 110.092 93.3593C111.803 93.7543 113.485 94.2683 115.125 94.8974C118.5 96.1469 121.631 97.9785 124.374 100.309C125.769 101.488 127.04 102.808 128.165 104.247C129.298 105.676 130.285 107.213 131.113 108.837C131.956 110.457 132.633 112.158 133.132 113.915C133.401 114.789 133.581 115.684 133.77 116.577C133.913 117.477 134.06 118.376 134.125 119.281C134.281 121.076 134.279 122.882 134.121 124.677C133.958 126.441 133.674 128.192 133.27 129.917C132.446 133.282 131.264 136.55 129.745 139.663C128.267 142.714 126.566 145.651 124.654 148.45C122.775 151.219 120.742 153.881 118.564 156.422C116.428 158.956 114.169 161.386 111.831 163.738C107.149 168.456 102.064 172.756 96.6341 176.591C91.182 180.455 85.3395 183.737 79.2026 186.382C75.3981 188.007 71.4743 189.337 67.4659 190.359C63.4344 191.367 59.3228 192.023 55.1777 192.318C54.1417 192.407 53.0991 192.413 52.0605 192.464C51.02 192.47 49.9786 192.477 48.9383 192.453L47.3783 192.386L46.5986 192.353L45.7761 192.286C44.6733 192.19 43.5774 192.026 42.4946 191.795C41.3888 191.566 40.3004 191.26 39.2372 190.879C38.1278 190.473 37.0581 189.967 36.0414 189.365C35.5052 189.049 34.9906 188.697 34.501 188.312C34.2539 188.108 34.0036 187.913 33.7636 187.696L33.0686 186.992C32.136 185.98 31.4122 184.793 30.9385 183.501C30.8172 183.176 30.719 182.843 30.6446 182.504C30.5501 182.17 30.4798 181.83 30.4343 181.485C30.3348 180.801 30.3058 180.108 30.3477 179.417C30.4339 178.11 30.7309 176.825 31.2274 175.612C31.6784 174.493 32.2497 173.426 32.9311 172.43C33.5668 171.486 34.2776 170.595 35.0567 169.765C38.0125 166.551 41.5372 163.912 45.453 161.981C47.3688 161.028 49.3474 160.207 51.3749 159.524C53.3854 158.863 55.4303 158.312 57.5007 157.873C59.5578 157.457 61.6346 157.144 63.7233 156.936C65.8096 156.742 67.8823 156.615 69.9394 156.584C78.1847 156.427 86.193 157.288 94.0058 157.649C95.961 157.745 97.9005 157.825 99.8316 157.813C101.761 157.772 103.692 157.78 105.62 157.703C107.545 157.56 109.473 157.44 111.397 157.282L117.148 156.555C132.488 154.148 147.182 148.66 160.345 140.423C166.91 136.323 173.033 131.553 178.613 126.189L180.703 124.18L182.677 122.059L184.654 119.94C185.294 119.22 185.918 118.491 186.527 117.753C188.954 114.881 191.08 111.768 192.87 108.462C193.716 106.854 194.431 105.18 195.007 103.457C195.162 103.033 195.278 102.603 195.399 102.173L195.581 101.529L195.727 100.88C195.829 100.448 195.926 100.015 195.988 99.5781C196.058 99.1477 196.149 98.6884 196.183 98.3136C196.254 97.6638 196.229 97.0069 196.106 96.3647C196.07 96.1942 196.007 96.0305 195.919 95.8795C195.879 95.8071 195.82 95.7472 195.748 95.7068C195.68 95.6582 195.603 95.6252 195.521 95.6101C195.349 95.5696 195.172 95.5529 194.996 95.5605C194.367 95.5943 193.748 95.7262 193.16 95.9512C192.799 96.0788 192.446 96.2253 192.101 96.3901L191.834 96.5188L191.535 96.6784L190.931 97.0008C190.117 97.4112 189.343 97.9082 188.556 98.3734C187.791 98.8826 187.016 99.373 186.279 99.9304C185.522 100.453 184.802 101.041 184.071 101.608C182.634 102.784 181.255 104.046 179.921 105.369C178.6 106.708 177.331 108.111 176.103 109.562C173.657 112.524 171.382 115.625 169.292 118.849C167.157 122.08 165.159 125.406 163.342 128.83C161.522 132.251 159.812 135.735 158.309 139.31C156.8 142.881 155.44 146.511 154.23 150.2C153.05 153.894 152.025 157.633 151.155 161.416C150.286 165.195 149.616 169.017 149.061 172.854C148.546 176.668 148.251 180.362 148.824 183.757C149.085 185.434 149.578 187.066 150.289 188.606C150.627 189.371 151.091 190.109 151.515 190.859C151.742 191.224 152.003 191.562 152.243 191.917C152.367 192.091 152.483 192.273 152.612 192.442L153.025 192.93C155.659 196.212 159.269 198.573 163.332 199.671C167.59 200.798 172.047 200.954 176.373 200.128C180.788 199.349 185.006 197.711 188.79 195.306C192.583 193.007 195.774 189.837 198.099 186.059C199.024 184.476 199.484 182.665 199.428 180.833C199.369 179.135 198.858 177.484 197.947 176.05C197.168 174.785 196.025 173.785 194.668 173.181C193.45 172.702 192.105 172.653 190.856 173.044C189.642 173.459 188.524 174.114 187.569 174.971C186.671 175.722 185.915 176.629 185.338 177.648C184.372 179.411 183.84 181.379 183.785 183.389C183.755 184.371 183.797 185.355 183.911 186.331C183.984 187.002 184.01 187.373 183.917 187.452C183.83 187.529 183.648 187.309 183.371 186.781C182.989 185.962 182.719 185.094 182.566 184.203C182.297 182.693 182.291 181.149 182.549 179.637C182.905 177.462 183.856 175.427 185.298 173.76C186.17 172.765 187.182 171.901 188.303 171.196C189.64 170.366 191.166 169.889 192.738 169.81C193.605 169.786 194.471 169.899 195.303 170.145C195.729 170.269 196.146 170.422 196.551 170.605C196.954 170.799 197.344 171.019 197.718 171.264C198.478 171.757 199.168 172.351 199.769 173.03C200.387 173.714 200.922 174.469 201.362 175.279C201.935 176.315 202.362 177.424 202.631 178.577C202.923 179.739 203.06 180.934 203.038 182.132C203.022 183.353 202.831 184.565 202.472 185.732C202.113 186.88 201.616 187.98 200.991 189.009C198.673 192.983 195.523 196.41 191.757 199.055C189.872 200.368 187.872 201.509 185.781 202.463C185.255 202.691 184.742 202.952 184.204 203.151L182.599 203.771C181.51 204.132 180.423 204.501 179.309 204.775C177.091 205.361 174.824 205.743 172.537 205.918C170.249 206.083 167.95 206.027 165.673 205.75C163.025 205.423 160.435 204.737 157.972 203.711C155.465 202.67 153.14 201.234 151.086 199.459C150.057 198.568 149.104 197.592 148.238 196.541C147.803 196.02 147.396 195.476 147.019 194.912C146.829 194.632 146.616 194.365 146.446 194.074L145.933 193.201L145.423 192.327C145.259 192.032 145.116 191.717 144.962 191.413C144.645 190.806 144.409 190.161 144.14 189.532C143.663 188.253 143.285 186.941 143.008 185.605C142.511 183.002 142.33 180.348 142.471 177.701C142.601 175.185 142.862 172.679 143.252 170.191C143.954 165.289 144.936 160.431 146.193 155.641C148.703 146.062 152.245 136.783 156.756 127.967C159.008 123.562 161.5 119.284 164.22 115.152C166.921 110.955 169.962 106.988 173.312 103.289C176.705 99.4865 180.608 96.1721 184.911 93.4404C185.446 93.0865 186.016 92.7818 186.573 92.4593C187.126 92.1307 187.702 91.8381 188.278 91.5485L189.141 91.1102C189.454 90.9626 189.778 90.8138 190.107 90.6801C190.781 90.4009 191.472 90.1672 192.177 89.9805C192.941 89.78 193.724 89.6588 194.513 89.6189C195.414 89.5701 196.317 89.6725 197.185 89.9219C198.158 90.2057 199.051 90.7153 199.79 91.4093C200.515 92.0909 201.078 92.9273 201.435 93.8563C201.746 94.6609 201.933 95.5078 201.992 96.3683C202.05 97.1202 202.039 97.8761 201.956 98.6258C201.898 99.3543 201.778 99.9927 201.674 100.643C201.582 101.298 201.418 101.935 201.28 102.579C200.675 105.116 199.793 107.579 198.652 109.925C196.387 114.464 193.558 118.698 190.232 122.529C189.825 122.998 189.431 123.482 189.012 123.94L187.753 125.308L185.233 128.045C184.382 128.947 183.466 129.784 182.585 130.656L181.251 131.952C180.802 132.38 180.372 132.829 179.895 133.225C176.217 136.551 172.336 139.648 168.276 142.495L165.221 144.618L162.063 146.583C159.985 147.941 157.782 149.084 155.615 150.291C155.068 150.583 154.538 150.908 153.976 151.171L152.303 151.984L148.954 153.609C147.828 154.13 146.674 154.587 145.534 155.078L143.819 155.803C143.247 156.044 142.679 156.296 142.091 156.495C140.803 156.962 139.511 157.431 138.217 157.901C137.566 158.125 136.929 158.395 136.265 158.582L134.283 159.187C132.958 159.582 131.639 160.011 130.302 160.38C128.955 160.714 127.606 161.048 126.256 161.383C125.58 161.545 124.908 161.729 124.227 161.872L122.175 162.266L118.065 163.043L113.917 163.602L111.843 163.879L109.758 164.043C108.368 164.149 106.979 164.256 105.592 164.363C104.2 164.393 102.81 164.423 101.423 164.453C98.6423 164.553 95.8855 164.43 93.1752 164.303C87.7524 164.004 82.4969 163.491 77.4005 163.198C75.3655 163.08 73.3404 162.994 71.3292 162.982C69.3201 162.967 67.3072 162.999 65.3379 163.143C63.3682 163.272 61.4067 163.505 59.4614 163.84C57.5273 164.156 55.6153 164.594 53.7369 165.153C50.0232 166.21 46.5076 167.868 43.3292 170.06C41.7815 171.153 40.3489 172.4 39.0534 173.783C38.4294 174.432 37.8639 175.134 37.3635 175.883C36.8921 176.569 36.5051 177.31 36.2107 178.089C35.9469 178.771 35.8098 179.495 35.8064 180.226C35.8052 180.395 35.816 180.564 35.8386 180.731C35.854 180.899 35.8859 181.066 35.9341 181.228C36.0071 181.557 36.1105 181.879 36.2428 182.189C36.5696 182.825 37.0058 183.399 37.5314 183.884C38.1397 184.434 38.8237 184.894 39.5626 185.249C40.3674 185.635 41.203 185.953 42.0608 186.2C42.957 186.448 43.8677 186.64 44.7876 186.776C45.2527 186.838 45.7203 186.901 46.19 186.936L46.8954 186.99L47.6444 187.016L49.142 187.069C49.6412 187.082 50.1413 187.066 50.6408 187.067C52.6399 187.073 54.6369 186.92 56.6287 186.737C58.6157 186.497 60.6014 186.225 62.5636 185.806C64.5326 185.427 66.4739 184.903 68.4058 184.355C70.3267 183.762 72.2382 183.132 74.1108 182.387C81.6412 179.393 88.7268 175.384 95.1709 170.47C98.4137 168.018 101.521 165.393 104.479 162.604C107.433 159.803 110.244 156.856 112.902 153.774C115.569 150.742 118.022 147.528 120.243 144.156C122.438 140.849 124.283 137.325 125.752 133.639C127.194 130.081 128.007 126.3 128.157 122.464C128.272 118.755 127.46 115.075 125.796 111.758C125.511 111.134 125.131 110.554 124.796 109.952L124.226 109.1L123.939 108.675L123.625 108.271C122.799 107.179 121.87 106.169 120.849 105.257C119.819 104.336 118.711 103.506 117.538 102.774C116.34 102.045 115.096 101.394 113.813 100.826C108.601 98.5856 102.682 97.7506 96.8074 97.8782C93.8549 97.9551 90.9137 98.2735 88.0131 98.83C86.5621 99.1046 85.1233 99.4408 83.7084 99.8458C82.9967 100.037 82.3003 100.268 81.5997 100.488C80.9144 100.73 80.197 100.969 79.5672 101.225C76.8843 102.352 74.3308 103.766 71.951 105.441C69.5845 107.041 67.4586 108.971 65.6375 111.173C63.9369 113.309 62.8413 115.735 63.1933 117.896C63.2326 118.168 63.2933 118.437 63.3749 118.7L63.4929 119.1L63.6653 119.491C63.7766 119.759 63.9099 120.018 64.0638 120.265C64.2058 120.514 64.3632 120.754 64.5349 120.983C65.2639 121.897 66.1989 122.625 67.2635 123.109C69.4985 124.174 72.3576 124.477 75.2106 124.402C78.1443 124.288 81.0601 123.89 83.9171 123.213C84.6411 123.049 85.3643 122.873 86.0808 122.675C86.8031 122.488 87.5107 122.288 88.2299 122.067C89.6759 121.599 91.1377 121.177 92.571 120.672C94.0012 120.161 95.4501 119.697 96.858 119.128L98.9826 118.309C99.6926 118.04 100.382 117.723 101.082 117.432C106.664 115.093 112.037 112.285 117.144 109.038C121.66 106.161 125.872 102.833 129.717 99.107C133.529 95.4163 136.834 91.2352 139.543 86.6737C142.13 82.2513 143.592 77.2622 143.801 72.1435C143.916 69.6794 143.573 67.2154 142.792 64.8759C142.604 64.312 142.377 63.7621 142.112 63.2304L141.725 62.4349L141.254 61.6962C140.923 61.1658 140.559 60.6568 140.164 60.1722C139.77 59.6575 139.39 59.1317 138.949 58.6544C137.273 56.6632 135.398 54.8486 133.354 53.2386C132.352 52.4035 131.264 51.6783 130.193 50.9309L128.525 49.8983C127.976 49.5438 127.382 49.2615 126.813 48.9384C122.162 46.4629 117.139 44.7611 111.942 43.8997C106.707 43.073 101.383 42.9847 96.1236 43.6375C93.5044 43.9507 90.9148 44.4757 88.3804 45.2071C87.1177 45.5638 85.8869 46.0005 84.6745 46.4713C84.0808 46.7303 83.4683 46.9566 82.8919 47.246L82.0156 47.6598L81.2151 48.0877C79.129 49.2617 77.3695 50.9385 76.0966 52.9658C74.8619 54.902 74.3005 57.1915 74.4998 59.4792C74.62 60.5916 74.9371 61.6737 75.4363 62.6749C75.9622 63.703 76.6474 64.6413 77.4666 65.4551C79.2523 67.1653 81.3647 68.4976 83.6774 69.3722C83.9661 69.5012 84.2672 69.6056 84.5682 69.7103C84.8699 69.8135 85.1658 69.93 85.4718 70.0237C86.0878 70.2009 86.6949 70.4021 87.3264 70.5406C88.5859 70.8502 89.8621 71.0871 91.1487 71.2502C93.7664 71.5589 96.4057 71.6434 99.0378 71.5028C104.386 71.1748 109.678 70.2158 114.801 68.6458C119.961 67.1066 124.953 65.0502 129.7 62.508C134.466 59.8794 139.075 56.976 143.503 53.8125C152.474 47.538 161.11 40.5496 170.603 34.5933C171.56 34.0155 172.516 33.4388 173.47 32.8629C174.43 32.2967 175.412 31.7654 176.379 31.2176C177.377 30.6514 178.404 30.1392 179.456 29.683C180.523 29.2112 181.62 28.8113 182.74 28.4861C183.885 28.1434 185.06 27.9108 186.249 27.7916C187.493 27.6522 188.75 27.7014 189.98 27.9375C191.275 28.1699 192.505 28.6784 193.587 29.4286C193.863 29.6079 194.123 29.8111 194.364 30.0357C194.62 30.242 194.859 30.4685 195.078 30.713C195.528 31.1908 195.922 31.7179 196.254 32.2842C196.891 33.382 197.321 34.5875 197.522 35.8406C197.711 37.0189 197.759 38.2155 197.665 39.4052C197.461 41.6566 196.92 43.8646 196.06 45.9553C192.945 53.9494 187.208 60.6486 179.787 64.9552L178.432 65.7014C177.962 65.9425 177.484 66.1664 176.999 66.3733C176.024 66.7873 175.012 67.1057 173.976 67.3241C172.918 67.5532 171.832 67.6208 170.754 67.5248C169.637 67.4264 168.56 67.0564 167.618 66.4471C167.501 66.3684 167.383 66.2929 167.27 66.2105L166.952 65.9358C166.849 65.8426 166.737 65.7549 166.643 65.6564L166.373 65.3544C166.01 64.9557 165.691 64.5185 165.422 64.0506C164.89 63.1192 164.579 62.0787 164.512 61.0085C164.447 59.9804 164.556 58.9487 164.834 57.9568C165.096 56.9945 165.483 56.0707 165.985 55.209C166.472 54.3613 167.044 53.5662 167.694 52.8362C168.344 52.1244 169.069 51.4855 169.857 50.9308C171.388 49.8302 173.117 49.0363 174.949 48.5928C175.717 48.4003 176.513 48.3381 177.302 48.4088C177.961 48.466 178.59 48.7066 179.119 49.1032C180.037 49.8339 180.362 50.8953 180.236 51.462C180.206 51.6401 180.108 51.7995 179.963 51.9073C179.818 52.0151 179.637 52.063 179.458 52.0412C179.199 52.0103 179.122 51.9347 179.173 51.8115C179.208 51.7371 179.256 51.6698 179.315 51.6129C179.332 51.5738 179.354 51.5368 179.379 51.5029C179.37 51.466 179.387 51.4319 179.371 51.4324C179.441 51.4955 179.44 51.4797 179.384 51.4598C179.336 51.4426 179.287 51.4292 179.237 51.4196C179.218 51.4081 179.224 51.417 179.202 51.3895C179.11 51.2167 179.002 51.0522 178.882 50.8979C178.454 50.4188 178.037 50.1576 177.034 50.2004C176.417 50.2548 175.809 50.3914 175.228 50.6065C174.481 50.8662 173.761 51.1982 173.078 51.5978C172.036 52.1919 171.085 52.9315 170.252 53.7942C169.454 54.6421 168.801 55.6151 168.319 56.6745C167.837 57.6642 167.558 58.7401 167.497 59.8391C167.445 60.7669 167.683 61.688 168.18 62.4735C168.252 62.5606 168.321 62.6487 168.388 62.738C168.451 62.8335 168.525 62.9209 168.608 62.9982C168.754 63.161 168.915 63.3097 169.088 63.4426C169.393 63.6847 169.747 63.8579 170.125 63.9506C171.102 64.1655 172.118 64.1362 173.081 63.8651C174.245 63.5692 175.366 63.1207 176.413 62.5312C176.958 62.2227 177.55 61.8598 178.109 61.5139C178.66 61.1372 179.23 60.7912 179.759 60.3816C181.93 58.8091 183.907 56.9842 185.647 54.9453C186.521 53.9278 187.337 52.8621 188.092 51.7533C188.838 50.64 189.52 49.485 190.134 48.294C190.75 47.1075 191.293 45.8847 191.76 44.6323C192.226 43.4375 192.581 42.2025 192.822 40.9429C193.052 39.7885 193.118 38.6074 193.018 37.4345C192.941 36.4629 192.633 35.5236 192.121 34.6945C192.026 34.5454 191.907 34.4213 191.81 34.2767L191.451 33.9064C191.309 33.8021 191.174 33.6934 191.043 33.5783C190.904 33.4751 190.746 33.4068 190.606 33.3093C189.945 32.9674 189.218 32.7703 188.475 32.7311C186.825 32.5939 184.8 33.0748 182.845 33.833C181.843 34.2284 180.866 34.6842 179.919 35.1978C179.451 35.4411 178.928 35.7563 178.422 36.0487L176.896 36.936C175.881 37.5338 174.885 38.1781 173.877 38.7961L170.889 40.7414C162.927 45.9938 155.293 52.0594 147.272 57.7548C147.247 57.8139 147.222 57.8693 147.186 57.937Z" fill="black"/>
</svg>
