<svg width="194" height="195" viewBox="0 0 194 195" fill="none" xmlns="http://www.w3.org/2000/svg">
<path d="M112.404 139.374C111.749 135.939 111.82 132.572 112.222 129.324C112.64 126.074 113.404 122.923 114.44 119.865C115.489 116.808 116.784 113.84 118.56 110.997C119.422 109.603 120.576 108.111 121.873 106.894C123.176 105.671 124.634 104.679 126.144 103.848C126.527 103.652 126.9 103.428 127.292 103.259L128.462 102.736C129.255 102.433 130.047 102.123 130.858 101.894C132.473 101.413 134.115 101.054 135.777 100.876C137.437 100.689 139.111 100.635 140.789 100.729L142.048 100.839C142.467 100.88 142.874 100.957 143.287 101.015C143.698 101.082 144.111 101.132 144.519 101.216L145.743 101.496C146.563 101.658 147.356 101.954 148.159 102.193C148.562 102.309 148.946 102.491 149.339 102.638C149.728 102.799 150.127 102.937 150.506 103.121C151.259 103.501 152.037 103.831 152.752 104.282L153.84 104.926L154.88 105.646L155.398 106.007L155.891 106.402L156.871 107.196C157.185 107.475 157.488 107.766 157.795 108.051C158.104 108.335 158.41 108.622 158.688 108.935L159.543 109.853C159.82 110.165 160.075 110.495 160.341 110.816C160.886 111.45 161.343 112.143 161.83 112.815C162.794 114.282 163.693 115.793 164.407 117.383L164.687 117.973C164.775 118.172 164.854 118.374 164.938 118.575L165.433 119.781L165.865 121.006L166.08 121.62L166.265 122.241L166.633 123.484L166.94 124.741L167.093 125.37L167.217 126.004L167.463 127.271C167.725 128.97 167.954 130.676 168.019 132.392C168.213 135.819 167.959 139.259 167.356 142.64C167.022 144.325 166.642 146.006 166.094 147.645C165.854 148.473 165.522 149.275 165.229 150.088L164.207 152.445C163.211 154.499 162.102 156.496 160.822 158.379C159.526 160.245 158.152 162.064 156.597 163.715L156.026 164.345L155.426 164.947C155.023 165.345 154.631 165.755 154.219 166.143C153.378 166.9 152.557 167.681 151.667 168.381C150.806 169.116 149.889 169.777 148.98 170.45C148.526 170.787 148.045 171.085 147.578 171.403C147.109 171.719 146.641 172.035 146.151 172.317L144.696 173.188L143.203 173.99C142.953 174.122 142.706 174.26 142.453 174.386L141.687 174.749C141.174 174.987 140.669 175.241 140.149 175.464C139.101 175.893 138.07 176.348 136.994 176.721C135.919 177.102 134.815 177.447 133.675 177.727C132.535 178.006 131.361 178.224 130.156 178.343C129.856 178.375 129.552 178.394 129.249 178.416L128.334 178.435C127.722 178.463 127.115 178.418 126.508 178.383C124.077 178.217 121.708 177.617 119.5 176.71C115.073 174.893 111.249 171.925 108.281 168.264C106.799 166.434 105.54 164.473 104.469 162.421C103.406 160.368 102.533 158.238 101.815 156.077C100.378 151.75 99.5566 147.304 99.0866 142.888C98.6011 138.462 98.4677 134.014 98.6139 129.592C98.908 120.742 100.304 112.025 102.203 103.508C104.104 94.9811 106.535 86.6464 108.934 78.3792C111.335 70.1112 113.716 61.8928 115.558 53.6065C116.482 49.4703 117.259 45.2954 117.856 41.1486C118.424 37.0403 118.61 33.0872 117.601 29.5444C116.989 27.3482 115.975 25.2251 114.679 23.8406C114.029 23.1616 113.341 22.7122 112.648 22.4801L112.519 22.4291L112.353 22.3877C112.242 22.3622 112.13 22.3256 112.02 22.3057C111.801 22.2651 111.583 22.2236 111.37 22.2075C110.943 22.168 110.531 22.1734 110.125 22.2294C109.32 22.3585 108.521 22.6687 107.727 23.2082C106.933 23.7376 106.162 24.4711 105.445 25.3174C104.01 27.0283 102.795 29.156 101.754 31.397C99.6742 35.9098 98.199 40.8788 96.9882 45.9022C96.3851 48.4215 95.8605 50.9639 95.3798 53.5381C94.895 56.1414 94.3952 58.7818 93.8582 61.4022C91.7186 71.8932 88.9703 82.4132 84.8151 92.4785C82.7665 97.4113 80.648 102.382 78.0063 107.222C75.3552 112.038 72.165 116.744 67.9779 120.703L66.3608 122.137C65.8003 122.593 65.2211 123.029 64.6504 123.474C64.3723 123.701 64.0562 123.903 63.7519 124.112C63.4443 124.317 63.142 124.532 62.8289 124.728L61.8767 125.294L61.3991 125.574L60.9079 125.829C58.2973 127.201 55.4933 128.217 52.5485 128.721C51.0849 129.007 49.575 129.095 48.0651 129.125L46.9257 129.081L46.3561 129.055C46.1661 129.041 45.9758 129.014 45.7857 128.993L44.6454 128.856C44.2663 128.795 43.8887 128.71 43.5106 128.636C40.4835 128.04 37.5585 126.627 35.119 124.709C33.9227 123.725 32.7879 122.658 31.8408 121.463L31.4742 121.022C31.3564 120.873 31.249 120.717 31.1362 120.565L30.4703 119.643L29.8679 118.688L29.5694 118.21L29.3006 117.718L28.7675 116.733L28.293 115.726C28.1292 115.392 27.9847 115.052 27.8508 114.709L27.439 113.682C27.2088 112.986 26.9377 112.299 26.7509 111.593L26.4486 110.54L26.1963 109.477C24.9259 103.799 24.9358 97.8968 26.5032 92.1889C26.8798 90.7614 27.424 89.3646 28.0291 87.9931C28.3649 87.3178 28.6762 86.6331 29.074 85.9832C29.2696 85.6574 29.4414 85.3202 29.6591 85.0055L30.3 84.056C31.202 82.8211 32.1924 81.6272 33.3535 80.5979C33.8995 80.0706 34.5511 79.5503 35.201 79.0919C35.8602 78.6386 36.5381 78.2156 37.2436 77.858C40.056 76.4004 43.1593 75.6749 46.3009 75.6872C49.4302 75.698 52.6791 76.5004 55.4832 78.3541C56.8819 79.2724 58.1275 80.4732 59.1264 81.8464C60.106 83.2062 60.8332 84.7268 61.3218 86.2797C61.8167 87.8354 62.0509 89.4224 62.1213 90.9772C62.1893 92.534 62.0883 94.0646 61.8604 95.5528C61.3917 98.5282 60.455 101.344 59.1732 103.989C58.5292 105.311 57.7872 106.587 56.9461 107.814C56.5302 108.43 56.0733 109.025 55.6005 109.612C55.3567 109.902 55.1135 110.192 54.8568 110.476C54.5944 110.758 54.3486 111.034 54.039 111.329C52.6076 112.719 50.9295 113.849 48.9852 114.58C47.0567 115.304 44.7887 115.604 42.5575 115.089C40.3407 114.584 38.4693 113.375 37.032 111.973C35.5858 110.559 34.5057 108.942 33.6766 107.253C32.8546 105.558 32.2773 103.779 31.9468 101.932C31.6249 100.085 31.533 98.1617 31.8886 96.1629C32.0669 95.1764 32.3854 94.1218 32.849 93.1865C33.3093 92.2491 33.8649 91.3736 34.5374 90.6038C35.2085 89.8337 35.9629 89.1404 36.808 88.5537C37.6611 87.9766 38.5976 87.5006 39.6087 87.1684C40.579 86.8511 41.6087 86.713 42.619 86.7222C43.6394 86.7433 44.5996 86.9466 45.6072 87.338C45.8395 87.4489 46.0669 87.5667 46.2913 87.6855C46.4026 87.746 46.5165 87.8034 46.6226 87.8684L46.9249 88.0796C47.1231 88.2226 47.3244 88.3625 47.5096 88.5132C47.6818 88.6743 47.8531 88.8345 48.0233 88.9938C48.1978 89.1509 48.3465 89.3225 48.4877 89.4978C48.6292 89.6725 48.7699 89.8461 48.9098 90.0188C49.1434 90.3891 49.4051 90.7392 49.584 91.1234C50.3531 92.6298 50.7111 94.2427 50.5578 95.8443C50.4635 96.6428 50.2858 97.4325 49.9213 98.1491C49.8331 98.3284 49.7473 98.5062 49.652 98.6769C49.5404 98.8411 49.4269 99.0024 49.312 99.1599C49.0964 99.4869 48.8203 99.751 48.5472 100.007C48.0127 100.531 47.346 100.91 46.718 101.153C46.0799 101.4 45.4374 101.521 44.8119 101.544C43.5679 101.588 42.3523 101.252 41.4284 100.532C40.9647 100.169 40.5994 99.7709 40.3208 99.2572C40.0425 98.7573 39.9071 98.232 39.8835 97.7516C39.8188 96.7831 40.1123 95.9745 40.5129 95.3467C41.1139 94.4252 41.9315 94.0695 42.4417 94.0662C42.5738 94.0692 42.6857 94.08 42.7793 94.0961C42.8732 94.1136 42.9536 94.1574 43.015 94.1903C43.1391 94.2623 43.1987 94.341 43.2139 94.4249C43.2458 94.6006 43.0945 94.7686 42.9285 94.985C42.7607 95.201 42.591 95.4841 42.4767 95.9214C42.4226 96.1419 42.3965 96.4088 42.4171 96.679C42.4367 96.9482 42.5212 97.2242 42.649 97.3932C42.7048 97.4846 42.7864 97.5296 42.8451 97.5711C42.943 97.6309 43.0484 97.7012 43.1757 97.7391C43.4162 97.8326 43.7509 97.8678 44.1333 97.8215C44.3253 97.7876 44.5227 97.7402 44.7151 97.6652C44.9046 97.5838 45.0842 97.4829 45.2391 97.3678C45.3101 97.3042 45.3837 97.2469 45.4393 97.1801C45.5038 97.1224 45.5489 97.0167 45.6141 96.9483C45.6903 96.8826 45.7107 96.777 45.7608 96.6946C45.78 96.6489 45.8187 96.6169 45.8284 96.5633C45.8407 96.5118 45.855 96.4617 45.8716 96.4127C45.9959 96.0186 46.0261 95.4948 45.8997 94.9064C45.7764 94.3223 45.4947 93.6914 45.0909 93.1689C45.0349 93.0783 44.9644 93.0039 44.8918 92.933C44.8204 92.8614 44.7568 92.7795 44.6851 92.711C44.5281 92.5995 44.3952 92.4437 44.2329 92.367C44.1543 92.3248 44.0852 92.2548 44.0047 92.2264C43.9253 92.1957 43.8485 92.1615 43.7734 92.1229C43.7007 92.0715 43.6167 92.0819 43.5423 92.0521C43.4609 92.0346 43.4055 91.9927 43.2946 91.9901C42.9045 91.91 42.4984 91.9326 42.0848 91.9732C41.669 92.0518 41.2432 92.1719 40.821 92.3683C39.9844 92.7721 39.165 93.4143 38.554 94.2234C38.2355 94.6174 37.9808 95.057 37.775 95.5027L37.6262 95.839L37.5145 96.1812C37.4708 96.2912 37.4423 96.4136 37.4129 96.5358C37.3788 96.6547 37.3542 96.7814 37.3318 96.9103C36.5763 101.112 38.9195 106.978 42.3591 108.956C43.3451 109.523 44.3073 109.737 45.4118 109.626C46.5079 109.517 47.6782 109.064 48.7317 108.372C49.2581 108.025 49.7551 107.618 50.205 107.171C50.6761 106.695 51.1587 106.156 51.5956 105.595C52.4767 104.465 53.2674 103.227 53.9379 101.922C55.2862 99.3179 56.2093 96.4553 56.5015 93.6174C56.8005 90.7865 56.4079 87.9687 55.0897 85.7751C53.8246 83.5732 51.5879 82.1032 48.9724 81.5191C46.3659 80.9353 43.4709 81.2012 40.9374 82.2258C39.6641 82.7267 38.4925 83.4368 37.4742 84.2881C36.4245 85.1995 35.4835 86.2499 34.6733 87.4094C34.4808 87.7076 34.2653 87.9883 34.0884 88.2986L33.5527 89.2262C33.2331 89.87 32.9071 90.5107 32.6454 91.1894C32.1046 92.5348 31.6774 93.9427 31.3799 95.3912C30.8015 98.2909 30.6532 101.321 30.9509 104.301C31.2253 107.279 31.9621 110.21 33.1125 112.903C34.2933 115.572 35.9095 118.02 38.0217 119.818L38.4126 120.16C38.5437 120.273 38.6889 120.366 38.8258 120.47C39.1087 120.664 39.3679 120.897 39.6668 121.065L40.5426 121.601L41.4599 122.051C42.7031 122.61 44.0222 123.013 45.3917 123.236C46.7664 123.435 48.1758 123.474 49.5888 123.367C51.0035 123.256 52.4133 122.959 53.795 122.565C55.182 122.177 56.5183 121.598 57.8092 120.952C59.1097 120.302 60.3096 119.522 61.4684 118.622C66.162 115.022 69.7735 109.986 72.7119 104.531C74.3327 101.507 75.7834 98.3113 77.1696 95.0381C77.8579 93.4052 78.5496 91.7321 79.2079 90.0815C79.861 88.4448 80.4887 86.7969 81.073 85.134C83.4311 78.4896 85.2638 71.689 86.8549 65.0341C87.4899 62.3765 88.0765 59.6988 88.6345 57.0083L89.4505 52.9606C89.719 51.5904 89.9998 50.2085 90.2987 48.8309C91.5044 43.3184 92.9486 37.8192 95.0492 32.431C96.113 29.7416 97.3362 27.0736 98.9594 24.5133C99.7723 23.2355 100.691 21.984 101.792 20.8145C102.884 19.6457 104.193 18.5572 105.755 17.7305C107.315 16.9049 109.18 16.4285 111.009 16.4648C111.924 16.4726 112.816 16.6163 113.663 16.8298C114.073 16.9193 114.541 17.0965 114.987 17.2603C115.216 17.3355 115.42 17.452 115.634 17.5542C115.844 17.6614 116.059 17.7639 116.261 17.8805C117.873 18.8393 119.109 20.1389 120.073 21.4912C121.033 22.8536 121.735 24.2915 122.303 25.7521C123.439 28.6534 123.946 31.8199 123.965 34.8317C123.998 37.8557 123.631 40.763 123.2 43.5606C122.323 49.1514 121.151 54.672 119.786 60.1131C117.056 71.0003 113.644 81.5918 110.644 92.1925C108.413 100.065 106.441 107.992 105.177 116.013C103.915 124.025 103.36 132.138 103.987 140.148L104.104 141.649L104.277 143.143L104.448 144.637L104.664 146.119C104.976 148.089 105.373 150.036 105.879 151.94C106.894 155.744 108.335 159.406 110.404 162.623C111.438 164.239 112.601 165.721 113.93 167.052C115.256 168.385 116.731 169.567 118.316 170.55C121.484 172.508 125.12 173.628 128.706 173.51C131.902 173.421 135.224 172.312 138.434 170.931C141.623 169.524 144.654 167.748 147.447 165.651C150.249 163.565 152.763 161.102 154.971 158.405C155.542 157.745 156.034 157.025 156.558 156.328C156.827 155.984 157.05 155.61 157.294 155.249L158.01 154.157C158.897 152.661 159.751 151.14 160.436 149.543C161.178 147.963 161.717 146.338 162.186 144.667C162.657 143 162.976 141.284 163.196 139.557C163.428 137.83 163.516 136.082 163.502 134.337C163.501 132.59 163.358 130.846 163.111 129.121C162.878 127.393 162.499 125.689 162.011 124.025C161.782 123.187 161.482 122.376 161.195 121.559C160.866 120.762 160.561 119.952 160.172 119.185C159.82 118.398 159.386 117.659 158.973 116.908L158.292 115.822C158.072 115.455 157.803 115.126 157.562 114.774C156.552 113.409 155.449 112.109 154.177 111.005C152.914 109.894 151.55 108.901 150.077 108.098C148.594 107.316 147.036 106.674 145.411 106.22C145.006 106.104 144.589 106.028 144.178 105.928L143.56 105.785L142.931 105.69L141.672 105.501L140.416 105.398C138.732 105.308 137.026 105.4 135.351 105.667C132.009 106.207 128.753 107.439 126.164 109.442C125.519 109.943 124.919 110.49 124.375 111.082C123.836 111.677 123.353 112.302 122.877 113.022C121.948 114.449 121.125 115.996 120.416 117.604C118.995 120.819 117.93 124.236 117.302 127.703C116.989 129.436 116.786 131.184 116.725 132.921C116.666 134.657 116.744 136.387 117.043 138.046C117.616 141.365 119.083 144.41 121.722 146.169C124.348 147.991 127.78 148.845 131.118 148.812C132.455 148.792 133.779 148.623 135.036 148.301C136.305 147.974 137.451 147.508 138.443 146.817C140.432 145.443 141.746 143.204 142.32 140.71C142.91 138.217 142.888 135.527 142.418 132.956C141.946 130.384 141.047 127.887 139.713 125.741C139.031 124.681 138.26 123.698 137.348 122.994C136.444 122.273 135.4 121.843 134.301 121.799C133.202 121.746 132.061 122.078 131.013 122.643C129.958 123.205 128.999 123.997 128.141 124.883C127.287 125.777 126.529 126.774 125.891 127.838C125.247 128.911 124.676 130.018 124.353 131.179C124.029 132.334 123.985 133.572 124.362 134.708C124.553 135.268 124.843 135.807 125.256 136.236C125.666 136.669 126.186 137.009 126.762 137.205C127.817 137.575 128.929 137.388 129.632 136.827C130.348 136.285 130.721 135.574 130.894 134.969C131.066 134.355 131.025 133.836 131.013 133.512C130.985 133.187 131.026 133.039 131.175 133.098C131.318 133.162 131.618 133.454 131.813 134.078C132.01 134.693 132.058 135.632 131.629 136.652C131.412 137.158 131.083 137.692 130.558 138.175C130.291 138.412 129.987 138.647 129.614 138.829C129.247 139.019 128.877 139.142 128.467 139.229C127.654 139.398 126.771 139.353 125.923 139.092C125.074 138.833 124.247 138.364 123.521 137.641C122.51 136.606 121.955 135.327 121.718 134.071C121.474 132.82 121.556 131.527 121.813 130.387C122.069 129.237 122.483 128.202 122.925 127.256C123.362 126.323 123.891 125.361 124.488 124.474C125.086 123.577 125.769 122.723 126.546 121.925C127.323 121.128 128.196 120.384 129.211 119.755C130.216 119.123 131.379 118.612 132.672 118.348C133.963 118.093 135.393 118.117 136.704 118.508C138.026 118.879 139.189 119.562 140.149 120.349C141.119 121.138 141.899 122.033 142.573 122.93C143.255 123.835 143.832 124.787 144.335 125.764C144.841 126.741 145.279 127.743 145.638 128.769C146.369 130.816 146.845 132.944 147.043 135.129C147.242 137.31 147.163 139.558 146.666 141.809C146.269 143.654 145.529 145.513 144.411 147.209C143.269 148.886 141.719 150.383 139.912 151.37C138.085 152.388 136.239 152.908 134.388 153.225C132.534 153.529 130.675 153.582 128.832 153.422C126.989 153.259 125.158 152.882 123.374 152.249C121.595 151.615 119.854 150.721 118.282 149.475C117.892 149.159 117.5 148.85 117.146 148.475L116.606 147.933C116.424 147.753 116.275 147.548 116.109 147.356C115.95 147.159 115.784 146.966 115.633 146.764L115.204 146.145C114.907 145.737 114.679 145.299 114.429 144.87C113.475 143.133 112.887 141.297 112.514 139.486C112.478 139.452 112.444 139.419 112.404 139.374Z" fill="black"/>
</svg>
