<svg width="230" height="228" viewBox="0 0 230 228" fill="none" xmlns="http://www.w3.org/2000/svg">
<path d="M110.607 174.539C113.952 172.222 117.225 169.721 120.526 167.168C123.828 164.61 127.177 162.046 130.538 159.535C137.265 154.502 144.087 149.597 151.002 144.82C154.459 142.432 157.938 140.076 161.44 137.752L164.076 136.013C164.985 135.419 165.94 134.817 166.973 134.254C168.053 133.654 169.186 133.151 170.357 132.752C171.674 132.308 173.056 132.082 174.447 132.081C175.189 132.086 175.929 132.17 176.653 132.331C177.411 132.497 178.144 132.757 178.836 133.104C180.219 133.798 181.407 134.819 182.298 136.077C183.117 137.235 183.712 138.534 184.054 139.908C184.378 141.199 184.514 142.529 184.457 143.858C184.404 145.172 184.169 146.473 183.758 147.723C183.341 149.012 182.72 150.227 181.917 151.323C181.721 151.606 181.485 151.87 181.262 152.139C181.028 152.39 180.771 152.675 180.535 152.883C180.07 153.322 179.578 153.733 179.063 154.113C178.051 154.868 176.958 155.509 175.804 156.024C174.619 156.546 173.39 156.963 172.131 157.271C170.915 157.554 169.681 157.757 168.438 157.881C166.044 158.097 163.636 158.1 161.241 157.889C156.647 157.486 152.092 156.733 147.614 155.637C138.699 153.483 130.192 150.232 121.967 146.695C110.979 141.98 100.387 136.703 89.513 132.423C86.7939 131.362 84.0616 130.355 81.31 129.432C78.554 128.528 75.782 127.695 72.9878 126.981C72.2892 126.803 71.587 126.646 70.8868 126.478L69.854 126.236C69.5604 126.174 69.2592 126.122 68.9549 126.076C67.7147 125.901 66.4582 125.869 65.2105 125.98C64.0363 126.066 62.8822 126.329 61.7881 126.761C61.3495 126.936 60.9373 127.17 60.563 127.457C60.3075 127.649 60.0951 127.893 59.939 128.171C59.8154 128.406 59.7567 128.67 59.7688 128.936C59.7727 129.114 59.7907 129.293 59.8225 129.469C59.8577 129.645 59.9082 129.818 59.9734 129.985C60.297 130.724 60.8595 131.336 61.5724 131.724C61.669 131.773 61.7615 131.829 61.8615 131.871L62.0096 131.939L62.235 132.022L63.161 132.361L64.0863 132.702L65.0405 132.957L65.993 133.217C66.313 133.295 66.6429 133.337 66.9669 133.4C67.6155 133.537 68.2719 133.635 68.9324 133.693C74.2319 134.276 79.7819 133.276 85.1694 131.54C90.577 129.814 95.8803 127.405 101.252 124.952C106.6 122.502 111.898 119.948 117.145 117.29C127.649 111.983 137.933 106.281 147.997 100.183C153.082 97.1381 158.329 94.035 164.092 91.6262C167.01 90.4002 170.032 89.4311 173.122 88.7303C176.286 88.0368 179.521 87.7218 182.76 87.7918C184.401 87.8345 186.037 87.9873 187.657 88.2491C189.299 88.5234 190.917 88.9233 192.497 89.4453L193.683 89.8713C194.077 90.0172 194.462 90.1954 194.851 90.3576C195.242 90.5162 195.624 90.6989 196.001 90.894L196.569 91.1798L196.853 91.3233C196.954 91.376 197.119 91.4779 197.247 91.5559C198.349 92.2287 199.271 93.1555 199.934 94.2574C200.586 95.3552 200.969 96.5894 201.052 97.8606C201.138 99.1497 200.899 100.44 200.357 101.614C200.227 101.91 200.074 102.195 199.9 102.467C199.819 102.597 199.721 102.758 199.65 102.858L199.443 103.141C199.173 103.524 198.876 103.877 198.579 104.232C197.386 105.592 196.002 106.774 194.469 107.742C192.975 108.689 191.368 109.446 189.684 109.994C188.848 110.272 187.994 110.494 187.129 110.658C186.708 110.739 186.286 110.822 185.864 110.875C185.443 110.938 185.021 110.996 184.601 111.031C181.349 111.303 178.076 111.164 174.86 110.616C173.309 110.377 171.794 110.087 170.312 109.781C168.83 109.477 167.381 109.142 165.914 108.825C160.068 107.517 154.245 106.099 148.477 104.481C134.254 100.539 120.301 95.6982 106.703 89.9868C99.9059 87.1301 93.2059 84.0592 86.6027 80.7742C79.9787 77.504 73.6257 73.9952 67.1401 71.1175C63.9462 69.6725 60.6661 68.4226 57.3182 67.3748C56.4868 67.143 55.6592 66.8836 54.8254 66.6718C53.9892 66.479 53.1587 66.2369 52.3186 66.0813C51.4793 65.9222 50.6435 65.7214 49.8002 65.6129C48.9579 65.4845 48.1069 65.3439 47.3177 65.2717C45.7617 65.1131 44.1927 65.1254 42.6395 65.3086C41.926 65.3955 41.221 65.5405 40.5316 65.7422C39.9093 65.931 39.3077 66.1813 38.7358 66.4893C38.2308 66.7783 37.7665 67.132 37.355 67.5415C37.2533 67.6376 37.1601 67.7422 37.0765 67.8541C36.9807 67.9529 36.8951 68.0609 36.8211 68.1766C36.7536 68.2899 36.6829 68.4008 36.6091 68.5095L36.4954 68.6716L36.4185 68.8529C35.9407 69.8826 35.7738 71.0274 35.9379 72.1491C36.3713 74.813 37.8474 77.1999 40.0455 78.7914C41.2093 79.5858 42.503 80.1744 43.8694 80.5313C45.362 80.9222 46.8963 81.1352 48.4398 81.1658C51.8043 81.18 55.1574 80.7782 58.4215 79.9696C60.1373 79.5452 61.8649 79.1781 63.5643 78.6743C64.4158 78.431 65.2733 78.2137 66.1202 77.95L68.6589 77.152C82.1875 72.7552 95.0065 66.0778 107.739 59.0893C114.112 55.5969 120.493 52.0182 126.993 48.5831C130.257 46.8844 133.527 45.1866 136.869 43.5932C138.525 42.7741 140.223 42.0191 141.901 41.2339C143.606 40.4936 145.289 39.7142 147.019 39.0197C150.445 37.5656 153.96 36.2794 157.506 35.0771C159.293 34.5084 161.072 33.9192 162.89 33.4319C164.69 32.8943 166.527 32.4683 168.356 32.0196C169.269 31.7921 170.201 31.6294 171.123 31.4319C172.048 31.2449 172.968 31.0397 173.905 30.9029L176.703 30.4461C177.652 30.2986 178.686 30.1875 179.681 30.116C181.724 29.9633 183.777 30.0139 185.809 30.2671C187.989 30.5212 190.112 31.1317 192.09 32.0737C193.169 32.5995 194.172 33.2643 195.075 34.0508L195.763 34.6731L196.382 35.3863C196.795 35.8652 197.16 36.3821 197.473 36.9299L197.719 37.3343L197.915 37.7601L198.291 38.6182C198.413 38.9064 198.512 39.2037 198.586 39.5074L198.831 40.4141C198.942 41.0343 199.019 41.6602 199.06 42.2888L199.044 43.2288C199.046 43.5395 199.021 43.8498 198.968 44.1562C198.629 46.4642 197.732 48.6567 196.353 50.5466C195.119 52.2637 193.646 53.7993 191.979 55.108C190.376 56.3816 188.635 57.4742 186.788 58.3655L184.14 59.5687C183.252 59.955 182.333 60.2645 181.431 60.6137C177.796 61.9014 174.043 62.833 170.224 63.3953C161.038 64.7429 151.68 63.9495 142.835 61.7607C138.429 60.6605 134.116 59.2208 129.935 57.4546C125.821 55.7185 121.812 53.7491 117.926 51.5562C111.822 48.0952 105.99 44.1816 100.481 39.8488C96.0392 36.366 92.7635 33.4582 90.3337 31.1375C86.8051 27.7489 87.1905 27.2879 90.8411 29.3946C92.6701 30.4411 95.31 32.1384 98.7213 34.3612C102.136 36.5783 106.306 39.3495 111.286 42.3854C117.73 46.385 124.498 49.8474 131.52 52.7369C138.589 55.6069 146.026 57.4911 153.618 58.3355C157.885 58.7912 162.187 58.819 166.46 58.4185C170.698 58.0196 174.87 57.1035 178.882 55.6909C179.864 55.3015 180.859 54.9431 181.83 54.5331C182.777 54.0828 183.758 53.6485 184.678 53.1901C186.442 52.2722 188.071 51.1174 189.518 49.7585C190.899 48.5164 191.998 46.9963 192.739 45.2999C192.895 44.9162 193.023 44.5221 193.123 44.1203L193.21 43.5369C193.223 43.4401 193.247 43.3428 193.254 43.2468L193.252 42.9606C193.277 42.1991 193.144 41.4407 192.861 40.7324C192.72 40.377 192.542 40.0372 192.329 39.7188C192.126 39.397 191.891 39.0961 191.627 38.8204C191.499 38.6772 191.33 38.5624 191.188 38.4283L190.967 38.2305C190.89 38.1677 190.797 38.1165 190.713 38.0582L190.202 37.711L189.629 37.4146C189.533 37.3656 189.442 37.3105 189.342 37.2652L189.03 37.1415L188.406 36.8907L187.742 36.6882L187.41 36.5858L187.061 36.5082C186.114 36.2864 185.151 36.1381 184.181 36.0646C182.157 35.9129 180.123 35.9798 178.113 36.2642C176.001 36.6023 173.847 36.9391 171.738 37.413C167.492 38.3227 163.303 39.4778 159.193 40.8725C155.074 42.2796 151.016 43.8902 147.011 45.6476C130.982 52.7235 115.92 62.0727 100.1 70.3982C92.1727 74.6642 83.9805 78.4277 75.5728 81.666C71.3081 83.2559 66.9637 84.6272 62.5568 85.7745C58.1752 86.9145 53.539 87.9166 48.5826 87.8882C45.7387 87.8946 42.9146 87.4178 40.2332 86.4782L39.204 86.0819L38.1973 85.6141C37.8474 85.448 37.5067 85.2635 37.1767 85.0615C36.8313 84.8729 36.4979 84.6634 36.1785 84.4343L35.2319 83.7462L34.3598 82.9842C34.0708 82.7305 33.797 82.4602 33.5399 82.1748C33.2823 81.8917 32.9993 81.6276 32.7719 81.3208C31.7903 80.1398 30.9668 78.838 30.3219 77.4477C29.6626 76.0133 29.2196 74.4906 29.0069 72.9285C28.783 71.2675 28.8858 69.5792 29.3098 67.957C29.4357 67.543 29.5343 67.1214 29.7008 66.7191C29.8739 66.3182 30.0538 65.9198 30.2405 65.5238C30.4334 65.1326 30.6892 64.7748 30.9203 64.4039C31.041 64.2226 31.1564 64.0338 31.2857 63.8616L31.6934 63.3673C32.7807 62.0809 34.1079 61.0143 35.6025 60.226C36.9897 59.4986 38.4726 58.967 40.0081 58.6464C42.801 58.0933 45.6654 57.989 48.4916 58.3374C49.1842 58.404 49.811 58.5162 50.4609 58.6125C51.1049 58.717 51.7547 58.7974 52.3866 58.9385L54.2893 59.3261C54.9172 59.4709 55.5377 59.6337 56.1603 59.7875C58.6043 60.4193 61.0106 61.1869 63.3676 62.0867C70.8007 64.8835 77.6331 68.571 84.3685 72.0839C91.0821 75.5966 97.8554 78.9005 104.78 81.9546C118.63 88.0726 132.886 93.2442 147.448 97.4332C154.729 99.5294 162.077 101.38 169.491 102.986C173.202 103.801 176.815 104.547 180.296 104.702C181.989 104.793 183.688 104.705 185.363 104.438C186.154 104.308 186.934 104.118 187.696 103.87C188.449 103.623 189.181 103.318 189.885 102.956C191.266 102.261 192.508 101.323 193.551 100.188C193.797 99.9168 194.028 99.632 194.242 99.3351C194.384 99.1573 194.378 99.1238 194.434 99.0542C194.469 98.9859 194.5 98.9153 194.525 98.8429C194.581 98.6967 194.61 98.5414 194.611 98.3847C194.619 98.2193 194.597 98.0538 194.547 97.8958C194.506 97.7344 194.435 97.5818 194.338 97.4455C194.253 97.3083 194.142 97.1882 194.012 97.0914C193.949 97.0398 193.883 96.9933 193.812 96.9524C193.778 96.9299 193.743 96.9105 193.705 96.8943L193.566 96.8246L193.289 96.6845C192.921 96.4936 192.55 96.306 192.161 96.1507C190.61 95.4789 188.99 94.9758 187.33 94.6502C183.904 93.9993 180.392 93.9259 176.941 94.4331C175.19 94.6794 173.459 95.0521 171.762 95.5483C170.03 96.0481 168.325 96.6379 166.655 97.3153C161.645 99.3454 156.824 102.086 151.967 104.954C147.107 107.847 142.139 110.726 137.15 113.483C127.158 119.011 116.967 124.179 106.576 128.986C103.982 130.19 101.376 131.36 98.756 132.517C96.1264 133.678 93.4435 134.792 90.694 135.798C87.9208 136.827 85.0877 137.69 82.2102 138.382C79.2619 139.095 76.2472 139.504 73.2141 139.602C70.1054 139.704 66.9978 139.369 63.9837 138.608L62.8514 138.296L62.2856 138.139L61.7343 137.936L60.6336 137.526L60.0839 137.319L59.8093 137.215C59.7213 137.184 59.5931 137.12 59.4873 137.073C57.6596 136.244 56.1406 134.867 55.1445 133.137C54.6376 132.236 54.2978 131.252 54.1412 130.233C53.9661 129.17 54.0157 128.082 54.2871 127.039C54.5804 125.957 55.1205 124.955 55.8656 124.112C56.5362 123.359 57.3285 122.722 58.21 122.227C59.7441 121.388 61.4171 120.827 63.15 120.572C64.7592 120.314 66.3928 120.24 68.019 120.35C68.745 120.396 69.4679 120.481 70.1847 120.604C70.5416 120.66 70.9193 120.742 71.2622 120.817L72.2098 121.047L74.105 121.506L75.9837 122.015C78.4887 122.693 80.9548 123.476 83.4001 124.302C88.2802 125.978 93.0555 127.879 97.741 129.911C107.12 133.964 116.197 138.454 125.42 142.411C130.031 144.384 134.673 146.244 139.392 147.809C141.746 148.616 144.128 149.302 146.516 149.959C148.913 150.571 151.317 151.153 153.745 151.579C156.166 152.046 158.613 152.351 161.052 152.604C163.414 152.846 165.794 152.85 168.156 152.617C169.286 152.505 170.404 152.292 171.496 151.983C172.545 151.695 173.556 151.289 174.512 150.773C175.42 150.266 176.258 149.644 177.005 148.922C177.667 148.241 178.182 147.434 178.518 146.548C179.251 144.687 179.324 142.635 178.726 140.727C178.465 139.883 177.996 139.117 177.362 138.498C176.765 137.941 176.009 137.58 175.198 137.465C173.501 137.175 171.456 137.852 169.444 138.993C168.431 139.552 167.431 140.21 166.377 140.91L163.232 143.004C154.859 148.61 146.619 154.407 138.512 160.393C134.46 163.385 130.442 166.423 126.459 169.507C122.473 172.587 118.487 175.748 114.285 178.696C112.198 180.185 110.024 181.584 107.811 182.927C105.572 184.262 103.265 185.48 100.898 186.575C98.4921 187.653 96.0105 188.556 93.4727 189.278C92.8389 189.468 92.1841 189.593 91.5408 189.753L90.5715 189.98C90.2466 190.048 89.9163 190.094 89.5889 190.152L87.6176 190.476C86.9243 190.571 86.2265 190.63 85.527 190.653C84.2949 190.712 83.0617 190.561 81.8811 190.206C80.5993 189.806 79.4427 189.086 78.5224 188.116C77.6381 187.173 76.9798 186.045 76.5965 184.816C76.2224 183.618 76.1033 182.357 76.2465 181.112C76.3823 179.899 76.7417 178.72 77.3067 177.636C77.8593 176.597 78.5665 175.648 79.4045 174.818C81.031 173.256 83.0094 172.099 85.1761 171.445C86.1955 171.115 87.2409 170.869 88.3014 170.711C89.3347 170.549 90.3787 170.462 91.4248 170.452C93.4683 170.388 95.513 170.528 97.5279 170.872L99.0151 171.158C99.5119 171.246 99.99 171.399 100.477 171.516C101.454 171.745 102.39 172.08 103.333 172.381C105.175 173.036 106.973 173.805 108.717 174.684C112.082 176.406 115.319 178.362 118.403 180.538C121.452 182.634 124.359 184.807 127.248 186.905C133.01 191.105 138.746 195.056 145.032 197.627C147.917 198.809 150.154 199.402 151.569 199.876C152.996 200.291 153.608 200.622 153.349 200.834C153.022 200.989 152.662 201.065 152.3 201.055C152.013 201.075 151.671 201.086 151.272 201.088C150.872 201.09 150.425 201.037 149.917 200.993C147.006 200.673 144.155 199.942 141.452 198.823C136.443 196.86 131.827 194.132 127.368 191.3C122.907 188.458 118.602 185.459 114.189 182.785C109.787 180.115 105.252 177.755 100.547 176.472C98.2364 175.824 95.852 175.47 93.4512 175.419C93.1549 175.417 92.8583 175.389 92.5626 175.406L91.6755 175.449L90.7899 175.49C90.5079 175.523 90.2228 175.543 89.9435 175.583C88.8496 175.724 87.7731 175.974 86.7308 176.332C85.2076 176.816 83.8452 177.7 82.7882 178.89C82.347 179.417 82.0018 180.016 81.7682 180.66C81.566 181.246 81.4931 181.868 81.5542 182.484C81.6067 183.037 81.7937 183.57 82.0992 184.036C82.2462 184.246 82.4146 184.441 82.6016 184.617C82.7749 184.76 82.9639 184.883 83.165 184.983C83.7457 185.215 84.3688 185.325 84.9945 185.305C85.9238 185.297 86.8504 185.203 87.7616 185.022L89.2709 184.769C89.7714 184.665 90.2686 184.535 90.7681 184.421C91.7718 184.217 92.7513 183.876 93.7415 183.59C94.2375 183.45 94.7189 183.244 95.2089 183.075C95.6946 182.889 96.19 182.74 96.6685 182.526C97.6287 182.11 98.6011 181.734 99.543 181.255C100.017 181.025 100.494 180.805 100.965 180.568L102.367 179.82L103.068 179.446L103.759 179.044L105.141 178.241C106.965 177.122 108.771 175.959 110.539 174.709C110.559 174.653 110.578 174.602 110.607 174.539Z" fill="black"/>
</svg>
