<svg width="230" height="230" viewBox="0 0 230 230" fill="none" xmlns="http://www.w3.org/2000/svg">
<path d="M50.8498 97.0616C52.8351 102.615 55.1395 108.049 57.7516 113.337C60.4137 118.612 63.3746 123.73 66.6198 128.667L69.1058 132.335L71.7254 135.91L72.3832 136.801L73.071 137.67L74.4464 139.408L75.8261 141.142L77.2655 142.827C79.1515 145.104 81.1791 147.255 83.1893 149.421L86.3114 152.569C86.8235 153.102 87.3711 153.598 87.9099 154.104L89.5289 155.618C93.8713 159.632 98.455 163.377 103.254 166.832C105.635 168.569 108.031 170.185 110.589 170.904C113.116 171.655 115.795 171.236 118.301 170.066C120.815 168.906 123.141 167.159 125.401 165.269L128.785 162.396C129.9 161.423 130.973 160.401 132.069 159.406C136.397 155.359 140.481 151.059 144.299 146.527C148.333 141.697 152.073 136.627 155.497 131.346L156.764 129.352C157.186 128.688 157.616 128.028 158.003 127.341L160.385 123.258L162.612 119.087C162.992 118.396 163.326 117.682 163.67 116.973L164.701 114.845C167.399 109.146 169.735 103.282 171.694 97.289L173.08 92.7718C173.515 91.266 173.903 89.7551 174.227 88.2343C174.545 86.7206 174.786 85.1919 174.951 83.6541C175.097 82.1336 175.129 80.6044 175.047 79.0792C174.937 77.0813 174.493 75.116 173.734 73.2648C172.967 71.4471 171.827 69.8106 170.387 68.461C168.904 67.1207 167.197 66.0502 165.344 65.2979C163.455 64.5145 161.491 63.9269 159.482 63.5444C157.459 63.1336 155.395 62.859 153.314 62.6419C151.22 62.4609 149.127 62.2509 147.03 62.0948C142.835 61.8089 138.633 61.6005 134.428 61.5551C117.597 61.3164 100.795 63.045 84.3643 66.7058C80.2663 67.635 76.1855 68.6435 72.1503 69.8142L69.123 70.6879C68.1172 70.9905 67.1197 71.3198 66.1178 71.6344C64.1151 72.2705 62.099 72.8871 60.2031 73.6467C59.2519 74.0243 58.3247 74.4358 57.4336 74.8917C56.5622 75.3528 55.7276 75.8803 54.9371 76.4695C53.3996 77.5771 52.1709 79.0595 51.3675 80.7757L51.0852 81.4145L50.8651 82.0811L50.7539 82.414L50.6739 82.7588L50.5129 83.4474C50.345 84.3949 50.2619 85.3555 50.2645 86.3178C50.2919 88.3143 50.5574 90.3004 51.0554 92.234C51.5565 94.234 52.1665 96.205 52.8828 98.1384L53.9374 101.102L55.0469 104.045C56.5613 107.956 58.1888 111.821 59.9295 115.639C63.4322 123.265 67.4084 130.664 71.8349 137.793C72.9297 139.582 74.0853 141.333 75.2301 143.09C76.4084 144.825 77.5781 146.566 78.8054 148.267C81.248 151.676 83.7491 155.055 86.4406 158.228C89.0769 161.42 91.9974 164.365 95.1662 167.029C98.2867 169.661 101.79 171.802 105.556 173.379C107.396 174.123 109.33 174.607 111.303 174.821C112.262 174.924 113.231 174.926 114.191 174.826C115.132 174.738 116.059 174.534 116.951 174.219C118.753 173.525 120.389 172.46 121.752 171.093C123.209 169.723 124.594 168.116 126.008 166.555C128.826 163.426 131.586 160.245 134.29 157.014C137.003 153.792 139.655 150.519 142.243 147.195C152.604 133.904 162.053 119.927 170.525 105.359C174.66 98.0808 178.258 90.4449 179.943 82.3262C180.393 80.337 180.643 78.3079 180.691 76.2689C180.758 74.3017 180.442 72.3401 179.759 70.494C179.088 68.7286 177.857 67.2316 176.254 66.2322C174.536 65.2508 172.65 64.6011 170.692 64.317C169.454 64.0922 168.177 63.9248 166.886 63.7735L163.029 63.3031C161.743 63.1456 160.451 63.0426 159.163 62.9096C157.873 62.7881 156.585 62.6425 155.292 62.5612L151.417 62.2755C150.125 62.1765 148.83 62.137 147.537 62.0646C144.95 61.9088 142.36 61.8697 139.77 61.7971C134.59 61.7317 129.407 61.7587 124.232 62.0195C121.643 62.1087 119.06 62.3074 116.476 62.4817C115.183 62.5574 113.896 62.7071 112.606 62.8161C111.317 62.9442 110.024 63.0311 108.74 63.1951C98.4396 64.3139 88.2223 66.094 78.1509 68.5244C76.898 68.833 75.623 69.1182 74.3881 69.4459C73.1443 69.755 71.9325 70.1501 70.7225 70.5288C68.3386 71.2834 66.0401 72.2854 63.8647 73.5184L63.0806 73.995C62.818 74.1522 62.5802 74.3384 62.3286 74.5077C61.8176 74.8397 61.368 75.2345 60.8983 75.6075C60.0015 76.3714 59.2011 77.2417 58.5146 78.199C58.1772 78.6693 57.8693 79.16 57.5928 79.6684C57.464 79.926 57.3544 80.1933 57.2327 80.4543C57.1036 80.7119 56.9958 80.9795 56.9104 81.2547C56.5183 82.346 56.2823 83.4872 56.2096 84.6445C56.1536 85.2258 56.1682 85.8175 56.1682 86.409C56.2075 87.0038 56.2329 87.5984 56.3267 88.1969C56.486 89.4095 56.7387 90.6079 57.0826 91.7815C57.8018 94.2012 58.696 96.5655 59.7581 98.8555C61.8787 103.572 64.1014 108.277 66.3749 112.937C70.9302 122.26 75.7586 131.466 80.8999 140.468C86.0439 149.457 91.6493 158.175 98.2043 166.114C99.8649 168.077 101.537 170.032 103.319 171.88C104.955 173.759 106.808 175.439 108.838 176.883C110.826 178.216 113.045 179.023 115.312 178.806C116.459 178.707 117.581 178.419 118.634 177.953C119.73 177.459 120.767 176.845 121.728 176.123C123.719 174.591 125.55 172.862 127.194 170.962L132.334 165.106C135.752 161.184 139.158 157.254 142.508 153.282C149.206 145.338 155.707 137.235 161.728 128.797C162.498 127.754 163.227 126.684 163.955 125.613L166.146 122.405C166.878 121.336 167.551 120.231 168.257 119.145C168.951 118.053 169.662 116.971 170.342 115.87L172.325 112.535C172.981 111.421 173.666 110.321 174.266 109.177L176.125 105.773C176.428 105.202 176.757 104.645 177.041 104.064L177.905 102.33L179.634 98.8609C180.205 97.7017 180.696 96.507 181.232 95.3316C181.748 94.1484 182.301 92.9795 182.788 91.7839L184.195 88.1756C185.19 85.7893 185.923 83.3121 186.76 80.8697C187.186 79.6734 187.544 78.454 187.833 77.2173C188.136 76.0583 188.265 74.8606 188.214 73.6637C188.18 73.1025 188.077 72.5476 187.908 72.0115C187.731 71.4922 187.479 71.0015 187.161 70.5551C186.465 69.6368 185.561 68.8974 184.523 68.3982C182.386 67.2799 179.809 66.83 177.279 66.2638L173.481 65.4404L169.659 64.7336L167.747 64.3816C167.109 64.2707 166.466 64.186 165.826 64.0867L161.981 63.5117C151.705 62.1171 141.338 61.5125 130.969 61.7034C129.673 61.6962 128.38 61.7804 127.085 61.8247C125.791 61.8817 124.495 61.9199 123.202 61.992L119.325 62.2716L117.387 62.4111L115.454 62.6068L111.588 63.0077C110.299 63.1427 109.019 63.3452 107.735 63.5108C106.453 63.6968 105.163 63.8324 103.888 64.0595L100.055 64.7035C98.7749 64.9018 97.5057 65.1615 96.2364 65.4196L92.4268 66.1848L88.6428 67.068C87.3824 67.3656 86.1171 67.6437 84.8708 67.997C82.3752 68.6848 79.844 69.2903 77.4162 70.1005C74.982 70.8855 72.6041 71.8357 70.2992 72.9445C67.5371 74.2413 64.9748 75.9266 62.6902 77.9493C60.4417 79.9189 58.7471 82.4421 57.7746 85.2686C56.8806 88.1172 56.7932 91.1579 57.5223 94.0531C58.2729 97.0257 59.3927 99.8927 60.8555 102.587C61.5667 103.967 62.3236 105.331 63.0976 106.699C63.8682 108.067 64.6383 109.433 65.4079 110.799C66.9652 113.521 68.5349 116.231 70.1173 118.927C73.2926 124.314 76.5323 129.631 79.8364 134.879C86.1679 144.919 91.612 153.042 96.123 159.652C100.635 166.261 104.224 171.352 106.943 175.272C110.939 180.952 110.722 181.087 106.941 176.44C105.056 174.112 102.302 170.573 98.8224 165.875C95.3427 161.177 91.1477 155.312 86.432 148.308C83.4449 143.878 80.4604 139.298 77.4872 134.623C74.5212 129.943 71.5907 125.155 68.7043 120.313C65.819 115.469 63.0111 110.563 60.2633 105.636C58.856 103.156 57.642 100.57 56.632 97.9036C55.5894 95.1979 55.0716 92.3184 55.1065 89.419C55.2101 86.046 56.3156 82.7802 58.2822 80.038C59.2412 78.6873 60.3541 77.4527 61.5984 76.3593C62.8219 75.2724 64.1356 74.2914 65.5252 73.427C71.0511 69.9632 77.29 68.0018 83.4448 66.4693C89.6068 64.8465 95.8462 63.533 102.139 62.5339C108.427 61.5311 114.758 60.7696 121.113 60.3909C127.465 59.9873 133.836 59.8218 140.197 60.0421C146.556 60.2378 152.912 60.6694 159.221 61.4895C165.531 62.2887 171.817 63.3144 178.022 64.718L180.354 65.2243C181.134 65.4094 181.92 65.6061 182.7 65.8492C184.324 66.2967 185.851 67.0402 187.205 68.0423C187.901 68.587 188.498 69.2476 188.969 69.9952C189.439 70.7511 189.77 71.5845 189.947 72.4565C190.235 74.1357 190.186 75.8556 189.801 77.5154C189.628 78.3213 189.418 79.1088 189.192 79.8819L188.458 82.1601L186.974 86.7082L185.272 91.1775C184.98 91.9187 184.724 92.6754 184.402 93.4042L183.447 95.596L182.493 97.7877C182.171 98.5163 181.871 99.256 181.508 99.9651L179.413 104.261L178.886 105.334L178.32 106.385L177.182 108.485C176.414 109.88 175.693 111.302 174.861 112.66L172.434 116.772C171.617 118.137 170.738 119.463 169.892 120.811L168.612 122.825C168.182 123.495 167.724 124.144 167.282 124.805L164.605 128.753L161.828 132.629L160.435 134.563L159.003 136.468L156.131 140.271L153.194 144.02C152.223 145.277 151.217 146.504 150.218 147.738C149.215 148.967 148.229 150.211 147.212 151.429C145.182 153.867 143.161 156.313 141.098 158.72C139.052 161.144 136.977 163.539 134.909 165.94L131.795 169.53C130.753 170.724 129.732 171.924 128.649 173.122C126.484 175.492 124.138 177.831 121.193 179.534C119.699 180.414 118.055 181.013 116.344 181.301C114.59 181.575 112.796 181.451 111.095 180.938C109.452 180.414 107.904 179.63 106.511 178.614C105.172 177.643 103.911 176.57 102.739 175.404C100.452 173.125 98.2953 170.771 96.2295 168.318C91.6733 162.855 87.4817 157.099 83.682 151.085C79.8472 145.066 76.3027 138.861 72.8897 132.629C69.4792 126.392 66.2161 120.102 63.1268 113.805C61.5883 110.653 60.0928 107.503 58.6405 104.354C57.1213 101.217 55.7681 98.0026 54.5865 94.7234C54.1352 93.3737 53.7594 91.9999 53.4608 90.6083C53.1652 89.1813 53 87.7303 52.9671 86.2734C52.9208 84.0214 53.3305 81.7833 54.1715 79.6937C54.4687 79.002 54.8125 78.3313 55.2004 77.6861C56.7663 75.1723 58.9116 73.0701 61.4567 71.5554C63.8887 70.1027 66.4844 68.9433 69.1893 68.1014C71.8424 67.2317 74.5384 66.6018 77.1939 65.9992C78.5285 65.7022 79.854 65.3644 81.1959 65.1012L85.214 64.2766C90.5857 63.2535 95.977 62.3119 101.408 61.6503C123.137 58.7704 145.15 58.7557 166.882 61.6067C169.577 61.9481 172.375 62.2769 175.101 63.3077C176.497 63.8183 177.788 64.5812 178.909 65.5583C180.032 66.5628 180.931 67.7931 181.547 69.1686C182.773 71.8956 182.997 74.8492 182.839 77.6602C182.753 79.0634 182.572 80.4591 182.297 81.8377C182.169 82.5208 182.046 83.2049 181.88 83.8792C181.723 84.5554 181.579 85.2352 181.389 85.902C179.926 91.2366 177.902 96.401 175.349 101.308C172.859 106.218 170.044 110.923 167.178 115.572C155.659 134.154 142.574 151.717 128.065 168.072C126.711 169.582 125.405 171.115 123.906 172.597C122.397 174.165 120.609 175.438 118.635 176.352C117.619 176.8 116.55 177.119 115.454 177.3C114.911 177.408 114.365 177.447 113.819 177.502C113.273 177.519 112.726 177.55 112.185 177.521C111.106 177.49 110.033 177.367 108.975 177.154C107.929 176.952 106.897 176.68 105.887 176.339C103.895 175.662 101.972 174.795 100.146 173.749C99.2264 173.252 98.3493 172.689 97.4668 172.134C96.6088 171.545 95.745 170.962 94.924 170.326C91.6471 167.801 88.6193 164.968 85.8819 161.866C83.1545 158.788 80.6281 155.563 78.2232 152.273C75.8116 148.982 73.4687 145.639 71.2662 142.202C66.8307 135.345 62.8117 128.227 59.2309 120.887C57.4538 117.211 55.7575 113.495 54.1976 109.72C52.6461 105.942 51.1986 102.124 49.8552 98.2642C49.1682 96.3003 48.594 94.2988 48.1354 92.2693C47.6539 90.186 47.4267 88.052 47.4586 85.914C47.4826 83.6899 47.9989 81.4987 48.9705 79.4979C49.98 77.5019 51.4579 75.7802 53.2778 74.4799C56.8547 71.9494 60.8851 70.6779 64.747 69.4839L67.6661 68.5715C68.6393 68.2688 69.6253 68.0084 70.6042 67.7251L73.5459 66.8916L76.5076 66.1331C98.5194 60.5281 121.272 58.3964 143.942 59.8148C147.568 60.028 151.172 60.3707 154.794 60.7575C158.413 61.2004 162.077 61.8471 165.567 63.2363C167.332 63.926 168.994 64.852 170.509 65.9889C172.04 67.1528 173.351 68.5797 174.382 70.203C175.386 71.8335 176.112 73.6199 176.529 75.4888C176.936 77.3268 177.126 79.2062 177.094 81.0885C176.984 84.7828 176.416 88.4492 175.404 92.0038C174.41 95.5158 173.346 98.984 172.115 102.409C169.668 109.26 166.725 115.923 163.311 122.347C156.498 135.228 147.836 147.043 137.602 157.417C136.306 158.694 135.054 160.015 133.697 161.228L131.694 163.081C131.359 163.389 131.03 163.703 130.689 164.004L129.654 164.893L127.581 166.667C126.894 167.261 126.202 167.853 125.475 168.42C124.027 169.591 122.49 170.649 120.878 171.585C119.21 172.553 117.395 173.242 115.504 173.624C113.554 173.987 111.546 173.88 109.645 173.311C107.825 172.735 106.094 171.909 104.5 170.858C103.714 170.359 102.951 169.841 102.207 169.312L100.011 167.692C76.4528 150.255 58.5401 126.278 48.501 98.7421C47.2857 95.2901 46.279 91.6728 46.1826 87.869C46.1191 85.9406 46.4 84.0163 47.0122 82.1866C47.1643 81.7224 47.3489 81.2694 47.5647 80.8311L47.8839 80.1701C48.0063 79.958 48.1381 79.7515 48.2657 79.5421C48.7677 78.7018 49.3731 77.9277 50.0677 77.238C51.4276 75.8941 52.9883 74.77 54.6938 73.9059C56.3368 73.0637 58.0297 72.3226 59.763 71.6868L64.8794 69.8187L70.049 68.1061C91.4684 61.3572 113.937 58.5623 136.357 59.8578C139.046 59.975 141.709 60.2524 144.359 60.4779C145.683 60.6091 146.998 60.7872 148.311 60.9393C149.624 61.094 150.933 61.2497 152.236 61.4561C154.835 61.8338 157.406 62.3913 159.929 63.1245C161.181 63.4955 162.412 63.9354 163.616 64.4422C164.812 64.954 165.969 65.5547 167.076 66.2391C169.28 67.5576 171.189 69.3165 172.683 71.406C174.177 73.4956 175.223 75.8707 175.758 78.3831C176.272 80.8175 176.45 83.311 176.286 85.7937C176.128 88.2272 175.77 90.6436 175.216 93.0185C174.722 95.1855 174.177 97.0334 173.676 98.5814C173.175 100.129 172.721 101.38 172.35 102.344C171.612 104.273 171.217 105.057 171.253 104.725C171.282 104.391 171.729 102.932 172.493 100.325C172.869 99.0194 173.318 97.4242 173.768 95.5272C174.294 93.35 174.701 91.1456 174.985 88.9239C175.418 85.384 175.418 81.7571 174.533 78.3398C173.679 74.9108 171.802 71.8228 169.151 69.4866C166.498 67.1583 163.151 65.6478 159.654 64.6404C156.077 63.6716 152.422 63.0159 148.731 62.6808C145.002 62.2478 141.254 61.9329 137.486 61.7361C133.721 61.5483 129.947 61.4741 126.166 61.5133C118.603 61.5935 111.052 62.1392 103.556 63.1475C97.3619 63.9715 91.214 65.1143 85.1372 66.5715C79.0064 68.0127 72.956 69.7771 67.0114 71.8572L65.8911 72.2384L64.7822 72.6524L62.5642 73.4804C61.0825 74.0284 59.5982 74.581 58.2018 75.2034C55.4079 76.4329 52.802 77.9447 51.1401 80.1286C50.3173 81.2299 49.7126 82.4784 49.3588 83.8068C49.0051 85.19 48.856 86.6176 48.9162 88.0441C49.0896 91.0585 49.7017 94.0316 50.7332 96.8694C50.7696 96.9297 50.8042 96.9868 50.8498 97.0616Z" fill="black"/>
</svg>
